G04 #@! TF.GenerationSoftware,KiCad,Pcbnew,5.1.5+dfsg1-2build2*
G04 #@! TF.CreationDate,2022-10-24T00:29:02+02:00*
G04 #@! TF.ProjectId,MBus_to_radio,4d427573-5f74-46f5-9f72-6164696f2e6b,rev?*
G04 #@! TF.SameCoordinates,Original*
G04 #@! TF.FileFunction,Legend,Bot*
G04 #@! TF.FilePolarity,Positive*
%FSLAX46Y46*%
G04 Gerber Fmt 4.6, Leading zero omitted, Abs format (unit mm)*
G04 Created by KiCad (PCBNEW 5.1.5+dfsg1-2build2) date 2022-10-24 00:29:02*
%MOMM*%
%LPD*%
G04 APERTURE LIST*
%ADD10C,0.300000*%
%ADD11C,2.202000*%
%ADD12R,2.202000X2.202000*%
%ADD13C,2.102000*%
%ADD14R,2.102000X2.102000*%
%ADD15C,3.302000*%
%ADD16C,2.032000*%
%ADD17R,2.032000X2.032000*%
G04 APERTURE END LIST*
D10*
X101012957Y-64562828D02*
X101012957Y-65062828D01*
X101798671Y-65277114D02*
X101798671Y-64562828D01*
X100298671Y-64562828D01*
X100298671Y-65277114D01*
X100298671Y-65705685D02*
X101798671Y-66205685D01*
X100298671Y-66705685D01*
X101798671Y-67205685D02*
X100298671Y-67205685D01*
X101798671Y-68062828D01*
X100298671Y-68062828D01*
X101798671Y-69919971D02*
X100298671Y-69919971D01*
X101798671Y-70777114D02*
X100941528Y-70134257D01*
X100298671Y-70777114D02*
X101155814Y-69919971D01*
X101798671Y-72062828D02*
X101012957Y-72062828D01*
X100870100Y-71991400D01*
X100798671Y-71848542D01*
X100798671Y-71562828D01*
X100870100Y-71419971D01*
X101727242Y-72062828D02*
X101798671Y-71919971D01*
X101798671Y-71562828D01*
X101727242Y-71419971D01*
X101584385Y-71348542D01*
X101441528Y-71348542D01*
X101298671Y-71419971D01*
X101227242Y-71562828D01*
X101227242Y-71919971D01*
X101155814Y-72062828D01*
X101798671Y-72777114D02*
X100798671Y-72777114D01*
X100298671Y-72777114D02*
X100370100Y-72705685D01*
X100441528Y-72777114D01*
X100370100Y-72848542D01*
X100298671Y-72777114D01*
X100441528Y-72777114D01*
X100798671Y-73277114D02*
X100798671Y-73848542D01*
X101798671Y-73491400D02*
X100512957Y-73491400D01*
X100370100Y-73562828D01*
X100298671Y-73705685D01*
X100298671Y-73848542D01*
X101798671Y-74991400D02*
X101012957Y-74991400D01*
X100870100Y-74919971D01*
X100798671Y-74777114D01*
X100798671Y-74491400D01*
X100870100Y-74348542D01*
X101727242Y-74991400D02*
X101798671Y-74848542D01*
X101798671Y-74491400D01*
X101727242Y-74348542D01*
X101584385Y-74277114D01*
X101441528Y-74277114D01*
X101298671Y-74348542D01*
X101227242Y-74491400D01*
X101227242Y-74848542D01*
X101155814Y-74991400D01*
X101798671Y-76848542D02*
X100298671Y-76848542D01*
X100798671Y-77562828D02*
X101798671Y-77562828D01*
X100941528Y-77562828D02*
X100870100Y-77634257D01*
X100798671Y-77777114D01*
X100798671Y-77991400D01*
X100870100Y-78134257D01*
X101012957Y-78205685D01*
X101798671Y-78205685D01*
X100798671Y-78705685D02*
X100798671Y-79277114D01*
X100298671Y-78919971D02*
X101584385Y-78919971D01*
X101727242Y-78991400D01*
X101798671Y-79134257D01*
X101798671Y-79277114D01*
X101727242Y-80348542D02*
X101798671Y-80205685D01*
X101798671Y-79919971D01*
X101727242Y-79777114D01*
X101584385Y-79705685D01*
X101012957Y-79705685D01*
X100870100Y-79777114D01*
X100798671Y-79919971D01*
X100798671Y-80205685D01*
X100870100Y-80348542D01*
X101012957Y-80419971D01*
X101155814Y-80419971D01*
X101298671Y-79705685D01*
X101798671Y-81062828D02*
X100798671Y-81062828D01*
X101084385Y-81062828D02*
X100941528Y-81134257D01*
X100870100Y-81205685D01*
X100798671Y-81348542D01*
X100798671Y-81491399D01*
X100798671Y-81777114D02*
X100798671Y-82348542D01*
X101798671Y-81991399D02*
X100512957Y-81991399D01*
X100370100Y-82062828D01*
X100298671Y-82205685D01*
X100298671Y-82348542D01*
X101798671Y-83491399D02*
X101012957Y-83491399D01*
X100870100Y-83419971D01*
X100798671Y-83277114D01*
X100798671Y-82991399D01*
X100870100Y-82848542D01*
X101727242Y-83491399D02*
X101798671Y-83348542D01*
X101798671Y-82991399D01*
X101727242Y-82848542D01*
X101584385Y-82777114D01*
X101441528Y-82777114D01*
X101298671Y-82848542D01*
X101227242Y-82991399D01*
X101227242Y-83348542D01*
X101155814Y-83491399D01*
X101727242Y-84848542D02*
X101798671Y-84705685D01*
X101798671Y-84419971D01*
X101727242Y-84277114D01*
X101655814Y-84205685D01*
X101512957Y-84134257D01*
X101084385Y-84134257D01*
X100941528Y-84205685D01*
X100870100Y-84277114D01*
X100798671Y-84419971D01*
X100798671Y-84705685D01*
X100870100Y-84848542D01*
X101727242Y-86062828D02*
X101798671Y-85919971D01*
X101798671Y-85634257D01*
X101727242Y-85491399D01*
X101584385Y-85419971D01*
X101012957Y-85419971D01*
X100870100Y-85491399D01*
X100798671Y-85634257D01*
X100798671Y-85919971D01*
X100870100Y-86062828D01*
X101012957Y-86134257D01*
X101155814Y-86134257D01*
X101298671Y-85419971D01*
X100298671Y-87705685D02*
X101798671Y-88205685D01*
X100298671Y-88705685D01*
X101798671Y-89991399D02*
X101798671Y-89134257D01*
X101798671Y-89562828D02*
X100298671Y-89562828D01*
X100512957Y-89419971D01*
X100655814Y-89277114D01*
X100727242Y-89134257D01*
X102848671Y-70205685D02*
X102848671Y-71062828D01*
X104348671Y-70634257D02*
X102848671Y-70634257D01*
X104348671Y-71777114D02*
X104277242Y-71634257D01*
X104205814Y-71562828D01*
X104062957Y-71491400D01*
X103634385Y-71491400D01*
X103491528Y-71562828D01*
X103420100Y-71634257D01*
X103348671Y-71777114D01*
X103348671Y-71991400D01*
X103420100Y-72134257D01*
X103491528Y-72205685D01*
X103634385Y-72277114D01*
X104062957Y-72277114D01*
X104205814Y-72205685D01*
X104277242Y-72134257D01*
X104348671Y-71991400D01*
X104348671Y-71777114D01*
X104348671Y-72919971D02*
X102848671Y-72919971D01*
X103420100Y-72919971D02*
X103348671Y-73062828D01*
X103348671Y-73348542D01*
X103420100Y-73491400D01*
X103491528Y-73562828D01*
X103634385Y-73634257D01*
X104062957Y-73634257D01*
X104205814Y-73562828D01*
X104277242Y-73491400D01*
X104348671Y-73348542D01*
X104348671Y-73062828D01*
X104277242Y-72919971D01*
X104348671Y-74277114D02*
X103348671Y-74277114D01*
X102848671Y-74277114D02*
X102920100Y-74205685D01*
X102991528Y-74277114D01*
X102920100Y-74348542D01*
X102848671Y-74277114D01*
X102991528Y-74277114D01*
X104348671Y-75634257D02*
X103562957Y-75634257D01*
X103420100Y-75562828D01*
X103348671Y-75419971D01*
X103348671Y-75134257D01*
X103420100Y-74991400D01*
X104277242Y-75634257D02*
X104348671Y-75491400D01*
X104348671Y-75134257D01*
X104277242Y-74991400D01*
X104134385Y-74919971D01*
X103991528Y-74919971D01*
X103848671Y-74991400D01*
X103777242Y-75134257D01*
X103777242Y-75491400D01*
X103705814Y-75634257D01*
X104277242Y-76277114D02*
X104348671Y-76419971D01*
X104348671Y-76705685D01*
X104277242Y-76848542D01*
X104134385Y-76919971D01*
X104062957Y-76919971D01*
X103920100Y-76848542D01*
X103848671Y-76705685D01*
X103848671Y-76491400D01*
X103777242Y-76348542D01*
X103634385Y-76277114D01*
X103562957Y-76277114D01*
X103420100Y-76348542D01*
X103348671Y-76491400D01*
X103348671Y-76705685D01*
X103420100Y-76848542D01*
X103562957Y-78705685D02*
X103562957Y-79205685D01*
X104348671Y-79419971D02*
X104348671Y-78705685D01*
X102848671Y-78705685D01*
X102848671Y-79419971D01*
X104277242Y-80705685D02*
X104348671Y-80562828D01*
X104348671Y-80277114D01*
X104277242Y-80134257D01*
X104205814Y-80062828D01*
X104062957Y-79991400D01*
X103634385Y-79991400D01*
X103491528Y-80062828D01*
X103420100Y-80134257D01*
X103348671Y-80277114D01*
X103348671Y-80562828D01*
X103420100Y-80705685D01*
X104348671Y-81348542D02*
X102848671Y-81348542D01*
X103777242Y-81491400D02*
X104348671Y-81919971D01*
X103348671Y-81919971D02*
X103920100Y-81348542D01*
X104277242Y-83134257D02*
X104348671Y-82991400D01*
X104348671Y-82705685D01*
X104277242Y-82562828D01*
X104134385Y-82491400D01*
X103562957Y-82491400D01*
X103420100Y-82562828D01*
X103348671Y-82705685D01*
X103348671Y-82991400D01*
X103420100Y-83134257D01*
X103562957Y-83205685D01*
X103705814Y-83205685D01*
X103848671Y-82491400D01*
X104348671Y-83848542D02*
X103348671Y-83848542D01*
X103634385Y-83848542D02*
X103491528Y-83919971D01*
X103420100Y-83991400D01*
X103348671Y-84134257D01*
X103348671Y-84277114D01*
X106898671Y-73169971D02*
X106898671Y-72312828D01*
X106898671Y-72741400D02*
X105398671Y-72741400D01*
X105612957Y-72598542D01*
X105755814Y-72455685D01*
X105827242Y-72312828D01*
X105398671Y-74098542D02*
X105398671Y-74241400D01*
X105470100Y-74384257D01*
X105541528Y-74455685D01*
X105684385Y-74527114D01*
X105970100Y-74598542D01*
X106327242Y-74598542D01*
X106612957Y-74527114D01*
X106755814Y-74455685D01*
X106827242Y-74384257D01*
X106898671Y-74241400D01*
X106898671Y-74098542D01*
X106827242Y-73955685D01*
X106755814Y-73884257D01*
X106612957Y-73812828D01*
X106327242Y-73741400D01*
X105970100Y-73741400D01*
X105684385Y-73812828D01*
X105541528Y-73884257D01*
X105470100Y-73955685D01*
X105398671Y-74098542D01*
X106327242Y-75241400D02*
X106327242Y-76384257D01*
X105541528Y-77027114D02*
X105470100Y-77098542D01*
X105398671Y-77241400D01*
X105398671Y-77598542D01*
X105470100Y-77741400D01*
X105541528Y-77812828D01*
X105684385Y-77884257D01*
X105827242Y-77884257D01*
X106041528Y-77812828D01*
X106898671Y-76955685D01*
X106898671Y-77884257D01*
X105398671Y-78812828D02*
X105398671Y-78955685D01*
X105470100Y-79098542D01*
X105541528Y-79169971D01*
X105684385Y-79241400D01*
X105970100Y-79312828D01*
X106327242Y-79312828D01*
X106612957Y-79241400D01*
X106755814Y-79169971D01*
X106827242Y-79098542D01*
X106898671Y-78955685D01*
X106898671Y-78812828D01*
X106827242Y-78669971D01*
X106755814Y-78598542D01*
X106612957Y-78527114D01*
X106327242Y-78455685D01*
X105970100Y-78455685D01*
X105684385Y-78527114D01*
X105541528Y-78598542D01*
X105470100Y-78669971D01*
X105398671Y-78812828D01*
X105541528Y-79884257D02*
X105470100Y-79955685D01*
X105398671Y-80098542D01*
X105398671Y-80455685D01*
X105470100Y-80598542D01*
X105541528Y-80669971D01*
X105684385Y-80741400D01*
X105827242Y-80741400D01*
X106041528Y-80669971D01*
X106898671Y-79812828D01*
X106898671Y-80741400D01*
X105541528Y-81312828D02*
X105470100Y-81384257D01*
X105398671Y-81527114D01*
X105398671Y-81884257D01*
X105470100Y-82027114D01*
X105541528Y-82098542D01*
X105684385Y-82169971D01*
X105827242Y-82169971D01*
X106041528Y-82098542D01*
X106898671Y-81241400D01*
X106898671Y-82169971D01*
%LPC*%
D11*
X118030000Y-111760000D03*
D12*
X113030000Y-111760000D03*
D13*
X105330000Y-110490000D03*
D14*
X100330000Y-110490000D03*
D15*
X99060000Y-101600000D03*
X119380000Y-101600000D03*
X119380000Y-58420000D03*
X99060000Y-58420000D03*
D16*
X120650000Y-97790000D03*
X120650000Y-95250000D03*
X120650000Y-92710000D03*
X120650000Y-90170000D03*
X120650000Y-87630000D03*
X120650000Y-85090000D03*
X120650000Y-82550000D03*
X120650000Y-80010000D03*
X120650000Y-77470000D03*
X120650000Y-74930000D03*
X120650000Y-72390000D03*
X120650000Y-69850000D03*
X120650000Y-67310000D03*
X120650000Y-64770000D03*
D17*
X120650000Y-62230000D03*
D16*
X97790000Y-97790000D03*
X97790000Y-95250000D03*
X97790000Y-92710000D03*
X97790000Y-90170000D03*
X97790000Y-87630000D03*
X97790000Y-85090000D03*
X97790000Y-82550000D03*
X97790000Y-80010000D03*
X97790000Y-77470000D03*
X97790000Y-74930000D03*
X97790000Y-72390000D03*
X97790000Y-69850000D03*
X97790000Y-67310000D03*
X97790000Y-64770000D03*
D17*
X97790000Y-62230000D03*
M02*
