M48
; DRILL file {KiCad 5.1.5+dfsg1-2build2} date Mo 24 Okt 2022 00:29:09
; FORMAT={-:-/ absolute / inch / decimal}
; #@! TF.CreationDate,2022-10-24T00:29:09+02:00
; #@! TF.GenerationSoftware,Kicad,Pcbnew,5.1.5+dfsg1-2build2
; #@! TF.FileFunction,Plated,1,2,PTH
FMAT,2
INCH
T1C0.0157
T2C0.0350
T3C0.0394
T4C0.0551
%
G90
G05
T1
X3.9485Y-2.4409
X3.9865Y-3.655
X4.0035Y-3.5955
X4.0495Y-3.6515
X4.054Y-3.979
X4.0635Y-3.486
X4.0745Y-2.4409
X4.1185Y-3.469
X4.13Y-3.979
X4.133Y-3.3755
X4.1575Y-3.738
X4.1965Y-3.3595
X4.1985Y-2.4409
X4.2095Y-3.8495
X4.271Y-3.3655
X4.307Y-3.9775
X4.3095Y-2.4409
X4.3135Y-3.1085
X4.316Y-2.9725
X4.3325Y-2.907
X4.335Y-3.3025
X4.335Y-3.381
X4.353Y-3.4675
X4.361Y-3.9205
X4.375Y-3.978
X4.3775Y-3.799
X4.379Y-3.854
X4.386Y-2.8545
X4.39Y-3.651
X4.3925Y-3.535
X4.4165Y-3.113
X4.4245Y-2.4409
X4.451Y-4.006
X4.4735Y-2.8435
X4.496Y-3.5905
X4.5035Y-3.287
X4.5155Y-3.3425
X4.516Y-3.117
X4.518Y-3.5165
X4.5425Y-2.4409
X4.5535Y-3.737
X4.5605Y-2.8475
X4.5635Y-3.3995
X4.5775Y-3.5565
X4.6195Y-3.4515
X4.624Y-3.1075
X4.648Y-2.4409
X4.656Y-3.4945
X4.659Y-3.5995
X4.6735Y-3.108
X4.682Y-2.908
T2
X3.85Y-2.45
X3.85Y-2.55
X3.85Y-2.65
X3.85Y-2.75
X3.85Y-2.85
X3.85Y-2.95
X3.85Y-3.05
X3.85Y-3.15
X3.85Y-3.25
X3.85Y-3.35
X3.85Y-3.45
X3.85Y-3.55
X3.85Y-3.65
X3.85Y-3.75
X3.85Y-3.85
X4.75Y-2.45
X4.75Y-2.55
X4.75Y-2.65
X4.75Y-2.75
X4.75Y-2.85
X4.75Y-2.95
X4.75Y-3.05
X4.75Y-3.15
X4.75Y-3.25
X4.75Y-3.35
X4.75Y-3.45
X4.75Y-3.55
X4.75Y-3.65
X4.75Y-3.75
X4.75Y-3.85
T3
X3.95Y-4.35
X4.1469Y-4.35
T4
X4.45Y-4.4
X4.6469Y-4.4
T0
M30
