G04 #@! TF.GenerationSoftware,KiCad,Pcbnew,5.1.5+dfsg1-2build2*
G04 #@! TF.CreationDate,2022-11-05T00:29:27+01:00*
G04 #@! TF.ProjectId,MBus_to_radio,4d427573-5f74-46f5-9f72-6164696f2e6b,rev?*
G04 #@! TF.SameCoordinates,Original*
G04 #@! TF.FileFunction,Legend,Top*
G04 #@! TF.FilePolarity,Positive*
%FSLAX46Y46*%
G04 Gerber Fmt 4.6, Leading zero omitted, Abs format (unit mm)*
G04 Created by KiCad (PCBNEW 5.1.5+dfsg1-2build2) date 2022-11-05 00:29:27*
%MOMM*%
%LPD*%
G04 APERTURE LIST*
%ADD10C,0.300000*%
%ADD11C,0.120000*%
%ADD12C,0.200000*%
%ADD13C,0.127000*%
%ADD14C,0.150000*%
%ADD15C,0.100000*%
%ADD16C,2.102000*%
%ADD17R,2.102000X2.102000*%
%ADD18C,2.202000*%
%ADD19R,2.202000X2.202000*%
%ADD20R,0.752000X1.322000*%
%ADD21R,0.902000X1.002000*%
%ADD22R,0.552000X0.702000*%
%ADD23R,0.802000X0.702000*%
%ADD24R,0.702000X0.552000*%
%ADD25R,0.902000X1.102000*%
%ADD26C,3.302000*%
%ADD27C,2.032000*%
%ADD28R,2.032000X2.032000*%
G04 APERTURE END LIST*
D10*
X101168671Y-82456028D02*
X100454385Y-82956028D01*
X101168671Y-83313171D02*
X99668671Y-83313171D01*
X99668671Y-82741742D01*
X99740100Y-82598885D01*
X99811528Y-82527457D01*
X99954385Y-82456028D01*
X100168671Y-82456028D01*
X100311528Y-82527457D01*
X100382957Y-82598885D01*
X100454385Y-82741742D01*
X100454385Y-83313171D01*
X101097242Y-81241742D02*
X101168671Y-81384600D01*
X101168671Y-81670314D01*
X101097242Y-81813171D01*
X100954385Y-81884600D01*
X100382957Y-81884600D01*
X100240100Y-81813171D01*
X100168671Y-81670314D01*
X100168671Y-81384600D01*
X100240100Y-81241742D01*
X100382957Y-81170314D01*
X100525814Y-81170314D01*
X100668671Y-81884600D01*
X101168671Y-80527457D02*
X100168671Y-80527457D01*
X100311528Y-80527457D02*
X100240100Y-80456028D01*
X100168671Y-80313171D01*
X100168671Y-80098885D01*
X100240100Y-79956028D01*
X100382957Y-79884600D01*
X101168671Y-79884600D01*
X100382957Y-79884600D02*
X100240100Y-79813171D01*
X100168671Y-79670314D01*
X100168671Y-79456028D01*
X100240100Y-79313171D01*
X100382957Y-79241742D01*
X101168671Y-79241742D01*
X101168671Y-78313171D02*
X101097242Y-78456028D01*
X101025814Y-78527457D01*
X100882957Y-78598885D01*
X100454385Y-78598885D01*
X100311528Y-78527457D01*
X100240100Y-78456028D01*
X100168671Y-78313171D01*
X100168671Y-78098885D01*
X100240100Y-77956028D01*
X100311528Y-77884600D01*
X100454385Y-77813171D01*
X100882957Y-77813171D01*
X101025814Y-77884600D01*
X101097242Y-77956028D01*
X101168671Y-78098885D01*
X101168671Y-78313171D01*
X100168671Y-77313171D02*
X101168671Y-76956028D01*
X100168671Y-76598885D01*
X101097242Y-75456028D02*
X101168671Y-75598885D01*
X101168671Y-75884600D01*
X101097242Y-76027457D01*
X100954385Y-76098885D01*
X100382957Y-76098885D01*
X100240100Y-76027457D01*
X100168671Y-75884600D01*
X100168671Y-75598885D01*
X100240100Y-75456028D01*
X100382957Y-75384600D01*
X100525814Y-75384600D01*
X100668671Y-76098885D01*
X101168671Y-73598885D02*
X99668671Y-73598885D01*
X101168671Y-72741742D01*
X99668671Y-72741742D01*
X101168671Y-71813171D02*
X101097242Y-71956028D01*
X101025814Y-72027457D01*
X100882957Y-72098885D01*
X100454385Y-72098885D01*
X100311528Y-72027457D01*
X100240100Y-71956028D01*
X100168671Y-71813171D01*
X100168671Y-71598885D01*
X100240100Y-71456028D01*
X100311528Y-71384600D01*
X100454385Y-71313171D01*
X100882957Y-71313171D01*
X101025814Y-71384600D01*
X101097242Y-71456028D01*
X101168671Y-71598885D01*
X101168671Y-71813171D01*
X101168671Y-70027457D02*
X99668671Y-70027457D01*
X101097242Y-70027457D02*
X101168671Y-70170314D01*
X101168671Y-70456028D01*
X101097242Y-70598885D01*
X101025814Y-70670314D01*
X100882957Y-70741742D01*
X100454385Y-70741742D01*
X100311528Y-70670314D01*
X100240100Y-70598885D01*
X100168671Y-70456028D01*
X100168671Y-70170314D01*
X100240100Y-70027457D01*
X101097242Y-68741742D02*
X101168671Y-68884600D01*
X101168671Y-69170314D01*
X101097242Y-69313171D01*
X100954385Y-69384600D01*
X100382957Y-69384600D01*
X100240100Y-69313171D01*
X100168671Y-69170314D01*
X100168671Y-68884600D01*
X100240100Y-68741742D01*
X100382957Y-68670314D01*
X100525814Y-68670314D01*
X100668671Y-69384600D01*
X101168671Y-68027457D02*
X99668671Y-68027457D01*
X100740100Y-67527457D01*
X99668671Y-67027457D01*
X101168671Y-67027457D01*
X101025814Y-65456028D02*
X101097242Y-65527457D01*
X101168671Y-65741742D01*
X101168671Y-65884600D01*
X101097242Y-66098885D01*
X100954385Y-66241742D01*
X100811528Y-66313171D01*
X100525814Y-66384600D01*
X100311528Y-66384600D01*
X100025814Y-66313171D01*
X99882957Y-66241742D01*
X99740100Y-66098885D01*
X99668671Y-65884600D01*
X99668671Y-65741742D01*
X99740100Y-65527457D01*
X99811528Y-65456028D01*
X99668671Y-64813171D02*
X100882957Y-64813171D01*
X101025814Y-64741742D01*
X101097242Y-64670314D01*
X101168671Y-64527457D01*
X101168671Y-64241742D01*
X101097242Y-64098885D01*
X101025814Y-64027457D01*
X100882957Y-63956028D01*
X99668671Y-63956028D01*
X102718671Y-84491742D02*
X103718671Y-84206028D01*
X103004385Y-83920314D01*
X103718671Y-83634600D01*
X102718671Y-83348885D01*
X103718671Y-82777457D02*
X102218671Y-82777457D01*
X103718671Y-82134600D02*
X102932957Y-82134600D01*
X102790100Y-82206028D01*
X102718671Y-82348885D01*
X102718671Y-82563171D01*
X102790100Y-82706028D01*
X102861528Y-82777457D01*
X103647242Y-80848885D02*
X103718671Y-80991742D01*
X103718671Y-81277457D01*
X103647242Y-81420314D01*
X103504385Y-81491742D01*
X102932957Y-81491742D01*
X102790100Y-81420314D01*
X102718671Y-81277457D01*
X102718671Y-80991742D01*
X102790100Y-80848885D01*
X102932957Y-80777457D01*
X103075814Y-80777457D01*
X103218671Y-81491742D01*
X102718671Y-80134600D02*
X103718671Y-80134600D01*
X102861528Y-80134600D02*
X102790100Y-80063171D01*
X102718671Y-79920314D01*
X102718671Y-79706028D01*
X102790100Y-79563171D01*
X102932957Y-79491742D01*
X103718671Y-79491742D01*
X102718671Y-77634600D02*
X104218671Y-77634600D01*
X102790100Y-77634600D02*
X102718671Y-77491742D01*
X102718671Y-77206028D01*
X102790100Y-77063171D01*
X102861528Y-76991742D01*
X103004385Y-76920314D01*
X103432957Y-76920314D01*
X103575814Y-76991742D01*
X103647242Y-77063171D01*
X103718671Y-77206028D01*
X103718671Y-77491742D01*
X103647242Y-77634600D01*
X103718671Y-76277457D02*
X102718671Y-76277457D01*
X103004385Y-76277457D02*
X102861528Y-76206028D01*
X102790100Y-76134600D01*
X102718671Y-75991742D01*
X102718671Y-75848885D01*
X103718671Y-75134600D02*
X103647242Y-75277457D01*
X103575814Y-75348885D01*
X103432957Y-75420314D01*
X103004385Y-75420314D01*
X102861528Y-75348885D01*
X102790100Y-75277457D01*
X102718671Y-75134600D01*
X102718671Y-74920314D01*
X102790100Y-74777457D01*
X102861528Y-74706028D01*
X103004385Y-74634600D01*
X103432957Y-74634600D01*
X103575814Y-74706028D01*
X103647242Y-74777457D01*
X103718671Y-74920314D01*
X103718671Y-75134600D01*
X102718671Y-73348885D02*
X103932957Y-73348885D01*
X104075814Y-73420314D01*
X104147242Y-73491742D01*
X104218671Y-73634600D01*
X104218671Y-73848885D01*
X104147242Y-73991742D01*
X103647242Y-73348885D02*
X103718671Y-73491742D01*
X103718671Y-73777457D01*
X103647242Y-73920314D01*
X103575814Y-73991742D01*
X103432957Y-74063171D01*
X103004385Y-74063171D01*
X102861528Y-73991742D01*
X102790100Y-73920314D01*
X102718671Y-73777457D01*
X102718671Y-73491742D01*
X102790100Y-73348885D01*
X103718671Y-72634600D02*
X102718671Y-72634600D01*
X103004385Y-72634600D02*
X102861528Y-72563171D01*
X102790100Y-72491742D01*
X102718671Y-72348885D01*
X102718671Y-72206028D01*
X103718671Y-71063171D02*
X102932957Y-71063171D01*
X102790100Y-71134600D01*
X102718671Y-71277457D01*
X102718671Y-71563171D01*
X102790100Y-71706028D01*
X103647242Y-71063171D02*
X103718671Y-71206028D01*
X103718671Y-71563171D01*
X103647242Y-71706028D01*
X103504385Y-71777457D01*
X103361528Y-71777457D01*
X103218671Y-71706028D01*
X103147242Y-71563171D01*
X103147242Y-71206028D01*
X103075814Y-71063171D01*
X103718671Y-70348885D02*
X102718671Y-70348885D01*
X102861528Y-70348885D02*
X102790100Y-70277457D01*
X102718671Y-70134600D01*
X102718671Y-69920314D01*
X102790100Y-69777457D01*
X102932957Y-69706028D01*
X103718671Y-69706028D01*
X102932957Y-69706028D02*
X102790100Y-69634600D01*
X102718671Y-69491742D01*
X102718671Y-69277457D01*
X102790100Y-69134600D01*
X102932957Y-69063171D01*
X103718671Y-69063171D01*
X103718671Y-68348885D02*
X102718671Y-68348885D01*
X102861528Y-68348885D02*
X102790100Y-68277457D01*
X102718671Y-68134600D01*
X102718671Y-67920314D01*
X102790100Y-67777457D01*
X102932957Y-67706028D01*
X103718671Y-67706028D01*
X102932957Y-67706028D02*
X102790100Y-67634600D01*
X102718671Y-67491742D01*
X102718671Y-67277457D01*
X102790100Y-67134600D01*
X102932957Y-67063171D01*
X103718671Y-67063171D01*
X103718671Y-66348885D02*
X102718671Y-66348885D01*
X102218671Y-66348885D02*
X102290100Y-66420314D01*
X102361528Y-66348885D01*
X102290100Y-66277457D01*
X102218671Y-66348885D01*
X102361528Y-66348885D01*
X102718671Y-65634600D02*
X103718671Y-65634600D01*
X102861528Y-65634600D02*
X102790100Y-65563171D01*
X102718671Y-65420314D01*
X102718671Y-65206028D01*
X102790100Y-65063171D01*
X102932957Y-64991742D01*
X103718671Y-64991742D01*
X102718671Y-63634600D02*
X103932957Y-63634600D01*
X104075814Y-63706028D01*
X104147242Y-63777457D01*
X104218671Y-63920314D01*
X104218671Y-64134600D01*
X104147242Y-64277457D01*
X103647242Y-63634600D02*
X103718671Y-63777457D01*
X103718671Y-64063171D01*
X103647242Y-64206028D01*
X103575814Y-64277457D01*
X103432957Y-64348885D01*
X103004385Y-64348885D01*
X102861528Y-64277457D01*
X102790100Y-64206028D01*
X102718671Y-64063171D01*
X102718671Y-63777457D01*
X102790100Y-63634600D01*
X103575814Y-62920314D02*
X103647242Y-62848885D01*
X103718671Y-62920314D01*
X103647242Y-62991742D01*
X103575814Y-62920314D01*
X103718671Y-62920314D01*
X103147242Y-62920314D02*
X102290100Y-62991742D01*
X102218671Y-62920314D01*
X102290100Y-62848885D01*
X103147242Y-62920314D01*
X102218671Y-62920314D01*
D11*
X105158000Y-87564279D02*
X105158000Y-87238721D01*
X104138000Y-87564279D02*
X104138000Y-87238721D01*
X102575900Y-88915021D02*
X102575900Y-89240579D01*
X103595900Y-88915021D02*
X103595900Y-89240579D01*
D12*
X113130000Y-106960000D02*
G75*
G03X113130000Y-106960000I-100000J0D01*
G01*
D13*
X120530000Y-115760000D02*
X110530000Y-115760000D01*
X110530000Y-107960000D02*
X120530000Y-107960000D01*
X120530000Y-107960000D02*
X120530000Y-115760000D01*
X110530000Y-115760000D02*
X110530000Y-107960000D01*
D11*
X107481400Y-90447600D02*
X107481400Y-92877600D01*
X110551400Y-92207600D02*
X110551400Y-90447600D01*
X112494600Y-93563121D02*
X112494600Y-93888679D01*
X113514600Y-93563121D02*
X113514600Y-93888679D01*
X112520000Y-96788921D02*
X112520000Y-97114479D01*
X113540000Y-96788921D02*
X113540000Y-97114479D01*
X113759100Y-80240600D02*
X113759100Y-81700600D01*
X110599100Y-80240600D02*
X110599100Y-82400600D01*
X110599100Y-80240600D02*
X111529100Y-80240600D01*
X113759100Y-80240600D02*
X112829100Y-80240600D01*
X113759100Y-75944700D02*
X113759100Y-77404700D01*
X110599100Y-75944700D02*
X110599100Y-78104700D01*
X110599100Y-75944700D02*
X111529100Y-75944700D01*
X113759100Y-75944700D02*
X112829100Y-75944700D01*
X104113500Y-90657136D02*
X104113500Y-91861264D01*
X106833500Y-90657136D02*
X106833500Y-91861264D01*
X114567600Y-76188700D02*
X114567600Y-73638700D01*
X116267600Y-76188700D02*
X116267600Y-73638700D01*
X114567600Y-76188700D02*
X116267600Y-76188700D01*
X116144600Y-96821800D02*
X116144600Y-98671800D01*
X114944600Y-96821800D02*
X114944600Y-98671800D01*
X114944600Y-98671800D02*
X116144600Y-98671800D01*
X107161200Y-102388300D02*
X109711200Y-102388300D01*
X107161200Y-104088300D02*
X109711200Y-104088300D01*
X107161200Y-102388300D02*
X107161200Y-104088300D01*
X116800000Y-105070000D02*
X116000000Y-105070000D01*
X116800000Y-100670000D02*
X116800000Y-105070000D01*
X116000000Y-100670000D02*
X116800000Y-100670000D01*
X111800000Y-100670000D02*
X111800000Y-105070000D01*
X112600000Y-100670000D02*
X111800000Y-100670000D01*
X113500000Y-105070000D02*
X115100000Y-105070000D01*
X113500000Y-100670000D02*
X115100000Y-100670000D01*
X112300000Y-105070000D02*
X112300000Y-106470000D01*
X111800000Y-105070000D02*
X112300000Y-105070000D01*
X117934200Y-76667679D02*
X117934200Y-76342121D01*
X116914200Y-76667679D02*
X116914200Y-76342121D01*
X103026800Y-96041936D02*
X103026800Y-97246064D01*
X104846800Y-96041936D02*
X104846800Y-97246064D01*
X100512200Y-96041936D02*
X100512200Y-97246064D01*
X102332200Y-96041936D02*
X102332200Y-97246064D01*
X107223879Y-87577200D02*
X106898321Y-87577200D01*
X107223879Y-88597200D02*
X106898321Y-88597200D01*
X110132179Y-94155800D02*
X109806621Y-94155800D01*
X110132179Y-95175800D02*
X109806621Y-95175800D01*
X97850354Y-107115000D02*
X97850354Y-108115000D01*
X97350354Y-107615000D02*
X98350354Y-107615000D01*
X107911000Y-109891000D02*
X107911000Y-111089000D01*
X107871000Y-109628000D02*
X107871000Y-111352000D01*
X107831000Y-109428000D02*
X107831000Y-111552000D01*
X107791000Y-109260000D02*
X107791000Y-111720000D01*
X107751000Y-109112000D02*
X107751000Y-111868000D01*
X107711000Y-108980000D02*
X107711000Y-112000000D01*
X107671000Y-108860000D02*
X107671000Y-112120000D01*
X107631000Y-108748000D02*
X107631000Y-112232000D01*
X107591000Y-108644000D02*
X107591000Y-112336000D01*
X107551000Y-108546000D02*
X107551000Y-112434000D01*
X107511000Y-108453000D02*
X107511000Y-112527000D01*
X107471000Y-108365000D02*
X107471000Y-112615000D01*
X107431000Y-108281000D02*
X107431000Y-112699000D01*
X107391000Y-108201000D02*
X107391000Y-112779000D01*
X107351000Y-108125000D02*
X107351000Y-112855000D01*
X107311000Y-108051000D02*
X107311000Y-112929000D01*
X107271000Y-107980000D02*
X107271000Y-113000000D01*
X107231000Y-107911000D02*
X107231000Y-113069000D01*
X107191000Y-107845000D02*
X107191000Y-113135000D01*
X107151000Y-107781000D02*
X107151000Y-113199000D01*
X107111000Y-107720000D02*
X107111000Y-113260000D01*
X107071000Y-107660000D02*
X107071000Y-113320000D01*
X107031000Y-107601000D02*
X107031000Y-113379000D01*
X106991000Y-107545000D02*
X106991000Y-113435000D01*
X106951000Y-107490000D02*
X106951000Y-113490000D01*
X106911000Y-107436000D02*
X106911000Y-113544000D01*
X106871000Y-107384000D02*
X106871000Y-113596000D01*
X106831000Y-107334000D02*
X106831000Y-113646000D01*
X106791000Y-107284000D02*
X106791000Y-113696000D01*
X106751000Y-107236000D02*
X106751000Y-113744000D01*
X106711000Y-107189000D02*
X106711000Y-113791000D01*
X106671000Y-107143000D02*
X106671000Y-113837000D01*
X106631000Y-107098000D02*
X106631000Y-113882000D01*
X106591000Y-107054000D02*
X106591000Y-113926000D01*
X106551000Y-111731000D02*
X106551000Y-113968000D01*
X106551000Y-107012000D02*
X106551000Y-109249000D01*
X106511000Y-111731000D02*
X106511000Y-114010000D01*
X106511000Y-106970000D02*
X106511000Y-109249000D01*
X106471000Y-111731000D02*
X106471000Y-114051000D01*
X106471000Y-106929000D02*
X106471000Y-109249000D01*
X106431000Y-111731000D02*
X106431000Y-114091000D01*
X106431000Y-106889000D02*
X106431000Y-109249000D01*
X106391000Y-111731000D02*
X106391000Y-114130000D01*
X106391000Y-106850000D02*
X106391000Y-109249000D01*
X106351000Y-111731000D02*
X106351000Y-114169000D01*
X106351000Y-106811000D02*
X106351000Y-109249000D01*
X106311000Y-111731000D02*
X106311000Y-114206000D01*
X106311000Y-106774000D02*
X106311000Y-109249000D01*
X106271000Y-111731000D02*
X106271000Y-114243000D01*
X106271000Y-106737000D02*
X106271000Y-109249000D01*
X106231000Y-111731000D02*
X106231000Y-114279000D01*
X106231000Y-106701000D02*
X106231000Y-109249000D01*
X106191000Y-111731000D02*
X106191000Y-114314000D01*
X106191000Y-106666000D02*
X106191000Y-109249000D01*
X106151000Y-111731000D02*
X106151000Y-114348000D01*
X106151000Y-106632000D02*
X106151000Y-109249000D01*
X106111000Y-111731000D02*
X106111000Y-114382000D01*
X106111000Y-106598000D02*
X106111000Y-109249000D01*
X106071000Y-111731000D02*
X106071000Y-114415000D01*
X106071000Y-106565000D02*
X106071000Y-109249000D01*
X106031000Y-111731000D02*
X106031000Y-114447000D01*
X106031000Y-106533000D02*
X106031000Y-109249000D01*
X105991000Y-111731000D02*
X105991000Y-114479000D01*
X105991000Y-106501000D02*
X105991000Y-109249000D01*
X105951000Y-111731000D02*
X105951000Y-114510000D01*
X105951000Y-106470000D02*
X105951000Y-109249000D01*
X105911000Y-111731000D02*
X105911000Y-114540000D01*
X105911000Y-106440000D02*
X105911000Y-109249000D01*
X105871000Y-111731000D02*
X105871000Y-114570000D01*
X105871000Y-106410000D02*
X105871000Y-109249000D01*
X105831000Y-111731000D02*
X105831000Y-114600000D01*
X105831000Y-106380000D02*
X105831000Y-109249000D01*
X105791000Y-111731000D02*
X105791000Y-114628000D01*
X105791000Y-106352000D02*
X105791000Y-109249000D01*
X105751000Y-111731000D02*
X105751000Y-114656000D01*
X105751000Y-106324000D02*
X105751000Y-109249000D01*
X105711000Y-111731000D02*
X105711000Y-114684000D01*
X105711000Y-106296000D02*
X105711000Y-109249000D01*
X105671000Y-111731000D02*
X105671000Y-114711000D01*
X105671000Y-106269000D02*
X105671000Y-109249000D01*
X105631000Y-111731000D02*
X105631000Y-114737000D01*
X105631000Y-106243000D02*
X105631000Y-109249000D01*
X105591000Y-111731000D02*
X105591000Y-114763000D01*
X105591000Y-106217000D02*
X105591000Y-109249000D01*
X105551000Y-111731000D02*
X105551000Y-114788000D01*
X105551000Y-106192000D02*
X105551000Y-109249000D01*
X105511000Y-111731000D02*
X105511000Y-114813000D01*
X105511000Y-106167000D02*
X105511000Y-109249000D01*
X105471000Y-111731000D02*
X105471000Y-114837000D01*
X105471000Y-106143000D02*
X105471000Y-109249000D01*
X105431000Y-111731000D02*
X105431000Y-114861000D01*
X105431000Y-106119000D02*
X105431000Y-109249000D01*
X105391000Y-111731000D02*
X105391000Y-114885000D01*
X105391000Y-106095000D02*
X105391000Y-109249000D01*
X105351000Y-111731000D02*
X105351000Y-114907000D01*
X105351000Y-106073000D02*
X105351000Y-109249000D01*
X105311000Y-111731000D02*
X105311000Y-114930000D01*
X105311000Y-106050000D02*
X105311000Y-109249000D01*
X105271000Y-111731000D02*
X105271000Y-114952000D01*
X105271000Y-106028000D02*
X105271000Y-109249000D01*
X105231000Y-111731000D02*
X105231000Y-114973000D01*
X105231000Y-106007000D02*
X105231000Y-109249000D01*
X105191000Y-111731000D02*
X105191000Y-114994000D01*
X105191000Y-105986000D02*
X105191000Y-109249000D01*
X105151000Y-111731000D02*
X105151000Y-115015000D01*
X105151000Y-105965000D02*
X105151000Y-109249000D01*
X105111000Y-111731000D02*
X105111000Y-115035000D01*
X105111000Y-105945000D02*
X105111000Y-109249000D01*
X105071000Y-111731000D02*
X105071000Y-115054000D01*
X105071000Y-105926000D02*
X105071000Y-109249000D01*
X105031000Y-111731000D02*
X105031000Y-115074000D01*
X105031000Y-105906000D02*
X105031000Y-109249000D01*
X104991000Y-111731000D02*
X104991000Y-115093000D01*
X104991000Y-105887000D02*
X104991000Y-109249000D01*
X104951000Y-111731000D02*
X104951000Y-115111000D01*
X104951000Y-105869000D02*
X104951000Y-109249000D01*
X104911000Y-111731000D02*
X104911000Y-115129000D01*
X104911000Y-105851000D02*
X104911000Y-109249000D01*
X104871000Y-111731000D02*
X104871000Y-115147000D01*
X104871000Y-105833000D02*
X104871000Y-109249000D01*
X104831000Y-111731000D02*
X104831000Y-115164000D01*
X104831000Y-105816000D02*
X104831000Y-109249000D01*
X104791000Y-111731000D02*
X104791000Y-115180000D01*
X104791000Y-105800000D02*
X104791000Y-109249000D01*
X104751000Y-111731000D02*
X104751000Y-115197000D01*
X104751000Y-105783000D02*
X104751000Y-109249000D01*
X104711000Y-111731000D02*
X104711000Y-115213000D01*
X104711000Y-105767000D02*
X104711000Y-109249000D01*
X104671000Y-111731000D02*
X104671000Y-115228000D01*
X104671000Y-105752000D02*
X104671000Y-109249000D01*
X104631000Y-111731000D02*
X104631000Y-115244000D01*
X104631000Y-105736000D02*
X104631000Y-109249000D01*
X104591000Y-111731000D02*
X104591000Y-115258000D01*
X104591000Y-105722000D02*
X104591000Y-109249000D01*
X104551000Y-111731000D02*
X104551000Y-115273000D01*
X104551000Y-105707000D02*
X104551000Y-109249000D01*
X104511000Y-111731000D02*
X104511000Y-115287000D01*
X104511000Y-105693000D02*
X104511000Y-109249000D01*
X104471000Y-111731000D02*
X104471000Y-115301000D01*
X104471000Y-105679000D02*
X104471000Y-109249000D01*
X104431000Y-111731000D02*
X104431000Y-115314000D01*
X104431000Y-105666000D02*
X104431000Y-109249000D01*
X104391000Y-111731000D02*
X104391000Y-115327000D01*
X104391000Y-105653000D02*
X104391000Y-109249000D01*
X104351000Y-111731000D02*
X104351000Y-115340000D01*
X104351000Y-105640000D02*
X104351000Y-109249000D01*
X104311000Y-111731000D02*
X104311000Y-115352000D01*
X104311000Y-105628000D02*
X104311000Y-109249000D01*
X104271000Y-111731000D02*
X104271000Y-115364000D01*
X104271000Y-105616000D02*
X104271000Y-109249000D01*
X104231000Y-111731000D02*
X104231000Y-115375000D01*
X104231000Y-105605000D02*
X104231000Y-109249000D01*
X104191000Y-111731000D02*
X104191000Y-115387000D01*
X104191000Y-105593000D02*
X104191000Y-109249000D01*
X104151000Y-111731000D02*
X104151000Y-115397000D01*
X104151000Y-105583000D02*
X104151000Y-109249000D01*
X104111000Y-111731000D02*
X104111000Y-115408000D01*
X104111000Y-105572000D02*
X104111000Y-109249000D01*
X104071000Y-105562000D02*
X104071000Y-115418000D01*
X104031000Y-105552000D02*
X104031000Y-115428000D01*
X103991000Y-105543000D02*
X103991000Y-115437000D01*
X103951000Y-105534000D02*
X103951000Y-115446000D01*
X103911000Y-105525000D02*
X103911000Y-115455000D01*
X103871000Y-105516000D02*
X103871000Y-115464000D01*
X103831000Y-105508000D02*
X103831000Y-115472000D01*
X103791000Y-105500000D02*
X103791000Y-115480000D01*
X103751000Y-105493000D02*
X103751000Y-115487000D01*
X103711000Y-105486000D02*
X103711000Y-115494000D01*
X103671000Y-105479000D02*
X103671000Y-115501000D01*
X103631000Y-105472000D02*
X103631000Y-115508000D01*
X103591000Y-105466000D02*
X103591000Y-115514000D01*
X103551000Y-105460000D02*
X103551000Y-115520000D01*
X103510000Y-105455000D02*
X103510000Y-115525000D01*
X103470000Y-105450000D02*
X103470000Y-115530000D01*
X103430000Y-105445000D02*
X103430000Y-115535000D01*
X103390000Y-105440000D02*
X103390000Y-115540000D01*
X103350000Y-105436000D02*
X103350000Y-115544000D01*
X103310000Y-105432000D02*
X103310000Y-115548000D01*
X103270000Y-105428000D02*
X103270000Y-115552000D01*
X103230000Y-105425000D02*
X103230000Y-115555000D01*
X103190000Y-105422000D02*
X103190000Y-115558000D01*
X103150000Y-105420000D02*
X103150000Y-115560000D01*
X103110000Y-105417000D02*
X103110000Y-115563000D01*
X103070000Y-105415000D02*
X103070000Y-115565000D01*
X103030000Y-105413000D02*
X103030000Y-115567000D01*
X102990000Y-105412000D02*
X102990000Y-115568000D01*
X102950000Y-105411000D02*
X102950000Y-115569000D01*
X102910000Y-105410000D02*
X102910000Y-115570000D01*
X102870000Y-105410000D02*
X102870000Y-115570000D01*
X102830000Y-105410000D02*
X102830000Y-115570000D01*
X107950000Y-110490000D02*
G75*
G03X107950000Y-110490000I-5120000J0D01*
G01*
D12*
X123130000Y-62230000D02*
G75*
G03X123130000Y-62230000I-100000J0D01*
G01*
X95510000Y-62230000D02*
G75*
G03X95510000Y-62230000I-100000J0D01*
G01*
D13*
X119380000Y-104140000D02*
X99060000Y-104140000D01*
X121920000Y-101600000D02*
G75*
G02X119380000Y-104140000I-2540000J0D01*
G01*
X121920000Y-58420000D02*
X121920000Y-101600000D01*
X119380000Y-55880000D02*
G75*
G02X121920000Y-58420000I0J-2540000D01*
G01*
X96520000Y-101600000D02*
G75*
G03X99060000Y-104140000I2540000J0D01*
G01*
X99060000Y-55880000D02*
X119380000Y-55880000D01*
X96520000Y-58420000D02*
G75*
G02X99060000Y-55880000I2540000J0D01*
G01*
X96520000Y-101600000D02*
X96520000Y-58420000D01*
D14*
X105163880Y-85180466D02*
X104687690Y-85513800D01*
X105163880Y-85751895D02*
X104163880Y-85751895D01*
X104163880Y-85370942D01*
X104211500Y-85275704D01*
X104259119Y-85228085D01*
X104354357Y-85180466D01*
X104497214Y-85180466D01*
X104592452Y-85228085D01*
X104640071Y-85275704D01*
X104687690Y-85370942D01*
X104687690Y-85751895D01*
X104163880Y-84847133D02*
X104163880Y-84228085D01*
X104544833Y-84561419D01*
X104544833Y-84418561D01*
X104592452Y-84323323D01*
X104640071Y-84275704D01*
X104735309Y-84228085D01*
X104973404Y-84228085D01*
X105068642Y-84275704D01*
X105116261Y-84323323D01*
X105163880Y-84418561D01*
X105163880Y-84704276D01*
X105116261Y-84799514D01*
X105068642Y-84847133D01*
X103506542Y-86831466D02*
X103554161Y-86879085D01*
X103601780Y-87021942D01*
X103601780Y-87117180D01*
X103554161Y-87260038D01*
X103458923Y-87355276D01*
X103363685Y-87402895D01*
X103173209Y-87450514D01*
X103030352Y-87450514D01*
X102839876Y-87402895D01*
X102744638Y-87355276D01*
X102649400Y-87260038D01*
X102601780Y-87117180D01*
X102601780Y-87021942D01*
X102649400Y-86879085D01*
X102697019Y-86831466D01*
X103030352Y-86260038D02*
X102982733Y-86355276D01*
X102935114Y-86402895D01*
X102839876Y-86450514D01*
X102792257Y-86450514D01*
X102697019Y-86402895D01*
X102649400Y-86355276D01*
X102601780Y-86260038D01*
X102601780Y-86069561D01*
X102649400Y-85974323D01*
X102697019Y-85926704D01*
X102792257Y-85879085D01*
X102839876Y-85879085D01*
X102935114Y-85926704D01*
X102982733Y-85974323D01*
X103030352Y-86069561D01*
X103030352Y-86260038D01*
X103077971Y-86355276D01*
X103125590Y-86402895D01*
X103220828Y-86450514D01*
X103411304Y-86450514D01*
X103506542Y-86402895D01*
X103554161Y-86355276D01*
X103601780Y-86260038D01*
X103601780Y-86069561D01*
X103554161Y-85974323D01*
X103506542Y-85926704D01*
X103411304Y-85879085D01*
X103220828Y-85879085D01*
X103125590Y-85926704D01*
X103077971Y-85974323D01*
X103030352Y-86069561D01*
X107921566Y-114117533D02*
X108854900Y-115517533D01*
X108854900Y-114117533D02*
X107921566Y-115517533D01*
X110121566Y-115517533D02*
X109321566Y-115517533D01*
X109721566Y-115517533D02*
X109721566Y-114117533D01*
X109588233Y-114317533D01*
X109454900Y-114450866D01*
X109321566Y-114517533D01*
X110907580Y-91859004D02*
X111717104Y-91859004D01*
X111812342Y-91811385D01*
X111859961Y-91763766D01*
X111907580Y-91668528D01*
X111907580Y-91478052D01*
X111859961Y-91382814D01*
X111812342Y-91335195D01*
X111717104Y-91287576D01*
X110907580Y-91287576D01*
X111907580Y-90287576D02*
X111907580Y-90859004D01*
X111907580Y-90573290D02*
X110907580Y-90573290D01*
X111050438Y-90668528D01*
X111145676Y-90763766D01*
X111193295Y-90859004D01*
X114886980Y-93892566D02*
X114410790Y-94225900D01*
X114886980Y-94463995D02*
X113886980Y-94463995D01*
X113886980Y-94083042D01*
X113934600Y-93987804D01*
X113982219Y-93940185D01*
X114077457Y-93892566D01*
X114220314Y-93892566D01*
X114315552Y-93940185D01*
X114363171Y-93987804D01*
X114410790Y-94083042D01*
X114410790Y-94463995D01*
X113982219Y-93511614D02*
X113934600Y-93463995D01*
X113886980Y-93368757D01*
X113886980Y-93130661D01*
X113934600Y-93035423D01*
X113982219Y-92987804D01*
X114077457Y-92940185D01*
X114172695Y-92940185D01*
X114315552Y-92987804D01*
X114886980Y-93559233D01*
X114886980Y-92940185D01*
X112021880Y-97855066D02*
X111545690Y-98188400D01*
X112021880Y-98426495D02*
X111021880Y-98426495D01*
X111021880Y-98045542D01*
X111069500Y-97950304D01*
X111117119Y-97902685D01*
X111212357Y-97855066D01*
X111355214Y-97855066D01*
X111450452Y-97902685D01*
X111498071Y-97950304D01*
X111545690Y-98045542D01*
X111545690Y-98426495D01*
X112021880Y-96902685D02*
X112021880Y-97474114D01*
X112021880Y-97188400D02*
X111021880Y-97188400D01*
X111164738Y-97283638D01*
X111259976Y-97378876D01*
X111307595Y-97474114D01*
X110226719Y-81095838D02*
X110179100Y-81191076D01*
X110083861Y-81286314D01*
X109941004Y-81429171D01*
X109893385Y-81524409D01*
X109893385Y-81619647D01*
X110131480Y-81572028D02*
X110083861Y-81667266D01*
X109988623Y-81762504D01*
X109798147Y-81810123D01*
X109464814Y-81810123D01*
X109274338Y-81762504D01*
X109179100Y-81667266D01*
X109131480Y-81572028D01*
X109131480Y-81381552D01*
X109179100Y-81286314D01*
X109274338Y-81191076D01*
X109464814Y-81143457D01*
X109798147Y-81143457D01*
X109988623Y-81191076D01*
X110083861Y-81286314D01*
X110131480Y-81381552D01*
X110131480Y-81572028D01*
X109226719Y-80762504D02*
X109179100Y-80714885D01*
X109131480Y-80619647D01*
X109131480Y-80381552D01*
X109179100Y-80286314D01*
X109226719Y-80238695D01*
X109321957Y-80191076D01*
X109417195Y-80191076D01*
X109560052Y-80238695D01*
X110131480Y-80810123D01*
X110131480Y-80191076D01*
X110226719Y-76799938D02*
X110179100Y-76895176D01*
X110083861Y-76990414D01*
X109941004Y-77133271D01*
X109893385Y-77228509D01*
X109893385Y-77323747D01*
X110131480Y-77276128D02*
X110083861Y-77371366D01*
X109988623Y-77466604D01*
X109798147Y-77514223D01*
X109464814Y-77514223D01*
X109274338Y-77466604D01*
X109179100Y-77371366D01*
X109131480Y-77276128D01*
X109131480Y-77085652D01*
X109179100Y-76990414D01*
X109274338Y-76895176D01*
X109464814Y-76847557D01*
X109798147Y-76847557D01*
X109988623Y-76895176D01*
X110083861Y-76990414D01*
X110131480Y-77085652D01*
X110131480Y-77276128D01*
X110131480Y-75895176D02*
X110131480Y-76466604D01*
X110131480Y-76180890D02*
X109131480Y-76180890D01*
X109274338Y-76276128D01*
X109369576Y-76371366D01*
X109417195Y-76466604D01*
X103627180Y-91632066D02*
X103627180Y-92108257D01*
X102627180Y-92108257D01*
X103627180Y-90774923D02*
X103627180Y-91346352D01*
X103627180Y-91060638D02*
X102627180Y-91060638D01*
X102770038Y-91155876D01*
X102865276Y-91251114D01*
X102912895Y-91346352D01*
X115819180Y-78038895D02*
X114819180Y-78038895D01*
X114819180Y-77800800D01*
X114866800Y-77657942D01*
X114962038Y-77562704D01*
X115057276Y-77515085D01*
X115247752Y-77467466D01*
X115390609Y-77467466D01*
X115581085Y-77515085D01*
X115676323Y-77562704D01*
X115771561Y-77657942D01*
X115819180Y-77800800D01*
X115819180Y-78038895D01*
X115152514Y-76610323D02*
X115819180Y-76610323D01*
X114771561Y-76848419D02*
X115485847Y-77086514D01*
X115485847Y-76467466D01*
X117393980Y-98248695D02*
X116393980Y-98248695D01*
X116393980Y-98010600D01*
X116441600Y-97867742D01*
X116536838Y-97772504D01*
X116632076Y-97724885D01*
X116822552Y-97677266D01*
X116965409Y-97677266D01*
X117155885Y-97724885D01*
X117251123Y-97772504D01*
X117346361Y-97867742D01*
X117393980Y-98010600D01*
X117393980Y-98248695D01*
X116393980Y-97343933D02*
X116393980Y-96724885D01*
X116774933Y-97058219D01*
X116774933Y-96915361D01*
X116822552Y-96820123D01*
X116870171Y-96772504D01*
X116965409Y-96724885D01*
X117203504Y-96724885D01*
X117298742Y-96772504D01*
X117346361Y-96820123D01*
X117393980Y-96915361D01*
X117393980Y-97201076D01*
X117346361Y-97296314D01*
X117298742Y-97343933D01*
X107923104Y-101840680D02*
X107923104Y-100840680D01*
X108161200Y-100840680D01*
X108304057Y-100888300D01*
X108399295Y-100983538D01*
X108446914Y-101078776D01*
X108494533Y-101269252D01*
X108494533Y-101412109D01*
X108446914Y-101602585D01*
X108399295Y-101697823D01*
X108304057Y-101793061D01*
X108161200Y-101840680D01*
X107923104Y-101840680D01*
X108875485Y-100935919D02*
X108923104Y-100888300D01*
X109018342Y-100840680D01*
X109256438Y-100840680D01*
X109351676Y-100888300D01*
X109399295Y-100935919D01*
X109446914Y-101031157D01*
X109446914Y-101126395D01*
X109399295Y-101269252D01*
X108827866Y-101840680D01*
X109446914Y-101840680D01*
X111374180Y-102109495D02*
X110374180Y-102109495D01*
X110374180Y-101871400D01*
X110421800Y-101728542D01*
X110517038Y-101633304D01*
X110612276Y-101585685D01*
X110802752Y-101538066D01*
X110945609Y-101538066D01*
X111136085Y-101585685D01*
X111231323Y-101633304D01*
X111326561Y-101728542D01*
X111374180Y-101871400D01*
X111374180Y-102109495D01*
X111374180Y-100585685D02*
X111374180Y-101157114D01*
X111374180Y-100871400D02*
X110374180Y-100871400D01*
X110517038Y-100966638D01*
X110612276Y-101061876D01*
X110659895Y-101157114D01*
X117705142Y-74144166D02*
X117752761Y-74191785D01*
X117800380Y-74334642D01*
X117800380Y-74429880D01*
X117752761Y-74572738D01*
X117657523Y-74667976D01*
X117562285Y-74715595D01*
X117371809Y-74763214D01*
X117228952Y-74763214D01*
X117038476Y-74715595D01*
X116943238Y-74667976D01*
X116848000Y-74572738D01*
X116800380Y-74429880D01*
X116800380Y-74334642D01*
X116848000Y-74191785D01*
X116895619Y-74144166D01*
X116800380Y-73287023D02*
X116800380Y-73477500D01*
X116848000Y-73572738D01*
X116895619Y-73620357D01*
X117038476Y-73715595D01*
X117228952Y-73763214D01*
X117609904Y-73763214D01*
X117705142Y-73715595D01*
X117752761Y-73667976D01*
X117800380Y-73572738D01*
X117800380Y-73382261D01*
X117752761Y-73287023D01*
X117705142Y-73239404D01*
X117609904Y-73191785D01*
X117371809Y-73191785D01*
X117276571Y-73239404D01*
X117228952Y-73287023D01*
X117181333Y-73382261D01*
X117181333Y-73572738D01*
X117228952Y-73667976D01*
X117276571Y-73715595D01*
X117371809Y-73763214D01*
X106113942Y-96810666D02*
X106161561Y-96858285D01*
X106209180Y-97001142D01*
X106209180Y-97096380D01*
X106161561Y-97239238D01*
X106066323Y-97334476D01*
X105971085Y-97382095D01*
X105780609Y-97429714D01*
X105637752Y-97429714D01*
X105447276Y-97382095D01*
X105352038Y-97334476D01*
X105256800Y-97239238D01*
X105209180Y-97096380D01*
X105209180Y-97001142D01*
X105256800Y-96858285D01*
X105304419Y-96810666D01*
X105209180Y-95905904D02*
X105209180Y-96382095D01*
X105685371Y-96429714D01*
X105637752Y-96382095D01*
X105590133Y-96286857D01*
X105590133Y-96048761D01*
X105637752Y-95953523D01*
X105685371Y-95905904D01*
X105780609Y-95858285D01*
X106018704Y-95858285D01*
X106113942Y-95905904D01*
X106161561Y-95953523D01*
X106209180Y-96048761D01*
X106209180Y-96286857D01*
X106161561Y-96382095D01*
X106113942Y-96429714D01*
X101753942Y-93448166D02*
X101801561Y-93495785D01*
X101849180Y-93638642D01*
X101849180Y-93733880D01*
X101801561Y-93876738D01*
X101706323Y-93971976D01*
X101611085Y-94019595D01*
X101420609Y-94067214D01*
X101277752Y-94067214D01*
X101087276Y-94019595D01*
X100992038Y-93971976D01*
X100896800Y-93876738D01*
X100849180Y-93733880D01*
X100849180Y-93638642D01*
X100896800Y-93495785D01*
X100944419Y-93448166D01*
X101182514Y-92591023D02*
X101849180Y-92591023D01*
X100801561Y-92829119D02*
X101515847Y-93067214D01*
X101515847Y-92448166D01*
X106830833Y-87021942D02*
X106783214Y-87069561D01*
X106640357Y-87117180D01*
X106545119Y-87117180D01*
X106402261Y-87069561D01*
X106307023Y-86974323D01*
X106259404Y-86879085D01*
X106211785Y-86688609D01*
X106211785Y-86545752D01*
X106259404Y-86355276D01*
X106307023Y-86260038D01*
X106402261Y-86164800D01*
X106545119Y-86117180D01*
X106640357Y-86117180D01*
X106783214Y-86164800D01*
X106830833Y-86212419D01*
X107164166Y-86117180D02*
X107783214Y-86117180D01*
X107449880Y-86498133D01*
X107592738Y-86498133D01*
X107687976Y-86545752D01*
X107735595Y-86593371D01*
X107783214Y-86688609D01*
X107783214Y-86926704D01*
X107735595Y-87021942D01*
X107687976Y-87069561D01*
X107592738Y-87117180D01*
X107307023Y-87117180D01*
X107211785Y-87069561D01*
X107164166Y-87021942D01*
X109802733Y-96452942D02*
X109755114Y-96500561D01*
X109612257Y-96548180D01*
X109517019Y-96548180D01*
X109374161Y-96500561D01*
X109278923Y-96405323D01*
X109231304Y-96310085D01*
X109183685Y-96119609D01*
X109183685Y-95976752D01*
X109231304Y-95786276D01*
X109278923Y-95691038D01*
X109374161Y-95595800D01*
X109517019Y-95548180D01*
X109612257Y-95548180D01*
X109755114Y-95595800D01*
X109802733Y-95643419D01*
X110183685Y-95643419D02*
X110231304Y-95595800D01*
X110326542Y-95548180D01*
X110564638Y-95548180D01*
X110659876Y-95595800D01*
X110707495Y-95643419D01*
X110755114Y-95738657D01*
X110755114Y-95833895D01*
X110707495Y-95976752D01*
X110136066Y-96548180D01*
X110755114Y-96548180D01*
X98448833Y-115482642D02*
X98401214Y-115530261D01*
X98258357Y-115577880D01*
X98163119Y-115577880D01*
X98020261Y-115530261D01*
X97925023Y-115435023D01*
X97877404Y-115339785D01*
X97829785Y-115149309D01*
X97829785Y-115006452D01*
X97877404Y-114815976D01*
X97925023Y-114720738D01*
X98020261Y-114625500D01*
X98163119Y-114577880D01*
X98258357Y-114577880D01*
X98401214Y-114625500D01*
X98448833Y-114673119D01*
X99401214Y-115577880D02*
X98829785Y-115577880D01*
X99115500Y-115577880D02*
X99115500Y-114577880D01*
X99020261Y-114720738D01*
X98925023Y-114815976D01*
X98829785Y-114863595D01*
%LPC*%
D15*
G36*
X104953691Y-86126676D02*
G01*
X104977401Y-86130193D01*
X105000652Y-86136017D01*
X105023220Y-86144092D01*
X105044889Y-86154341D01*
X105065448Y-86166664D01*
X105084701Y-86180942D01*
X105102461Y-86197039D01*
X105118558Y-86214799D01*
X105132836Y-86234052D01*
X105145159Y-86254611D01*
X105155408Y-86276280D01*
X105163483Y-86298848D01*
X105169307Y-86322099D01*
X105172824Y-86345809D01*
X105174000Y-86369750D01*
X105174000Y-86858250D01*
X105172824Y-86882191D01*
X105169307Y-86905901D01*
X105163483Y-86929152D01*
X105155408Y-86951720D01*
X105145159Y-86973389D01*
X105132836Y-86993948D01*
X105118558Y-87013201D01*
X105102461Y-87030961D01*
X105084701Y-87047058D01*
X105065448Y-87061336D01*
X105044889Y-87073659D01*
X105023220Y-87083908D01*
X105000652Y-87091983D01*
X104977401Y-87097807D01*
X104953691Y-87101324D01*
X104929750Y-87102500D01*
X104366250Y-87102500D01*
X104342309Y-87101324D01*
X104318599Y-87097807D01*
X104295348Y-87091983D01*
X104272780Y-87083908D01*
X104251111Y-87073659D01*
X104230552Y-87061336D01*
X104211299Y-87047058D01*
X104193539Y-87030961D01*
X104177442Y-87013201D01*
X104163164Y-86993948D01*
X104150841Y-86973389D01*
X104140592Y-86951720D01*
X104132517Y-86929152D01*
X104126693Y-86905901D01*
X104123176Y-86882191D01*
X104122000Y-86858250D01*
X104122000Y-86369750D01*
X104123176Y-86345809D01*
X104126693Y-86322099D01*
X104132517Y-86298848D01*
X104140592Y-86276280D01*
X104150841Y-86254611D01*
X104163164Y-86234052D01*
X104177442Y-86214799D01*
X104193539Y-86197039D01*
X104211299Y-86180942D01*
X104230552Y-86166664D01*
X104251111Y-86154341D01*
X104272780Y-86144092D01*
X104295348Y-86136017D01*
X104318599Y-86130193D01*
X104342309Y-86126676D01*
X104366250Y-86125500D01*
X104929750Y-86125500D01*
X104953691Y-86126676D01*
G37*
G36*
X104953691Y-87701676D02*
G01*
X104977401Y-87705193D01*
X105000652Y-87711017D01*
X105023220Y-87719092D01*
X105044889Y-87729341D01*
X105065448Y-87741664D01*
X105084701Y-87755942D01*
X105102461Y-87772039D01*
X105118558Y-87789799D01*
X105132836Y-87809052D01*
X105145159Y-87829611D01*
X105155408Y-87851280D01*
X105163483Y-87873848D01*
X105169307Y-87897099D01*
X105172824Y-87920809D01*
X105174000Y-87944750D01*
X105174000Y-88433250D01*
X105172824Y-88457191D01*
X105169307Y-88480901D01*
X105163483Y-88504152D01*
X105155408Y-88526720D01*
X105145159Y-88548389D01*
X105132836Y-88568948D01*
X105118558Y-88588201D01*
X105102461Y-88605961D01*
X105084701Y-88622058D01*
X105065448Y-88636336D01*
X105044889Y-88648659D01*
X105023220Y-88658908D01*
X105000652Y-88666983D01*
X104977401Y-88672807D01*
X104953691Y-88676324D01*
X104929750Y-88677500D01*
X104366250Y-88677500D01*
X104342309Y-88676324D01*
X104318599Y-88672807D01*
X104295348Y-88666983D01*
X104272780Y-88658908D01*
X104251111Y-88648659D01*
X104230552Y-88636336D01*
X104211299Y-88622058D01*
X104193539Y-88605961D01*
X104177442Y-88588201D01*
X104163164Y-88568948D01*
X104150841Y-88548389D01*
X104140592Y-88526720D01*
X104132517Y-88504152D01*
X104126693Y-88480901D01*
X104123176Y-88457191D01*
X104122000Y-88433250D01*
X104122000Y-87944750D01*
X104123176Y-87920809D01*
X104126693Y-87897099D01*
X104132517Y-87873848D01*
X104140592Y-87851280D01*
X104150841Y-87829611D01*
X104163164Y-87809052D01*
X104177442Y-87789799D01*
X104193539Y-87772039D01*
X104211299Y-87755942D01*
X104230552Y-87741664D01*
X104251111Y-87729341D01*
X104272780Y-87719092D01*
X104295348Y-87711017D01*
X104318599Y-87705193D01*
X104342309Y-87701676D01*
X104366250Y-87700500D01*
X104929750Y-87700500D01*
X104953691Y-87701676D01*
G37*
G36*
X103391591Y-89377976D02*
G01*
X103415301Y-89381493D01*
X103438552Y-89387317D01*
X103461120Y-89395392D01*
X103482789Y-89405641D01*
X103503348Y-89417964D01*
X103522601Y-89432242D01*
X103540361Y-89448339D01*
X103556458Y-89466099D01*
X103570736Y-89485352D01*
X103583059Y-89505911D01*
X103593308Y-89527580D01*
X103601383Y-89550148D01*
X103607207Y-89573399D01*
X103610724Y-89597109D01*
X103611900Y-89621050D01*
X103611900Y-90109550D01*
X103610724Y-90133491D01*
X103607207Y-90157201D01*
X103601383Y-90180452D01*
X103593308Y-90203020D01*
X103583059Y-90224689D01*
X103570736Y-90245248D01*
X103556458Y-90264501D01*
X103540361Y-90282261D01*
X103522601Y-90298358D01*
X103503348Y-90312636D01*
X103482789Y-90324959D01*
X103461120Y-90335208D01*
X103438552Y-90343283D01*
X103415301Y-90349107D01*
X103391591Y-90352624D01*
X103367650Y-90353800D01*
X102804150Y-90353800D01*
X102780209Y-90352624D01*
X102756499Y-90349107D01*
X102733248Y-90343283D01*
X102710680Y-90335208D01*
X102689011Y-90324959D01*
X102668452Y-90312636D01*
X102649199Y-90298358D01*
X102631439Y-90282261D01*
X102615342Y-90264501D01*
X102601064Y-90245248D01*
X102588741Y-90224689D01*
X102578492Y-90203020D01*
X102570417Y-90180452D01*
X102564593Y-90157201D01*
X102561076Y-90133491D01*
X102559900Y-90109550D01*
X102559900Y-89621050D01*
X102561076Y-89597109D01*
X102564593Y-89573399D01*
X102570417Y-89550148D01*
X102578492Y-89527580D01*
X102588741Y-89505911D01*
X102601064Y-89485352D01*
X102615342Y-89466099D01*
X102631439Y-89448339D01*
X102649199Y-89432242D01*
X102668452Y-89417964D01*
X102689011Y-89405641D01*
X102710680Y-89395392D01*
X102733248Y-89387317D01*
X102756499Y-89381493D01*
X102780209Y-89377976D01*
X102804150Y-89376800D01*
X103367650Y-89376800D01*
X103391591Y-89377976D01*
G37*
G36*
X103391591Y-87802976D02*
G01*
X103415301Y-87806493D01*
X103438552Y-87812317D01*
X103461120Y-87820392D01*
X103482789Y-87830641D01*
X103503348Y-87842964D01*
X103522601Y-87857242D01*
X103540361Y-87873339D01*
X103556458Y-87891099D01*
X103570736Y-87910352D01*
X103583059Y-87930911D01*
X103593308Y-87952580D01*
X103601383Y-87975148D01*
X103607207Y-87998399D01*
X103610724Y-88022109D01*
X103611900Y-88046050D01*
X103611900Y-88534550D01*
X103610724Y-88558491D01*
X103607207Y-88582201D01*
X103601383Y-88605452D01*
X103593308Y-88628020D01*
X103583059Y-88649689D01*
X103570736Y-88670248D01*
X103556458Y-88689501D01*
X103540361Y-88707261D01*
X103522601Y-88723358D01*
X103503348Y-88737636D01*
X103482789Y-88749959D01*
X103461120Y-88760208D01*
X103438552Y-88768283D01*
X103415301Y-88774107D01*
X103391591Y-88777624D01*
X103367650Y-88778800D01*
X102804150Y-88778800D01*
X102780209Y-88777624D01*
X102756499Y-88774107D01*
X102733248Y-88768283D01*
X102710680Y-88760208D01*
X102689011Y-88749959D01*
X102668452Y-88737636D01*
X102649199Y-88723358D01*
X102631439Y-88707261D01*
X102615342Y-88689501D01*
X102601064Y-88670248D01*
X102588741Y-88649689D01*
X102578492Y-88628020D01*
X102570417Y-88605452D01*
X102564593Y-88582201D01*
X102561076Y-88558491D01*
X102559900Y-88534550D01*
X102559900Y-88046050D01*
X102561076Y-88022109D01*
X102564593Y-87998399D01*
X102570417Y-87975148D01*
X102578492Y-87952580D01*
X102588741Y-87930911D01*
X102601064Y-87910352D01*
X102615342Y-87891099D01*
X102631439Y-87873339D01*
X102649199Y-87857242D01*
X102668452Y-87842964D01*
X102689011Y-87830641D01*
X102710680Y-87820392D01*
X102733248Y-87812317D01*
X102756499Y-87806493D01*
X102780209Y-87802976D01*
X102804150Y-87801800D01*
X103367650Y-87801800D01*
X103391591Y-87802976D01*
G37*
D16*
X110295700Y-100850700D03*
D17*
X105295700Y-100850700D03*
D18*
X118030000Y-111760000D03*
D19*
X113030000Y-111760000D03*
D20*
X108041400Y-90017600D03*
X108991400Y-90017600D03*
X109941400Y-90017600D03*
X109941400Y-92637600D03*
X108991400Y-92637600D03*
X108041400Y-92637600D03*
D15*
G36*
X113310291Y-94026076D02*
G01*
X113334001Y-94029593D01*
X113357252Y-94035417D01*
X113379820Y-94043492D01*
X113401489Y-94053741D01*
X113422048Y-94066064D01*
X113441301Y-94080342D01*
X113459061Y-94096439D01*
X113475158Y-94114199D01*
X113489436Y-94133452D01*
X113501759Y-94154011D01*
X113512008Y-94175680D01*
X113520083Y-94198248D01*
X113525907Y-94221499D01*
X113529424Y-94245209D01*
X113530600Y-94269150D01*
X113530600Y-94757650D01*
X113529424Y-94781591D01*
X113525907Y-94805301D01*
X113520083Y-94828552D01*
X113512008Y-94851120D01*
X113501759Y-94872789D01*
X113489436Y-94893348D01*
X113475158Y-94912601D01*
X113459061Y-94930361D01*
X113441301Y-94946458D01*
X113422048Y-94960736D01*
X113401489Y-94973059D01*
X113379820Y-94983308D01*
X113357252Y-94991383D01*
X113334001Y-94997207D01*
X113310291Y-95000724D01*
X113286350Y-95001900D01*
X112722850Y-95001900D01*
X112698909Y-95000724D01*
X112675199Y-94997207D01*
X112651948Y-94991383D01*
X112629380Y-94983308D01*
X112607711Y-94973059D01*
X112587152Y-94960736D01*
X112567899Y-94946458D01*
X112550139Y-94930361D01*
X112534042Y-94912601D01*
X112519764Y-94893348D01*
X112507441Y-94872789D01*
X112497192Y-94851120D01*
X112489117Y-94828552D01*
X112483293Y-94805301D01*
X112479776Y-94781591D01*
X112478600Y-94757650D01*
X112478600Y-94269150D01*
X112479776Y-94245209D01*
X112483293Y-94221499D01*
X112489117Y-94198248D01*
X112497192Y-94175680D01*
X112507441Y-94154011D01*
X112519764Y-94133452D01*
X112534042Y-94114199D01*
X112550139Y-94096439D01*
X112567899Y-94080342D01*
X112587152Y-94066064D01*
X112607711Y-94053741D01*
X112629380Y-94043492D01*
X112651948Y-94035417D01*
X112675199Y-94029593D01*
X112698909Y-94026076D01*
X112722850Y-94024900D01*
X113286350Y-94024900D01*
X113310291Y-94026076D01*
G37*
G36*
X113310291Y-92451076D02*
G01*
X113334001Y-92454593D01*
X113357252Y-92460417D01*
X113379820Y-92468492D01*
X113401489Y-92478741D01*
X113422048Y-92491064D01*
X113441301Y-92505342D01*
X113459061Y-92521439D01*
X113475158Y-92539199D01*
X113489436Y-92558452D01*
X113501759Y-92579011D01*
X113512008Y-92600680D01*
X113520083Y-92623248D01*
X113525907Y-92646499D01*
X113529424Y-92670209D01*
X113530600Y-92694150D01*
X113530600Y-93182650D01*
X113529424Y-93206591D01*
X113525907Y-93230301D01*
X113520083Y-93253552D01*
X113512008Y-93276120D01*
X113501759Y-93297789D01*
X113489436Y-93318348D01*
X113475158Y-93337601D01*
X113459061Y-93355361D01*
X113441301Y-93371458D01*
X113422048Y-93385736D01*
X113401489Y-93398059D01*
X113379820Y-93408308D01*
X113357252Y-93416383D01*
X113334001Y-93422207D01*
X113310291Y-93425724D01*
X113286350Y-93426900D01*
X112722850Y-93426900D01*
X112698909Y-93425724D01*
X112675199Y-93422207D01*
X112651948Y-93416383D01*
X112629380Y-93408308D01*
X112607711Y-93398059D01*
X112587152Y-93385736D01*
X112567899Y-93371458D01*
X112550139Y-93355361D01*
X112534042Y-93337601D01*
X112519764Y-93318348D01*
X112507441Y-93297789D01*
X112497192Y-93276120D01*
X112489117Y-93253552D01*
X112483293Y-93230301D01*
X112479776Y-93206591D01*
X112478600Y-93182650D01*
X112478600Y-92694150D01*
X112479776Y-92670209D01*
X112483293Y-92646499D01*
X112489117Y-92623248D01*
X112497192Y-92600680D01*
X112507441Y-92579011D01*
X112519764Y-92558452D01*
X112534042Y-92539199D01*
X112550139Y-92521439D01*
X112567899Y-92505342D01*
X112587152Y-92491064D01*
X112607711Y-92478741D01*
X112629380Y-92468492D01*
X112651948Y-92460417D01*
X112675199Y-92454593D01*
X112698909Y-92451076D01*
X112722850Y-92449900D01*
X113286350Y-92449900D01*
X113310291Y-92451076D01*
G37*
G36*
X113335691Y-97251876D02*
G01*
X113359401Y-97255393D01*
X113382652Y-97261217D01*
X113405220Y-97269292D01*
X113426889Y-97279541D01*
X113447448Y-97291864D01*
X113466701Y-97306142D01*
X113484461Y-97322239D01*
X113500558Y-97339999D01*
X113514836Y-97359252D01*
X113527159Y-97379811D01*
X113537408Y-97401480D01*
X113545483Y-97424048D01*
X113551307Y-97447299D01*
X113554824Y-97471009D01*
X113556000Y-97494950D01*
X113556000Y-97983450D01*
X113554824Y-98007391D01*
X113551307Y-98031101D01*
X113545483Y-98054352D01*
X113537408Y-98076920D01*
X113527159Y-98098589D01*
X113514836Y-98119148D01*
X113500558Y-98138401D01*
X113484461Y-98156161D01*
X113466701Y-98172258D01*
X113447448Y-98186536D01*
X113426889Y-98198859D01*
X113405220Y-98209108D01*
X113382652Y-98217183D01*
X113359401Y-98223007D01*
X113335691Y-98226524D01*
X113311750Y-98227700D01*
X112748250Y-98227700D01*
X112724309Y-98226524D01*
X112700599Y-98223007D01*
X112677348Y-98217183D01*
X112654780Y-98209108D01*
X112633111Y-98198859D01*
X112612552Y-98186536D01*
X112593299Y-98172258D01*
X112575539Y-98156161D01*
X112559442Y-98138401D01*
X112545164Y-98119148D01*
X112532841Y-98098589D01*
X112522592Y-98076920D01*
X112514517Y-98054352D01*
X112508693Y-98031101D01*
X112505176Y-98007391D01*
X112504000Y-97983450D01*
X112504000Y-97494950D01*
X112505176Y-97471009D01*
X112508693Y-97447299D01*
X112514517Y-97424048D01*
X112522592Y-97401480D01*
X112532841Y-97379811D01*
X112545164Y-97359252D01*
X112559442Y-97339999D01*
X112575539Y-97322239D01*
X112593299Y-97306142D01*
X112612552Y-97291864D01*
X112633111Y-97279541D01*
X112654780Y-97269292D01*
X112677348Y-97261217D01*
X112700599Y-97255393D01*
X112724309Y-97251876D01*
X112748250Y-97250700D01*
X113311750Y-97250700D01*
X113335691Y-97251876D01*
G37*
G36*
X113335691Y-95676876D02*
G01*
X113359401Y-95680393D01*
X113382652Y-95686217D01*
X113405220Y-95694292D01*
X113426889Y-95704541D01*
X113447448Y-95716864D01*
X113466701Y-95731142D01*
X113484461Y-95747239D01*
X113500558Y-95764999D01*
X113514836Y-95784252D01*
X113527159Y-95804811D01*
X113537408Y-95826480D01*
X113545483Y-95849048D01*
X113551307Y-95872299D01*
X113554824Y-95896009D01*
X113556000Y-95919950D01*
X113556000Y-96408450D01*
X113554824Y-96432391D01*
X113551307Y-96456101D01*
X113545483Y-96479352D01*
X113537408Y-96501920D01*
X113527159Y-96523589D01*
X113514836Y-96544148D01*
X113500558Y-96563401D01*
X113484461Y-96581161D01*
X113466701Y-96597258D01*
X113447448Y-96611536D01*
X113426889Y-96623859D01*
X113405220Y-96634108D01*
X113382652Y-96642183D01*
X113359401Y-96648007D01*
X113335691Y-96651524D01*
X113311750Y-96652700D01*
X112748250Y-96652700D01*
X112724309Y-96651524D01*
X112700599Y-96648007D01*
X112677348Y-96642183D01*
X112654780Y-96634108D01*
X112633111Y-96623859D01*
X112612552Y-96611536D01*
X112593299Y-96597258D01*
X112575539Y-96581161D01*
X112559442Y-96563401D01*
X112545164Y-96544148D01*
X112532841Y-96523589D01*
X112522592Y-96501920D01*
X112514517Y-96479352D01*
X112508693Y-96456101D01*
X112505176Y-96432391D01*
X112504000Y-96408450D01*
X112504000Y-95919950D01*
X112505176Y-95896009D01*
X112508693Y-95872299D01*
X112514517Y-95849048D01*
X112522592Y-95826480D01*
X112532841Y-95804811D01*
X112545164Y-95784252D01*
X112559442Y-95764999D01*
X112575539Y-95747239D01*
X112593299Y-95731142D01*
X112612552Y-95716864D01*
X112633111Y-95704541D01*
X112654780Y-95694292D01*
X112677348Y-95686217D01*
X112700599Y-95680393D01*
X112724309Y-95676876D01*
X112748250Y-95675700D01*
X113311750Y-95675700D01*
X113335691Y-95676876D01*
G37*
D21*
X112179100Y-80000600D03*
X113129100Y-82000600D03*
X111229100Y-82000600D03*
X112179100Y-75704700D03*
X113129100Y-77704700D03*
X111229100Y-77704700D03*
D15*
G36*
X106605604Y-91984502D02*
G01*
X106631852Y-91988396D01*
X106657593Y-91994843D01*
X106682578Y-92003783D01*
X106706566Y-92015128D01*
X106729326Y-92028771D01*
X106750640Y-92044578D01*
X106770302Y-92062398D01*
X106788122Y-92082060D01*
X106803929Y-92103374D01*
X106817572Y-92126134D01*
X106828917Y-92150122D01*
X106837857Y-92175107D01*
X106844304Y-92200848D01*
X106848198Y-92227096D01*
X106849500Y-92253600D01*
X106849500Y-93064800D01*
X106848198Y-93091304D01*
X106844304Y-93117552D01*
X106837857Y-93143293D01*
X106828917Y-93168278D01*
X106817572Y-93192266D01*
X106803929Y-93215026D01*
X106788122Y-93236340D01*
X106770302Y-93256002D01*
X106750640Y-93273822D01*
X106729326Y-93289629D01*
X106706566Y-93303272D01*
X106682578Y-93314617D01*
X106657593Y-93323557D01*
X106631852Y-93330004D01*
X106605604Y-93333898D01*
X106579100Y-93335200D01*
X104367900Y-93335200D01*
X104341396Y-93333898D01*
X104315148Y-93330004D01*
X104289407Y-93323557D01*
X104264422Y-93314617D01*
X104240434Y-93303272D01*
X104217674Y-93289629D01*
X104196360Y-93273822D01*
X104176698Y-93256002D01*
X104158878Y-93236340D01*
X104143071Y-93215026D01*
X104129428Y-93192266D01*
X104118083Y-93168278D01*
X104109143Y-93143293D01*
X104102696Y-93117552D01*
X104098802Y-93091304D01*
X104097500Y-93064800D01*
X104097500Y-92253600D01*
X104098802Y-92227096D01*
X104102696Y-92200848D01*
X104109143Y-92175107D01*
X104118083Y-92150122D01*
X104129428Y-92126134D01*
X104143071Y-92103374D01*
X104158878Y-92082060D01*
X104176698Y-92062398D01*
X104196360Y-92044578D01*
X104217674Y-92028771D01*
X104240434Y-92015128D01*
X104264422Y-92003783D01*
X104289407Y-91994843D01*
X104315148Y-91988396D01*
X104341396Y-91984502D01*
X104367900Y-91983200D01*
X106579100Y-91983200D01*
X106605604Y-91984502D01*
G37*
G36*
X106605604Y-89184502D02*
G01*
X106631852Y-89188396D01*
X106657593Y-89194843D01*
X106682578Y-89203783D01*
X106706566Y-89215128D01*
X106729326Y-89228771D01*
X106750640Y-89244578D01*
X106770302Y-89262398D01*
X106788122Y-89282060D01*
X106803929Y-89303374D01*
X106817572Y-89326134D01*
X106828917Y-89350122D01*
X106837857Y-89375107D01*
X106844304Y-89400848D01*
X106848198Y-89427096D01*
X106849500Y-89453600D01*
X106849500Y-90264800D01*
X106848198Y-90291304D01*
X106844304Y-90317552D01*
X106837857Y-90343293D01*
X106828917Y-90368278D01*
X106817572Y-90392266D01*
X106803929Y-90415026D01*
X106788122Y-90436340D01*
X106770302Y-90456002D01*
X106750640Y-90473822D01*
X106729326Y-90489629D01*
X106706566Y-90503272D01*
X106682578Y-90514617D01*
X106657593Y-90523557D01*
X106631852Y-90530004D01*
X106605604Y-90533898D01*
X106579100Y-90535200D01*
X104367900Y-90535200D01*
X104341396Y-90533898D01*
X104315148Y-90530004D01*
X104289407Y-90523557D01*
X104264422Y-90514617D01*
X104240434Y-90503272D01*
X104217674Y-90489629D01*
X104196360Y-90473822D01*
X104176698Y-90456002D01*
X104158878Y-90436340D01*
X104143071Y-90415026D01*
X104129428Y-90392266D01*
X104118083Y-90368278D01*
X104109143Y-90343293D01*
X104102696Y-90317552D01*
X104098802Y-90291304D01*
X104097500Y-90264800D01*
X104097500Y-89453600D01*
X104098802Y-89427096D01*
X104102696Y-89400848D01*
X104109143Y-89375107D01*
X104118083Y-89350122D01*
X104129428Y-89326134D01*
X104143071Y-89303374D01*
X104158878Y-89282060D01*
X104176698Y-89262398D01*
X104196360Y-89244578D01*
X104217674Y-89228771D01*
X104240434Y-89215128D01*
X104264422Y-89203783D01*
X104289407Y-89194843D01*
X104315148Y-89188396D01*
X104341396Y-89184502D01*
X104367900Y-89183200D01*
X106579100Y-89183200D01*
X106605604Y-89184502D01*
G37*
D22*
X115417600Y-73638700D03*
X115417600Y-75738700D03*
D23*
X115544600Y-98221800D03*
X115544600Y-96821800D03*
D24*
X109711200Y-103238300D03*
X107611200Y-103238300D03*
D25*
X113030000Y-99795000D03*
X115570000Y-99795000D03*
X115570000Y-105945000D03*
X113030000Y-105945000D03*
D15*
G36*
X117729891Y-75230076D02*
G01*
X117753601Y-75233593D01*
X117776852Y-75239417D01*
X117799420Y-75247492D01*
X117821089Y-75257741D01*
X117841648Y-75270064D01*
X117860901Y-75284342D01*
X117878661Y-75300439D01*
X117894758Y-75318199D01*
X117909036Y-75337452D01*
X117921359Y-75358011D01*
X117931608Y-75379680D01*
X117939683Y-75402248D01*
X117945507Y-75425499D01*
X117949024Y-75449209D01*
X117950200Y-75473150D01*
X117950200Y-75961650D01*
X117949024Y-75985591D01*
X117945507Y-76009301D01*
X117939683Y-76032552D01*
X117931608Y-76055120D01*
X117921359Y-76076789D01*
X117909036Y-76097348D01*
X117894758Y-76116601D01*
X117878661Y-76134361D01*
X117860901Y-76150458D01*
X117841648Y-76164736D01*
X117821089Y-76177059D01*
X117799420Y-76187308D01*
X117776852Y-76195383D01*
X117753601Y-76201207D01*
X117729891Y-76204724D01*
X117705950Y-76205900D01*
X117142450Y-76205900D01*
X117118509Y-76204724D01*
X117094799Y-76201207D01*
X117071548Y-76195383D01*
X117048980Y-76187308D01*
X117027311Y-76177059D01*
X117006752Y-76164736D01*
X116987499Y-76150458D01*
X116969739Y-76134361D01*
X116953642Y-76116601D01*
X116939364Y-76097348D01*
X116927041Y-76076789D01*
X116916792Y-76055120D01*
X116908717Y-76032552D01*
X116902893Y-76009301D01*
X116899376Y-75985591D01*
X116898200Y-75961650D01*
X116898200Y-75473150D01*
X116899376Y-75449209D01*
X116902893Y-75425499D01*
X116908717Y-75402248D01*
X116916792Y-75379680D01*
X116927041Y-75358011D01*
X116939364Y-75337452D01*
X116953642Y-75318199D01*
X116969739Y-75300439D01*
X116987499Y-75284342D01*
X117006752Y-75270064D01*
X117027311Y-75257741D01*
X117048980Y-75247492D01*
X117071548Y-75239417D01*
X117094799Y-75233593D01*
X117118509Y-75230076D01*
X117142450Y-75228900D01*
X117705950Y-75228900D01*
X117729891Y-75230076D01*
G37*
G36*
X117729891Y-76805076D02*
G01*
X117753601Y-76808593D01*
X117776852Y-76814417D01*
X117799420Y-76822492D01*
X117821089Y-76832741D01*
X117841648Y-76845064D01*
X117860901Y-76859342D01*
X117878661Y-76875439D01*
X117894758Y-76893199D01*
X117909036Y-76912452D01*
X117921359Y-76933011D01*
X117931608Y-76954680D01*
X117939683Y-76977248D01*
X117945507Y-77000499D01*
X117949024Y-77024209D01*
X117950200Y-77048150D01*
X117950200Y-77536650D01*
X117949024Y-77560591D01*
X117945507Y-77584301D01*
X117939683Y-77607552D01*
X117931608Y-77630120D01*
X117921359Y-77651789D01*
X117909036Y-77672348D01*
X117894758Y-77691601D01*
X117878661Y-77709361D01*
X117860901Y-77725458D01*
X117841648Y-77739736D01*
X117821089Y-77752059D01*
X117799420Y-77762308D01*
X117776852Y-77770383D01*
X117753601Y-77776207D01*
X117729891Y-77779724D01*
X117705950Y-77780900D01*
X117142450Y-77780900D01*
X117118509Y-77779724D01*
X117094799Y-77776207D01*
X117071548Y-77770383D01*
X117048980Y-77762308D01*
X117027311Y-77752059D01*
X117006752Y-77739736D01*
X116987499Y-77725458D01*
X116969739Y-77709361D01*
X116953642Y-77691601D01*
X116939364Y-77672348D01*
X116927041Y-77651789D01*
X116916792Y-77630120D01*
X116908717Y-77607552D01*
X116902893Y-77584301D01*
X116899376Y-77560591D01*
X116898200Y-77536650D01*
X116898200Y-77048150D01*
X116899376Y-77024209D01*
X116902893Y-77000499D01*
X116908717Y-76977248D01*
X116916792Y-76954680D01*
X116927041Y-76933011D01*
X116939364Y-76912452D01*
X116953642Y-76893199D01*
X116969739Y-76875439D01*
X116987499Y-76859342D01*
X117006752Y-76845064D01*
X117027311Y-76832741D01*
X117048980Y-76822492D01*
X117071548Y-76814417D01*
X117094799Y-76808593D01*
X117118509Y-76805076D01*
X117142450Y-76803900D01*
X117705950Y-76803900D01*
X117729891Y-76805076D01*
G37*
G36*
X104618904Y-97369302D02*
G01*
X104645152Y-97373196D01*
X104670893Y-97379643D01*
X104695878Y-97388583D01*
X104719866Y-97399928D01*
X104742626Y-97413571D01*
X104763940Y-97429378D01*
X104783602Y-97447198D01*
X104801422Y-97466860D01*
X104817229Y-97488174D01*
X104830872Y-97510934D01*
X104842217Y-97534922D01*
X104851157Y-97559907D01*
X104857604Y-97585648D01*
X104861498Y-97611896D01*
X104862800Y-97638400D01*
X104862800Y-98449600D01*
X104861498Y-98476104D01*
X104857604Y-98502352D01*
X104851157Y-98528093D01*
X104842217Y-98553078D01*
X104830872Y-98577066D01*
X104817229Y-98599826D01*
X104801422Y-98621140D01*
X104783602Y-98640802D01*
X104763940Y-98658622D01*
X104742626Y-98674429D01*
X104719866Y-98688072D01*
X104695878Y-98699417D01*
X104670893Y-98708357D01*
X104645152Y-98714804D01*
X104618904Y-98718698D01*
X104592400Y-98720000D01*
X103281200Y-98720000D01*
X103254696Y-98718698D01*
X103228448Y-98714804D01*
X103202707Y-98708357D01*
X103177722Y-98699417D01*
X103153734Y-98688072D01*
X103130974Y-98674429D01*
X103109660Y-98658622D01*
X103089998Y-98640802D01*
X103072178Y-98621140D01*
X103056371Y-98599826D01*
X103042728Y-98577066D01*
X103031383Y-98553078D01*
X103022443Y-98528093D01*
X103015996Y-98502352D01*
X103012102Y-98476104D01*
X103010800Y-98449600D01*
X103010800Y-97638400D01*
X103012102Y-97611896D01*
X103015996Y-97585648D01*
X103022443Y-97559907D01*
X103031383Y-97534922D01*
X103042728Y-97510934D01*
X103056371Y-97488174D01*
X103072178Y-97466860D01*
X103089998Y-97447198D01*
X103109660Y-97429378D01*
X103130974Y-97413571D01*
X103153734Y-97399928D01*
X103177722Y-97388583D01*
X103202707Y-97379643D01*
X103228448Y-97373196D01*
X103254696Y-97369302D01*
X103281200Y-97368000D01*
X104592400Y-97368000D01*
X104618904Y-97369302D01*
G37*
G36*
X104618904Y-94569302D02*
G01*
X104645152Y-94573196D01*
X104670893Y-94579643D01*
X104695878Y-94588583D01*
X104719866Y-94599928D01*
X104742626Y-94613571D01*
X104763940Y-94629378D01*
X104783602Y-94647198D01*
X104801422Y-94666860D01*
X104817229Y-94688174D01*
X104830872Y-94710934D01*
X104842217Y-94734922D01*
X104851157Y-94759907D01*
X104857604Y-94785648D01*
X104861498Y-94811896D01*
X104862800Y-94838400D01*
X104862800Y-95649600D01*
X104861498Y-95676104D01*
X104857604Y-95702352D01*
X104851157Y-95728093D01*
X104842217Y-95753078D01*
X104830872Y-95777066D01*
X104817229Y-95799826D01*
X104801422Y-95821140D01*
X104783602Y-95840802D01*
X104763940Y-95858622D01*
X104742626Y-95874429D01*
X104719866Y-95888072D01*
X104695878Y-95899417D01*
X104670893Y-95908357D01*
X104645152Y-95914804D01*
X104618904Y-95918698D01*
X104592400Y-95920000D01*
X103281200Y-95920000D01*
X103254696Y-95918698D01*
X103228448Y-95914804D01*
X103202707Y-95908357D01*
X103177722Y-95899417D01*
X103153734Y-95888072D01*
X103130974Y-95874429D01*
X103109660Y-95858622D01*
X103089998Y-95840802D01*
X103072178Y-95821140D01*
X103056371Y-95799826D01*
X103042728Y-95777066D01*
X103031383Y-95753078D01*
X103022443Y-95728093D01*
X103015996Y-95702352D01*
X103012102Y-95676104D01*
X103010800Y-95649600D01*
X103010800Y-94838400D01*
X103012102Y-94811896D01*
X103015996Y-94785648D01*
X103022443Y-94759907D01*
X103031383Y-94734922D01*
X103042728Y-94710934D01*
X103056371Y-94688174D01*
X103072178Y-94666860D01*
X103089998Y-94647198D01*
X103109660Y-94629378D01*
X103130974Y-94613571D01*
X103153734Y-94599928D01*
X103177722Y-94588583D01*
X103202707Y-94579643D01*
X103228448Y-94573196D01*
X103254696Y-94569302D01*
X103281200Y-94568000D01*
X104592400Y-94568000D01*
X104618904Y-94569302D01*
G37*
G36*
X102104304Y-97369302D02*
G01*
X102130552Y-97373196D01*
X102156293Y-97379643D01*
X102181278Y-97388583D01*
X102205266Y-97399928D01*
X102228026Y-97413571D01*
X102249340Y-97429378D01*
X102269002Y-97447198D01*
X102286822Y-97466860D01*
X102302629Y-97488174D01*
X102316272Y-97510934D01*
X102327617Y-97534922D01*
X102336557Y-97559907D01*
X102343004Y-97585648D01*
X102346898Y-97611896D01*
X102348200Y-97638400D01*
X102348200Y-98449600D01*
X102346898Y-98476104D01*
X102343004Y-98502352D01*
X102336557Y-98528093D01*
X102327617Y-98553078D01*
X102316272Y-98577066D01*
X102302629Y-98599826D01*
X102286822Y-98621140D01*
X102269002Y-98640802D01*
X102249340Y-98658622D01*
X102228026Y-98674429D01*
X102205266Y-98688072D01*
X102181278Y-98699417D01*
X102156293Y-98708357D01*
X102130552Y-98714804D01*
X102104304Y-98718698D01*
X102077800Y-98720000D01*
X100766600Y-98720000D01*
X100740096Y-98718698D01*
X100713848Y-98714804D01*
X100688107Y-98708357D01*
X100663122Y-98699417D01*
X100639134Y-98688072D01*
X100616374Y-98674429D01*
X100595060Y-98658622D01*
X100575398Y-98640802D01*
X100557578Y-98621140D01*
X100541771Y-98599826D01*
X100528128Y-98577066D01*
X100516783Y-98553078D01*
X100507843Y-98528093D01*
X100501396Y-98502352D01*
X100497502Y-98476104D01*
X100496200Y-98449600D01*
X100496200Y-97638400D01*
X100497502Y-97611896D01*
X100501396Y-97585648D01*
X100507843Y-97559907D01*
X100516783Y-97534922D01*
X100528128Y-97510934D01*
X100541771Y-97488174D01*
X100557578Y-97466860D01*
X100575398Y-97447198D01*
X100595060Y-97429378D01*
X100616374Y-97413571D01*
X100639134Y-97399928D01*
X100663122Y-97388583D01*
X100688107Y-97379643D01*
X100713848Y-97373196D01*
X100740096Y-97369302D01*
X100766600Y-97368000D01*
X102077800Y-97368000D01*
X102104304Y-97369302D01*
G37*
G36*
X102104304Y-94569302D02*
G01*
X102130552Y-94573196D01*
X102156293Y-94579643D01*
X102181278Y-94588583D01*
X102205266Y-94599928D01*
X102228026Y-94613571D01*
X102249340Y-94629378D01*
X102269002Y-94647198D01*
X102286822Y-94666860D01*
X102302629Y-94688174D01*
X102316272Y-94710934D01*
X102327617Y-94734922D01*
X102336557Y-94759907D01*
X102343004Y-94785648D01*
X102346898Y-94811896D01*
X102348200Y-94838400D01*
X102348200Y-95649600D01*
X102346898Y-95676104D01*
X102343004Y-95702352D01*
X102336557Y-95728093D01*
X102327617Y-95753078D01*
X102316272Y-95777066D01*
X102302629Y-95799826D01*
X102286822Y-95821140D01*
X102269002Y-95840802D01*
X102249340Y-95858622D01*
X102228026Y-95874429D01*
X102205266Y-95888072D01*
X102181278Y-95899417D01*
X102156293Y-95908357D01*
X102130552Y-95914804D01*
X102104304Y-95918698D01*
X102077800Y-95920000D01*
X100766600Y-95920000D01*
X100740096Y-95918698D01*
X100713848Y-95914804D01*
X100688107Y-95908357D01*
X100663122Y-95899417D01*
X100639134Y-95888072D01*
X100616374Y-95874429D01*
X100595060Y-95858622D01*
X100575398Y-95840802D01*
X100557578Y-95821140D01*
X100541771Y-95799826D01*
X100528128Y-95777066D01*
X100516783Y-95753078D01*
X100507843Y-95728093D01*
X100501396Y-95702352D01*
X100497502Y-95676104D01*
X100496200Y-95649600D01*
X100496200Y-94838400D01*
X100497502Y-94811896D01*
X100501396Y-94785648D01*
X100507843Y-94759907D01*
X100516783Y-94734922D01*
X100528128Y-94710934D01*
X100541771Y-94688174D01*
X100557578Y-94666860D01*
X100575398Y-94647198D01*
X100595060Y-94629378D01*
X100616374Y-94613571D01*
X100639134Y-94599928D01*
X100663122Y-94588583D01*
X100688107Y-94579643D01*
X100713848Y-94573196D01*
X100740096Y-94569302D01*
X100766600Y-94568000D01*
X102077800Y-94568000D01*
X102104304Y-94569302D01*
G37*
G36*
X106541791Y-87562376D02*
G01*
X106565501Y-87565893D01*
X106588752Y-87571717D01*
X106611320Y-87579792D01*
X106632989Y-87590041D01*
X106653548Y-87602364D01*
X106672801Y-87616642D01*
X106690561Y-87632739D01*
X106706658Y-87650499D01*
X106720936Y-87669752D01*
X106733259Y-87690311D01*
X106743508Y-87711980D01*
X106751583Y-87734548D01*
X106757407Y-87757799D01*
X106760924Y-87781509D01*
X106762100Y-87805450D01*
X106762100Y-88368950D01*
X106760924Y-88392891D01*
X106757407Y-88416601D01*
X106751583Y-88439852D01*
X106743508Y-88462420D01*
X106733259Y-88484089D01*
X106720936Y-88504648D01*
X106706658Y-88523901D01*
X106690561Y-88541661D01*
X106672801Y-88557758D01*
X106653548Y-88572036D01*
X106632989Y-88584359D01*
X106611320Y-88594608D01*
X106588752Y-88602683D01*
X106565501Y-88608507D01*
X106541791Y-88612024D01*
X106517850Y-88613200D01*
X106029350Y-88613200D01*
X106005409Y-88612024D01*
X105981699Y-88608507D01*
X105958448Y-88602683D01*
X105935880Y-88594608D01*
X105914211Y-88584359D01*
X105893652Y-88572036D01*
X105874399Y-88557758D01*
X105856639Y-88541661D01*
X105840542Y-88523901D01*
X105826264Y-88504648D01*
X105813941Y-88484089D01*
X105803692Y-88462420D01*
X105795617Y-88439852D01*
X105789793Y-88416601D01*
X105786276Y-88392891D01*
X105785100Y-88368950D01*
X105785100Y-87805450D01*
X105786276Y-87781509D01*
X105789793Y-87757799D01*
X105795617Y-87734548D01*
X105803692Y-87711980D01*
X105813941Y-87690311D01*
X105826264Y-87669752D01*
X105840542Y-87650499D01*
X105856639Y-87632739D01*
X105874399Y-87616642D01*
X105893652Y-87602364D01*
X105914211Y-87590041D01*
X105935880Y-87579792D01*
X105958448Y-87571717D01*
X105981699Y-87565893D01*
X106005409Y-87562376D01*
X106029350Y-87561200D01*
X106517850Y-87561200D01*
X106541791Y-87562376D01*
G37*
G36*
X108116791Y-87562376D02*
G01*
X108140501Y-87565893D01*
X108163752Y-87571717D01*
X108186320Y-87579792D01*
X108207989Y-87590041D01*
X108228548Y-87602364D01*
X108247801Y-87616642D01*
X108265561Y-87632739D01*
X108281658Y-87650499D01*
X108295936Y-87669752D01*
X108308259Y-87690311D01*
X108318508Y-87711980D01*
X108326583Y-87734548D01*
X108332407Y-87757799D01*
X108335924Y-87781509D01*
X108337100Y-87805450D01*
X108337100Y-88368950D01*
X108335924Y-88392891D01*
X108332407Y-88416601D01*
X108326583Y-88439852D01*
X108318508Y-88462420D01*
X108308259Y-88484089D01*
X108295936Y-88504648D01*
X108281658Y-88523901D01*
X108265561Y-88541661D01*
X108247801Y-88557758D01*
X108228548Y-88572036D01*
X108207989Y-88584359D01*
X108186320Y-88594608D01*
X108163752Y-88602683D01*
X108140501Y-88608507D01*
X108116791Y-88612024D01*
X108092850Y-88613200D01*
X107604350Y-88613200D01*
X107580409Y-88612024D01*
X107556699Y-88608507D01*
X107533448Y-88602683D01*
X107510880Y-88594608D01*
X107489211Y-88584359D01*
X107468652Y-88572036D01*
X107449399Y-88557758D01*
X107431639Y-88541661D01*
X107415542Y-88523901D01*
X107401264Y-88504648D01*
X107388941Y-88484089D01*
X107378692Y-88462420D01*
X107370617Y-88439852D01*
X107364793Y-88416601D01*
X107361276Y-88392891D01*
X107360100Y-88368950D01*
X107360100Y-87805450D01*
X107361276Y-87781509D01*
X107364793Y-87757799D01*
X107370617Y-87734548D01*
X107378692Y-87711980D01*
X107388941Y-87690311D01*
X107401264Y-87669752D01*
X107415542Y-87650499D01*
X107431639Y-87632739D01*
X107449399Y-87616642D01*
X107468652Y-87602364D01*
X107489211Y-87590041D01*
X107510880Y-87579792D01*
X107533448Y-87571717D01*
X107556699Y-87565893D01*
X107580409Y-87562376D01*
X107604350Y-87561200D01*
X108092850Y-87561200D01*
X108116791Y-87562376D01*
G37*
G36*
X109450091Y-94140976D02*
G01*
X109473801Y-94144493D01*
X109497052Y-94150317D01*
X109519620Y-94158392D01*
X109541289Y-94168641D01*
X109561848Y-94180964D01*
X109581101Y-94195242D01*
X109598861Y-94211339D01*
X109614958Y-94229099D01*
X109629236Y-94248352D01*
X109641559Y-94268911D01*
X109651808Y-94290580D01*
X109659883Y-94313148D01*
X109665707Y-94336399D01*
X109669224Y-94360109D01*
X109670400Y-94384050D01*
X109670400Y-94947550D01*
X109669224Y-94971491D01*
X109665707Y-94995201D01*
X109659883Y-95018452D01*
X109651808Y-95041020D01*
X109641559Y-95062689D01*
X109629236Y-95083248D01*
X109614958Y-95102501D01*
X109598861Y-95120261D01*
X109581101Y-95136358D01*
X109561848Y-95150636D01*
X109541289Y-95162959D01*
X109519620Y-95173208D01*
X109497052Y-95181283D01*
X109473801Y-95187107D01*
X109450091Y-95190624D01*
X109426150Y-95191800D01*
X108937650Y-95191800D01*
X108913709Y-95190624D01*
X108889999Y-95187107D01*
X108866748Y-95181283D01*
X108844180Y-95173208D01*
X108822511Y-95162959D01*
X108801952Y-95150636D01*
X108782699Y-95136358D01*
X108764939Y-95120261D01*
X108748842Y-95102501D01*
X108734564Y-95083248D01*
X108722241Y-95062689D01*
X108711992Y-95041020D01*
X108703917Y-95018452D01*
X108698093Y-94995201D01*
X108694576Y-94971491D01*
X108693400Y-94947550D01*
X108693400Y-94384050D01*
X108694576Y-94360109D01*
X108698093Y-94336399D01*
X108703917Y-94313148D01*
X108711992Y-94290580D01*
X108722241Y-94268911D01*
X108734564Y-94248352D01*
X108748842Y-94229099D01*
X108764939Y-94211339D01*
X108782699Y-94195242D01*
X108801952Y-94180964D01*
X108822511Y-94168641D01*
X108844180Y-94158392D01*
X108866748Y-94150317D01*
X108889999Y-94144493D01*
X108913709Y-94140976D01*
X108937650Y-94139800D01*
X109426150Y-94139800D01*
X109450091Y-94140976D01*
G37*
G36*
X111025091Y-94140976D02*
G01*
X111048801Y-94144493D01*
X111072052Y-94150317D01*
X111094620Y-94158392D01*
X111116289Y-94168641D01*
X111136848Y-94180964D01*
X111156101Y-94195242D01*
X111173861Y-94211339D01*
X111189958Y-94229099D01*
X111204236Y-94248352D01*
X111216559Y-94268911D01*
X111226808Y-94290580D01*
X111234883Y-94313148D01*
X111240707Y-94336399D01*
X111244224Y-94360109D01*
X111245400Y-94384050D01*
X111245400Y-94947550D01*
X111244224Y-94971491D01*
X111240707Y-94995201D01*
X111234883Y-95018452D01*
X111226808Y-95041020D01*
X111216559Y-95062689D01*
X111204236Y-95083248D01*
X111189958Y-95102501D01*
X111173861Y-95120261D01*
X111156101Y-95136358D01*
X111136848Y-95150636D01*
X111116289Y-95162959D01*
X111094620Y-95173208D01*
X111072052Y-95181283D01*
X111048801Y-95187107D01*
X111025091Y-95190624D01*
X111001150Y-95191800D01*
X110512650Y-95191800D01*
X110488709Y-95190624D01*
X110464999Y-95187107D01*
X110441748Y-95181283D01*
X110419180Y-95173208D01*
X110397511Y-95162959D01*
X110376952Y-95150636D01*
X110357699Y-95136358D01*
X110339939Y-95120261D01*
X110323842Y-95102501D01*
X110309564Y-95083248D01*
X110297241Y-95062689D01*
X110286992Y-95041020D01*
X110278917Y-95018452D01*
X110273093Y-94995201D01*
X110269576Y-94971491D01*
X110268400Y-94947550D01*
X110268400Y-94384050D01*
X110269576Y-94360109D01*
X110273093Y-94336399D01*
X110278917Y-94313148D01*
X110286992Y-94290580D01*
X110297241Y-94268911D01*
X110309564Y-94248352D01*
X110323842Y-94229099D01*
X110339939Y-94211339D01*
X110357699Y-94195242D01*
X110376952Y-94180964D01*
X110397511Y-94168641D01*
X110419180Y-94158392D01*
X110441748Y-94150317D01*
X110464999Y-94144493D01*
X110488709Y-94140976D01*
X110512650Y-94139800D01*
X111001150Y-94139800D01*
X111025091Y-94140976D01*
G37*
D16*
X105330000Y-110490000D03*
D17*
X100330000Y-110490000D03*
D26*
X99060000Y-101600000D03*
X119380000Y-101600000D03*
X119380000Y-58420000D03*
X99060000Y-58420000D03*
D27*
X120650000Y-97790000D03*
X120650000Y-95250000D03*
X120650000Y-92710000D03*
X120650000Y-90170000D03*
X120650000Y-87630000D03*
X120650000Y-85090000D03*
X120650000Y-82550000D03*
X120650000Y-80010000D03*
X120650000Y-77470000D03*
X120650000Y-74930000D03*
X120650000Y-72390000D03*
X120650000Y-69850000D03*
X120650000Y-67310000D03*
X120650000Y-64770000D03*
D28*
X120650000Y-62230000D03*
D27*
X97790000Y-97790000D03*
X97790000Y-95250000D03*
X97790000Y-92710000D03*
X97790000Y-90170000D03*
X97790000Y-87630000D03*
X97790000Y-85090000D03*
X97790000Y-82550000D03*
X97790000Y-80010000D03*
X97790000Y-77470000D03*
X97790000Y-74930000D03*
X97790000Y-72390000D03*
X97790000Y-69850000D03*
X97790000Y-67310000D03*
X97790000Y-64770000D03*
D28*
X97790000Y-62230000D03*
M02*
