M48
; DRILL file {KiCad 5.1.5+dfsg1-2build2} date Di 06 Dez 2022 01:13:14
; FORMAT={-:-/ absolute / inch / decimal}
; #@! TF.CreationDate,2022-12-06T01:13:14+01:00
; #@! TF.GenerationSoftware,Kicad,Pcbnew,5.1.5+dfsg1-2build2
; #@! TF.FileFunction,Plated,1,2,PTH
FMAT,2
INCH
T1C0.0157
T2C0.0350
T3C0.0394
T4C0.0551
%
G90
G05
T1
X3.9485Y-2.4409
X3.9865Y-3.655
X3.998Y-3.444
X4.002Y-3.5155
X4.0035Y-3.5955
X4.0145Y-4.001
X4.035Y-3.933
X4.0495Y-3.6515
X4.066Y-3.355
X4.0745Y-2.4409
X4.0886Y-2.877
X4.0896Y-2.9626
X4.1093Y-3.0541
X4.1388Y-2.8238
X4.1496Y-3.1004
X4.1575Y-3.738
X4.163Y-4.079
X4.17Y-3.3665
X4.1969Y-2.8967
X4.1969Y-2.9774
X4.1985Y-2.4409
X4.2077Y-3.1683
X4.2116Y-2.8327
X4.218Y-2.592
X4.2402Y-4.1713
X4.251Y-3.0394
X4.251Y-3.3602
X4.2618Y-2.7972
X4.2756Y-3.2283
X4.3095Y-2.4409
X4.315Y-2.7687
X4.3228Y-2.997
X4.3258Y-3.3789
X4.3268Y-3.0945
X4.3287Y-3.2992
X4.3325Y-2.907
X4.353Y-3.4675
X4.3632Y-4.1801
X4.3775Y-3.799
X4.379Y-3.854
X4.3809Y-2.8406
X4.39Y-3.651
X4.3925Y-3.535
X4.4165Y-3.113
X4.4245Y-2.4409
X4.4528Y-4.001
X4.4902Y-2.6644
X4.499Y-2.5177
X4.5079Y-2.8061
X4.5217Y-4.065
X4.5425Y-2.4409
X4.565Y-2.6821
X4.5659Y-2.502
X4.5778Y-3.3169
X4.5797Y-3.1506
X4.5827Y-3.2392
X4.5837Y-3.4065
X4.5935Y-3.0709
X4.5945Y-2.811
X4.6299Y-3.8986
X4.6319Y-3.4744
X4.6358Y-2.6988
X4.6398Y-2.4852
X4.648Y-2.4409
X4.6673Y-3.0699
X4.682Y-2.908
X4.6841Y-3.5994
X4.6909Y-4.1526
T2
X3.85Y-2.45
X3.85Y-2.55
X3.85Y-2.65
X3.85Y-2.75
X3.85Y-2.85
X3.85Y-2.95
X3.85Y-3.05
X3.85Y-3.15
X3.85Y-3.25
X3.85Y-3.35
X3.85Y-3.45
X3.85Y-3.55
X3.85Y-3.65
X3.85Y-3.75
X3.85Y-3.85
X4.75Y-2.45
X4.75Y-2.55
X4.75Y-2.65
X4.75Y-2.75
X4.75Y-2.85
X4.75Y-2.95
X4.75Y-3.05
X4.75Y-3.15
X4.75Y-3.25
X4.75Y-3.35
X4.75Y-3.45
X4.75Y-3.55
X4.75Y-3.65
X4.75Y-3.75
X4.75Y-3.85
T3
X4.1455Y-3.9705
X4.3424Y-3.9705
X3.95Y-4.35
X4.1469Y-4.35
X4.6083Y-3.6116
X4.6083Y-3.7116
X4.6083Y-3.8116
T4
X4.45Y-4.4
X4.6469Y-4.4
T0
M30
