G04 #@! TF.GenerationSoftware,KiCad,Pcbnew,5.1.5+dfsg1-2build2*
G04 #@! TF.CreationDate,2022-12-06T01:13:10+01:00*
G04 #@! TF.ProjectId,MBus_to_radio,4d427573-5f74-46f5-9f72-6164696f2e6b,rev?*
G04 #@! TF.SameCoordinates,Original*
G04 #@! TF.FileFunction,Soldermask,Bot*
G04 #@! TF.FilePolarity,Negative*
%FSLAX46Y46*%
G04 Gerber Fmt 4.6, Leading zero omitted, Abs format (unit mm)*
G04 Created by KiCad (PCBNEW 5.1.5+dfsg1-2build2) date 2022-12-06 01:13:10*
%MOMM*%
%LPD*%
G04 APERTURE LIST*
%ADD10C,0.100000*%
G04 APERTURE END LIST*
D10*
G36*
X118244794Y-110680155D02*
G01*
X118351150Y-110701311D01*
X118451334Y-110742809D01*
X118551520Y-110784307D01*
X118731844Y-110904795D01*
X118885205Y-111058156D01*
X119005693Y-111238480D01*
X119005693Y-111238481D01*
X119081455Y-111421385D01*
X119088689Y-111438851D01*
X119131000Y-111651560D01*
X119131000Y-111868440D01*
X119088689Y-112081149D01*
X119005693Y-112281520D01*
X118885205Y-112461844D01*
X118731844Y-112615205D01*
X118551520Y-112735693D01*
X118451334Y-112777191D01*
X118351150Y-112818689D01*
X118244795Y-112839844D01*
X118138440Y-112861000D01*
X117921560Y-112861000D01*
X117815205Y-112839844D01*
X117708850Y-112818689D01*
X117608666Y-112777191D01*
X117508480Y-112735693D01*
X117328156Y-112615205D01*
X117174795Y-112461844D01*
X117054307Y-112281520D01*
X116971311Y-112081149D01*
X116929000Y-111868440D01*
X116929000Y-111651560D01*
X116971311Y-111438851D01*
X116978546Y-111421385D01*
X117054307Y-111238481D01*
X117054307Y-111238480D01*
X117174795Y-111058156D01*
X117328156Y-110904795D01*
X117508480Y-110784307D01*
X117608666Y-110742809D01*
X117708850Y-110701311D01*
X117815206Y-110680155D01*
X117921560Y-110659000D01*
X118138440Y-110659000D01*
X118244794Y-110680155D01*
G37*
G36*
X114131000Y-112861000D02*
G01*
X111929000Y-112861000D01*
X111929000Y-110659000D01*
X114131000Y-110659000D01*
X114131000Y-112861000D01*
G37*
G36*
X101381000Y-111541000D02*
G01*
X99279000Y-111541000D01*
X99279000Y-109439000D01*
X101381000Y-109439000D01*
X101381000Y-111541000D01*
G37*
G36*
X105636564Y-109479389D02*
G01*
X105827833Y-109558615D01*
X105827835Y-109558616D01*
X105999973Y-109673635D01*
X106146365Y-109820027D01*
X106261385Y-109992167D01*
X106340611Y-110183436D01*
X106381000Y-110386484D01*
X106381000Y-110593516D01*
X106340611Y-110796564D01*
X106295780Y-110904795D01*
X106261384Y-110987835D01*
X106146365Y-111159973D01*
X105999973Y-111306365D01*
X105827835Y-111421384D01*
X105827834Y-111421385D01*
X105827833Y-111421385D01*
X105636564Y-111500611D01*
X105433516Y-111541000D01*
X105226484Y-111541000D01*
X105023436Y-111500611D01*
X104832167Y-111421385D01*
X104832166Y-111421385D01*
X104832165Y-111421384D01*
X104660027Y-111306365D01*
X104513635Y-111159973D01*
X104398616Y-110987835D01*
X104364220Y-110904795D01*
X104319389Y-110796564D01*
X104279000Y-110593516D01*
X104279000Y-110386484D01*
X104319389Y-110183436D01*
X104398615Y-109992167D01*
X104513635Y-109820027D01*
X104660027Y-109673635D01*
X104832165Y-109558616D01*
X104832167Y-109558615D01*
X105023436Y-109479389D01*
X105226484Y-109439000D01*
X105433516Y-109439000D01*
X105636564Y-109479389D01*
G37*
G36*
X99435256Y-99991298D02*
G01*
X99541579Y-100012447D01*
X99842042Y-100136903D01*
X100112451Y-100317585D01*
X100342415Y-100547549D01*
X100523097Y-100817958D01*
X100647553Y-101118421D01*
X100668702Y-101224744D01*
X100711000Y-101437389D01*
X100711000Y-101762611D01*
X100707126Y-101782085D01*
X100647553Y-102081579D01*
X100523097Y-102382042D01*
X100342415Y-102652451D01*
X100112451Y-102882415D01*
X99842042Y-103063097D01*
X99541579Y-103187553D01*
X99435256Y-103208702D01*
X99222611Y-103251000D01*
X98897389Y-103251000D01*
X98684744Y-103208702D01*
X98578421Y-103187553D01*
X98277958Y-103063097D01*
X98007549Y-102882415D01*
X97777585Y-102652451D01*
X97596903Y-102382042D01*
X97472447Y-102081579D01*
X97412874Y-101782085D01*
X97409000Y-101762611D01*
X97409000Y-101437389D01*
X97451298Y-101224744D01*
X97472447Y-101118421D01*
X97596903Y-100817958D01*
X97777585Y-100547549D01*
X98007549Y-100317585D01*
X98277958Y-100136903D01*
X98578421Y-100012447D01*
X98684744Y-99991298D01*
X98897389Y-99949000D01*
X99222611Y-99949000D01*
X99435256Y-99991298D01*
G37*
G36*
X119755256Y-99991298D02*
G01*
X119861579Y-100012447D01*
X120162042Y-100136903D01*
X120432451Y-100317585D01*
X120662415Y-100547549D01*
X120843097Y-100817958D01*
X120967553Y-101118421D01*
X120988702Y-101224744D01*
X121031000Y-101437389D01*
X121031000Y-101762611D01*
X121027126Y-101782085D01*
X120967553Y-102081579D01*
X120843097Y-102382042D01*
X120662415Y-102652451D01*
X120432451Y-102882415D01*
X120162042Y-103063097D01*
X119861579Y-103187553D01*
X119755256Y-103208702D01*
X119542611Y-103251000D01*
X119217389Y-103251000D01*
X119004744Y-103208702D01*
X118898421Y-103187553D01*
X118597958Y-103063097D01*
X118327549Y-102882415D01*
X118097585Y-102652451D01*
X117916903Y-102382042D01*
X117792447Y-102081579D01*
X117732874Y-101782085D01*
X117729000Y-101762611D01*
X117729000Y-101437389D01*
X117771298Y-101224744D01*
X117792447Y-101118421D01*
X117916903Y-100817958D01*
X118097585Y-100547549D01*
X118327549Y-100317585D01*
X118597958Y-100136903D01*
X118898421Y-100012447D01*
X119004744Y-99991298D01*
X119217389Y-99949000D01*
X119542611Y-99949000D01*
X119755256Y-99991298D01*
G37*
G36*
X110602264Y-99840089D02*
G01*
X110793533Y-99919315D01*
X110793535Y-99919316D01*
X110965673Y-100034335D01*
X111112065Y-100180727D01*
X111203511Y-100317585D01*
X111227085Y-100352867D01*
X111306311Y-100544136D01*
X111346700Y-100747184D01*
X111346700Y-100954216D01*
X111306311Y-101157264D01*
X111227085Y-101348533D01*
X111227084Y-101348535D01*
X111112065Y-101520673D01*
X110965673Y-101667065D01*
X110793535Y-101782084D01*
X110793534Y-101782085D01*
X110793533Y-101782085D01*
X110602264Y-101861311D01*
X110399216Y-101901700D01*
X110192184Y-101901700D01*
X109989136Y-101861311D01*
X109797867Y-101782085D01*
X109797866Y-101782085D01*
X109797865Y-101782084D01*
X109625727Y-101667065D01*
X109479335Y-101520673D01*
X109364316Y-101348535D01*
X109364315Y-101348533D01*
X109285089Y-101157264D01*
X109244700Y-100954216D01*
X109244700Y-100747184D01*
X109285089Y-100544136D01*
X109364315Y-100352867D01*
X109387890Y-100317585D01*
X109479335Y-100180727D01*
X109625727Y-100034335D01*
X109797865Y-99919316D01*
X109797867Y-99919315D01*
X109989136Y-99840089D01*
X110192184Y-99799700D01*
X110399216Y-99799700D01*
X110602264Y-99840089D01*
G37*
G36*
X106346700Y-101901700D02*
G01*
X104244700Y-101901700D01*
X104244700Y-99799700D01*
X106346700Y-99799700D01*
X106346700Y-101901700D01*
G37*
G36*
X98020926Y-96800029D02*
G01*
X98086356Y-96813044D01*
X98271256Y-96889632D01*
X98437662Y-97000821D01*
X98579179Y-97142338D01*
X98690368Y-97308744D01*
X98766956Y-97493644D01*
X98806000Y-97689933D01*
X98806000Y-97890067D01*
X98766956Y-98086356D01*
X98690368Y-98271256D01*
X98579179Y-98437662D01*
X98437662Y-98579179D01*
X98271256Y-98690368D01*
X98086356Y-98766956D01*
X98020926Y-98779971D01*
X97890069Y-98806000D01*
X97689931Y-98806000D01*
X97559074Y-98779971D01*
X97493644Y-98766956D01*
X97308744Y-98690368D01*
X97142338Y-98579179D01*
X97000821Y-98437662D01*
X96889632Y-98271256D01*
X96813044Y-98086356D01*
X96774000Y-97890067D01*
X96774000Y-97689933D01*
X96813044Y-97493644D01*
X96889632Y-97308744D01*
X97000821Y-97142338D01*
X97142338Y-97000821D01*
X97308744Y-96889632D01*
X97493644Y-96813044D01*
X97559074Y-96800029D01*
X97689931Y-96774000D01*
X97890069Y-96774000D01*
X98020926Y-96800029D01*
G37*
G36*
X120880926Y-96800029D02*
G01*
X120946356Y-96813044D01*
X121131256Y-96889632D01*
X121297662Y-97000821D01*
X121439179Y-97142338D01*
X121550368Y-97308744D01*
X121626956Y-97493644D01*
X121666000Y-97689933D01*
X121666000Y-97890067D01*
X121626956Y-98086356D01*
X121550368Y-98271256D01*
X121439179Y-98437662D01*
X121297662Y-98579179D01*
X121131256Y-98690368D01*
X120946356Y-98766956D01*
X120880926Y-98779971D01*
X120750069Y-98806000D01*
X120549931Y-98806000D01*
X120419074Y-98779971D01*
X120353644Y-98766956D01*
X120168744Y-98690368D01*
X120002338Y-98579179D01*
X119860821Y-98437662D01*
X119749632Y-98271256D01*
X119673044Y-98086356D01*
X119634000Y-97890067D01*
X119634000Y-97689933D01*
X119673044Y-97493644D01*
X119749632Y-97308744D01*
X119860821Y-97142338D01*
X120002338Y-97000821D01*
X120168744Y-96889632D01*
X120353644Y-96813044D01*
X120419074Y-96800029D01*
X120549931Y-96774000D01*
X120750069Y-96774000D01*
X120880926Y-96800029D01*
G37*
G36*
X117951000Y-97716000D02*
G01*
X116149000Y-97716000D01*
X116149000Y-95914000D01*
X117951000Y-95914000D01*
X117951000Y-97716000D01*
G37*
G36*
X120880926Y-94260029D02*
G01*
X120946356Y-94273044D01*
X121131256Y-94349632D01*
X121297662Y-94460821D01*
X121439179Y-94602338D01*
X121550368Y-94768744D01*
X121626956Y-94953644D01*
X121666000Y-95149933D01*
X121666000Y-95350067D01*
X121626956Y-95546356D01*
X121550368Y-95731256D01*
X121439179Y-95897662D01*
X121297662Y-96039179D01*
X121131256Y-96150368D01*
X120946356Y-96226956D01*
X120880926Y-96239971D01*
X120750069Y-96266000D01*
X120549931Y-96266000D01*
X120419074Y-96239971D01*
X120353644Y-96226956D01*
X120168744Y-96150368D01*
X120002338Y-96039179D01*
X119860821Y-95897662D01*
X119749632Y-95731256D01*
X119673044Y-95546356D01*
X119634000Y-95350067D01*
X119634000Y-95149933D01*
X119673044Y-94953644D01*
X119749632Y-94768744D01*
X119860821Y-94602338D01*
X120002338Y-94460821D01*
X120168744Y-94349632D01*
X120353644Y-94273044D01*
X120419074Y-94260029D01*
X120549931Y-94234000D01*
X120750069Y-94234000D01*
X120880926Y-94260029D01*
G37*
G36*
X98020926Y-94260029D02*
G01*
X98086356Y-94273044D01*
X98271256Y-94349632D01*
X98437662Y-94460821D01*
X98579179Y-94602338D01*
X98690368Y-94768744D01*
X98766956Y-94953644D01*
X98806000Y-95149933D01*
X98806000Y-95350067D01*
X98766956Y-95546356D01*
X98690368Y-95731256D01*
X98579179Y-95897662D01*
X98437662Y-96039179D01*
X98271256Y-96150368D01*
X98086356Y-96226956D01*
X98020926Y-96239971D01*
X97890069Y-96266000D01*
X97689931Y-96266000D01*
X97559074Y-96239971D01*
X97493644Y-96226956D01*
X97308744Y-96150368D01*
X97142338Y-96039179D01*
X97000821Y-95897662D01*
X96889632Y-95731256D01*
X96813044Y-95546356D01*
X96774000Y-95350067D01*
X96774000Y-95149933D01*
X96813044Y-94953644D01*
X96889632Y-94768744D01*
X97000821Y-94602338D01*
X97142338Y-94460821D01*
X97308744Y-94349632D01*
X97493644Y-94273044D01*
X97559074Y-94260029D01*
X97689931Y-94234000D01*
X97890069Y-94234000D01*
X98020926Y-94260029D01*
G37*
G36*
X117163512Y-93378927D02*
G01*
X117312812Y-93408624D01*
X117476784Y-93476544D01*
X117624354Y-93575147D01*
X117749853Y-93700646D01*
X117848456Y-93848216D01*
X117916376Y-94012188D01*
X117951000Y-94186259D01*
X117951000Y-94363741D01*
X117916376Y-94537812D01*
X117848456Y-94701784D01*
X117749853Y-94849354D01*
X117624354Y-94974853D01*
X117476784Y-95073456D01*
X117312812Y-95141376D01*
X117163512Y-95171073D01*
X117138742Y-95176000D01*
X116961258Y-95176000D01*
X116936488Y-95171073D01*
X116787188Y-95141376D01*
X116623216Y-95073456D01*
X116475646Y-94974853D01*
X116350147Y-94849354D01*
X116251544Y-94701784D01*
X116183624Y-94537812D01*
X116149000Y-94363741D01*
X116149000Y-94186259D01*
X116183624Y-94012188D01*
X116251544Y-93848216D01*
X116350147Y-93700646D01*
X116475646Y-93575147D01*
X116623216Y-93476544D01*
X116787188Y-93408624D01*
X116936488Y-93378927D01*
X116961258Y-93374000D01*
X117138742Y-93374000D01*
X117163512Y-93378927D01*
G37*
G36*
X120880926Y-91720029D02*
G01*
X120946356Y-91733044D01*
X121131256Y-91809632D01*
X121297662Y-91920821D01*
X121439179Y-92062338D01*
X121550368Y-92228744D01*
X121626956Y-92413644D01*
X121666000Y-92609933D01*
X121666000Y-92810067D01*
X121626956Y-93006356D01*
X121550368Y-93191256D01*
X121439179Y-93357662D01*
X121297662Y-93499179D01*
X121131256Y-93610368D01*
X120946356Y-93686956D01*
X120880926Y-93699971D01*
X120750069Y-93726000D01*
X120549931Y-93726000D01*
X120419074Y-93699971D01*
X120353644Y-93686956D01*
X120168744Y-93610368D01*
X120002338Y-93499179D01*
X119860821Y-93357662D01*
X119749632Y-93191256D01*
X119673044Y-93006356D01*
X119634000Y-92810067D01*
X119634000Y-92609933D01*
X119673044Y-92413644D01*
X119749632Y-92228744D01*
X119860821Y-92062338D01*
X120002338Y-91920821D01*
X120168744Y-91809632D01*
X120353644Y-91733044D01*
X120419074Y-91720029D01*
X120549931Y-91694000D01*
X120750069Y-91694000D01*
X120880926Y-91720029D01*
G37*
G36*
X98020926Y-91720029D02*
G01*
X98086356Y-91733044D01*
X98271256Y-91809632D01*
X98437662Y-91920821D01*
X98579179Y-92062338D01*
X98690368Y-92228744D01*
X98766956Y-92413644D01*
X98806000Y-92609933D01*
X98806000Y-92810067D01*
X98766956Y-93006356D01*
X98690368Y-93191256D01*
X98579179Y-93357662D01*
X98437662Y-93499179D01*
X98271256Y-93610368D01*
X98086356Y-93686956D01*
X98020926Y-93699971D01*
X97890069Y-93726000D01*
X97689931Y-93726000D01*
X97559074Y-93699971D01*
X97493644Y-93686956D01*
X97308744Y-93610368D01*
X97142338Y-93499179D01*
X97000821Y-93357662D01*
X96889632Y-93191256D01*
X96813044Y-93006356D01*
X96774000Y-92810067D01*
X96774000Y-92609933D01*
X96813044Y-92413644D01*
X96889632Y-92228744D01*
X97000821Y-92062338D01*
X97142338Y-91920821D01*
X97308744Y-91809632D01*
X97493644Y-91733044D01*
X97559074Y-91720029D01*
X97689931Y-91694000D01*
X97890069Y-91694000D01*
X98020926Y-91720029D01*
G37*
G36*
X117163512Y-90838927D02*
G01*
X117312812Y-90868624D01*
X117476784Y-90936544D01*
X117624354Y-91035147D01*
X117749853Y-91160646D01*
X117848456Y-91308216D01*
X117916376Y-91472188D01*
X117951000Y-91646259D01*
X117951000Y-91823741D01*
X117916376Y-91997812D01*
X117848456Y-92161784D01*
X117749853Y-92309354D01*
X117624354Y-92434853D01*
X117476784Y-92533456D01*
X117312812Y-92601376D01*
X117163512Y-92631073D01*
X117138742Y-92636000D01*
X116961258Y-92636000D01*
X116936488Y-92631073D01*
X116787188Y-92601376D01*
X116623216Y-92533456D01*
X116475646Y-92434853D01*
X116350147Y-92309354D01*
X116251544Y-92161784D01*
X116183624Y-91997812D01*
X116149000Y-91823741D01*
X116149000Y-91646259D01*
X116183624Y-91472188D01*
X116251544Y-91308216D01*
X116350147Y-91160646D01*
X116475646Y-91035147D01*
X116623216Y-90936544D01*
X116787188Y-90868624D01*
X116936488Y-90838927D01*
X116961258Y-90834000D01*
X117138742Y-90834000D01*
X117163512Y-90838927D01*
G37*
G36*
X98020926Y-89180029D02*
G01*
X98086356Y-89193044D01*
X98271256Y-89269632D01*
X98437662Y-89380821D01*
X98579179Y-89522338D01*
X98690368Y-89688744D01*
X98766956Y-89873644D01*
X98806000Y-90069933D01*
X98806000Y-90270067D01*
X98766956Y-90466356D01*
X98690368Y-90651256D01*
X98579179Y-90817662D01*
X98437662Y-90959179D01*
X98271256Y-91070368D01*
X98086356Y-91146956D01*
X98020926Y-91159971D01*
X97890069Y-91186000D01*
X97689931Y-91186000D01*
X97559074Y-91159971D01*
X97493644Y-91146956D01*
X97308744Y-91070368D01*
X97142338Y-90959179D01*
X97000821Y-90817662D01*
X96889632Y-90651256D01*
X96813044Y-90466356D01*
X96774000Y-90270067D01*
X96774000Y-90069933D01*
X96813044Y-89873644D01*
X96889632Y-89688744D01*
X97000821Y-89522338D01*
X97142338Y-89380821D01*
X97308744Y-89269632D01*
X97493644Y-89193044D01*
X97559074Y-89180029D01*
X97689931Y-89154000D01*
X97890069Y-89154000D01*
X98020926Y-89180029D01*
G37*
G36*
X120880926Y-89180029D02*
G01*
X120946356Y-89193044D01*
X121131256Y-89269632D01*
X121297662Y-89380821D01*
X121439179Y-89522338D01*
X121550368Y-89688744D01*
X121626956Y-89873644D01*
X121666000Y-90069933D01*
X121666000Y-90270067D01*
X121626956Y-90466356D01*
X121550368Y-90651256D01*
X121439179Y-90817662D01*
X121297662Y-90959179D01*
X121131256Y-91070368D01*
X120946356Y-91146956D01*
X120880926Y-91159971D01*
X120750069Y-91186000D01*
X120549931Y-91186000D01*
X120419074Y-91159971D01*
X120353644Y-91146956D01*
X120168744Y-91070368D01*
X120002338Y-90959179D01*
X119860821Y-90817662D01*
X119749632Y-90651256D01*
X119673044Y-90466356D01*
X119634000Y-90270067D01*
X119634000Y-90069933D01*
X119673044Y-89873644D01*
X119749632Y-89688744D01*
X119860821Y-89522338D01*
X120002338Y-89380821D01*
X120168744Y-89269632D01*
X120353644Y-89193044D01*
X120419074Y-89180029D01*
X120549931Y-89154000D01*
X120750069Y-89154000D01*
X120880926Y-89180029D01*
G37*
G36*
X120880926Y-86640029D02*
G01*
X120946356Y-86653044D01*
X121131256Y-86729632D01*
X121297662Y-86840821D01*
X121439179Y-86982338D01*
X121550368Y-87148744D01*
X121626956Y-87333644D01*
X121666000Y-87529933D01*
X121666000Y-87730067D01*
X121626956Y-87926356D01*
X121550368Y-88111256D01*
X121439179Y-88277662D01*
X121297662Y-88419179D01*
X121131256Y-88530368D01*
X120946356Y-88606956D01*
X120880926Y-88619971D01*
X120750069Y-88646000D01*
X120549931Y-88646000D01*
X120419074Y-88619971D01*
X120353644Y-88606956D01*
X120168744Y-88530368D01*
X120002338Y-88419179D01*
X119860821Y-88277662D01*
X119749632Y-88111256D01*
X119673044Y-87926356D01*
X119634000Y-87730067D01*
X119634000Y-87529933D01*
X119673044Y-87333644D01*
X119749632Y-87148744D01*
X119860821Y-86982338D01*
X120002338Y-86840821D01*
X120168744Y-86729632D01*
X120353644Y-86653044D01*
X120419074Y-86640029D01*
X120549931Y-86614000D01*
X120750069Y-86614000D01*
X120880926Y-86640029D01*
G37*
G36*
X98020926Y-86640029D02*
G01*
X98086356Y-86653044D01*
X98271256Y-86729632D01*
X98437662Y-86840821D01*
X98579179Y-86982338D01*
X98690368Y-87148744D01*
X98766956Y-87333644D01*
X98806000Y-87529933D01*
X98806000Y-87730067D01*
X98766956Y-87926356D01*
X98690368Y-88111256D01*
X98579179Y-88277662D01*
X98437662Y-88419179D01*
X98271256Y-88530368D01*
X98086356Y-88606956D01*
X98020926Y-88619971D01*
X97890069Y-88646000D01*
X97689931Y-88646000D01*
X97559074Y-88619971D01*
X97493644Y-88606956D01*
X97308744Y-88530368D01*
X97142338Y-88419179D01*
X97000821Y-88277662D01*
X96889632Y-88111256D01*
X96813044Y-87926356D01*
X96774000Y-87730067D01*
X96774000Y-87529933D01*
X96813044Y-87333644D01*
X96889632Y-87148744D01*
X97000821Y-86982338D01*
X97142338Y-86840821D01*
X97308744Y-86729632D01*
X97493644Y-86653044D01*
X97559074Y-86640029D01*
X97689931Y-86614000D01*
X97890069Y-86614000D01*
X98020926Y-86640029D01*
G37*
G36*
X98020926Y-84100029D02*
G01*
X98086356Y-84113044D01*
X98271256Y-84189632D01*
X98437662Y-84300821D01*
X98579179Y-84442338D01*
X98690368Y-84608744D01*
X98766956Y-84793644D01*
X98806000Y-84989933D01*
X98806000Y-85190067D01*
X98766956Y-85386356D01*
X98690368Y-85571256D01*
X98579179Y-85737662D01*
X98437662Y-85879179D01*
X98271256Y-85990368D01*
X98086356Y-86066956D01*
X98020926Y-86079971D01*
X97890069Y-86106000D01*
X97689931Y-86106000D01*
X97559074Y-86079971D01*
X97493644Y-86066956D01*
X97308744Y-85990368D01*
X97142338Y-85879179D01*
X97000821Y-85737662D01*
X96889632Y-85571256D01*
X96813044Y-85386356D01*
X96774000Y-85190067D01*
X96774000Y-84989933D01*
X96813044Y-84793644D01*
X96889632Y-84608744D01*
X97000821Y-84442338D01*
X97142338Y-84300821D01*
X97308744Y-84189632D01*
X97493644Y-84113044D01*
X97559074Y-84100029D01*
X97689931Y-84074000D01*
X97890069Y-84074000D01*
X98020926Y-84100029D01*
G37*
G36*
X120880926Y-84100029D02*
G01*
X120946356Y-84113044D01*
X121131256Y-84189632D01*
X121297662Y-84300821D01*
X121439179Y-84442338D01*
X121550368Y-84608744D01*
X121626956Y-84793644D01*
X121666000Y-84989933D01*
X121666000Y-85190067D01*
X121626956Y-85386356D01*
X121550368Y-85571256D01*
X121439179Y-85737662D01*
X121297662Y-85879179D01*
X121131256Y-85990368D01*
X120946356Y-86066956D01*
X120880926Y-86079971D01*
X120750069Y-86106000D01*
X120549931Y-86106000D01*
X120419074Y-86079971D01*
X120353644Y-86066956D01*
X120168744Y-85990368D01*
X120002338Y-85879179D01*
X119860821Y-85737662D01*
X119749632Y-85571256D01*
X119673044Y-85386356D01*
X119634000Y-85190067D01*
X119634000Y-84989933D01*
X119673044Y-84793644D01*
X119749632Y-84608744D01*
X119860821Y-84442338D01*
X120002338Y-84300821D01*
X120168744Y-84189632D01*
X120353644Y-84113044D01*
X120419074Y-84100029D01*
X120549931Y-84074000D01*
X120750069Y-84074000D01*
X120880926Y-84100029D01*
G37*
G36*
X98020926Y-81560029D02*
G01*
X98086356Y-81573044D01*
X98271256Y-81649632D01*
X98437662Y-81760821D01*
X98579179Y-81902338D01*
X98690368Y-82068744D01*
X98766956Y-82253644D01*
X98806000Y-82449933D01*
X98806000Y-82650067D01*
X98766956Y-82846356D01*
X98690368Y-83031256D01*
X98579179Y-83197662D01*
X98437662Y-83339179D01*
X98271256Y-83450368D01*
X98086356Y-83526956D01*
X98020926Y-83539971D01*
X97890069Y-83566000D01*
X97689931Y-83566000D01*
X97559074Y-83539971D01*
X97493644Y-83526956D01*
X97308744Y-83450368D01*
X97142338Y-83339179D01*
X97000821Y-83197662D01*
X96889632Y-83031256D01*
X96813044Y-82846356D01*
X96774000Y-82650067D01*
X96774000Y-82449933D01*
X96813044Y-82253644D01*
X96889632Y-82068744D01*
X97000821Y-81902338D01*
X97142338Y-81760821D01*
X97308744Y-81649632D01*
X97493644Y-81573044D01*
X97559074Y-81560029D01*
X97689931Y-81534000D01*
X97890069Y-81534000D01*
X98020926Y-81560029D01*
G37*
G36*
X120880926Y-81560029D02*
G01*
X120946356Y-81573044D01*
X121131256Y-81649632D01*
X121297662Y-81760821D01*
X121439179Y-81902338D01*
X121550368Y-82068744D01*
X121626956Y-82253644D01*
X121666000Y-82449933D01*
X121666000Y-82650067D01*
X121626956Y-82846356D01*
X121550368Y-83031256D01*
X121439179Y-83197662D01*
X121297662Y-83339179D01*
X121131256Y-83450368D01*
X120946356Y-83526956D01*
X120880926Y-83539971D01*
X120750069Y-83566000D01*
X120549931Y-83566000D01*
X120419074Y-83539971D01*
X120353644Y-83526956D01*
X120168744Y-83450368D01*
X120002338Y-83339179D01*
X119860821Y-83197662D01*
X119749632Y-83031256D01*
X119673044Y-82846356D01*
X119634000Y-82650067D01*
X119634000Y-82449933D01*
X119673044Y-82253644D01*
X119749632Y-82068744D01*
X119860821Y-81902338D01*
X120002338Y-81760821D01*
X120168744Y-81649632D01*
X120353644Y-81573044D01*
X120419074Y-81560029D01*
X120549931Y-81534000D01*
X120750069Y-81534000D01*
X120880926Y-81560029D01*
G37*
G36*
X120880926Y-79020029D02*
G01*
X120946356Y-79033044D01*
X121131256Y-79109632D01*
X121297662Y-79220821D01*
X121439179Y-79362338D01*
X121550368Y-79528744D01*
X121626956Y-79713644D01*
X121666000Y-79909933D01*
X121666000Y-80110067D01*
X121626956Y-80306356D01*
X121550368Y-80491256D01*
X121439179Y-80657662D01*
X121297662Y-80799179D01*
X121131256Y-80910368D01*
X120946356Y-80986956D01*
X120880926Y-80999971D01*
X120750069Y-81026000D01*
X120549931Y-81026000D01*
X120419074Y-80999971D01*
X120353644Y-80986956D01*
X120168744Y-80910368D01*
X120002338Y-80799179D01*
X119860821Y-80657662D01*
X119749632Y-80491256D01*
X119673044Y-80306356D01*
X119634000Y-80110067D01*
X119634000Y-79909933D01*
X119673044Y-79713644D01*
X119749632Y-79528744D01*
X119860821Y-79362338D01*
X120002338Y-79220821D01*
X120168744Y-79109632D01*
X120353644Y-79033044D01*
X120419074Y-79020029D01*
X120549931Y-78994000D01*
X120750069Y-78994000D01*
X120880926Y-79020029D01*
G37*
G36*
X98020926Y-79020029D02*
G01*
X98086356Y-79033044D01*
X98271256Y-79109632D01*
X98437662Y-79220821D01*
X98579179Y-79362338D01*
X98690368Y-79528744D01*
X98766956Y-79713644D01*
X98806000Y-79909933D01*
X98806000Y-80110067D01*
X98766956Y-80306356D01*
X98690368Y-80491256D01*
X98579179Y-80657662D01*
X98437662Y-80799179D01*
X98271256Y-80910368D01*
X98086356Y-80986956D01*
X98020926Y-80999971D01*
X97890069Y-81026000D01*
X97689931Y-81026000D01*
X97559074Y-80999971D01*
X97493644Y-80986956D01*
X97308744Y-80910368D01*
X97142338Y-80799179D01*
X97000821Y-80657662D01*
X96889632Y-80491256D01*
X96813044Y-80306356D01*
X96774000Y-80110067D01*
X96774000Y-79909933D01*
X96813044Y-79713644D01*
X96889632Y-79528744D01*
X97000821Y-79362338D01*
X97142338Y-79220821D01*
X97308744Y-79109632D01*
X97493644Y-79033044D01*
X97559074Y-79020029D01*
X97689931Y-78994000D01*
X97890069Y-78994000D01*
X98020926Y-79020029D01*
G37*
G36*
X120880926Y-76480029D02*
G01*
X120946356Y-76493044D01*
X121131256Y-76569632D01*
X121297662Y-76680821D01*
X121439179Y-76822338D01*
X121550368Y-76988744D01*
X121626956Y-77173644D01*
X121666000Y-77369933D01*
X121666000Y-77570067D01*
X121626956Y-77766356D01*
X121550368Y-77951256D01*
X121439179Y-78117662D01*
X121297662Y-78259179D01*
X121131256Y-78370368D01*
X120946356Y-78446956D01*
X120880926Y-78459971D01*
X120750069Y-78486000D01*
X120549931Y-78486000D01*
X120419074Y-78459971D01*
X120353644Y-78446956D01*
X120168744Y-78370368D01*
X120002338Y-78259179D01*
X119860821Y-78117662D01*
X119749632Y-77951256D01*
X119673044Y-77766356D01*
X119634000Y-77570067D01*
X119634000Y-77369933D01*
X119673044Y-77173644D01*
X119749632Y-76988744D01*
X119860821Y-76822338D01*
X120002338Y-76680821D01*
X120168744Y-76569632D01*
X120353644Y-76493044D01*
X120419074Y-76480029D01*
X120549931Y-76454000D01*
X120750069Y-76454000D01*
X120880926Y-76480029D01*
G37*
G36*
X98020926Y-76480029D02*
G01*
X98086356Y-76493044D01*
X98271256Y-76569632D01*
X98437662Y-76680821D01*
X98579179Y-76822338D01*
X98690368Y-76988744D01*
X98766956Y-77173644D01*
X98806000Y-77369933D01*
X98806000Y-77570067D01*
X98766956Y-77766356D01*
X98690368Y-77951256D01*
X98579179Y-78117662D01*
X98437662Y-78259179D01*
X98271256Y-78370368D01*
X98086356Y-78446956D01*
X98020926Y-78459971D01*
X97890069Y-78486000D01*
X97689931Y-78486000D01*
X97559074Y-78459971D01*
X97493644Y-78446956D01*
X97308744Y-78370368D01*
X97142338Y-78259179D01*
X97000821Y-78117662D01*
X96889632Y-77951256D01*
X96813044Y-77766356D01*
X96774000Y-77570067D01*
X96774000Y-77369933D01*
X96813044Y-77173644D01*
X96889632Y-76988744D01*
X97000821Y-76822338D01*
X97142338Y-76680821D01*
X97308744Y-76569632D01*
X97493644Y-76493044D01*
X97559074Y-76480029D01*
X97689931Y-76454000D01*
X97890069Y-76454000D01*
X98020926Y-76480029D01*
G37*
G36*
X120880926Y-73940029D02*
G01*
X120946356Y-73953044D01*
X121131256Y-74029632D01*
X121297662Y-74140821D01*
X121439179Y-74282338D01*
X121550368Y-74448744D01*
X121626956Y-74633644D01*
X121666000Y-74829933D01*
X121666000Y-75030067D01*
X121626956Y-75226356D01*
X121550368Y-75411256D01*
X121439179Y-75577662D01*
X121297662Y-75719179D01*
X121131256Y-75830368D01*
X120946356Y-75906956D01*
X120880926Y-75919971D01*
X120750069Y-75946000D01*
X120549931Y-75946000D01*
X120419074Y-75919971D01*
X120353644Y-75906956D01*
X120168744Y-75830368D01*
X120002338Y-75719179D01*
X119860821Y-75577662D01*
X119749632Y-75411256D01*
X119673044Y-75226356D01*
X119634000Y-75030067D01*
X119634000Y-74829933D01*
X119673044Y-74633644D01*
X119749632Y-74448744D01*
X119860821Y-74282338D01*
X120002338Y-74140821D01*
X120168744Y-74029632D01*
X120353644Y-73953044D01*
X120419074Y-73940029D01*
X120549931Y-73914000D01*
X120750069Y-73914000D01*
X120880926Y-73940029D01*
G37*
G36*
X98020926Y-73940029D02*
G01*
X98086356Y-73953044D01*
X98271256Y-74029632D01*
X98437662Y-74140821D01*
X98579179Y-74282338D01*
X98690368Y-74448744D01*
X98766956Y-74633644D01*
X98806000Y-74829933D01*
X98806000Y-75030067D01*
X98766956Y-75226356D01*
X98690368Y-75411256D01*
X98579179Y-75577662D01*
X98437662Y-75719179D01*
X98271256Y-75830368D01*
X98086356Y-75906956D01*
X98020926Y-75919971D01*
X97890069Y-75946000D01*
X97689931Y-75946000D01*
X97559074Y-75919971D01*
X97493644Y-75906956D01*
X97308744Y-75830368D01*
X97142338Y-75719179D01*
X97000821Y-75577662D01*
X96889632Y-75411256D01*
X96813044Y-75226356D01*
X96774000Y-75030067D01*
X96774000Y-74829933D01*
X96813044Y-74633644D01*
X96889632Y-74448744D01*
X97000821Y-74282338D01*
X97142338Y-74140821D01*
X97308744Y-74029632D01*
X97493644Y-73953044D01*
X97559074Y-73940029D01*
X97689931Y-73914000D01*
X97890069Y-73914000D01*
X98020926Y-73940029D01*
G37*
G36*
X98020926Y-71400029D02*
G01*
X98086356Y-71413044D01*
X98271256Y-71489632D01*
X98437662Y-71600821D01*
X98579179Y-71742338D01*
X98690368Y-71908744D01*
X98766956Y-72093644D01*
X98806000Y-72289933D01*
X98806000Y-72490067D01*
X98766956Y-72686356D01*
X98690368Y-72871256D01*
X98579179Y-73037662D01*
X98437662Y-73179179D01*
X98271256Y-73290368D01*
X98086356Y-73366956D01*
X98020926Y-73379971D01*
X97890069Y-73406000D01*
X97689931Y-73406000D01*
X97559074Y-73379971D01*
X97493644Y-73366956D01*
X97308744Y-73290368D01*
X97142338Y-73179179D01*
X97000821Y-73037662D01*
X96889632Y-72871256D01*
X96813044Y-72686356D01*
X96774000Y-72490067D01*
X96774000Y-72289933D01*
X96813044Y-72093644D01*
X96889632Y-71908744D01*
X97000821Y-71742338D01*
X97142338Y-71600821D01*
X97308744Y-71489632D01*
X97493644Y-71413044D01*
X97559074Y-71400029D01*
X97689931Y-71374000D01*
X97890069Y-71374000D01*
X98020926Y-71400029D01*
G37*
G36*
X120880926Y-71400029D02*
G01*
X120946356Y-71413044D01*
X121131256Y-71489632D01*
X121297662Y-71600821D01*
X121439179Y-71742338D01*
X121550368Y-71908744D01*
X121626956Y-72093644D01*
X121666000Y-72289933D01*
X121666000Y-72490067D01*
X121626956Y-72686356D01*
X121550368Y-72871256D01*
X121439179Y-73037662D01*
X121297662Y-73179179D01*
X121131256Y-73290368D01*
X120946356Y-73366956D01*
X120880926Y-73379971D01*
X120750069Y-73406000D01*
X120549931Y-73406000D01*
X120419074Y-73379971D01*
X120353644Y-73366956D01*
X120168744Y-73290368D01*
X120002338Y-73179179D01*
X119860821Y-73037662D01*
X119749632Y-72871256D01*
X119673044Y-72686356D01*
X119634000Y-72490067D01*
X119634000Y-72289933D01*
X119673044Y-72093644D01*
X119749632Y-71908744D01*
X119860821Y-71742338D01*
X120002338Y-71600821D01*
X120168744Y-71489632D01*
X120353644Y-71413044D01*
X120419074Y-71400029D01*
X120549931Y-71374000D01*
X120750069Y-71374000D01*
X120880926Y-71400029D01*
G37*
G36*
X98020926Y-68860029D02*
G01*
X98086356Y-68873044D01*
X98271256Y-68949632D01*
X98437662Y-69060821D01*
X98579179Y-69202338D01*
X98690368Y-69368744D01*
X98766956Y-69553644D01*
X98806000Y-69749933D01*
X98806000Y-69950067D01*
X98766956Y-70146356D01*
X98690368Y-70331256D01*
X98579179Y-70497662D01*
X98437662Y-70639179D01*
X98271256Y-70750368D01*
X98086356Y-70826956D01*
X98020926Y-70839971D01*
X97890069Y-70866000D01*
X97689931Y-70866000D01*
X97559074Y-70839971D01*
X97493644Y-70826956D01*
X97308744Y-70750368D01*
X97142338Y-70639179D01*
X97000821Y-70497662D01*
X96889632Y-70331256D01*
X96813044Y-70146356D01*
X96774000Y-69950067D01*
X96774000Y-69749933D01*
X96813044Y-69553644D01*
X96889632Y-69368744D01*
X97000821Y-69202338D01*
X97142338Y-69060821D01*
X97308744Y-68949632D01*
X97493644Y-68873044D01*
X97559074Y-68860029D01*
X97689931Y-68834000D01*
X97890069Y-68834000D01*
X98020926Y-68860029D01*
G37*
G36*
X120880926Y-68860029D02*
G01*
X120946356Y-68873044D01*
X121131256Y-68949632D01*
X121297662Y-69060821D01*
X121439179Y-69202338D01*
X121550368Y-69368744D01*
X121626956Y-69553644D01*
X121666000Y-69749933D01*
X121666000Y-69950067D01*
X121626956Y-70146356D01*
X121550368Y-70331256D01*
X121439179Y-70497662D01*
X121297662Y-70639179D01*
X121131256Y-70750368D01*
X120946356Y-70826956D01*
X120880926Y-70839971D01*
X120750069Y-70866000D01*
X120549931Y-70866000D01*
X120419074Y-70839971D01*
X120353644Y-70826956D01*
X120168744Y-70750368D01*
X120002338Y-70639179D01*
X119860821Y-70497662D01*
X119749632Y-70331256D01*
X119673044Y-70146356D01*
X119634000Y-69950067D01*
X119634000Y-69749933D01*
X119673044Y-69553644D01*
X119749632Y-69368744D01*
X119860821Y-69202338D01*
X120002338Y-69060821D01*
X120168744Y-68949632D01*
X120353644Y-68873044D01*
X120419074Y-68860029D01*
X120549931Y-68834000D01*
X120750069Y-68834000D01*
X120880926Y-68860029D01*
G37*
G36*
X120880926Y-66320029D02*
G01*
X120946356Y-66333044D01*
X121131256Y-66409632D01*
X121297662Y-66520821D01*
X121439179Y-66662338D01*
X121550368Y-66828744D01*
X121626956Y-67013644D01*
X121666000Y-67209933D01*
X121666000Y-67410067D01*
X121626956Y-67606356D01*
X121550368Y-67791256D01*
X121439179Y-67957662D01*
X121297662Y-68099179D01*
X121131256Y-68210368D01*
X120946356Y-68286956D01*
X120880926Y-68299971D01*
X120750069Y-68326000D01*
X120549931Y-68326000D01*
X120419074Y-68299971D01*
X120353644Y-68286956D01*
X120168744Y-68210368D01*
X120002338Y-68099179D01*
X119860821Y-67957662D01*
X119749632Y-67791256D01*
X119673044Y-67606356D01*
X119634000Y-67410067D01*
X119634000Y-67209933D01*
X119673044Y-67013644D01*
X119749632Y-66828744D01*
X119860821Y-66662338D01*
X120002338Y-66520821D01*
X120168744Y-66409632D01*
X120353644Y-66333044D01*
X120419074Y-66320029D01*
X120549931Y-66294000D01*
X120750069Y-66294000D01*
X120880926Y-66320029D01*
G37*
G36*
X98020926Y-66320029D02*
G01*
X98086356Y-66333044D01*
X98271256Y-66409632D01*
X98437662Y-66520821D01*
X98579179Y-66662338D01*
X98690368Y-66828744D01*
X98766956Y-67013644D01*
X98806000Y-67209933D01*
X98806000Y-67410067D01*
X98766956Y-67606356D01*
X98690368Y-67791256D01*
X98579179Y-67957662D01*
X98437662Y-68099179D01*
X98271256Y-68210368D01*
X98086356Y-68286956D01*
X98020926Y-68299971D01*
X97890069Y-68326000D01*
X97689931Y-68326000D01*
X97559074Y-68299971D01*
X97493644Y-68286956D01*
X97308744Y-68210368D01*
X97142338Y-68099179D01*
X97000821Y-67957662D01*
X96889632Y-67791256D01*
X96813044Y-67606356D01*
X96774000Y-67410067D01*
X96774000Y-67209933D01*
X96813044Y-67013644D01*
X96889632Y-66828744D01*
X97000821Y-66662338D01*
X97142338Y-66520821D01*
X97308744Y-66409632D01*
X97493644Y-66333044D01*
X97559074Y-66320029D01*
X97689931Y-66294000D01*
X97890069Y-66294000D01*
X98020926Y-66320029D01*
G37*
G36*
X120880926Y-63780029D02*
G01*
X120946356Y-63793044D01*
X121131256Y-63869632D01*
X121297662Y-63980821D01*
X121439179Y-64122338D01*
X121550368Y-64288744D01*
X121626956Y-64473644D01*
X121666000Y-64669933D01*
X121666000Y-64870067D01*
X121626956Y-65066356D01*
X121550368Y-65251256D01*
X121439179Y-65417662D01*
X121297662Y-65559179D01*
X121131256Y-65670368D01*
X120946356Y-65746956D01*
X120880926Y-65759971D01*
X120750069Y-65786000D01*
X120549931Y-65786000D01*
X120419074Y-65759971D01*
X120353644Y-65746956D01*
X120168744Y-65670368D01*
X120002338Y-65559179D01*
X119860821Y-65417662D01*
X119749632Y-65251256D01*
X119673044Y-65066356D01*
X119634000Y-64870067D01*
X119634000Y-64669933D01*
X119673044Y-64473644D01*
X119749632Y-64288744D01*
X119860821Y-64122338D01*
X120002338Y-63980821D01*
X120168744Y-63869632D01*
X120353644Y-63793044D01*
X120419074Y-63780029D01*
X120549931Y-63754000D01*
X120750069Y-63754000D01*
X120880926Y-63780029D01*
G37*
G36*
X98020926Y-63780029D02*
G01*
X98086356Y-63793044D01*
X98271256Y-63869632D01*
X98437662Y-63980821D01*
X98579179Y-64122338D01*
X98690368Y-64288744D01*
X98766956Y-64473644D01*
X98806000Y-64669933D01*
X98806000Y-64870067D01*
X98766956Y-65066356D01*
X98690368Y-65251256D01*
X98579179Y-65417662D01*
X98437662Y-65559179D01*
X98271256Y-65670368D01*
X98086356Y-65746956D01*
X98020926Y-65759971D01*
X97890069Y-65786000D01*
X97689931Y-65786000D01*
X97559074Y-65759971D01*
X97493644Y-65746956D01*
X97308744Y-65670368D01*
X97142338Y-65559179D01*
X97000821Y-65417662D01*
X96889632Y-65251256D01*
X96813044Y-65066356D01*
X96774000Y-64870067D01*
X96774000Y-64669933D01*
X96813044Y-64473644D01*
X96889632Y-64288744D01*
X97000821Y-64122338D01*
X97142338Y-63980821D01*
X97308744Y-63869632D01*
X97493644Y-63793044D01*
X97559074Y-63780029D01*
X97689931Y-63754000D01*
X97890069Y-63754000D01*
X98020926Y-63780029D01*
G37*
G36*
X98806000Y-63246000D02*
G01*
X96774000Y-63246000D01*
X96774000Y-61214000D01*
X98806000Y-61214000D01*
X98806000Y-63246000D01*
G37*
G36*
X121666000Y-63246000D02*
G01*
X119634000Y-63246000D01*
X119634000Y-61214000D01*
X121666000Y-61214000D01*
X121666000Y-63246000D01*
G37*
G36*
X119755256Y-56811298D02*
G01*
X119861579Y-56832447D01*
X120162042Y-56956903D01*
X120432451Y-57137585D01*
X120662415Y-57367549D01*
X120843097Y-57637958D01*
X120967553Y-57938421D01*
X121031000Y-58257391D01*
X121031000Y-58582609D01*
X120967553Y-58901579D01*
X120843097Y-59202042D01*
X120662415Y-59472451D01*
X120432451Y-59702415D01*
X120162042Y-59883097D01*
X119861579Y-60007553D01*
X119755256Y-60028702D01*
X119542611Y-60071000D01*
X119217389Y-60071000D01*
X119004744Y-60028702D01*
X118898421Y-60007553D01*
X118597958Y-59883097D01*
X118327549Y-59702415D01*
X118097585Y-59472451D01*
X117916903Y-59202042D01*
X117792447Y-58901579D01*
X117729000Y-58582609D01*
X117729000Y-58257391D01*
X117792447Y-57938421D01*
X117916903Y-57637958D01*
X118097585Y-57367549D01*
X118327549Y-57137585D01*
X118597958Y-56956903D01*
X118898421Y-56832447D01*
X119004744Y-56811298D01*
X119217389Y-56769000D01*
X119542611Y-56769000D01*
X119755256Y-56811298D01*
G37*
G36*
X99435256Y-56811298D02*
G01*
X99541579Y-56832447D01*
X99842042Y-56956903D01*
X100112451Y-57137585D01*
X100342415Y-57367549D01*
X100523097Y-57637958D01*
X100647553Y-57938421D01*
X100711000Y-58257391D01*
X100711000Y-58582609D01*
X100647553Y-58901579D01*
X100523097Y-59202042D01*
X100342415Y-59472451D01*
X100112451Y-59702415D01*
X99842042Y-59883097D01*
X99541579Y-60007553D01*
X99435256Y-60028702D01*
X99222611Y-60071000D01*
X98897389Y-60071000D01*
X98684744Y-60028702D01*
X98578421Y-60007553D01*
X98277958Y-59883097D01*
X98007549Y-59702415D01*
X97777585Y-59472451D01*
X97596903Y-59202042D01*
X97472447Y-58901579D01*
X97409000Y-58582609D01*
X97409000Y-58257391D01*
X97472447Y-57938421D01*
X97596903Y-57637958D01*
X97777585Y-57367549D01*
X98007549Y-57137585D01*
X98277958Y-56956903D01*
X98578421Y-56832447D01*
X98684744Y-56811298D01*
X98897389Y-56769000D01*
X99222611Y-56769000D01*
X99435256Y-56811298D01*
G37*
M02*
