G04 #@! TF.GenerationSoftware,KiCad,Pcbnew,5.1.5+dfsg1-2build2*
G04 #@! TF.CreationDate,2022-12-06T01:13:10+01:00*
G04 #@! TF.ProjectId,MBus_to_radio,4d427573-5f74-46f5-9f72-6164696f2e6b,rev?*
G04 #@! TF.SameCoordinates,Original*
G04 #@! TF.FileFunction,Copper,L1,Top*
G04 #@! TF.FilePolarity,Positive*
%FSLAX46Y46*%
G04 Gerber Fmt 4.6, Leading zero omitted, Abs format (unit mm)*
G04 Created by KiCad (PCBNEW 5.1.5+dfsg1-2build2) date 2022-12-06 01:13:10*
%MOMM*%
%LPD*%
G04 APERTURE LIST*
%ADD10C,0.100000*%
%ADD11R,0.700000X0.600000*%
%ADD12O,1.700000X1.700000*%
%ADD13R,1.700000X1.700000*%
%ADD14C,2.000000*%
%ADD15R,2.000000X2.000000*%
%ADD16C,2.100000*%
%ADD17R,2.100000X2.100000*%
%ADD18R,0.650000X1.220000*%
%ADD19R,0.800000X0.900000*%
%ADD20R,0.450000X0.600000*%
%ADD21R,0.600000X0.450000*%
%ADD22R,0.800000X1.000000*%
%ADD23C,1.930000*%
%ADD24R,1.930000X1.930000*%
%ADD25C,0.800000*%
%ADD26C,0.600000*%
%ADD27C,1.000000*%
%ADD28C,0.250000*%
%ADD29C,0.254000*%
G04 APERTURE END LIST*
D10*
G36*
X102150000Y-68350000D02*
G01*
X102150000Y-67850000D01*
X101550000Y-67850000D01*
X101550000Y-68350000D01*
X102150000Y-68350000D01*
G37*
D11*
X114500000Y-93150000D03*
X114500000Y-94550000D03*
G04 #@! TA.AperFunction,SMDPad,CuDef*
D10*
G36*
X118200000Y-64050000D02*
G01*
X118200000Y-67650000D01*
X113900000Y-66650000D01*
X113900000Y-65050000D01*
X118200000Y-64050000D01*
G37*
G04 #@! TD.AperFunction*
G04 #@! TA.AperFunction,SMDPad,CuDef*
G36*
X107500000Y-67650000D02*
G01*
X107500000Y-64050000D01*
X111800000Y-65050000D01*
X111800000Y-66650000D01*
X107500000Y-67650000D01*
G37*
G04 #@! TD.AperFunction*
G04 #@! TA.AperFunction,SMDPad,CuDef*
G36*
X106599505Y-69551204D02*
G01*
X106623773Y-69554804D01*
X106647572Y-69560765D01*
X106670671Y-69569030D01*
X106692850Y-69579520D01*
X106713893Y-69592132D01*
X106733599Y-69606747D01*
X106751777Y-69623223D01*
X106768253Y-69641401D01*
X106782868Y-69661107D01*
X106795480Y-69682150D01*
X106805970Y-69704329D01*
X106814235Y-69727428D01*
X106820196Y-69751227D01*
X106823796Y-69775495D01*
X106825000Y-69799999D01*
X106825000Y-70425001D01*
X106823796Y-70449505D01*
X106820196Y-70473773D01*
X106814235Y-70497572D01*
X106805970Y-70520671D01*
X106795480Y-70542850D01*
X106782868Y-70563893D01*
X106768253Y-70583599D01*
X106751777Y-70601777D01*
X106733599Y-70618253D01*
X106713893Y-70632868D01*
X106692850Y-70645480D01*
X106670671Y-70655970D01*
X106647572Y-70664235D01*
X106623773Y-70670196D01*
X106599505Y-70673796D01*
X106575001Y-70675000D01*
X103674999Y-70675000D01*
X103650495Y-70673796D01*
X103626227Y-70670196D01*
X103602428Y-70664235D01*
X103579329Y-70655970D01*
X103557150Y-70645480D01*
X103536107Y-70632868D01*
X103516401Y-70618253D01*
X103498223Y-70601777D01*
X103481747Y-70583599D01*
X103467132Y-70563893D01*
X103454520Y-70542850D01*
X103444030Y-70520671D01*
X103435765Y-70497572D01*
X103429804Y-70473773D01*
X103426204Y-70449505D01*
X103425000Y-70425001D01*
X103425000Y-69799999D01*
X103426204Y-69775495D01*
X103429804Y-69751227D01*
X103435765Y-69727428D01*
X103444030Y-69704329D01*
X103454520Y-69682150D01*
X103467132Y-69661107D01*
X103481747Y-69641401D01*
X103498223Y-69623223D01*
X103516401Y-69606747D01*
X103536107Y-69592132D01*
X103557150Y-69579520D01*
X103579329Y-69569030D01*
X103602428Y-69560765D01*
X103626227Y-69554804D01*
X103650495Y-69551204D01*
X103674999Y-69550000D01*
X106575001Y-69550000D01*
X106599505Y-69551204D01*
G37*
G04 #@! TD.AperFunction*
G04 #@! TA.AperFunction,SMDPad,CuDef*
G36*
X106599505Y-65276204D02*
G01*
X106623773Y-65279804D01*
X106647572Y-65285765D01*
X106670671Y-65294030D01*
X106692850Y-65304520D01*
X106713893Y-65317132D01*
X106733599Y-65331747D01*
X106751777Y-65348223D01*
X106768253Y-65366401D01*
X106782868Y-65386107D01*
X106795480Y-65407150D01*
X106805970Y-65429329D01*
X106814235Y-65452428D01*
X106820196Y-65476227D01*
X106823796Y-65500495D01*
X106825000Y-65524999D01*
X106825000Y-66150001D01*
X106823796Y-66174505D01*
X106820196Y-66198773D01*
X106814235Y-66222572D01*
X106805970Y-66245671D01*
X106795480Y-66267850D01*
X106782868Y-66288893D01*
X106768253Y-66308599D01*
X106751777Y-66326777D01*
X106733599Y-66343253D01*
X106713893Y-66357868D01*
X106692850Y-66370480D01*
X106670671Y-66380970D01*
X106647572Y-66389235D01*
X106623773Y-66395196D01*
X106599505Y-66398796D01*
X106575001Y-66400000D01*
X103674999Y-66400000D01*
X103650495Y-66398796D01*
X103626227Y-66395196D01*
X103602428Y-66389235D01*
X103579329Y-66380970D01*
X103557150Y-66370480D01*
X103536107Y-66357868D01*
X103516401Y-66343253D01*
X103498223Y-66326777D01*
X103481747Y-66308599D01*
X103467132Y-66288893D01*
X103454520Y-66267850D01*
X103444030Y-66245671D01*
X103435765Y-66222572D01*
X103429804Y-66198773D01*
X103426204Y-66174505D01*
X103425000Y-66150001D01*
X103425000Y-65524999D01*
X103426204Y-65500495D01*
X103429804Y-65476227D01*
X103435765Y-65452428D01*
X103444030Y-65429329D01*
X103454520Y-65407150D01*
X103467132Y-65386107D01*
X103481747Y-65366401D01*
X103498223Y-65348223D01*
X103516401Y-65331747D01*
X103536107Y-65317132D01*
X103557150Y-65304520D01*
X103579329Y-65294030D01*
X103602428Y-65285765D01*
X103626227Y-65279804D01*
X103650495Y-65276204D01*
X103674999Y-65275000D01*
X106575001Y-65275000D01*
X106599505Y-65276204D01*
G37*
G04 #@! TD.AperFunction*
D12*
X117050000Y-91735000D03*
X117050000Y-94275000D03*
D13*
X117050000Y-96815000D03*
G04 #@! TA.AperFunction,SMDPad,CuDef*
D10*
G36*
X101100000Y-67950000D02*
G01*
X101100000Y-67450000D01*
X101100602Y-67450000D01*
X101100602Y-67425466D01*
X101105412Y-67376635D01*
X101114984Y-67328510D01*
X101129228Y-67281555D01*
X101148005Y-67236222D01*
X101171136Y-67192949D01*
X101198396Y-67152150D01*
X101229524Y-67114221D01*
X101264221Y-67079524D01*
X101302150Y-67048396D01*
X101342949Y-67021136D01*
X101386222Y-66998005D01*
X101431555Y-66979228D01*
X101478510Y-66964984D01*
X101526635Y-66955412D01*
X101575466Y-66950602D01*
X101600000Y-66950602D01*
X101600000Y-66950000D01*
X102100000Y-66950000D01*
X102100000Y-66950602D01*
X102124534Y-66950602D01*
X102173365Y-66955412D01*
X102221490Y-66964984D01*
X102268445Y-66979228D01*
X102313778Y-66998005D01*
X102357051Y-67021136D01*
X102397850Y-67048396D01*
X102435779Y-67079524D01*
X102470476Y-67114221D01*
X102501604Y-67152150D01*
X102528864Y-67192949D01*
X102551995Y-67236222D01*
X102570772Y-67281555D01*
X102585016Y-67328510D01*
X102594588Y-67376635D01*
X102599398Y-67425466D01*
X102599398Y-67450000D01*
X102600000Y-67450000D01*
X102600000Y-67950000D01*
X101100000Y-67950000D01*
G37*
G04 #@! TD.AperFunction*
G04 #@! TA.AperFunction,SMDPad,CuDef*
G36*
X102599398Y-68750000D02*
G01*
X102599398Y-68774534D01*
X102594588Y-68823365D01*
X102585016Y-68871490D01*
X102570772Y-68918445D01*
X102551995Y-68963778D01*
X102528864Y-69007051D01*
X102501604Y-69047850D01*
X102470476Y-69085779D01*
X102435779Y-69120476D01*
X102397850Y-69151604D01*
X102357051Y-69178864D01*
X102313778Y-69201995D01*
X102268445Y-69220772D01*
X102221490Y-69235016D01*
X102173365Y-69244588D01*
X102124534Y-69249398D01*
X102100000Y-69249398D01*
X102100000Y-69250000D01*
X101600000Y-69250000D01*
X101600000Y-69249398D01*
X101575466Y-69249398D01*
X101526635Y-69244588D01*
X101478510Y-69235016D01*
X101431555Y-69220772D01*
X101386222Y-69201995D01*
X101342949Y-69178864D01*
X101302150Y-69151604D01*
X101264221Y-69120476D01*
X101229524Y-69085779D01*
X101198396Y-69047850D01*
X101171136Y-69007051D01*
X101148005Y-68963778D01*
X101129228Y-68918445D01*
X101114984Y-68871490D01*
X101105412Y-68823365D01*
X101100602Y-68774534D01*
X101100602Y-68750000D01*
X101100000Y-68750000D01*
X101100000Y-68250000D01*
X102600000Y-68250000D01*
X102600000Y-68750000D01*
X102599398Y-68750000D01*
G37*
G04 #@! TD.AperFunction*
G04 #@! TA.AperFunction,SMDPad,CuDef*
G36*
X104925691Y-86177553D02*
G01*
X104946926Y-86180703D01*
X104967750Y-86185919D01*
X104987962Y-86193151D01*
X105007368Y-86202330D01*
X105025781Y-86213366D01*
X105043024Y-86226154D01*
X105058930Y-86240570D01*
X105073346Y-86256476D01*
X105086134Y-86273719D01*
X105097170Y-86292132D01*
X105106349Y-86311538D01*
X105113581Y-86331750D01*
X105118797Y-86352574D01*
X105121947Y-86373809D01*
X105123000Y-86395250D01*
X105123000Y-86832750D01*
X105121947Y-86854191D01*
X105118797Y-86875426D01*
X105113581Y-86896250D01*
X105106349Y-86916462D01*
X105097170Y-86935868D01*
X105086134Y-86954281D01*
X105073346Y-86971524D01*
X105058930Y-86987430D01*
X105043024Y-87001846D01*
X105025781Y-87014634D01*
X105007368Y-87025670D01*
X104987962Y-87034849D01*
X104967750Y-87042081D01*
X104946926Y-87047297D01*
X104925691Y-87050447D01*
X104904250Y-87051500D01*
X104391750Y-87051500D01*
X104370309Y-87050447D01*
X104349074Y-87047297D01*
X104328250Y-87042081D01*
X104308038Y-87034849D01*
X104288632Y-87025670D01*
X104270219Y-87014634D01*
X104252976Y-87001846D01*
X104237070Y-86987430D01*
X104222654Y-86971524D01*
X104209866Y-86954281D01*
X104198830Y-86935868D01*
X104189651Y-86916462D01*
X104182419Y-86896250D01*
X104177203Y-86875426D01*
X104174053Y-86854191D01*
X104173000Y-86832750D01*
X104173000Y-86395250D01*
X104174053Y-86373809D01*
X104177203Y-86352574D01*
X104182419Y-86331750D01*
X104189651Y-86311538D01*
X104198830Y-86292132D01*
X104209866Y-86273719D01*
X104222654Y-86256476D01*
X104237070Y-86240570D01*
X104252976Y-86226154D01*
X104270219Y-86213366D01*
X104288632Y-86202330D01*
X104308038Y-86193151D01*
X104328250Y-86185919D01*
X104349074Y-86180703D01*
X104370309Y-86177553D01*
X104391750Y-86176500D01*
X104904250Y-86176500D01*
X104925691Y-86177553D01*
G37*
G04 #@! TD.AperFunction*
G04 #@! TA.AperFunction,SMDPad,CuDef*
G36*
X104925691Y-87752553D02*
G01*
X104946926Y-87755703D01*
X104967750Y-87760919D01*
X104987962Y-87768151D01*
X105007368Y-87777330D01*
X105025781Y-87788366D01*
X105043024Y-87801154D01*
X105058930Y-87815570D01*
X105073346Y-87831476D01*
X105086134Y-87848719D01*
X105097170Y-87867132D01*
X105106349Y-87886538D01*
X105113581Y-87906750D01*
X105118797Y-87927574D01*
X105121947Y-87948809D01*
X105123000Y-87970250D01*
X105123000Y-88407750D01*
X105121947Y-88429191D01*
X105118797Y-88450426D01*
X105113581Y-88471250D01*
X105106349Y-88491462D01*
X105097170Y-88510868D01*
X105086134Y-88529281D01*
X105073346Y-88546524D01*
X105058930Y-88562430D01*
X105043024Y-88576846D01*
X105025781Y-88589634D01*
X105007368Y-88600670D01*
X104987962Y-88609849D01*
X104967750Y-88617081D01*
X104946926Y-88622297D01*
X104925691Y-88625447D01*
X104904250Y-88626500D01*
X104391750Y-88626500D01*
X104370309Y-88625447D01*
X104349074Y-88622297D01*
X104328250Y-88617081D01*
X104308038Y-88609849D01*
X104288632Y-88600670D01*
X104270219Y-88589634D01*
X104252976Y-88576846D01*
X104237070Y-88562430D01*
X104222654Y-88546524D01*
X104209866Y-88529281D01*
X104198830Y-88510868D01*
X104189651Y-88491462D01*
X104182419Y-88471250D01*
X104177203Y-88450426D01*
X104174053Y-88429191D01*
X104173000Y-88407750D01*
X104173000Y-87970250D01*
X104174053Y-87948809D01*
X104177203Y-87927574D01*
X104182419Y-87906750D01*
X104189651Y-87886538D01*
X104198830Y-87867132D01*
X104209866Y-87848719D01*
X104222654Y-87831476D01*
X104237070Y-87815570D01*
X104252976Y-87801154D01*
X104270219Y-87788366D01*
X104288632Y-87777330D01*
X104308038Y-87768151D01*
X104328250Y-87760919D01*
X104349074Y-87755703D01*
X104370309Y-87752553D01*
X104391750Y-87751500D01*
X104904250Y-87751500D01*
X104925691Y-87752553D01*
G37*
G04 #@! TD.AperFunction*
G04 #@! TA.AperFunction,SMDPad,CuDef*
G36*
X103363591Y-89428853D02*
G01*
X103384826Y-89432003D01*
X103405650Y-89437219D01*
X103425862Y-89444451D01*
X103445268Y-89453630D01*
X103463681Y-89464666D01*
X103480924Y-89477454D01*
X103496830Y-89491870D01*
X103511246Y-89507776D01*
X103524034Y-89525019D01*
X103535070Y-89543432D01*
X103544249Y-89562838D01*
X103551481Y-89583050D01*
X103556697Y-89603874D01*
X103559847Y-89625109D01*
X103560900Y-89646550D01*
X103560900Y-90084050D01*
X103559847Y-90105491D01*
X103556697Y-90126726D01*
X103551481Y-90147550D01*
X103544249Y-90167762D01*
X103535070Y-90187168D01*
X103524034Y-90205581D01*
X103511246Y-90222824D01*
X103496830Y-90238730D01*
X103480924Y-90253146D01*
X103463681Y-90265934D01*
X103445268Y-90276970D01*
X103425862Y-90286149D01*
X103405650Y-90293381D01*
X103384826Y-90298597D01*
X103363591Y-90301747D01*
X103342150Y-90302800D01*
X102829650Y-90302800D01*
X102808209Y-90301747D01*
X102786974Y-90298597D01*
X102766150Y-90293381D01*
X102745938Y-90286149D01*
X102726532Y-90276970D01*
X102708119Y-90265934D01*
X102690876Y-90253146D01*
X102674970Y-90238730D01*
X102660554Y-90222824D01*
X102647766Y-90205581D01*
X102636730Y-90187168D01*
X102627551Y-90167762D01*
X102620319Y-90147550D01*
X102615103Y-90126726D01*
X102611953Y-90105491D01*
X102610900Y-90084050D01*
X102610900Y-89646550D01*
X102611953Y-89625109D01*
X102615103Y-89603874D01*
X102620319Y-89583050D01*
X102627551Y-89562838D01*
X102636730Y-89543432D01*
X102647766Y-89525019D01*
X102660554Y-89507776D01*
X102674970Y-89491870D01*
X102690876Y-89477454D01*
X102708119Y-89464666D01*
X102726532Y-89453630D01*
X102745938Y-89444451D01*
X102766150Y-89437219D01*
X102786974Y-89432003D01*
X102808209Y-89428853D01*
X102829650Y-89427800D01*
X103342150Y-89427800D01*
X103363591Y-89428853D01*
G37*
G04 #@! TD.AperFunction*
G04 #@! TA.AperFunction,SMDPad,CuDef*
G36*
X103363591Y-87853853D02*
G01*
X103384826Y-87857003D01*
X103405650Y-87862219D01*
X103425862Y-87869451D01*
X103445268Y-87878630D01*
X103463681Y-87889666D01*
X103480924Y-87902454D01*
X103496830Y-87916870D01*
X103511246Y-87932776D01*
X103524034Y-87950019D01*
X103535070Y-87968432D01*
X103544249Y-87987838D01*
X103551481Y-88008050D01*
X103556697Y-88028874D01*
X103559847Y-88050109D01*
X103560900Y-88071550D01*
X103560900Y-88509050D01*
X103559847Y-88530491D01*
X103556697Y-88551726D01*
X103551481Y-88572550D01*
X103544249Y-88592762D01*
X103535070Y-88612168D01*
X103524034Y-88630581D01*
X103511246Y-88647824D01*
X103496830Y-88663730D01*
X103480924Y-88678146D01*
X103463681Y-88690934D01*
X103445268Y-88701970D01*
X103425862Y-88711149D01*
X103405650Y-88718381D01*
X103384826Y-88723597D01*
X103363591Y-88726747D01*
X103342150Y-88727800D01*
X102829650Y-88727800D01*
X102808209Y-88726747D01*
X102786974Y-88723597D01*
X102766150Y-88718381D01*
X102745938Y-88711149D01*
X102726532Y-88701970D01*
X102708119Y-88690934D01*
X102690876Y-88678146D01*
X102674970Y-88663730D01*
X102660554Y-88647824D01*
X102647766Y-88630581D01*
X102636730Y-88612168D01*
X102627551Y-88592762D01*
X102620319Y-88572550D01*
X102615103Y-88551726D01*
X102611953Y-88530491D01*
X102610900Y-88509050D01*
X102610900Y-88071550D01*
X102611953Y-88050109D01*
X102615103Y-88028874D01*
X102620319Y-88008050D01*
X102627551Y-87987838D01*
X102636730Y-87968432D01*
X102647766Y-87950019D01*
X102660554Y-87932776D01*
X102674970Y-87916870D01*
X102690876Y-87902454D01*
X102708119Y-87889666D01*
X102726532Y-87878630D01*
X102745938Y-87869451D01*
X102766150Y-87862219D01*
X102786974Y-87857003D01*
X102808209Y-87853853D01*
X102829650Y-87852800D01*
X103342150Y-87852800D01*
X103363591Y-87853853D01*
G37*
G04 #@! TD.AperFunction*
D14*
X110295700Y-100850700D03*
D15*
X105295700Y-100850700D03*
D16*
X118030000Y-111760000D03*
D17*
X113030000Y-111760000D03*
D18*
X108041400Y-90017600D03*
X108991400Y-90017600D03*
X109941400Y-90017600D03*
X109941400Y-92637600D03*
X108991400Y-92637600D03*
X108041400Y-92637600D03*
G04 #@! TA.AperFunction,SMDPad,CuDef*
D10*
G36*
X113282291Y-94076953D02*
G01*
X113303526Y-94080103D01*
X113324350Y-94085319D01*
X113344562Y-94092551D01*
X113363968Y-94101730D01*
X113382381Y-94112766D01*
X113399624Y-94125554D01*
X113415530Y-94139970D01*
X113429946Y-94155876D01*
X113442734Y-94173119D01*
X113453770Y-94191532D01*
X113462949Y-94210938D01*
X113470181Y-94231150D01*
X113475397Y-94251974D01*
X113478547Y-94273209D01*
X113479600Y-94294650D01*
X113479600Y-94732150D01*
X113478547Y-94753591D01*
X113475397Y-94774826D01*
X113470181Y-94795650D01*
X113462949Y-94815862D01*
X113453770Y-94835268D01*
X113442734Y-94853681D01*
X113429946Y-94870924D01*
X113415530Y-94886830D01*
X113399624Y-94901246D01*
X113382381Y-94914034D01*
X113363968Y-94925070D01*
X113344562Y-94934249D01*
X113324350Y-94941481D01*
X113303526Y-94946697D01*
X113282291Y-94949847D01*
X113260850Y-94950900D01*
X112748350Y-94950900D01*
X112726909Y-94949847D01*
X112705674Y-94946697D01*
X112684850Y-94941481D01*
X112664638Y-94934249D01*
X112645232Y-94925070D01*
X112626819Y-94914034D01*
X112609576Y-94901246D01*
X112593670Y-94886830D01*
X112579254Y-94870924D01*
X112566466Y-94853681D01*
X112555430Y-94835268D01*
X112546251Y-94815862D01*
X112539019Y-94795650D01*
X112533803Y-94774826D01*
X112530653Y-94753591D01*
X112529600Y-94732150D01*
X112529600Y-94294650D01*
X112530653Y-94273209D01*
X112533803Y-94251974D01*
X112539019Y-94231150D01*
X112546251Y-94210938D01*
X112555430Y-94191532D01*
X112566466Y-94173119D01*
X112579254Y-94155876D01*
X112593670Y-94139970D01*
X112609576Y-94125554D01*
X112626819Y-94112766D01*
X112645232Y-94101730D01*
X112664638Y-94092551D01*
X112684850Y-94085319D01*
X112705674Y-94080103D01*
X112726909Y-94076953D01*
X112748350Y-94075900D01*
X113260850Y-94075900D01*
X113282291Y-94076953D01*
G37*
G04 #@! TD.AperFunction*
G04 #@! TA.AperFunction,SMDPad,CuDef*
G36*
X113282291Y-92501953D02*
G01*
X113303526Y-92505103D01*
X113324350Y-92510319D01*
X113344562Y-92517551D01*
X113363968Y-92526730D01*
X113382381Y-92537766D01*
X113399624Y-92550554D01*
X113415530Y-92564970D01*
X113429946Y-92580876D01*
X113442734Y-92598119D01*
X113453770Y-92616532D01*
X113462949Y-92635938D01*
X113470181Y-92656150D01*
X113475397Y-92676974D01*
X113478547Y-92698209D01*
X113479600Y-92719650D01*
X113479600Y-93157150D01*
X113478547Y-93178591D01*
X113475397Y-93199826D01*
X113470181Y-93220650D01*
X113462949Y-93240862D01*
X113453770Y-93260268D01*
X113442734Y-93278681D01*
X113429946Y-93295924D01*
X113415530Y-93311830D01*
X113399624Y-93326246D01*
X113382381Y-93339034D01*
X113363968Y-93350070D01*
X113344562Y-93359249D01*
X113324350Y-93366481D01*
X113303526Y-93371697D01*
X113282291Y-93374847D01*
X113260850Y-93375900D01*
X112748350Y-93375900D01*
X112726909Y-93374847D01*
X112705674Y-93371697D01*
X112684850Y-93366481D01*
X112664638Y-93359249D01*
X112645232Y-93350070D01*
X112626819Y-93339034D01*
X112609576Y-93326246D01*
X112593670Y-93311830D01*
X112579254Y-93295924D01*
X112566466Y-93278681D01*
X112555430Y-93260268D01*
X112546251Y-93240862D01*
X112539019Y-93220650D01*
X112533803Y-93199826D01*
X112530653Y-93178591D01*
X112529600Y-93157150D01*
X112529600Y-92719650D01*
X112530653Y-92698209D01*
X112533803Y-92676974D01*
X112539019Y-92656150D01*
X112546251Y-92635938D01*
X112555430Y-92616532D01*
X112566466Y-92598119D01*
X112579254Y-92580876D01*
X112593670Y-92564970D01*
X112609576Y-92550554D01*
X112626819Y-92537766D01*
X112645232Y-92526730D01*
X112664638Y-92517551D01*
X112684850Y-92510319D01*
X112705674Y-92505103D01*
X112726909Y-92501953D01*
X112748350Y-92500900D01*
X113260850Y-92500900D01*
X113282291Y-92501953D01*
G37*
G04 #@! TD.AperFunction*
G04 #@! TA.AperFunction,SMDPad,CuDef*
G36*
X113307691Y-97302753D02*
G01*
X113328926Y-97305903D01*
X113349750Y-97311119D01*
X113369962Y-97318351D01*
X113389368Y-97327530D01*
X113407781Y-97338566D01*
X113425024Y-97351354D01*
X113440930Y-97365770D01*
X113455346Y-97381676D01*
X113468134Y-97398919D01*
X113479170Y-97417332D01*
X113488349Y-97436738D01*
X113495581Y-97456950D01*
X113500797Y-97477774D01*
X113503947Y-97499009D01*
X113505000Y-97520450D01*
X113505000Y-97957950D01*
X113503947Y-97979391D01*
X113500797Y-98000626D01*
X113495581Y-98021450D01*
X113488349Y-98041662D01*
X113479170Y-98061068D01*
X113468134Y-98079481D01*
X113455346Y-98096724D01*
X113440930Y-98112630D01*
X113425024Y-98127046D01*
X113407781Y-98139834D01*
X113389368Y-98150870D01*
X113369962Y-98160049D01*
X113349750Y-98167281D01*
X113328926Y-98172497D01*
X113307691Y-98175647D01*
X113286250Y-98176700D01*
X112773750Y-98176700D01*
X112752309Y-98175647D01*
X112731074Y-98172497D01*
X112710250Y-98167281D01*
X112690038Y-98160049D01*
X112670632Y-98150870D01*
X112652219Y-98139834D01*
X112634976Y-98127046D01*
X112619070Y-98112630D01*
X112604654Y-98096724D01*
X112591866Y-98079481D01*
X112580830Y-98061068D01*
X112571651Y-98041662D01*
X112564419Y-98021450D01*
X112559203Y-98000626D01*
X112556053Y-97979391D01*
X112555000Y-97957950D01*
X112555000Y-97520450D01*
X112556053Y-97499009D01*
X112559203Y-97477774D01*
X112564419Y-97456950D01*
X112571651Y-97436738D01*
X112580830Y-97417332D01*
X112591866Y-97398919D01*
X112604654Y-97381676D01*
X112619070Y-97365770D01*
X112634976Y-97351354D01*
X112652219Y-97338566D01*
X112670632Y-97327530D01*
X112690038Y-97318351D01*
X112710250Y-97311119D01*
X112731074Y-97305903D01*
X112752309Y-97302753D01*
X112773750Y-97301700D01*
X113286250Y-97301700D01*
X113307691Y-97302753D01*
G37*
G04 #@! TD.AperFunction*
G04 #@! TA.AperFunction,SMDPad,CuDef*
G36*
X113307691Y-95727753D02*
G01*
X113328926Y-95730903D01*
X113349750Y-95736119D01*
X113369962Y-95743351D01*
X113389368Y-95752530D01*
X113407781Y-95763566D01*
X113425024Y-95776354D01*
X113440930Y-95790770D01*
X113455346Y-95806676D01*
X113468134Y-95823919D01*
X113479170Y-95842332D01*
X113488349Y-95861738D01*
X113495581Y-95881950D01*
X113500797Y-95902774D01*
X113503947Y-95924009D01*
X113505000Y-95945450D01*
X113505000Y-96382950D01*
X113503947Y-96404391D01*
X113500797Y-96425626D01*
X113495581Y-96446450D01*
X113488349Y-96466662D01*
X113479170Y-96486068D01*
X113468134Y-96504481D01*
X113455346Y-96521724D01*
X113440930Y-96537630D01*
X113425024Y-96552046D01*
X113407781Y-96564834D01*
X113389368Y-96575870D01*
X113369962Y-96585049D01*
X113349750Y-96592281D01*
X113328926Y-96597497D01*
X113307691Y-96600647D01*
X113286250Y-96601700D01*
X112773750Y-96601700D01*
X112752309Y-96600647D01*
X112731074Y-96597497D01*
X112710250Y-96592281D01*
X112690038Y-96585049D01*
X112670632Y-96575870D01*
X112652219Y-96564834D01*
X112634976Y-96552046D01*
X112619070Y-96537630D01*
X112604654Y-96521724D01*
X112591866Y-96504481D01*
X112580830Y-96486068D01*
X112571651Y-96466662D01*
X112564419Y-96446450D01*
X112559203Y-96425626D01*
X112556053Y-96404391D01*
X112555000Y-96382950D01*
X112555000Y-95945450D01*
X112556053Y-95924009D01*
X112559203Y-95902774D01*
X112564419Y-95881950D01*
X112571651Y-95861738D01*
X112580830Y-95842332D01*
X112591866Y-95823919D01*
X112604654Y-95806676D01*
X112619070Y-95790770D01*
X112634976Y-95776354D01*
X112652219Y-95763566D01*
X112670632Y-95752530D01*
X112690038Y-95743351D01*
X112710250Y-95736119D01*
X112731074Y-95730903D01*
X112752309Y-95727753D01*
X112773750Y-95726700D01*
X113286250Y-95726700D01*
X113307691Y-95727753D01*
G37*
G04 #@! TD.AperFunction*
D19*
X112179100Y-80000600D03*
X113129100Y-82000600D03*
X111229100Y-82000600D03*
X112179100Y-74942700D03*
X113129100Y-76942700D03*
X111229100Y-76942700D03*
G04 #@! TA.AperFunction,SMDPad,CuDef*
D10*
G36*
X106573004Y-92035404D02*
G01*
X106597273Y-92039004D01*
X106621071Y-92044965D01*
X106644171Y-92053230D01*
X106666349Y-92063720D01*
X106687393Y-92076333D01*
X106707098Y-92090947D01*
X106725277Y-92107423D01*
X106741753Y-92125602D01*
X106756367Y-92145307D01*
X106768980Y-92166351D01*
X106779470Y-92188529D01*
X106787735Y-92211629D01*
X106793696Y-92235427D01*
X106797296Y-92259696D01*
X106798500Y-92284200D01*
X106798500Y-93034200D01*
X106797296Y-93058704D01*
X106793696Y-93082973D01*
X106787735Y-93106771D01*
X106779470Y-93129871D01*
X106768980Y-93152049D01*
X106756367Y-93173093D01*
X106741753Y-93192798D01*
X106725277Y-93210977D01*
X106707098Y-93227453D01*
X106687393Y-93242067D01*
X106666349Y-93254680D01*
X106644171Y-93265170D01*
X106621071Y-93273435D01*
X106597273Y-93279396D01*
X106573004Y-93282996D01*
X106548500Y-93284200D01*
X104398500Y-93284200D01*
X104373996Y-93282996D01*
X104349727Y-93279396D01*
X104325929Y-93273435D01*
X104302829Y-93265170D01*
X104280651Y-93254680D01*
X104259607Y-93242067D01*
X104239902Y-93227453D01*
X104221723Y-93210977D01*
X104205247Y-93192798D01*
X104190633Y-93173093D01*
X104178020Y-93152049D01*
X104167530Y-93129871D01*
X104159265Y-93106771D01*
X104153304Y-93082973D01*
X104149704Y-93058704D01*
X104148500Y-93034200D01*
X104148500Y-92284200D01*
X104149704Y-92259696D01*
X104153304Y-92235427D01*
X104159265Y-92211629D01*
X104167530Y-92188529D01*
X104178020Y-92166351D01*
X104190633Y-92145307D01*
X104205247Y-92125602D01*
X104221723Y-92107423D01*
X104239902Y-92090947D01*
X104259607Y-92076333D01*
X104280651Y-92063720D01*
X104302829Y-92053230D01*
X104325929Y-92044965D01*
X104349727Y-92039004D01*
X104373996Y-92035404D01*
X104398500Y-92034200D01*
X106548500Y-92034200D01*
X106573004Y-92035404D01*
G37*
G04 #@! TD.AperFunction*
G04 #@! TA.AperFunction,SMDPad,CuDef*
G36*
X106573004Y-89235404D02*
G01*
X106597273Y-89239004D01*
X106621071Y-89244965D01*
X106644171Y-89253230D01*
X106666349Y-89263720D01*
X106687393Y-89276333D01*
X106707098Y-89290947D01*
X106725277Y-89307423D01*
X106741753Y-89325602D01*
X106756367Y-89345307D01*
X106768980Y-89366351D01*
X106779470Y-89388529D01*
X106787735Y-89411629D01*
X106793696Y-89435427D01*
X106797296Y-89459696D01*
X106798500Y-89484200D01*
X106798500Y-90234200D01*
X106797296Y-90258704D01*
X106793696Y-90282973D01*
X106787735Y-90306771D01*
X106779470Y-90329871D01*
X106768980Y-90352049D01*
X106756367Y-90373093D01*
X106741753Y-90392798D01*
X106725277Y-90410977D01*
X106707098Y-90427453D01*
X106687393Y-90442067D01*
X106666349Y-90454680D01*
X106644171Y-90465170D01*
X106621071Y-90473435D01*
X106597273Y-90479396D01*
X106573004Y-90482996D01*
X106548500Y-90484200D01*
X104398500Y-90484200D01*
X104373996Y-90482996D01*
X104349727Y-90479396D01*
X104325929Y-90473435D01*
X104302829Y-90465170D01*
X104280651Y-90454680D01*
X104259607Y-90442067D01*
X104239902Y-90427453D01*
X104221723Y-90410977D01*
X104205247Y-90392798D01*
X104190633Y-90373093D01*
X104178020Y-90352049D01*
X104167530Y-90329871D01*
X104159265Y-90306771D01*
X104153304Y-90282973D01*
X104149704Y-90258704D01*
X104148500Y-90234200D01*
X104148500Y-89484200D01*
X104149704Y-89459696D01*
X104153304Y-89435427D01*
X104159265Y-89411629D01*
X104167530Y-89388529D01*
X104178020Y-89366351D01*
X104190633Y-89345307D01*
X104205247Y-89325602D01*
X104221723Y-89307423D01*
X104239902Y-89290947D01*
X104259607Y-89276333D01*
X104280651Y-89263720D01*
X104302829Y-89253230D01*
X104325929Y-89244965D01*
X104349727Y-89239004D01*
X104373996Y-89235404D01*
X104398500Y-89234200D01*
X106548500Y-89234200D01*
X106573004Y-89235404D01*
G37*
G04 #@! TD.AperFunction*
D20*
X115633500Y-72821800D03*
X115633500Y-74921800D03*
D11*
X114525000Y-97550000D03*
X114525000Y-96150000D03*
D21*
X109711200Y-103238300D03*
X107611200Y-103238300D03*
D22*
X113030000Y-99795000D03*
X115570000Y-99795000D03*
X115570000Y-105945000D03*
X113030000Y-105945000D03*
G04 #@! TA.AperFunction,SMDPad,CuDef*
D10*
G36*
X117930491Y-74493453D02*
G01*
X117951726Y-74496603D01*
X117972550Y-74501819D01*
X117992762Y-74509051D01*
X118012168Y-74518230D01*
X118030581Y-74529266D01*
X118047824Y-74542054D01*
X118063730Y-74556470D01*
X118078146Y-74572376D01*
X118090934Y-74589619D01*
X118101970Y-74608032D01*
X118111149Y-74627438D01*
X118118381Y-74647650D01*
X118123597Y-74668474D01*
X118126747Y-74689709D01*
X118127800Y-74711150D01*
X118127800Y-75148650D01*
X118126747Y-75170091D01*
X118123597Y-75191326D01*
X118118381Y-75212150D01*
X118111149Y-75232362D01*
X118101970Y-75251768D01*
X118090934Y-75270181D01*
X118078146Y-75287424D01*
X118063730Y-75303330D01*
X118047824Y-75317746D01*
X118030581Y-75330534D01*
X118012168Y-75341570D01*
X117992762Y-75350749D01*
X117972550Y-75357981D01*
X117951726Y-75363197D01*
X117930491Y-75366347D01*
X117909050Y-75367400D01*
X117396550Y-75367400D01*
X117375109Y-75366347D01*
X117353874Y-75363197D01*
X117333050Y-75357981D01*
X117312838Y-75350749D01*
X117293432Y-75341570D01*
X117275019Y-75330534D01*
X117257776Y-75317746D01*
X117241870Y-75303330D01*
X117227454Y-75287424D01*
X117214666Y-75270181D01*
X117203630Y-75251768D01*
X117194451Y-75232362D01*
X117187219Y-75212150D01*
X117182003Y-75191326D01*
X117178853Y-75170091D01*
X117177800Y-75148650D01*
X117177800Y-74711150D01*
X117178853Y-74689709D01*
X117182003Y-74668474D01*
X117187219Y-74647650D01*
X117194451Y-74627438D01*
X117203630Y-74608032D01*
X117214666Y-74589619D01*
X117227454Y-74572376D01*
X117241870Y-74556470D01*
X117257776Y-74542054D01*
X117275019Y-74529266D01*
X117293432Y-74518230D01*
X117312838Y-74509051D01*
X117333050Y-74501819D01*
X117353874Y-74496603D01*
X117375109Y-74493453D01*
X117396550Y-74492400D01*
X117909050Y-74492400D01*
X117930491Y-74493453D01*
G37*
G04 #@! TD.AperFunction*
G04 #@! TA.AperFunction,SMDPad,CuDef*
G36*
X117930491Y-76068453D02*
G01*
X117951726Y-76071603D01*
X117972550Y-76076819D01*
X117992762Y-76084051D01*
X118012168Y-76093230D01*
X118030581Y-76104266D01*
X118047824Y-76117054D01*
X118063730Y-76131470D01*
X118078146Y-76147376D01*
X118090934Y-76164619D01*
X118101970Y-76183032D01*
X118111149Y-76202438D01*
X118118381Y-76222650D01*
X118123597Y-76243474D01*
X118126747Y-76264709D01*
X118127800Y-76286150D01*
X118127800Y-76723650D01*
X118126747Y-76745091D01*
X118123597Y-76766326D01*
X118118381Y-76787150D01*
X118111149Y-76807362D01*
X118101970Y-76826768D01*
X118090934Y-76845181D01*
X118078146Y-76862424D01*
X118063730Y-76878330D01*
X118047824Y-76892746D01*
X118030581Y-76905534D01*
X118012168Y-76916570D01*
X117992762Y-76925749D01*
X117972550Y-76932981D01*
X117951726Y-76938197D01*
X117930491Y-76941347D01*
X117909050Y-76942400D01*
X117396550Y-76942400D01*
X117375109Y-76941347D01*
X117353874Y-76938197D01*
X117333050Y-76932981D01*
X117312838Y-76925749D01*
X117293432Y-76916570D01*
X117275019Y-76905534D01*
X117257776Y-76892746D01*
X117241870Y-76878330D01*
X117227454Y-76862424D01*
X117214666Y-76845181D01*
X117203630Y-76826768D01*
X117194451Y-76807362D01*
X117187219Y-76787150D01*
X117182003Y-76766326D01*
X117178853Y-76745091D01*
X117177800Y-76723650D01*
X117177800Y-76286150D01*
X117178853Y-76264709D01*
X117182003Y-76243474D01*
X117187219Y-76222650D01*
X117194451Y-76202438D01*
X117203630Y-76183032D01*
X117214666Y-76164619D01*
X117227454Y-76147376D01*
X117241870Y-76131470D01*
X117257776Y-76117054D01*
X117275019Y-76104266D01*
X117293432Y-76093230D01*
X117312838Y-76084051D01*
X117333050Y-76076819D01*
X117353874Y-76071603D01*
X117375109Y-76068453D01*
X117396550Y-76067400D01*
X117909050Y-76067400D01*
X117930491Y-76068453D01*
G37*
G04 #@! TD.AperFunction*
G04 #@! TA.AperFunction,SMDPad,CuDef*
G36*
X104586304Y-97420204D02*
G01*
X104610573Y-97423804D01*
X104634371Y-97429765D01*
X104657471Y-97438030D01*
X104679649Y-97448520D01*
X104700693Y-97461133D01*
X104720398Y-97475747D01*
X104738577Y-97492223D01*
X104755053Y-97510402D01*
X104769667Y-97530107D01*
X104782280Y-97551151D01*
X104792770Y-97573329D01*
X104801035Y-97596429D01*
X104806996Y-97620227D01*
X104810596Y-97644496D01*
X104811800Y-97669000D01*
X104811800Y-98419000D01*
X104810596Y-98443504D01*
X104806996Y-98467773D01*
X104801035Y-98491571D01*
X104792770Y-98514671D01*
X104782280Y-98536849D01*
X104769667Y-98557893D01*
X104755053Y-98577598D01*
X104738577Y-98595777D01*
X104720398Y-98612253D01*
X104700693Y-98626867D01*
X104679649Y-98639480D01*
X104657471Y-98649970D01*
X104634371Y-98658235D01*
X104610573Y-98664196D01*
X104586304Y-98667796D01*
X104561800Y-98669000D01*
X103311800Y-98669000D01*
X103287296Y-98667796D01*
X103263027Y-98664196D01*
X103239229Y-98658235D01*
X103216129Y-98649970D01*
X103193951Y-98639480D01*
X103172907Y-98626867D01*
X103153202Y-98612253D01*
X103135023Y-98595777D01*
X103118547Y-98577598D01*
X103103933Y-98557893D01*
X103091320Y-98536849D01*
X103080830Y-98514671D01*
X103072565Y-98491571D01*
X103066604Y-98467773D01*
X103063004Y-98443504D01*
X103061800Y-98419000D01*
X103061800Y-97669000D01*
X103063004Y-97644496D01*
X103066604Y-97620227D01*
X103072565Y-97596429D01*
X103080830Y-97573329D01*
X103091320Y-97551151D01*
X103103933Y-97530107D01*
X103118547Y-97510402D01*
X103135023Y-97492223D01*
X103153202Y-97475747D01*
X103172907Y-97461133D01*
X103193951Y-97448520D01*
X103216129Y-97438030D01*
X103239229Y-97429765D01*
X103263027Y-97423804D01*
X103287296Y-97420204D01*
X103311800Y-97419000D01*
X104561800Y-97419000D01*
X104586304Y-97420204D01*
G37*
G04 #@! TD.AperFunction*
G04 #@! TA.AperFunction,SMDPad,CuDef*
G36*
X104586304Y-94620204D02*
G01*
X104610573Y-94623804D01*
X104634371Y-94629765D01*
X104657471Y-94638030D01*
X104679649Y-94648520D01*
X104700693Y-94661133D01*
X104720398Y-94675747D01*
X104738577Y-94692223D01*
X104755053Y-94710402D01*
X104769667Y-94730107D01*
X104782280Y-94751151D01*
X104792770Y-94773329D01*
X104801035Y-94796429D01*
X104806996Y-94820227D01*
X104810596Y-94844496D01*
X104811800Y-94869000D01*
X104811800Y-95619000D01*
X104810596Y-95643504D01*
X104806996Y-95667773D01*
X104801035Y-95691571D01*
X104792770Y-95714671D01*
X104782280Y-95736849D01*
X104769667Y-95757893D01*
X104755053Y-95777598D01*
X104738577Y-95795777D01*
X104720398Y-95812253D01*
X104700693Y-95826867D01*
X104679649Y-95839480D01*
X104657471Y-95849970D01*
X104634371Y-95858235D01*
X104610573Y-95864196D01*
X104586304Y-95867796D01*
X104561800Y-95869000D01*
X103311800Y-95869000D01*
X103287296Y-95867796D01*
X103263027Y-95864196D01*
X103239229Y-95858235D01*
X103216129Y-95849970D01*
X103193951Y-95839480D01*
X103172907Y-95826867D01*
X103153202Y-95812253D01*
X103135023Y-95795777D01*
X103118547Y-95777598D01*
X103103933Y-95757893D01*
X103091320Y-95736849D01*
X103080830Y-95714671D01*
X103072565Y-95691571D01*
X103066604Y-95667773D01*
X103063004Y-95643504D01*
X103061800Y-95619000D01*
X103061800Y-94869000D01*
X103063004Y-94844496D01*
X103066604Y-94820227D01*
X103072565Y-94796429D01*
X103080830Y-94773329D01*
X103091320Y-94751151D01*
X103103933Y-94730107D01*
X103118547Y-94710402D01*
X103135023Y-94692223D01*
X103153202Y-94675747D01*
X103172907Y-94661133D01*
X103193951Y-94648520D01*
X103216129Y-94638030D01*
X103239229Y-94629765D01*
X103263027Y-94623804D01*
X103287296Y-94620204D01*
X103311800Y-94619000D01*
X104561800Y-94619000D01*
X104586304Y-94620204D01*
G37*
G04 #@! TD.AperFunction*
G04 #@! TA.AperFunction,SMDPad,CuDef*
G36*
X102071704Y-97420204D02*
G01*
X102095973Y-97423804D01*
X102119771Y-97429765D01*
X102142871Y-97438030D01*
X102165049Y-97448520D01*
X102186093Y-97461133D01*
X102205798Y-97475747D01*
X102223977Y-97492223D01*
X102240453Y-97510402D01*
X102255067Y-97530107D01*
X102267680Y-97551151D01*
X102278170Y-97573329D01*
X102286435Y-97596429D01*
X102292396Y-97620227D01*
X102295996Y-97644496D01*
X102297200Y-97669000D01*
X102297200Y-98419000D01*
X102295996Y-98443504D01*
X102292396Y-98467773D01*
X102286435Y-98491571D01*
X102278170Y-98514671D01*
X102267680Y-98536849D01*
X102255067Y-98557893D01*
X102240453Y-98577598D01*
X102223977Y-98595777D01*
X102205798Y-98612253D01*
X102186093Y-98626867D01*
X102165049Y-98639480D01*
X102142871Y-98649970D01*
X102119771Y-98658235D01*
X102095973Y-98664196D01*
X102071704Y-98667796D01*
X102047200Y-98669000D01*
X100797200Y-98669000D01*
X100772696Y-98667796D01*
X100748427Y-98664196D01*
X100724629Y-98658235D01*
X100701529Y-98649970D01*
X100679351Y-98639480D01*
X100658307Y-98626867D01*
X100638602Y-98612253D01*
X100620423Y-98595777D01*
X100603947Y-98577598D01*
X100589333Y-98557893D01*
X100576720Y-98536849D01*
X100566230Y-98514671D01*
X100557965Y-98491571D01*
X100552004Y-98467773D01*
X100548404Y-98443504D01*
X100547200Y-98419000D01*
X100547200Y-97669000D01*
X100548404Y-97644496D01*
X100552004Y-97620227D01*
X100557965Y-97596429D01*
X100566230Y-97573329D01*
X100576720Y-97551151D01*
X100589333Y-97530107D01*
X100603947Y-97510402D01*
X100620423Y-97492223D01*
X100638602Y-97475747D01*
X100658307Y-97461133D01*
X100679351Y-97448520D01*
X100701529Y-97438030D01*
X100724629Y-97429765D01*
X100748427Y-97423804D01*
X100772696Y-97420204D01*
X100797200Y-97419000D01*
X102047200Y-97419000D01*
X102071704Y-97420204D01*
G37*
G04 #@! TD.AperFunction*
G04 #@! TA.AperFunction,SMDPad,CuDef*
G36*
X102071704Y-94620204D02*
G01*
X102095973Y-94623804D01*
X102119771Y-94629765D01*
X102142871Y-94638030D01*
X102165049Y-94648520D01*
X102186093Y-94661133D01*
X102205798Y-94675747D01*
X102223977Y-94692223D01*
X102240453Y-94710402D01*
X102255067Y-94730107D01*
X102267680Y-94751151D01*
X102278170Y-94773329D01*
X102286435Y-94796429D01*
X102292396Y-94820227D01*
X102295996Y-94844496D01*
X102297200Y-94869000D01*
X102297200Y-95619000D01*
X102295996Y-95643504D01*
X102292396Y-95667773D01*
X102286435Y-95691571D01*
X102278170Y-95714671D01*
X102267680Y-95736849D01*
X102255067Y-95757893D01*
X102240453Y-95777598D01*
X102223977Y-95795777D01*
X102205798Y-95812253D01*
X102186093Y-95826867D01*
X102165049Y-95839480D01*
X102142871Y-95849970D01*
X102119771Y-95858235D01*
X102095973Y-95864196D01*
X102071704Y-95867796D01*
X102047200Y-95869000D01*
X100797200Y-95869000D01*
X100772696Y-95867796D01*
X100748427Y-95864196D01*
X100724629Y-95858235D01*
X100701529Y-95849970D01*
X100679351Y-95839480D01*
X100658307Y-95826867D01*
X100638602Y-95812253D01*
X100620423Y-95795777D01*
X100603947Y-95777598D01*
X100589333Y-95757893D01*
X100576720Y-95736849D01*
X100566230Y-95714671D01*
X100557965Y-95691571D01*
X100552004Y-95667773D01*
X100548404Y-95643504D01*
X100547200Y-95619000D01*
X100547200Y-94869000D01*
X100548404Y-94844496D01*
X100552004Y-94820227D01*
X100557965Y-94796429D01*
X100566230Y-94773329D01*
X100576720Y-94751151D01*
X100589333Y-94730107D01*
X100603947Y-94710402D01*
X100620423Y-94692223D01*
X100638602Y-94675747D01*
X100658307Y-94661133D01*
X100679351Y-94648520D01*
X100701529Y-94638030D01*
X100724629Y-94629765D01*
X100748427Y-94623804D01*
X100772696Y-94620204D01*
X100797200Y-94619000D01*
X102047200Y-94619000D01*
X102071704Y-94620204D01*
G37*
G04 #@! TD.AperFunction*
G04 #@! TA.AperFunction,SMDPad,CuDef*
G36*
X106513791Y-87613253D02*
G01*
X106535026Y-87616403D01*
X106555850Y-87621619D01*
X106576062Y-87628851D01*
X106595468Y-87638030D01*
X106613881Y-87649066D01*
X106631124Y-87661854D01*
X106647030Y-87676270D01*
X106661446Y-87692176D01*
X106674234Y-87709419D01*
X106685270Y-87727832D01*
X106694449Y-87747238D01*
X106701681Y-87767450D01*
X106706897Y-87788274D01*
X106710047Y-87809509D01*
X106711100Y-87830950D01*
X106711100Y-88343450D01*
X106710047Y-88364891D01*
X106706897Y-88386126D01*
X106701681Y-88406950D01*
X106694449Y-88427162D01*
X106685270Y-88446568D01*
X106674234Y-88464981D01*
X106661446Y-88482224D01*
X106647030Y-88498130D01*
X106631124Y-88512546D01*
X106613881Y-88525334D01*
X106595468Y-88536370D01*
X106576062Y-88545549D01*
X106555850Y-88552781D01*
X106535026Y-88557997D01*
X106513791Y-88561147D01*
X106492350Y-88562200D01*
X106054850Y-88562200D01*
X106033409Y-88561147D01*
X106012174Y-88557997D01*
X105991350Y-88552781D01*
X105971138Y-88545549D01*
X105951732Y-88536370D01*
X105933319Y-88525334D01*
X105916076Y-88512546D01*
X105900170Y-88498130D01*
X105885754Y-88482224D01*
X105872966Y-88464981D01*
X105861930Y-88446568D01*
X105852751Y-88427162D01*
X105845519Y-88406950D01*
X105840303Y-88386126D01*
X105837153Y-88364891D01*
X105836100Y-88343450D01*
X105836100Y-87830950D01*
X105837153Y-87809509D01*
X105840303Y-87788274D01*
X105845519Y-87767450D01*
X105852751Y-87747238D01*
X105861930Y-87727832D01*
X105872966Y-87709419D01*
X105885754Y-87692176D01*
X105900170Y-87676270D01*
X105916076Y-87661854D01*
X105933319Y-87649066D01*
X105951732Y-87638030D01*
X105971138Y-87628851D01*
X105991350Y-87621619D01*
X106012174Y-87616403D01*
X106033409Y-87613253D01*
X106054850Y-87612200D01*
X106492350Y-87612200D01*
X106513791Y-87613253D01*
G37*
G04 #@! TD.AperFunction*
G04 #@! TA.AperFunction,SMDPad,CuDef*
G36*
X108088791Y-87613253D02*
G01*
X108110026Y-87616403D01*
X108130850Y-87621619D01*
X108151062Y-87628851D01*
X108170468Y-87638030D01*
X108188881Y-87649066D01*
X108206124Y-87661854D01*
X108222030Y-87676270D01*
X108236446Y-87692176D01*
X108249234Y-87709419D01*
X108260270Y-87727832D01*
X108269449Y-87747238D01*
X108276681Y-87767450D01*
X108281897Y-87788274D01*
X108285047Y-87809509D01*
X108286100Y-87830950D01*
X108286100Y-88343450D01*
X108285047Y-88364891D01*
X108281897Y-88386126D01*
X108276681Y-88406950D01*
X108269449Y-88427162D01*
X108260270Y-88446568D01*
X108249234Y-88464981D01*
X108236446Y-88482224D01*
X108222030Y-88498130D01*
X108206124Y-88512546D01*
X108188881Y-88525334D01*
X108170468Y-88536370D01*
X108151062Y-88545549D01*
X108130850Y-88552781D01*
X108110026Y-88557997D01*
X108088791Y-88561147D01*
X108067350Y-88562200D01*
X107629850Y-88562200D01*
X107608409Y-88561147D01*
X107587174Y-88557997D01*
X107566350Y-88552781D01*
X107546138Y-88545549D01*
X107526732Y-88536370D01*
X107508319Y-88525334D01*
X107491076Y-88512546D01*
X107475170Y-88498130D01*
X107460754Y-88482224D01*
X107447966Y-88464981D01*
X107436930Y-88446568D01*
X107427751Y-88427162D01*
X107420519Y-88406950D01*
X107415303Y-88386126D01*
X107412153Y-88364891D01*
X107411100Y-88343450D01*
X107411100Y-87830950D01*
X107412153Y-87809509D01*
X107415303Y-87788274D01*
X107420519Y-87767450D01*
X107427751Y-87747238D01*
X107436930Y-87727832D01*
X107447966Y-87709419D01*
X107460754Y-87692176D01*
X107475170Y-87676270D01*
X107491076Y-87661854D01*
X107508319Y-87649066D01*
X107526732Y-87638030D01*
X107546138Y-87628851D01*
X107566350Y-87621619D01*
X107587174Y-87616403D01*
X107608409Y-87613253D01*
X107629850Y-87612200D01*
X108067350Y-87612200D01*
X108088791Y-87613253D01*
G37*
G04 #@! TD.AperFunction*
G04 #@! TA.AperFunction,SMDPad,CuDef*
G36*
X109422091Y-94191853D02*
G01*
X109443326Y-94195003D01*
X109464150Y-94200219D01*
X109484362Y-94207451D01*
X109503768Y-94216630D01*
X109522181Y-94227666D01*
X109539424Y-94240454D01*
X109555330Y-94254870D01*
X109569746Y-94270776D01*
X109582534Y-94288019D01*
X109593570Y-94306432D01*
X109602749Y-94325838D01*
X109609981Y-94346050D01*
X109615197Y-94366874D01*
X109618347Y-94388109D01*
X109619400Y-94409550D01*
X109619400Y-94922050D01*
X109618347Y-94943491D01*
X109615197Y-94964726D01*
X109609981Y-94985550D01*
X109602749Y-95005762D01*
X109593570Y-95025168D01*
X109582534Y-95043581D01*
X109569746Y-95060824D01*
X109555330Y-95076730D01*
X109539424Y-95091146D01*
X109522181Y-95103934D01*
X109503768Y-95114970D01*
X109484362Y-95124149D01*
X109464150Y-95131381D01*
X109443326Y-95136597D01*
X109422091Y-95139747D01*
X109400650Y-95140800D01*
X108963150Y-95140800D01*
X108941709Y-95139747D01*
X108920474Y-95136597D01*
X108899650Y-95131381D01*
X108879438Y-95124149D01*
X108860032Y-95114970D01*
X108841619Y-95103934D01*
X108824376Y-95091146D01*
X108808470Y-95076730D01*
X108794054Y-95060824D01*
X108781266Y-95043581D01*
X108770230Y-95025168D01*
X108761051Y-95005762D01*
X108753819Y-94985550D01*
X108748603Y-94964726D01*
X108745453Y-94943491D01*
X108744400Y-94922050D01*
X108744400Y-94409550D01*
X108745453Y-94388109D01*
X108748603Y-94366874D01*
X108753819Y-94346050D01*
X108761051Y-94325838D01*
X108770230Y-94306432D01*
X108781266Y-94288019D01*
X108794054Y-94270776D01*
X108808470Y-94254870D01*
X108824376Y-94240454D01*
X108841619Y-94227666D01*
X108860032Y-94216630D01*
X108879438Y-94207451D01*
X108899650Y-94200219D01*
X108920474Y-94195003D01*
X108941709Y-94191853D01*
X108963150Y-94190800D01*
X109400650Y-94190800D01*
X109422091Y-94191853D01*
G37*
G04 #@! TD.AperFunction*
G04 #@! TA.AperFunction,SMDPad,CuDef*
G36*
X110997091Y-94191853D02*
G01*
X111018326Y-94195003D01*
X111039150Y-94200219D01*
X111059362Y-94207451D01*
X111078768Y-94216630D01*
X111097181Y-94227666D01*
X111114424Y-94240454D01*
X111130330Y-94254870D01*
X111144746Y-94270776D01*
X111157534Y-94288019D01*
X111168570Y-94306432D01*
X111177749Y-94325838D01*
X111184981Y-94346050D01*
X111190197Y-94366874D01*
X111193347Y-94388109D01*
X111194400Y-94409550D01*
X111194400Y-94922050D01*
X111193347Y-94943491D01*
X111190197Y-94964726D01*
X111184981Y-94985550D01*
X111177749Y-95005762D01*
X111168570Y-95025168D01*
X111157534Y-95043581D01*
X111144746Y-95060824D01*
X111130330Y-95076730D01*
X111114424Y-95091146D01*
X111097181Y-95103934D01*
X111078768Y-95114970D01*
X111059362Y-95124149D01*
X111039150Y-95131381D01*
X111018326Y-95136597D01*
X110997091Y-95139747D01*
X110975650Y-95140800D01*
X110538150Y-95140800D01*
X110516709Y-95139747D01*
X110495474Y-95136597D01*
X110474650Y-95131381D01*
X110454438Y-95124149D01*
X110435032Y-95114970D01*
X110416619Y-95103934D01*
X110399376Y-95091146D01*
X110383470Y-95076730D01*
X110369054Y-95060824D01*
X110356266Y-95043581D01*
X110345230Y-95025168D01*
X110336051Y-95005762D01*
X110328819Y-94985550D01*
X110323603Y-94964726D01*
X110320453Y-94943491D01*
X110319400Y-94922050D01*
X110319400Y-94409550D01*
X110320453Y-94388109D01*
X110323603Y-94366874D01*
X110328819Y-94346050D01*
X110336051Y-94325838D01*
X110345230Y-94306432D01*
X110356266Y-94288019D01*
X110369054Y-94270776D01*
X110383470Y-94254870D01*
X110399376Y-94240454D01*
X110416619Y-94227666D01*
X110435032Y-94216630D01*
X110454438Y-94207451D01*
X110474650Y-94200219D01*
X110495474Y-94195003D01*
X110516709Y-94191853D01*
X110538150Y-94190800D01*
X110975650Y-94190800D01*
X110997091Y-94191853D01*
G37*
G04 #@! TD.AperFunction*
D14*
X105330000Y-110490000D03*
D15*
X100330000Y-110490000D03*
D23*
X120650000Y-97790000D03*
X120650000Y-95250000D03*
X120650000Y-92710000D03*
X120650000Y-90170000D03*
X120650000Y-87630000D03*
X120650000Y-85090000D03*
X120650000Y-82550000D03*
X120650000Y-80010000D03*
X120650000Y-77470000D03*
X120650000Y-74930000D03*
X120650000Y-72390000D03*
X120650000Y-69850000D03*
X120650000Y-67310000D03*
X120650000Y-64770000D03*
D24*
X120650000Y-62230000D03*
D23*
X97790000Y-97790000D03*
X97790000Y-95250000D03*
X97790000Y-92710000D03*
X97790000Y-90170000D03*
X97790000Y-87630000D03*
X97790000Y-85090000D03*
X97790000Y-82550000D03*
X97790000Y-80010000D03*
X97790000Y-77470000D03*
X97790000Y-74930000D03*
X97790000Y-72390000D03*
X97790000Y-69850000D03*
X97790000Y-67310000D03*
X97790000Y-64770000D03*
D24*
X97790000Y-62230000D03*
D25*
X106975000Y-71950000D03*
X101968300Y-101625400D03*
X119150000Y-105475000D03*
X106600000Y-73575000D03*
X111226600Y-97891600D03*
X111506000Y-92735400D03*
X111188500Y-96494600D03*
X102489000Y-99898200D03*
X102857300Y-92748100D03*
X101257100Y-92837000D03*
X110566200Y-88074500D03*
X111569500Y-89789000D03*
X112179100Y-79070200D03*
X116400000Y-82275000D03*
X116325000Y-80025000D03*
X116675000Y-78000000D03*
X118550000Y-77975000D03*
X100291900Y-62000000D03*
X103492300Y-62000000D03*
X106641900Y-62000000D03*
X109461300Y-62000000D03*
X112382300Y-62000000D03*
X115379500Y-62000000D03*
X118059200Y-62000000D03*
X108600000Y-82000000D03*
X106875000Y-80475000D03*
X116425000Y-86525000D03*
X117650000Y-88250000D03*
X105400000Y-78750000D03*
X109950000Y-83800000D03*
X109875000Y-85825000D03*
X116275000Y-84250000D03*
X107975000Y-77200000D03*
X106600000Y-75625000D03*
X117600000Y-99025000D03*
X109900000Y-78600000D03*
X110045500Y-73837800D03*
X111275000Y-72150000D03*
X114500000Y-71275000D03*
X118922800Y-73863200D03*
X116700000Y-71400000D03*
X101650800Y-89293700D03*
X101549200Y-87477600D03*
X105918000Y-85509100D03*
X107975000Y-85350000D03*
X103276400Y-85217000D03*
X101688900Y-91325700D03*
X105600500Y-94945200D03*
X107700000Y-105950000D03*
X105740200Y-103606600D03*
X109800000Y-76125000D03*
X108250000Y-71050000D03*
X109600000Y-70325000D03*
X117750000Y-68550000D03*
X114050000Y-67675000D03*
X114275000Y-63950000D03*
X117850000Y-63125000D03*
X115950000Y-68125000D03*
X115975000Y-63550000D03*
X104375000Y-77575000D03*
X103875000Y-75250000D03*
X103850000Y-73075000D03*
X110825000Y-106175000D03*
X118975000Y-91425000D03*
X107137500Y-65837500D03*
X114850000Y-103250000D03*
X105125000Y-71725000D03*
X113100000Y-101625000D03*
D26*
X112200000Y-74921800D02*
X112179100Y-74942700D01*
X115633500Y-74921800D02*
X112200000Y-74921800D01*
X117644700Y-74921800D02*
X117652800Y-74929900D01*
X115633500Y-74921800D02*
X117644700Y-74921800D01*
X120649900Y-74929900D02*
X120650000Y-74930000D01*
X117652800Y-74929900D02*
X120649900Y-74929900D01*
D27*
X113030000Y-99795000D02*
X113030000Y-97739200D01*
X101416200Y-95250000D02*
X101422200Y-95244000D01*
X97790000Y-95250000D02*
X101416200Y-95250000D01*
X103936800Y-95244000D02*
X101422200Y-95244000D01*
D26*
X112179100Y-80000600D02*
X112179100Y-79070200D01*
X113129100Y-77704700D02*
X113129100Y-82000600D01*
X113129100Y-82000600D02*
X113129100Y-85392300D01*
X117906800Y-90170000D02*
X120650000Y-90170000D01*
X113129100Y-85392300D02*
X117906800Y-90170000D01*
X113129100Y-77704700D02*
X113129100Y-76942700D01*
D27*
X101168200Y-97790000D02*
X101422200Y-98044000D01*
X97790000Y-97790000D02*
X101168200Y-97790000D01*
X103936800Y-98044000D02*
X101422200Y-98044000D01*
X107944799Y-92659200D02*
X107966399Y-92637600D01*
X104811800Y-98044000D02*
X107061000Y-95794800D01*
X107061000Y-95794800D02*
X107061000Y-92671900D01*
X103936800Y-98044000D02*
X104811800Y-98044000D01*
X107061000Y-92671900D02*
X107944799Y-92659200D01*
X105473500Y-92659200D02*
X107061000Y-92671900D01*
D26*
X108991400Y-92637600D02*
X109941400Y-92637600D01*
X108991400Y-94475300D02*
X109181900Y-94665800D01*
X108991400Y-92637600D02*
X108991400Y-94475300D01*
D27*
X105295700Y-100850700D02*
X105295700Y-100799900D01*
X105295700Y-100850700D02*
X105333800Y-100850700D01*
X109181900Y-97002600D02*
X109181900Y-94665800D01*
X105333800Y-100850700D02*
X109181900Y-97002600D01*
X100330000Y-107365800D02*
X100330000Y-110490000D01*
X100330000Y-105816400D02*
X100330000Y-107365800D01*
X105295700Y-100850700D02*
X100330000Y-105816400D01*
X107611200Y-103191600D02*
X107611200Y-103238300D01*
X105295700Y-100876100D02*
X107611200Y-103191600D01*
X105295700Y-100850700D02*
X105295700Y-100876100D01*
X106273600Y-89059100D02*
X105473500Y-89859200D01*
X106273600Y-88087200D02*
X106273600Y-89059100D01*
D26*
X106273600Y-87612200D02*
X106273600Y-88087200D01*
X107182900Y-86702900D02*
X106273600Y-87612200D01*
X108394500Y-86702900D02*
X107182900Y-86702900D01*
X108991400Y-87299800D02*
X108394500Y-86702900D01*
X108991400Y-90017600D02*
X108991400Y-87299800D01*
D27*
X103092000Y-89859200D02*
X103085900Y-89865300D01*
X105473500Y-89859200D02*
X103092000Y-89859200D01*
D28*
X108041400Y-88280000D02*
X107848600Y-88087200D01*
X108041400Y-90017600D02*
X108041400Y-88280000D01*
D27*
X109637500Y-65837500D02*
X109650000Y-65850000D01*
X105125000Y-65837500D02*
X107137500Y-65837500D01*
X101850000Y-67450000D02*
X101850000Y-66525000D01*
X102537500Y-65837500D02*
X105125000Y-65837500D01*
X101850000Y-66525000D02*
X102250000Y-66125000D01*
X102250000Y-66125000D02*
X102537500Y-65837500D01*
X107137500Y-65837500D02*
X109637500Y-65837500D01*
X114338300Y-103238300D02*
X114338300Y-103238300D01*
X114838300Y-103238300D02*
X114850000Y-103250000D01*
X109711200Y-103238300D02*
X114838300Y-103238300D01*
X115570000Y-109300000D02*
X118030000Y-111760000D01*
X115570000Y-105945000D02*
X115570000Y-109300000D01*
X113030000Y-105945000D02*
X113030000Y-111760000D01*
X113030000Y-94538800D02*
X113004600Y-94513400D01*
X113030000Y-96164200D02*
X113030000Y-94538800D01*
X113041200Y-94550000D02*
X113004600Y-94513400D01*
X114500000Y-94550000D02*
X113041200Y-94550000D01*
X113044200Y-96150000D02*
X113030000Y-96164200D01*
X114525000Y-96150000D02*
X113044200Y-96150000D01*
D26*
X113004600Y-88226900D02*
X112179100Y-87401400D01*
X113004600Y-92938400D02*
X113004600Y-88226900D01*
X111229100Y-77704700D02*
X111229100Y-82000600D01*
X112179100Y-87401400D02*
X112166400Y-87401400D01*
X111229100Y-86464100D02*
X111229100Y-82000600D01*
X112166400Y-87401400D02*
X111229100Y-86464100D01*
X111229100Y-77704700D02*
X111229100Y-76942700D01*
X114808500Y-72821800D02*
X115633500Y-72821800D01*
X111229100Y-74142698D02*
X112549998Y-72821800D01*
X112549998Y-72821800D02*
X114808500Y-72821800D01*
X111229100Y-76942700D02*
X111229100Y-74142698D01*
D27*
X104546700Y-88290300D02*
X104648000Y-88189000D01*
X103085900Y-88290300D02*
X104546700Y-88290300D01*
X101850000Y-68750000D02*
X101850000Y-69250000D01*
X101850000Y-68750000D02*
X101850000Y-69575000D01*
X102387500Y-70112500D02*
X105125000Y-70112500D01*
X101850000Y-69575000D02*
X102387500Y-70112500D01*
X105125000Y-70112500D02*
X105125000Y-71725000D01*
X115570000Y-99895000D02*
X113840000Y-101625000D01*
X115570000Y-99795000D02*
X115570000Y-99895000D01*
X113840000Y-101625000D02*
X113100000Y-101625000D01*
X113100000Y-101625000D02*
X113100000Y-101625000D01*
X116315000Y-97550000D02*
X117050000Y-96815000D01*
X114525000Y-97550000D02*
X116315000Y-97550000D01*
X117040000Y-91725000D02*
X117050000Y-91735000D01*
X115900000Y-91725000D02*
X117040000Y-91725000D01*
X114500000Y-93125000D02*
X115900000Y-91725000D01*
X114500000Y-93150000D02*
X114500000Y-93125000D01*
D29*
G36*
X119407199Y-91189941D02*
G01*
X119630059Y-91412801D01*
X119670765Y-91440000D01*
X119630059Y-91467199D01*
X119407199Y-91690059D01*
X119232098Y-91952116D01*
X119111487Y-92243297D01*
X119050000Y-92552414D01*
X119050000Y-92867586D01*
X119111487Y-93176703D01*
X119232098Y-93467884D01*
X119407199Y-93729941D01*
X119630059Y-93952801D01*
X119755319Y-94036497D01*
X119719153Y-94139548D01*
X120650000Y-95070395D01*
X121580847Y-94139548D01*
X121544681Y-94036497D01*
X121669941Y-93952801D01*
X121840000Y-93782742D01*
X121840000Y-94347071D01*
X121760452Y-94319153D01*
X120829605Y-95250000D01*
X121760452Y-96180847D01*
X121840000Y-96152929D01*
X121840000Y-96717258D01*
X121669941Y-96547199D01*
X121544681Y-96463503D01*
X121580847Y-96360452D01*
X120650000Y-95429605D01*
X119719153Y-96360452D01*
X119755319Y-96463503D01*
X119630059Y-96547199D01*
X119407199Y-96770059D01*
X119232098Y-97032116D01*
X119111487Y-97323297D01*
X119050000Y-97632414D01*
X119050000Y-97947586D01*
X119111487Y-98256703D01*
X119232098Y-98547884D01*
X119407199Y-98809941D01*
X119630059Y-99032801D01*
X119892116Y-99207902D01*
X120183297Y-99328513D01*
X120492414Y-99390000D01*
X120807586Y-99390000D01*
X121116703Y-99328513D01*
X121407884Y-99207902D01*
X121669941Y-99032801D01*
X121840000Y-98862742D01*
X121840000Y-115340000D01*
X96660000Y-115340000D01*
X96660000Y-101379872D01*
X96825000Y-101379872D01*
X96825000Y-101820128D01*
X96910890Y-102251925D01*
X97079369Y-102658669D01*
X97323962Y-103024729D01*
X97635271Y-103336038D01*
X98001331Y-103580631D01*
X98408075Y-103749110D01*
X98839872Y-103835000D01*
X99280128Y-103835000D01*
X99711925Y-103749110D01*
X100118669Y-103580631D01*
X100484729Y-103336038D01*
X100796038Y-103024729D01*
X101040631Y-102658669D01*
X101209110Y-102251925D01*
X101295000Y-101820128D01*
X101295000Y-101379872D01*
X101209110Y-100948075D01*
X101040631Y-100541331D01*
X100796038Y-100175271D01*
X100484729Y-99863962D01*
X100118669Y-99619369D01*
X99711925Y-99450890D01*
X99280128Y-99365000D01*
X98839872Y-99365000D01*
X98408075Y-99450890D01*
X98001331Y-99619369D01*
X97635271Y-99863962D01*
X97323962Y-100175271D01*
X97079369Y-100541331D01*
X96910890Y-100948075D01*
X96825000Y-101379872D01*
X96660000Y-101379872D01*
X96660000Y-98922742D01*
X96770059Y-99032801D01*
X97032116Y-99207902D01*
X97323297Y-99328513D01*
X97632414Y-99390000D01*
X97947586Y-99390000D01*
X98256703Y-99328513D01*
X98547884Y-99207902D01*
X98809941Y-99032801D01*
X98917742Y-98925000D01*
X100069147Y-98925000D01*
X100169238Y-99046962D01*
X100303814Y-99157405D01*
X100457350Y-99239472D01*
X100623946Y-99290008D01*
X100797200Y-99307072D01*
X102047200Y-99307072D01*
X102220454Y-99290008D01*
X102387050Y-99239472D01*
X102500185Y-99179000D01*
X102858815Y-99179000D01*
X102971950Y-99239472D01*
X103138546Y-99290008D01*
X103311800Y-99307072D01*
X103965697Y-99307072D01*
X103941206Y-99320163D01*
X103844515Y-99399515D01*
X103765163Y-99496206D01*
X103706198Y-99606520D01*
X103669888Y-99726218D01*
X103657628Y-99850700D01*
X103657628Y-100883640D01*
X99566865Y-104974404D01*
X99523551Y-105009951D01*
X99381716Y-105182777D01*
X99312979Y-105311377D01*
X99276324Y-105379954D01*
X99211423Y-105593902D01*
X99189509Y-105816400D01*
X99195000Y-105872151D01*
X99195000Y-108867378D01*
X99085820Y-108900498D01*
X98975506Y-108959463D01*
X98878815Y-109038815D01*
X98799463Y-109135506D01*
X98740498Y-109245820D01*
X98704188Y-109365518D01*
X98691928Y-109490000D01*
X98691928Y-111490000D01*
X98704188Y-111614482D01*
X98740498Y-111734180D01*
X98799463Y-111844494D01*
X98878815Y-111941185D01*
X98975506Y-112020537D01*
X99085820Y-112079502D01*
X99205518Y-112115812D01*
X99330000Y-112128072D01*
X101330000Y-112128072D01*
X101454482Y-112115812D01*
X101574180Y-112079502D01*
X101684494Y-112020537D01*
X101781185Y-111941185D01*
X101860537Y-111844494D01*
X101919502Y-111734180D01*
X101952496Y-111625413D01*
X104374192Y-111625413D01*
X104469956Y-111889814D01*
X104759571Y-112030704D01*
X105071108Y-112112384D01*
X105392595Y-112131718D01*
X105711675Y-112087961D01*
X106016088Y-111982795D01*
X106190044Y-111889814D01*
X106285808Y-111625413D01*
X105330000Y-110669605D01*
X104374192Y-111625413D01*
X101952496Y-111625413D01*
X101955812Y-111614482D01*
X101968072Y-111490000D01*
X101968072Y-110552595D01*
X103688282Y-110552595D01*
X103732039Y-110871675D01*
X103837205Y-111176088D01*
X103930186Y-111350044D01*
X104194587Y-111445808D01*
X105150395Y-110490000D01*
X105509605Y-110490000D01*
X106465413Y-111445808D01*
X106729814Y-111350044D01*
X106870704Y-111060429D01*
X106952384Y-110748892D01*
X106954722Y-110710000D01*
X111341928Y-110710000D01*
X111341928Y-112810000D01*
X111354188Y-112934482D01*
X111390498Y-113054180D01*
X111449463Y-113164494D01*
X111528815Y-113261185D01*
X111625506Y-113340537D01*
X111735820Y-113399502D01*
X111855518Y-113435812D01*
X111980000Y-113448072D01*
X114080000Y-113448072D01*
X114204482Y-113435812D01*
X114324180Y-113399502D01*
X114434494Y-113340537D01*
X114531185Y-113261185D01*
X114610537Y-113164494D01*
X114669502Y-113054180D01*
X114705812Y-112934482D01*
X114718072Y-112810000D01*
X114718072Y-110710000D01*
X114705812Y-110585518D01*
X114669502Y-110465820D01*
X114610537Y-110355506D01*
X114531185Y-110258815D01*
X114434494Y-110179463D01*
X114324180Y-110120498D01*
X114204482Y-110084188D01*
X114165000Y-110080299D01*
X114165000Y-109300000D01*
X114429509Y-109300000D01*
X114451423Y-109522498D01*
X114516324Y-109736446D01*
X114565384Y-109828230D01*
X114621717Y-109933623D01*
X114763552Y-110106449D01*
X114806860Y-110141991D01*
X116345000Y-111680132D01*
X116345000Y-111925958D01*
X116409754Y-112251496D01*
X116536772Y-112558147D01*
X116721175Y-112834125D01*
X116955875Y-113068825D01*
X117231853Y-113253228D01*
X117538504Y-113380246D01*
X117864042Y-113445000D01*
X118195958Y-113445000D01*
X118521496Y-113380246D01*
X118828147Y-113253228D01*
X119104125Y-113068825D01*
X119338825Y-112834125D01*
X119523228Y-112558147D01*
X119650246Y-112251496D01*
X119715000Y-111925958D01*
X119715000Y-111594042D01*
X119650246Y-111268504D01*
X119523228Y-110961853D01*
X119338825Y-110685875D01*
X119104125Y-110451175D01*
X118828147Y-110266772D01*
X118521496Y-110139754D01*
X118195958Y-110075000D01*
X117950132Y-110075000D01*
X116705000Y-108829869D01*
X116705000Y-105889248D01*
X116688577Y-105722501D01*
X116623676Y-105508553D01*
X116608072Y-105479360D01*
X116608072Y-105445000D01*
X116595812Y-105320518D01*
X116559502Y-105200820D01*
X116500537Y-105090506D01*
X116421185Y-104993815D01*
X116324494Y-104914463D01*
X116214180Y-104855498D01*
X116094482Y-104819188D01*
X115970000Y-104806928D01*
X115594561Y-104806928D01*
X115570000Y-104804509D01*
X115545439Y-104806928D01*
X115170000Y-104806928D01*
X115045518Y-104819188D01*
X114925820Y-104855498D01*
X114815506Y-104914463D01*
X114718815Y-104993815D01*
X114639463Y-105090506D01*
X114580498Y-105200820D01*
X114544188Y-105320518D01*
X114531928Y-105445000D01*
X114531928Y-105479361D01*
X114516324Y-105508554D01*
X114451423Y-105722502D01*
X114435000Y-105889249D01*
X114435001Y-109244239D01*
X114429509Y-109300000D01*
X114165000Y-109300000D01*
X114165000Y-105889248D01*
X114148577Y-105722501D01*
X114083676Y-105508553D01*
X114068072Y-105479360D01*
X114068072Y-105445000D01*
X114055812Y-105320518D01*
X114019502Y-105200820D01*
X113960537Y-105090506D01*
X113881185Y-104993815D01*
X113784494Y-104914463D01*
X113674180Y-104855498D01*
X113554482Y-104819188D01*
X113430000Y-104806928D01*
X113054561Y-104806928D01*
X113030000Y-104804509D01*
X113005439Y-104806928D01*
X112630000Y-104806928D01*
X112505518Y-104819188D01*
X112385820Y-104855498D01*
X112275506Y-104914463D01*
X112178815Y-104993815D01*
X112099463Y-105090506D01*
X112040498Y-105200820D01*
X112004188Y-105320518D01*
X111991928Y-105445000D01*
X111991928Y-105479361D01*
X111976324Y-105508554D01*
X111911423Y-105722502D01*
X111895000Y-105889249D01*
X111895001Y-110080299D01*
X111855518Y-110084188D01*
X111735820Y-110120498D01*
X111625506Y-110179463D01*
X111528815Y-110258815D01*
X111449463Y-110355506D01*
X111390498Y-110465820D01*
X111354188Y-110585518D01*
X111341928Y-110710000D01*
X106954722Y-110710000D01*
X106971718Y-110427405D01*
X106927961Y-110108325D01*
X106822795Y-109803912D01*
X106729814Y-109629956D01*
X106465413Y-109534192D01*
X105509605Y-110490000D01*
X105150395Y-110490000D01*
X104194587Y-109534192D01*
X103930186Y-109629956D01*
X103789296Y-109919571D01*
X103707616Y-110231108D01*
X103688282Y-110552595D01*
X101968072Y-110552595D01*
X101968072Y-109490000D01*
X101955812Y-109365518D01*
X101952497Y-109354587D01*
X104374192Y-109354587D01*
X105330000Y-110310395D01*
X106285808Y-109354587D01*
X106190044Y-109090186D01*
X105900429Y-108949296D01*
X105588892Y-108867616D01*
X105267405Y-108848282D01*
X104948325Y-108892039D01*
X104643912Y-108997205D01*
X104469956Y-109090186D01*
X104374192Y-109354587D01*
X101952497Y-109354587D01*
X101919502Y-109245820D01*
X101860537Y-109135506D01*
X101781185Y-109038815D01*
X101684494Y-108959463D01*
X101574180Y-108900498D01*
X101465000Y-108867379D01*
X101465000Y-106286531D01*
X105262760Y-102488772D01*
X105303240Y-102488772D01*
X106635962Y-103821494D01*
X106662916Y-103871923D01*
X106804751Y-104044749D01*
X106977578Y-104186584D01*
X107174754Y-104291976D01*
X107388702Y-104356877D01*
X107611200Y-104378791D01*
X107833699Y-104356877D01*
X108047647Y-104291976D01*
X108244823Y-104186584D01*
X108417649Y-104044749D01*
X108559484Y-103871923D01*
X108661200Y-103681624D01*
X108762916Y-103871923D01*
X108904751Y-104044749D01*
X109077577Y-104186584D01*
X109274753Y-104291976D01*
X109488701Y-104356877D01*
X109655448Y-104373300D01*
X114675465Y-104373300D01*
X114849999Y-104390490D01*
X115072498Y-104368576D01*
X115286446Y-104303675D01*
X115483622Y-104198283D01*
X115656448Y-104056448D01*
X115798283Y-103883622D01*
X115903675Y-103686446D01*
X115968576Y-103472498D01*
X115990490Y-103249999D01*
X115968576Y-103027501D01*
X115903675Y-102813553D01*
X115798283Y-102616377D01*
X115691988Y-102486857D01*
X115680296Y-102475165D01*
X115644749Y-102431851D01*
X115471923Y-102290016D01*
X115274747Y-102184624D01*
X115060799Y-102119723D01*
X114960306Y-102109825D01*
X115690259Y-101379872D01*
X117145000Y-101379872D01*
X117145000Y-101820128D01*
X117230890Y-102251925D01*
X117399369Y-102658669D01*
X117643962Y-103024729D01*
X117955271Y-103336038D01*
X118321331Y-103580631D01*
X118728075Y-103749110D01*
X119159872Y-103835000D01*
X119600128Y-103835000D01*
X120031925Y-103749110D01*
X120438669Y-103580631D01*
X120804729Y-103336038D01*
X121116038Y-103024729D01*
X121360631Y-102658669D01*
X121529110Y-102251925D01*
X121615000Y-101820128D01*
X121615000Y-101379872D01*
X121529110Y-100948075D01*
X121360631Y-100541331D01*
X121116038Y-100175271D01*
X120804729Y-99863962D01*
X120438669Y-99619369D01*
X120031925Y-99450890D01*
X119600128Y-99365000D01*
X119159872Y-99365000D01*
X118728075Y-99450890D01*
X118321331Y-99619369D01*
X117955271Y-99863962D01*
X117643962Y-100175271D01*
X117399369Y-100541331D01*
X117230890Y-100948075D01*
X117145000Y-101379872D01*
X115690259Y-101379872D01*
X116173198Y-100896934D01*
X116214180Y-100884502D01*
X116324494Y-100825537D01*
X116421185Y-100746185D01*
X116500537Y-100649494D01*
X116559502Y-100539180D01*
X116595812Y-100419482D01*
X116600147Y-100375466D01*
X116623676Y-100331446D01*
X116688577Y-100117498D01*
X116705000Y-99950751D01*
X116705000Y-99950743D01*
X116710490Y-99895001D01*
X116705000Y-99839259D01*
X116705000Y-99739248D01*
X116688577Y-99572501D01*
X116623676Y-99358553D01*
X116608072Y-99329360D01*
X116608072Y-99295000D01*
X116595812Y-99170518D01*
X116559502Y-99050820D01*
X116500537Y-98940506D01*
X116421185Y-98843815D01*
X116324494Y-98764463D01*
X116214180Y-98705498D01*
X116146607Y-98685000D01*
X116259249Y-98685000D01*
X116315000Y-98690491D01*
X116370751Y-98685000D01*
X116370752Y-98685000D01*
X116537499Y-98668577D01*
X116751447Y-98603676D01*
X116948623Y-98498284D01*
X117121449Y-98356449D01*
X117156996Y-98313135D01*
X117167059Y-98303072D01*
X117900000Y-98303072D01*
X118024482Y-98290812D01*
X118144180Y-98254502D01*
X118254494Y-98195537D01*
X118351185Y-98116185D01*
X118430537Y-98019494D01*
X118489502Y-97909180D01*
X118525812Y-97789482D01*
X118538072Y-97665000D01*
X118538072Y-95965000D01*
X118525812Y-95840518D01*
X118489502Y-95720820D01*
X118430537Y-95610506D01*
X118351185Y-95513815D01*
X118254494Y-95434463D01*
X118144180Y-95375498D01*
X118071620Y-95353487D01*
X118111127Y-95313980D01*
X119043530Y-95313980D01*
X119086880Y-95626157D01*
X119190300Y-95923879D01*
X119278725Y-96089309D01*
X119539548Y-96180847D01*
X120470395Y-95250000D01*
X119539548Y-94319153D01*
X119278725Y-94410691D01*
X119141332Y-94694341D01*
X119061917Y-94999344D01*
X119043530Y-95313980D01*
X118111127Y-95313980D01*
X118203475Y-95221632D01*
X118365990Y-94978411D01*
X118477932Y-94708158D01*
X118535000Y-94421260D01*
X118535000Y-94128740D01*
X118477932Y-93841842D01*
X118365990Y-93571589D01*
X118203475Y-93328368D01*
X117996632Y-93121525D01*
X117822240Y-93005000D01*
X117996632Y-92888475D01*
X118203475Y-92681632D01*
X118365990Y-92438411D01*
X118477932Y-92168158D01*
X118535000Y-91881260D01*
X118535000Y-91588740D01*
X118477932Y-91301842D01*
X118396398Y-91105000D01*
X119350443Y-91105000D01*
X119407199Y-91189941D01*
G37*
X119407199Y-91189941D02*
X119630059Y-91412801D01*
X119670765Y-91440000D01*
X119630059Y-91467199D01*
X119407199Y-91690059D01*
X119232098Y-91952116D01*
X119111487Y-92243297D01*
X119050000Y-92552414D01*
X119050000Y-92867586D01*
X119111487Y-93176703D01*
X119232098Y-93467884D01*
X119407199Y-93729941D01*
X119630059Y-93952801D01*
X119755319Y-94036497D01*
X119719153Y-94139548D01*
X120650000Y-95070395D01*
X121580847Y-94139548D01*
X121544681Y-94036497D01*
X121669941Y-93952801D01*
X121840000Y-93782742D01*
X121840000Y-94347071D01*
X121760452Y-94319153D01*
X120829605Y-95250000D01*
X121760452Y-96180847D01*
X121840000Y-96152929D01*
X121840000Y-96717258D01*
X121669941Y-96547199D01*
X121544681Y-96463503D01*
X121580847Y-96360452D01*
X120650000Y-95429605D01*
X119719153Y-96360452D01*
X119755319Y-96463503D01*
X119630059Y-96547199D01*
X119407199Y-96770059D01*
X119232098Y-97032116D01*
X119111487Y-97323297D01*
X119050000Y-97632414D01*
X119050000Y-97947586D01*
X119111487Y-98256703D01*
X119232098Y-98547884D01*
X119407199Y-98809941D01*
X119630059Y-99032801D01*
X119892116Y-99207902D01*
X120183297Y-99328513D01*
X120492414Y-99390000D01*
X120807586Y-99390000D01*
X121116703Y-99328513D01*
X121407884Y-99207902D01*
X121669941Y-99032801D01*
X121840000Y-98862742D01*
X121840000Y-115340000D01*
X96660000Y-115340000D01*
X96660000Y-101379872D01*
X96825000Y-101379872D01*
X96825000Y-101820128D01*
X96910890Y-102251925D01*
X97079369Y-102658669D01*
X97323962Y-103024729D01*
X97635271Y-103336038D01*
X98001331Y-103580631D01*
X98408075Y-103749110D01*
X98839872Y-103835000D01*
X99280128Y-103835000D01*
X99711925Y-103749110D01*
X100118669Y-103580631D01*
X100484729Y-103336038D01*
X100796038Y-103024729D01*
X101040631Y-102658669D01*
X101209110Y-102251925D01*
X101295000Y-101820128D01*
X101295000Y-101379872D01*
X101209110Y-100948075D01*
X101040631Y-100541331D01*
X100796038Y-100175271D01*
X100484729Y-99863962D01*
X100118669Y-99619369D01*
X99711925Y-99450890D01*
X99280128Y-99365000D01*
X98839872Y-99365000D01*
X98408075Y-99450890D01*
X98001331Y-99619369D01*
X97635271Y-99863962D01*
X97323962Y-100175271D01*
X97079369Y-100541331D01*
X96910890Y-100948075D01*
X96825000Y-101379872D01*
X96660000Y-101379872D01*
X96660000Y-98922742D01*
X96770059Y-99032801D01*
X97032116Y-99207902D01*
X97323297Y-99328513D01*
X97632414Y-99390000D01*
X97947586Y-99390000D01*
X98256703Y-99328513D01*
X98547884Y-99207902D01*
X98809941Y-99032801D01*
X98917742Y-98925000D01*
X100069147Y-98925000D01*
X100169238Y-99046962D01*
X100303814Y-99157405D01*
X100457350Y-99239472D01*
X100623946Y-99290008D01*
X100797200Y-99307072D01*
X102047200Y-99307072D01*
X102220454Y-99290008D01*
X102387050Y-99239472D01*
X102500185Y-99179000D01*
X102858815Y-99179000D01*
X102971950Y-99239472D01*
X103138546Y-99290008D01*
X103311800Y-99307072D01*
X103965697Y-99307072D01*
X103941206Y-99320163D01*
X103844515Y-99399515D01*
X103765163Y-99496206D01*
X103706198Y-99606520D01*
X103669888Y-99726218D01*
X103657628Y-99850700D01*
X103657628Y-100883640D01*
X99566865Y-104974404D01*
X99523551Y-105009951D01*
X99381716Y-105182777D01*
X99312979Y-105311377D01*
X99276324Y-105379954D01*
X99211423Y-105593902D01*
X99189509Y-105816400D01*
X99195000Y-105872151D01*
X99195000Y-108867378D01*
X99085820Y-108900498D01*
X98975506Y-108959463D01*
X98878815Y-109038815D01*
X98799463Y-109135506D01*
X98740498Y-109245820D01*
X98704188Y-109365518D01*
X98691928Y-109490000D01*
X98691928Y-111490000D01*
X98704188Y-111614482D01*
X98740498Y-111734180D01*
X98799463Y-111844494D01*
X98878815Y-111941185D01*
X98975506Y-112020537D01*
X99085820Y-112079502D01*
X99205518Y-112115812D01*
X99330000Y-112128072D01*
X101330000Y-112128072D01*
X101454482Y-112115812D01*
X101574180Y-112079502D01*
X101684494Y-112020537D01*
X101781185Y-111941185D01*
X101860537Y-111844494D01*
X101919502Y-111734180D01*
X101952496Y-111625413D01*
X104374192Y-111625413D01*
X104469956Y-111889814D01*
X104759571Y-112030704D01*
X105071108Y-112112384D01*
X105392595Y-112131718D01*
X105711675Y-112087961D01*
X106016088Y-111982795D01*
X106190044Y-111889814D01*
X106285808Y-111625413D01*
X105330000Y-110669605D01*
X104374192Y-111625413D01*
X101952496Y-111625413D01*
X101955812Y-111614482D01*
X101968072Y-111490000D01*
X101968072Y-110552595D01*
X103688282Y-110552595D01*
X103732039Y-110871675D01*
X103837205Y-111176088D01*
X103930186Y-111350044D01*
X104194587Y-111445808D01*
X105150395Y-110490000D01*
X105509605Y-110490000D01*
X106465413Y-111445808D01*
X106729814Y-111350044D01*
X106870704Y-111060429D01*
X106952384Y-110748892D01*
X106954722Y-110710000D01*
X111341928Y-110710000D01*
X111341928Y-112810000D01*
X111354188Y-112934482D01*
X111390498Y-113054180D01*
X111449463Y-113164494D01*
X111528815Y-113261185D01*
X111625506Y-113340537D01*
X111735820Y-113399502D01*
X111855518Y-113435812D01*
X111980000Y-113448072D01*
X114080000Y-113448072D01*
X114204482Y-113435812D01*
X114324180Y-113399502D01*
X114434494Y-113340537D01*
X114531185Y-113261185D01*
X114610537Y-113164494D01*
X114669502Y-113054180D01*
X114705812Y-112934482D01*
X114718072Y-112810000D01*
X114718072Y-110710000D01*
X114705812Y-110585518D01*
X114669502Y-110465820D01*
X114610537Y-110355506D01*
X114531185Y-110258815D01*
X114434494Y-110179463D01*
X114324180Y-110120498D01*
X114204482Y-110084188D01*
X114165000Y-110080299D01*
X114165000Y-109300000D01*
X114429509Y-109300000D01*
X114451423Y-109522498D01*
X114516324Y-109736446D01*
X114565384Y-109828230D01*
X114621717Y-109933623D01*
X114763552Y-110106449D01*
X114806860Y-110141991D01*
X116345000Y-111680132D01*
X116345000Y-111925958D01*
X116409754Y-112251496D01*
X116536772Y-112558147D01*
X116721175Y-112834125D01*
X116955875Y-113068825D01*
X117231853Y-113253228D01*
X117538504Y-113380246D01*
X117864042Y-113445000D01*
X118195958Y-113445000D01*
X118521496Y-113380246D01*
X118828147Y-113253228D01*
X119104125Y-113068825D01*
X119338825Y-112834125D01*
X119523228Y-112558147D01*
X119650246Y-112251496D01*
X119715000Y-111925958D01*
X119715000Y-111594042D01*
X119650246Y-111268504D01*
X119523228Y-110961853D01*
X119338825Y-110685875D01*
X119104125Y-110451175D01*
X118828147Y-110266772D01*
X118521496Y-110139754D01*
X118195958Y-110075000D01*
X117950132Y-110075000D01*
X116705000Y-108829869D01*
X116705000Y-105889248D01*
X116688577Y-105722501D01*
X116623676Y-105508553D01*
X116608072Y-105479360D01*
X116608072Y-105445000D01*
X116595812Y-105320518D01*
X116559502Y-105200820D01*
X116500537Y-105090506D01*
X116421185Y-104993815D01*
X116324494Y-104914463D01*
X116214180Y-104855498D01*
X116094482Y-104819188D01*
X115970000Y-104806928D01*
X115594561Y-104806928D01*
X115570000Y-104804509D01*
X115545439Y-104806928D01*
X115170000Y-104806928D01*
X115045518Y-104819188D01*
X114925820Y-104855498D01*
X114815506Y-104914463D01*
X114718815Y-104993815D01*
X114639463Y-105090506D01*
X114580498Y-105200820D01*
X114544188Y-105320518D01*
X114531928Y-105445000D01*
X114531928Y-105479361D01*
X114516324Y-105508554D01*
X114451423Y-105722502D01*
X114435000Y-105889249D01*
X114435001Y-109244239D01*
X114429509Y-109300000D01*
X114165000Y-109300000D01*
X114165000Y-105889248D01*
X114148577Y-105722501D01*
X114083676Y-105508553D01*
X114068072Y-105479360D01*
X114068072Y-105445000D01*
X114055812Y-105320518D01*
X114019502Y-105200820D01*
X113960537Y-105090506D01*
X113881185Y-104993815D01*
X113784494Y-104914463D01*
X113674180Y-104855498D01*
X113554482Y-104819188D01*
X113430000Y-104806928D01*
X113054561Y-104806928D01*
X113030000Y-104804509D01*
X113005439Y-104806928D01*
X112630000Y-104806928D01*
X112505518Y-104819188D01*
X112385820Y-104855498D01*
X112275506Y-104914463D01*
X112178815Y-104993815D01*
X112099463Y-105090506D01*
X112040498Y-105200820D01*
X112004188Y-105320518D01*
X111991928Y-105445000D01*
X111991928Y-105479361D01*
X111976324Y-105508554D01*
X111911423Y-105722502D01*
X111895000Y-105889249D01*
X111895001Y-110080299D01*
X111855518Y-110084188D01*
X111735820Y-110120498D01*
X111625506Y-110179463D01*
X111528815Y-110258815D01*
X111449463Y-110355506D01*
X111390498Y-110465820D01*
X111354188Y-110585518D01*
X111341928Y-110710000D01*
X106954722Y-110710000D01*
X106971718Y-110427405D01*
X106927961Y-110108325D01*
X106822795Y-109803912D01*
X106729814Y-109629956D01*
X106465413Y-109534192D01*
X105509605Y-110490000D01*
X105150395Y-110490000D01*
X104194587Y-109534192D01*
X103930186Y-109629956D01*
X103789296Y-109919571D01*
X103707616Y-110231108D01*
X103688282Y-110552595D01*
X101968072Y-110552595D01*
X101968072Y-109490000D01*
X101955812Y-109365518D01*
X101952497Y-109354587D01*
X104374192Y-109354587D01*
X105330000Y-110310395D01*
X106285808Y-109354587D01*
X106190044Y-109090186D01*
X105900429Y-108949296D01*
X105588892Y-108867616D01*
X105267405Y-108848282D01*
X104948325Y-108892039D01*
X104643912Y-108997205D01*
X104469956Y-109090186D01*
X104374192Y-109354587D01*
X101952497Y-109354587D01*
X101919502Y-109245820D01*
X101860537Y-109135506D01*
X101781185Y-109038815D01*
X101684494Y-108959463D01*
X101574180Y-108900498D01*
X101465000Y-108867379D01*
X101465000Y-106286531D01*
X105262760Y-102488772D01*
X105303240Y-102488772D01*
X106635962Y-103821494D01*
X106662916Y-103871923D01*
X106804751Y-104044749D01*
X106977578Y-104186584D01*
X107174754Y-104291976D01*
X107388702Y-104356877D01*
X107611200Y-104378791D01*
X107833699Y-104356877D01*
X108047647Y-104291976D01*
X108244823Y-104186584D01*
X108417649Y-104044749D01*
X108559484Y-103871923D01*
X108661200Y-103681624D01*
X108762916Y-103871923D01*
X108904751Y-104044749D01*
X109077577Y-104186584D01*
X109274753Y-104291976D01*
X109488701Y-104356877D01*
X109655448Y-104373300D01*
X114675465Y-104373300D01*
X114849999Y-104390490D01*
X115072498Y-104368576D01*
X115286446Y-104303675D01*
X115483622Y-104198283D01*
X115656448Y-104056448D01*
X115798283Y-103883622D01*
X115903675Y-103686446D01*
X115968576Y-103472498D01*
X115990490Y-103249999D01*
X115968576Y-103027501D01*
X115903675Y-102813553D01*
X115798283Y-102616377D01*
X115691988Y-102486857D01*
X115680296Y-102475165D01*
X115644749Y-102431851D01*
X115471923Y-102290016D01*
X115274747Y-102184624D01*
X115060799Y-102119723D01*
X114960306Y-102109825D01*
X115690259Y-101379872D01*
X117145000Y-101379872D01*
X117145000Y-101820128D01*
X117230890Y-102251925D01*
X117399369Y-102658669D01*
X117643962Y-103024729D01*
X117955271Y-103336038D01*
X118321331Y-103580631D01*
X118728075Y-103749110D01*
X119159872Y-103835000D01*
X119600128Y-103835000D01*
X120031925Y-103749110D01*
X120438669Y-103580631D01*
X120804729Y-103336038D01*
X121116038Y-103024729D01*
X121360631Y-102658669D01*
X121529110Y-102251925D01*
X121615000Y-101820128D01*
X121615000Y-101379872D01*
X121529110Y-100948075D01*
X121360631Y-100541331D01*
X121116038Y-100175271D01*
X120804729Y-99863962D01*
X120438669Y-99619369D01*
X120031925Y-99450890D01*
X119600128Y-99365000D01*
X119159872Y-99365000D01*
X118728075Y-99450890D01*
X118321331Y-99619369D01*
X117955271Y-99863962D01*
X117643962Y-100175271D01*
X117399369Y-100541331D01*
X117230890Y-100948075D01*
X117145000Y-101379872D01*
X115690259Y-101379872D01*
X116173198Y-100896934D01*
X116214180Y-100884502D01*
X116324494Y-100825537D01*
X116421185Y-100746185D01*
X116500537Y-100649494D01*
X116559502Y-100539180D01*
X116595812Y-100419482D01*
X116600147Y-100375466D01*
X116623676Y-100331446D01*
X116688577Y-100117498D01*
X116705000Y-99950751D01*
X116705000Y-99950743D01*
X116710490Y-99895001D01*
X116705000Y-99839259D01*
X116705000Y-99739248D01*
X116688577Y-99572501D01*
X116623676Y-99358553D01*
X116608072Y-99329360D01*
X116608072Y-99295000D01*
X116595812Y-99170518D01*
X116559502Y-99050820D01*
X116500537Y-98940506D01*
X116421185Y-98843815D01*
X116324494Y-98764463D01*
X116214180Y-98705498D01*
X116146607Y-98685000D01*
X116259249Y-98685000D01*
X116315000Y-98690491D01*
X116370751Y-98685000D01*
X116370752Y-98685000D01*
X116537499Y-98668577D01*
X116751447Y-98603676D01*
X116948623Y-98498284D01*
X117121449Y-98356449D01*
X117156996Y-98313135D01*
X117167059Y-98303072D01*
X117900000Y-98303072D01*
X118024482Y-98290812D01*
X118144180Y-98254502D01*
X118254494Y-98195537D01*
X118351185Y-98116185D01*
X118430537Y-98019494D01*
X118489502Y-97909180D01*
X118525812Y-97789482D01*
X118538072Y-97665000D01*
X118538072Y-95965000D01*
X118525812Y-95840518D01*
X118489502Y-95720820D01*
X118430537Y-95610506D01*
X118351185Y-95513815D01*
X118254494Y-95434463D01*
X118144180Y-95375498D01*
X118071620Y-95353487D01*
X118111127Y-95313980D01*
X119043530Y-95313980D01*
X119086880Y-95626157D01*
X119190300Y-95923879D01*
X119278725Y-96089309D01*
X119539548Y-96180847D01*
X120470395Y-95250000D01*
X119539548Y-94319153D01*
X119278725Y-94410691D01*
X119141332Y-94694341D01*
X119061917Y-94999344D01*
X119043530Y-95313980D01*
X118111127Y-95313980D01*
X118203475Y-95221632D01*
X118365990Y-94978411D01*
X118477932Y-94708158D01*
X118535000Y-94421260D01*
X118535000Y-94128740D01*
X118477932Y-93841842D01*
X118365990Y-93571589D01*
X118203475Y-93328368D01*
X117996632Y-93121525D01*
X117822240Y-93005000D01*
X117996632Y-92888475D01*
X118203475Y-92681632D01*
X118365990Y-92438411D01*
X118477932Y-92168158D01*
X118535000Y-91881260D01*
X118535000Y-91588740D01*
X118477932Y-91301842D01*
X118396398Y-91105000D01*
X119350443Y-91105000D01*
X119407199Y-91189941D01*
G36*
X119046928Y-63195000D02*
G01*
X119059188Y-63319482D01*
X119095498Y-63439180D01*
X119154463Y-63549494D01*
X119233815Y-63646185D01*
X119330506Y-63725537D01*
X119399089Y-63762196D01*
X119232098Y-64012116D01*
X119111487Y-64303297D01*
X119050000Y-64612414D01*
X119050000Y-64927586D01*
X119111487Y-65236703D01*
X119232098Y-65527884D01*
X119407199Y-65789941D01*
X119630059Y-66012801D01*
X119670765Y-66040000D01*
X119630059Y-66067199D01*
X119407199Y-66290059D01*
X119232098Y-66552116D01*
X119111487Y-66843297D01*
X119050000Y-67152414D01*
X119050000Y-67467586D01*
X119111487Y-67776703D01*
X119232098Y-68067884D01*
X119407199Y-68329941D01*
X119630059Y-68552801D01*
X119670765Y-68580000D01*
X119630059Y-68607199D01*
X119407199Y-68830059D01*
X119232098Y-69092116D01*
X119111487Y-69383297D01*
X119050000Y-69692414D01*
X119050000Y-70007586D01*
X119111487Y-70316703D01*
X119232098Y-70607884D01*
X119407199Y-70869941D01*
X119630059Y-71092801D01*
X119670765Y-71120000D01*
X119630059Y-71147199D01*
X119407199Y-71370059D01*
X119232098Y-71632116D01*
X119111487Y-71923297D01*
X119050000Y-72232414D01*
X119050000Y-72547586D01*
X119111487Y-72856703D01*
X119232098Y-73147884D01*
X119407199Y-73409941D01*
X119630059Y-73632801D01*
X119670765Y-73660000D01*
X119630059Y-73687199D01*
X119407199Y-73910059D01*
X119350510Y-73994900D01*
X118377911Y-73994900D01*
X118236942Y-73919550D01*
X118076208Y-73870792D01*
X117909050Y-73854328D01*
X117396550Y-73854328D01*
X117229392Y-73870792D01*
X117068658Y-73919550D01*
X116942843Y-73986800D01*
X115889692Y-73986800D01*
X115858500Y-73983728D01*
X115408500Y-73983728D01*
X115377308Y-73986800D01*
X112963614Y-73986800D01*
X112933594Y-73962163D01*
X112823280Y-73903198D01*
X112798428Y-73895659D01*
X112937287Y-73756800D01*
X115377308Y-73756800D01*
X115408500Y-73759872D01*
X115858500Y-73759872D01*
X115982982Y-73747612D01*
X116102680Y-73711302D01*
X116212994Y-73652337D01*
X116309685Y-73572985D01*
X116389037Y-73476294D01*
X116448002Y-73365980D01*
X116484312Y-73246282D01*
X116488269Y-73206107D01*
X116501507Y-73181340D01*
X116554971Y-73005092D01*
X116573024Y-72821800D01*
X116554971Y-72638508D01*
X116501507Y-72462260D01*
X116488269Y-72437493D01*
X116484312Y-72397318D01*
X116448002Y-72277620D01*
X116389037Y-72167306D01*
X116309685Y-72070615D01*
X116212994Y-71991263D01*
X116102680Y-71932298D01*
X115982982Y-71895988D01*
X115858500Y-71883728D01*
X115408500Y-71883728D01*
X115377308Y-71886800D01*
X112595930Y-71886800D01*
X112549998Y-71882276D01*
X112504066Y-71886800D01*
X112366706Y-71900329D01*
X112190458Y-71953793D01*
X112028026Y-72040614D01*
X111885654Y-72157456D01*
X111856368Y-72193141D01*
X110600436Y-73449073D01*
X110564757Y-73478354D01*
X110447915Y-73620726D01*
X110441461Y-73632801D01*
X110361094Y-73783158D01*
X110307629Y-73959407D01*
X110289576Y-74142698D01*
X110294101Y-74188640D01*
X110294100Y-76146555D01*
X110239598Y-76248520D01*
X110203288Y-76368218D01*
X110191028Y-76492700D01*
X110191028Y-77392700D01*
X110203288Y-77517182D01*
X110239598Y-77636880D01*
X110294100Y-77738844D01*
X110294101Y-81204454D01*
X110239598Y-81306420D01*
X110203288Y-81426118D01*
X110191028Y-81550600D01*
X110191028Y-82450600D01*
X110203288Y-82575082D01*
X110239598Y-82694780D01*
X110294101Y-82796746D01*
X110294100Y-86418168D01*
X110289576Y-86464100D01*
X110294100Y-86510031D01*
X110307629Y-86647391D01*
X110361093Y-86823639D01*
X110447914Y-86986071D01*
X110564756Y-87128444D01*
X110600441Y-87157730D01*
X111472774Y-88030064D01*
X111502056Y-88065744D01*
X111608564Y-88153153D01*
X112069601Y-88614191D01*
X112069600Y-92202596D01*
X112035929Y-92243625D01*
X111956750Y-92391758D01*
X111907992Y-92552492D01*
X111891528Y-92719650D01*
X111891528Y-93157150D01*
X111907992Y-93324308D01*
X111956750Y-93485042D01*
X112035929Y-93633175D01*
X112112026Y-93725900D01*
X112035929Y-93818625D01*
X111956750Y-93966758D01*
X111907992Y-94127492D01*
X111894721Y-94262227D01*
X111886023Y-94290902D01*
X111864109Y-94513400D01*
X111886023Y-94735898D01*
X111894721Y-94764573D01*
X111895000Y-94767401D01*
X111895000Y-96108449D01*
X111889509Y-96164200D01*
X111895000Y-96219951D01*
X111911423Y-96386698D01*
X111920121Y-96415373D01*
X111933392Y-96550108D01*
X111982150Y-96710842D01*
X112061329Y-96858975D01*
X112079100Y-96880630D01*
X112024463Y-96947206D01*
X111965498Y-97057520D01*
X111929188Y-97177218D01*
X111916928Y-97301700D01*
X111920000Y-97453450D01*
X112078750Y-97612200D01*
X112903000Y-97612200D01*
X112903000Y-97592200D01*
X113157000Y-97592200D01*
X113157000Y-97612200D01*
X113177000Y-97612200D01*
X113177000Y-97866200D01*
X113157000Y-97866200D01*
X113157000Y-98652950D01*
X113239900Y-98735850D01*
X113157000Y-98818750D01*
X113157000Y-99668000D01*
X113177000Y-99668000D01*
X113177000Y-99922000D01*
X113157000Y-99922000D01*
X113157000Y-99942000D01*
X112903000Y-99942000D01*
X112903000Y-99922000D01*
X112153750Y-99922000D01*
X111995000Y-100080750D01*
X111991928Y-100295000D01*
X112004188Y-100419482D01*
X112040498Y-100539180D01*
X112099463Y-100649494D01*
X112178815Y-100746185D01*
X112275506Y-100825537D01*
X112284064Y-100830111D01*
X112151716Y-100991377D01*
X112046324Y-101188553D01*
X111981423Y-101402501D01*
X111959509Y-101625000D01*
X111981423Y-101847499D01*
X112046324Y-102061447D01*
X112068695Y-102103300D01*
X111209064Y-102103300D01*
X111251508Y-101986113D01*
X110295700Y-101030305D01*
X109339892Y-101986113D01*
X109398225Y-102147169D01*
X109274753Y-102184624D01*
X109077577Y-102290016D01*
X108904751Y-102431851D01*
X108762916Y-102604677D01*
X108671252Y-102776170D01*
X108664876Y-102755153D01*
X108559484Y-102557977D01*
X108501117Y-102486857D01*
X108453189Y-102428456D01*
X108453187Y-102428454D01*
X108417649Y-102385151D01*
X108374346Y-102349613D01*
X106938028Y-100913295D01*
X108653982Y-100913295D01*
X108697739Y-101232375D01*
X108802905Y-101536788D01*
X108895886Y-101710744D01*
X109160287Y-101806508D01*
X110116095Y-100850700D01*
X110475305Y-100850700D01*
X111431113Y-101806508D01*
X111695514Y-101710744D01*
X111836404Y-101421129D01*
X111918084Y-101109592D01*
X111937418Y-100788105D01*
X111893661Y-100469025D01*
X111788495Y-100164612D01*
X111695514Y-99990656D01*
X111431113Y-99894892D01*
X110475305Y-100850700D01*
X110116095Y-100850700D01*
X109160287Y-99894892D01*
X108895886Y-99990656D01*
X108754996Y-100280271D01*
X108673316Y-100591808D01*
X108653982Y-100913295D01*
X106938028Y-100913295D01*
X106933772Y-100909040D01*
X106933772Y-100855859D01*
X108074344Y-99715287D01*
X109339892Y-99715287D01*
X110295700Y-100671095D01*
X111251508Y-99715287D01*
X111155744Y-99450886D01*
X110866129Y-99309996D01*
X110554592Y-99228316D01*
X110233105Y-99208982D01*
X109914025Y-99252739D01*
X109609612Y-99357905D01*
X109435656Y-99450886D01*
X109339892Y-99715287D01*
X108074344Y-99715287D01*
X109612931Y-98176700D01*
X111916928Y-98176700D01*
X111929188Y-98301182D01*
X111965498Y-98420880D01*
X112024463Y-98531194D01*
X112103815Y-98627885D01*
X112200506Y-98707237D01*
X112291536Y-98755894D01*
X112275506Y-98764463D01*
X112178815Y-98843815D01*
X112099463Y-98940506D01*
X112040498Y-99050820D01*
X112004188Y-99170518D01*
X111991928Y-99295000D01*
X111995000Y-99509250D01*
X112153750Y-99668000D01*
X112903000Y-99668000D01*
X112903000Y-98818750D01*
X112820100Y-98735850D01*
X112903000Y-98652950D01*
X112903000Y-97866200D01*
X112078750Y-97866200D01*
X111920000Y-98024950D01*
X111916928Y-98176700D01*
X109612931Y-98176700D01*
X109945041Y-97844591D01*
X109988349Y-97809049D01*
X110130184Y-97636223D01*
X110235576Y-97439047D01*
X110300477Y-97225099D01*
X110316900Y-97058352D01*
X110316900Y-97058345D01*
X110322390Y-97002601D01*
X110316900Y-96946857D01*
X110316900Y-95778626D01*
X110319400Y-95778872D01*
X110471150Y-95775800D01*
X110629900Y-95617050D01*
X110629900Y-94792800D01*
X110883900Y-94792800D01*
X110883900Y-95617050D01*
X111042650Y-95775800D01*
X111194400Y-95778872D01*
X111318882Y-95766612D01*
X111438580Y-95730302D01*
X111548894Y-95671337D01*
X111645585Y-95591985D01*
X111724937Y-95495294D01*
X111783902Y-95384980D01*
X111820212Y-95265282D01*
X111832472Y-95140800D01*
X111829400Y-94951550D01*
X111670650Y-94792800D01*
X110883900Y-94792800D01*
X110629900Y-94792800D01*
X110609900Y-94792800D01*
X110609900Y-94538800D01*
X110629900Y-94538800D01*
X110629900Y-94518800D01*
X110883900Y-94518800D01*
X110883900Y-94538800D01*
X111670650Y-94538800D01*
X111829400Y-94380050D01*
X111832472Y-94190800D01*
X111820212Y-94066318D01*
X111783902Y-93946620D01*
X111724937Y-93836306D01*
X111645585Y-93739615D01*
X111548894Y-93660263D01*
X111438580Y-93601298D01*
X111318882Y-93564988D01*
X111194400Y-93552728D01*
X111042650Y-93555800D01*
X110883902Y-93714548D01*
X110883902Y-93555800D01*
X110821682Y-93555800D01*
X110855902Y-93491780D01*
X110892212Y-93372082D01*
X110904472Y-93247600D01*
X110904472Y-92027600D01*
X110892212Y-91903118D01*
X110855902Y-91783420D01*
X110796937Y-91673106D01*
X110717585Y-91576415D01*
X110620894Y-91497063D01*
X110510580Y-91438098D01*
X110390882Y-91401788D01*
X110266400Y-91389528D01*
X109616400Y-91389528D01*
X109491918Y-91401788D01*
X109466400Y-91409529D01*
X109440882Y-91401788D01*
X109316400Y-91389528D01*
X108666400Y-91389528D01*
X108541918Y-91401788D01*
X108516400Y-91409529D01*
X108490882Y-91401788D01*
X108366400Y-91389528D01*
X107716400Y-91389528D01*
X107591918Y-91401788D01*
X107472220Y-91438098D01*
X107361906Y-91497063D01*
X107318006Y-91533091D01*
X107108622Y-91536099D01*
X107061000Y-91531409D01*
X107022133Y-91535237D01*
X106888350Y-91463728D01*
X106721754Y-91413192D01*
X106548500Y-91396128D01*
X104398500Y-91396128D01*
X104225246Y-91413192D01*
X104058650Y-91463728D01*
X103905114Y-91545795D01*
X103770538Y-91656238D01*
X103660095Y-91790814D01*
X103578028Y-91944350D01*
X103527492Y-92110946D01*
X103510428Y-92284200D01*
X103510428Y-93034200D01*
X103527492Y-93207454D01*
X103578028Y-93374050D01*
X103660095Y-93527586D01*
X103770538Y-93662162D01*
X103905114Y-93772605D01*
X104058650Y-93854672D01*
X104225246Y-93905208D01*
X104398500Y-93922272D01*
X105926001Y-93922272D01*
X105926000Y-95324668D01*
X105449260Y-95801408D01*
X105446800Y-95529750D01*
X105288050Y-95371000D01*
X104063800Y-95371000D01*
X104063800Y-96345250D01*
X104222550Y-96504000D01*
X104743950Y-96506718D01*
X104469741Y-96780928D01*
X103311800Y-96780928D01*
X103138546Y-96797992D01*
X102971950Y-96848528D01*
X102858815Y-96909000D01*
X102500185Y-96909000D01*
X102387050Y-96848528D01*
X102220454Y-96797992D01*
X102047200Y-96780928D01*
X101688096Y-96780928D01*
X101604647Y-96736324D01*
X101390699Y-96671423D01*
X101223952Y-96655000D01*
X101223951Y-96655000D01*
X101168200Y-96649509D01*
X101112449Y-96655000D01*
X98917742Y-96655000D01*
X98809941Y-96547199D01*
X98684681Y-96463503D01*
X98720847Y-96360452D01*
X97790000Y-95429605D01*
X97775858Y-95443748D01*
X97596253Y-95264143D01*
X97610395Y-95250000D01*
X97969605Y-95250000D01*
X98900452Y-96180847D01*
X99161275Y-96089309D01*
X99267987Y-95869000D01*
X99909128Y-95869000D01*
X99921388Y-95993482D01*
X99957698Y-96113180D01*
X100016663Y-96223494D01*
X100096015Y-96320185D01*
X100192706Y-96399537D01*
X100303020Y-96458502D01*
X100422718Y-96494812D01*
X100547200Y-96507072D01*
X101136450Y-96504000D01*
X101295200Y-96345250D01*
X101295200Y-95371000D01*
X101549200Y-95371000D01*
X101549200Y-96345250D01*
X101707950Y-96504000D01*
X102297200Y-96507072D01*
X102421682Y-96494812D01*
X102541380Y-96458502D01*
X102651694Y-96399537D01*
X102679500Y-96376717D01*
X102707306Y-96399537D01*
X102817620Y-96458502D01*
X102937318Y-96494812D01*
X103061800Y-96507072D01*
X103651050Y-96504000D01*
X103809800Y-96345250D01*
X103809800Y-95371000D01*
X101549200Y-95371000D01*
X101295200Y-95371000D01*
X100070950Y-95371000D01*
X99912200Y-95529750D01*
X99909128Y-95869000D01*
X99267987Y-95869000D01*
X99298668Y-95805659D01*
X99378083Y-95500656D01*
X99396470Y-95186020D01*
X99353120Y-94873843D01*
X99264595Y-94619000D01*
X99909128Y-94619000D01*
X99912200Y-94958250D01*
X100070950Y-95117000D01*
X101295200Y-95117000D01*
X101295200Y-94142750D01*
X101549200Y-94142750D01*
X101549200Y-95117000D01*
X103809800Y-95117000D01*
X103809800Y-94142750D01*
X104063800Y-94142750D01*
X104063800Y-95117000D01*
X105288050Y-95117000D01*
X105446800Y-94958250D01*
X105449872Y-94619000D01*
X105437612Y-94494518D01*
X105401302Y-94374820D01*
X105342337Y-94264506D01*
X105262985Y-94167815D01*
X105166294Y-94088463D01*
X105055980Y-94029498D01*
X104936282Y-93993188D01*
X104811800Y-93980928D01*
X104222550Y-93984000D01*
X104063800Y-94142750D01*
X103809800Y-94142750D01*
X103651050Y-93984000D01*
X103061800Y-93980928D01*
X102937318Y-93993188D01*
X102817620Y-94029498D01*
X102707306Y-94088463D01*
X102679500Y-94111283D01*
X102651694Y-94088463D01*
X102541380Y-94029498D01*
X102421682Y-93993188D01*
X102297200Y-93980928D01*
X101707950Y-93984000D01*
X101549200Y-94142750D01*
X101295200Y-94142750D01*
X101136450Y-93984000D01*
X100547200Y-93980928D01*
X100422718Y-93993188D01*
X100303020Y-94029498D01*
X100192706Y-94088463D01*
X100096015Y-94167815D01*
X100016663Y-94264506D01*
X99957698Y-94374820D01*
X99921388Y-94494518D01*
X99909128Y-94619000D01*
X99264595Y-94619000D01*
X99249700Y-94576121D01*
X99161275Y-94410691D01*
X98900452Y-94319153D01*
X97969605Y-95250000D01*
X97610395Y-95250000D01*
X97596253Y-95235858D01*
X97775858Y-95056253D01*
X97790000Y-95070395D01*
X98720847Y-94139548D01*
X98684681Y-94036497D01*
X98809941Y-93952801D01*
X99032801Y-93729941D01*
X99207902Y-93467884D01*
X99328513Y-93176703D01*
X99390000Y-92867586D01*
X99390000Y-92552414D01*
X99328513Y-92243297D01*
X99207902Y-91952116D01*
X99032801Y-91690059D01*
X98809941Y-91467199D01*
X98769235Y-91440000D01*
X98809941Y-91412801D01*
X99032801Y-91189941D01*
X99207902Y-90927884D01*
X99328513Y-90636703D01*
X99390000Y-90327586D01*
X99390000Y-90012414D01*
X99328513Y-89703297D01*
X99207902Y-89412116D01*
X99032801Y-89150059D01*
X98809941Y-88927199D01*
X98769235Y-88900000D01*
X98809941Y-88872801D01*
X99032801Y-88649941D01*
X99207902Y-88387884D01*
X99248322Y-88290300D01*
X101945409Y-88290300D01*
X101967323Y-88512799D01*
X101976022Y-88541474D01*
X101989292Y-88676208D01*
X102038050Y-88836942D01*
X102117229Y-88985075D01*
X102193326Y-89077800D01*
X102117229Y-89170525D01*
X102038050Y-89318658D01*
X101989292Y-89479392D01*
X101976021Y-89614127D01*
X101967323Y-89642802D01*
X101945409Y-89865300D01*
X101967323Y-90087798D01*
X101976021Y-90116473D01*
X101989292Y-90251208D01*
X102038050Y-90411942D01*
X102117229Y-90560075D01*
X102223785Y-90689915D01*
X102353625Y-90796471D01*
X102501758Y-90875650D01*
X102662492Y-90924408D01*
X102669702Y-90925118D01*
X102863402Y-90983877D01*
X103085900Y-91005791D01*
X103203586Y-90994200D01*
X103945515Y-90994200D01*
X104058650Y-91054672D01*
X104225246Y-91105208D01*
X104398500Y-91122272D01*
X106548500Y-91122272D01*
X106721754Y-91105208D01*
X106888350Y-91054672D01*
X107041886Y-90972605D01*
X107138437Y-90893368D01*
X107185863Y-90982094D01*
X107265215Y-91078785D01*
X107361906Y-91158137D01*
X107472220Y-91217102D01*
X107591918Y-91253412D01*
X107716400Y-91265672D01*
X108366400Y-91265672D01*
X108490882Y-91253412D01*
X108516400Y-91245671D01*
X108541918Y-91253412D01*
X108666400Y-91265672D01*
X109316400Y-91265672D01*
X109440882Y-91253412D01*
X109466400Y-91245671D01*
X109491918Y-91253412D01*
X109616400Y-91265672D01*
X109655650Y-91262600D01*
X109814400Y-91103850D01*
X109814400Y-91021741D01*
X109846937Y-90982094D01*
X109905902Y-90871780D01*
X109942212Y-90752082D01*
X109954472Y-90627600D01*
X109954472Y-90144600D01*
X110068400Y-90144600D01*
X110068400Y-91103850D01*
X110227150Y-91262600D01*
X110266400Y-91265672D01*
X110390882Y-91253412D01*
X110510580Y-91217102D01*
X110620894Y-91158137D01*
X110717585Y-91078785D01*
X110796937Y-90982094D01*
X110855902Y-90871780D01*
X110892212Y-90752082D01*
X110904472Y-90627600D01*
X110901400Y-90303350D01*
X110742650Y-90144600D01*
X110068400Y-90144600D01*
X109954472Y-90144600D01*
X109954472Y-89407600D01*
X109942212Y-89283118D01*
X109926400Y-89230993D01*
X109926400Y-88931350D01*
X110068400Y-88931350D01*
X110068400Y-89890600D01*
X110742650Y-89890600D01*
X110901400Y-89731850D01*
X110904472Y-89407600D01*
X110892212Y-89283118D01*
X110855902Y-89163420D01*
X110796937Y-89053106D01*
X110717585Y-88956415D01*
X110620894Y-88877063D01*
X110510580Y-88818098D01*
X110390882Y-88781788D01*
X110266400Y-88769528D01*
X110227150Y-88772600D01*
X110068400Y-88931350D01*
X109926400Y-88931350D01*
X109926400Y-87345731D01*
X109930924Y-87299799D01*
X109912871Y-87116507D01*
X109890227Y-87041860D01*
X109859407Y-86940260D01*
X109772586Y-86777828D01*
X109655744Y-86635456D01*
X109620059Y-86606170D01*
X109088130Y-86074241D01*
X109058844Y-86038556D01*
X108916472Y-85921714D01*
X108754040Y-85834893D01*
X108577792Y-85781429D01*
X108440432Y-85767900D01*
X108394500Y-85763376D01*
X108348568Y-85767900D01*
X107228831Y-85767900D01*
X107182899Y-85763376D01*
X106999607Y-85781429D01*
X106946143Y-85797647D01*
X106823360Y-85834893D01*
X106660928Y-85921714D01*
X106518556Y-86038556D01*
X106489274Y-86074236D01*
X105710880Y-86852630D01*
X105599250Y-86741000D01*
X104775000Y-86741000D01*
X104775000Y-86761000D01*
X104521000Y-86761000D01*
X104521000Y-86741000D01*
X103696750Y-86741000D01*
X103538000Y-86899750D01*
X103534928Y-87051500D01*
X103545151Y-87155300D01*
X103030148Y-87155300D01*
X102863401Y-87171723D01*
X102669700Y-87230482D01*
X102662492Y-87231192D01*
X102501758Y-87279950D01*
X102353625Y-87359129D01*
X102223785Y-87465685D01*
X102117229Y-87595525D01*
X102038050Y-87743658D01*
X101989292Y-87904392D01*
X101976022Y-88039126D01*
X101967323Y-88067801D01*
X101945409Y-88290300D01*
X99248322Y-88290300D01*
X99328513Y-88096703D01*
X99390000Y-87787586D01*
X99390000Y-87472414D01*
X99328513Y-87163297D01*
X99207902Y-86872116D01*
X99032801Y-86610059D01*
X98809941Y-86387199D01*
X98684681Y-86303503D01*
X98720847Y-86200452D01*
X98696895Y-86176500D01*
X103534928Y-86176500D01*
X103538000Y-86328250D01*
X103696750Y-86487000D01*
X104521000Y-86487000D01*
X104521000Y-85700250D01*
X104775000Y-85700250D01*
X104775000Y-86487000D01*
X105599250Y-86487000D01*
X105758000Y-86328250D01*
X105761072Y-86176500D01*
X105748812Y-86052018D01*
X105712502Y-85932320D01*
X105653537Y-85822006D01*
X105574185Y-85725315D01*
X105477494Y-85645963D01*
X105367180Y-85586998D01*
X105247482Y-85550688D01*
X105123000Y-85538428D01*
X104933750Y-85541500D01*
X104775000Y-85700250D01*
X104521000Y-85700250D01*
X104362250Y-85541500D01*
X104173000Y-85538428D01*
X104048518Y-85550688D01*
X103928820Y-85586998D01*
X103818506Y-85645963D01*
X103721815Y-85725315D01*
X103642463Y-85822006D01*
X103583498Y-85932320D01*
X103547188Y-86052018D01*
X103534928Y-86176500D01*
X98696895Y-86176500D01*
X97790000Y-85269605D01*
X97775858Y-85283748D01*
X97596253Y-85104143D01*
X97610395Y-85090000D01*
X97969605Y-85090000D01*
X98900452Y-86020847D01*
X99161275Y-85929309D01*
X99298668Y-85645659D01*
X99378083Y-85340656D01*
X99396470Y-85026020D01*
X99353120Y-84713843D01*
X99249700Y-84416121D01*
X99161275Y-84250691D01*
X98900452Y-84159153D01*
X97969605Y-85090000D01*
X97610395Y-85090000D01*
X97596253Y-85075858D01*
X97775858Y-84896253D01*
X97790000Y-84910395D01*
X98720847Y-83979548D01*
X98684681Y-83876497D01*
X98809941Y-83792801D01*
X99032801Y-83569941D01*
X99207902Y-83307884D01*
X99328513Y-83016703D01*
X99390000Y-82707586D01*
X99390000Y-82392414D01*
X99328513Y-82083297D01*
X99207902Y-81792116D01*
X99032801Y-81530059D01*
X98809941Y-81307199D01*
X98769235Y-81280000D01*
X98809941Y-81252801D01*
X99032801Y-81029941D01*
X99207902Y-80767884D01*
X99328513Y-80476703D01*
X99390000Y-80167586D01*
X99390000Y-79852414D01*
X99328513Y-79543297D01*
X99207902Y-79252116D01*
X99032801Y-78990059D01*
X98809941Y-78767199D01*
X98769235Y-78740000D01*
X98809941Y-78712801D01*
X99032801Y-78489941D01*
X99207902Y-78227884D01*
X99328513Y-77936703D01*
X99390000Y-77627586D01*
X99390000Y-77312414D01*
X99328513Y-77003297D01*
X99207902Y-76712116D01*
X99032801Y-76450059D01*
X98809941Y-76227199D01*
X98769235Y-76200000D01*
X98809941Y-76172801D01*
X99032801Y-75949941D01*
X99207902Y-75687884D01*
X99328513Y-75396703D01*
X99390000Y-75087586D01*
X99390000Y-74772414D01*
X99328513Y-74463297D01*
X99207902Y-74172116D01*
X99032801Y-73910059D01*
X98809941Y-73687199D01*
X98769235Y-73660000D01*
X98809941Y-73632801D01*
X99032801Y-73409941D01*
X99207902Y-73147884D01*
X99328513Y-72856703D01*
X99390000Y-72547586D01*
X99390000Y-72232414D01*
X99328513Y-71923297D01*
X99207902Y-71632116D01*
X99032801Y-71370059D01*
X98809941Y-71147199D01*
X98769235Y-71120000D01*
X98809941Y-71092801D01*
X99032801Y-70869941D01*
X99207902Y-70607884D01*
X99328513Y-70316703D01*
X99390000Y-70007586D01*
X99390000Y-69692414D01*
X99328513Y-69383297D01*
X99207902Y-69092116D01*
X99032801Y-68830059D01*
X98809941Y-68607199D01*
X98769235Y-68580000D01*
X98809941Y-68552801D01*
X99032801Y-68329941D01*
X99207902Y-68067884D01*
X99328513Y-67776703D01*
X99390000Y-67467586D01*
X99390000Y-67450000D01*
X100461928Y-67450000D01*
X100461928Y-67950000D01*
X100474188Y-68074482D01*
X100481929Y-68100000D01*
X100474188Y-68125518D01*
X100461928Y-68250000D01*
X100461928Y-68750000D01*
X100464336Y-68774450D01*
X100464336Y-68799009D01*
X100476596Y-68923490D01*
X100495718Y-69019623D01*
X100532027Y-69139319D01*
X100569536Y-69229875D01*
X100628502Y-69340192D01*
X100682958Y-69421691D01*
X100715000Y-69460734D01*
X100715000Y-69519249D01*
X100709509Y-69575000D01*
X100715000Y-69630751D01*
X100715000Y-69630752D01*
X100731423Y-69797499D01*
X100796324Y-70011447D01*
X100901717Y-70208623D01*
X101043552Y-70381449D01*
X101086860Y-70416991D01*
X101545504Y-70875635D01*
X101581051Y-70918949D01*
X101753877Y-71060784D01*
X101915549Y-71147199D01*
X101951053Y-71166176D01*
X102165001Y-71231077D01*
X102387500Y-71252991D01*
X102443252Y-71247500D01*
X103341834Y-71247500D01*
X103501745Y-71296008D01*
X103674999Y-71313072D01*
X103990000Y-71313072D01*
X103990000Y-71780752D01*
X104006423Y-71947499D01*
X104071325Y-72161447D01*
X104176717Y-72358623D01*
X104318552Y-72531449D01*
X104491378Y-72673284D01*
X104688554Y-72778676D01*
X104902502Y-72843577D01*
X105125000Y-72865491D01*
X105347499Y-72843577D01*
X105561447Y-72778676D01*
X105758623Y-72673284D01*
X105931449Y-72531449D01*
X106073284Y-72358623D01*
X106178676Y-72161447D01*
X106243577Y-71947499D01*
X106260000Y-71780752D01*
X106260000Y-71313072D01*
X106575001Y-71313072D01*
X106748255Y-71296008D01*
X106914851Y-71245472D01*
X107068387Y-71163405D01*
X107202962Y-71052962D01*
X107313405Y-70918387D01*
X107395472Y-70764851D01*
X107446008Y-70598255D01*
X107463072Y-70425001D01*
X107463072Y-69799999D01*
X107446008Y-69626745D01*
X107395472Y-69460149D01*
X107313405Y-69306613D01*
X107202962Y-69172038D01*
X107068387Y-69061595D01*
X106914851Y-68979528D01*
X106748255Y-68928992D01*
X106575001Y-68911928D01*
X103674999Y-68911928D01*
X103501745Y-68928992D01*
X103341834Y-68977500D01*
X103212661Y-68977500D01*
X103223404Y-68923490D01*
X103235664Y-68799009D01*
X103235664Y-68774450D01*
X103238072Y-68750000D01*
X103238072Y-68250000D01*
X103225812Y-68125518D01*
X103218071Y-68100000D01*
X103225812Y-68074482D01*
X103238072Y-67950000D01*
X103238072Y-67450000D01*
X103235664Y-67425550D01*
X103235664Y-67400991D01*
X103223404Y-67276510D01*
X103204282Y-67180377D01*
X103167973Y-67060681D01*
X103131448Y-66972500D01*
X103341834Y-66972500D01*
X103501745Y-67021008D01*
X103674999Y-67038072D01*
X106575001Y-67038072D01*
X106748255Y-67021008D01*
X106861928Y-66986526D01*
X106861928Y-67650000D01*
X106878513Y-67794532D01*
X106918651Y-67913001D01*
X106981131Y-68021363D01*
X107063550Y-68115454D01*
X107162742Y-68191657D01*
X107274894Y-68247045D01*
X107395697Y-68279489D01*
X107520509Y-68287742D01*
X107644532Y-68271487D01*
X111944532Y-67271487D01*
X112044180Y-67239502D01*
X112154494Y-67180537D01*
X112251185Y-67101185D01*
X112330537Y-67004494D01*
X112389502Y-66894180D01*
X112425812Y-66774482D01*
X112438072Y-66650000D01*
X112438072Y-65977000D01*
X113261928Y-65977000D01*
X113261928Y-66650000D01*
X113270511Y-66754303D01*
X113302955Y-66875106D01*
X113358343Y-66987258D01*
X113434546Y-67086450D01*
X113528637Y-67168869D01*
X113636999Y-67231349D01*
X113755468Y-67271487D01*
X115923000Y-67775564D01*
X115923000Y-65977000D01*
X116177000Y-65977000D01*
X116177000Y-67834634D01*
X118055468Y-68271487D01*
X118200000Y-68288072D01*
X118324482Y-68275812D01*
X118444180Y-68239502D01*
X118554494Y-68180537D01*
X118651185Y-68101185D01*
X118730537Y-68004494D01*
X118789502Y-67894180D01*
X118825812Y-67774482D01*
X118838072Y-67650000D01*
X118838072Y-65977000D01*
X116177000Y-65977000D01*
X115923000Y-65977000D01*
X113261928Y-65977000D01*
X112438072Y-65977000D01*
X112438072Y-65050000D01*
X113261928Y-65050000D01*
X113261928Y-65723000D01*
X115923000Y-65723000D01*
X115923000Y-63924436D01*
X113755468Y-64428513D01*
X113655820Y-64460498D01*
X113545506Y-64519463D01*
X113448815Y-64598815D01*
X113369463Y-64695506D01*
X113310498Y-64805820D01*
X113274188Y-64925518D01*
X113261928Y-65050000D01*
X112438072Y-65050000D01*
X112429489Y-64945697D01*
X112397045Y-64824894D01*
X112341657Y-64712742D01*
X112265454Y-64613550D01*
X112171363Y-64531131D01*
X112063001Y-64468651D01*
X111944532Y-64428513D01*
X109523000Y-63865366D01*
X116177000Y-63865366D01*
X116177000Y-65723000D01*
X118838072Y-65723000D01*
X118838072Y-64050000D01*
X118821487Y-63905468D01*
X118781349Y-63786999D01*
X118718869Y-63678637D01*
X118636450Y-63584546D01*
X118537258Y-63508343D01*
X118425106Y-63452955D01*
X118304303Y-63420511D01*
X118179491Y-63412258D01*
X118055468Y-63428513D01*
X116177000Y-63865366D01*
X109523000Y-63865366D01*
X107644532Y-63428513D01*
X107500000Y-63411928D01*
X107375518Y-63424188D01*
X107255820Y-63460498D01*
X107145506Y-63519463D01*
X107048815Y-63598815D01*
X106969463Y-63695506D01*
X106910498Y-63805820D01*
X106874188Y-63925518D01*
X106861928Y-64050000D01*
X106861928Y-64688474D01*
X106748255Y-64653992D01*
X106575001Y-64636928D01*
X103674999Y-64636928D01*
X103501745Y-64653992D01*
X103341834Y-64702500D01*
X102593241Y-64702500D01*
X102537499Y-64697010D01*
X102481757Y-64702500D01*
X102481748Y-64702500D01*
X102315001Y-64718923D01*
X102101053Y-64783824D01*
X101903877Y-64889216D01*
X101731051Y-65031051D01*
X101695504Y-65074365D01*
X101086860Y-65683009D01*
X101043552Y-65718551D01*
X100901717Y-65891377D01*
X100796324Y-66088553D01*
X100731423Y-66302501D01*
X100719896Y-66419536D01*
X100709509Y-66525000D01*
X100715000Y-66580751D01*
X100715000Y-66739266D01*
X100682958Y-66778309D01*
X100628502Y-66859808D01*
X100569536Y-66970125D01*
X100532027Y-67060681D01*
X100495718Y-67180377D01*
X100476596Y-67276510D01*
X100464336Y-67400991D01*
X100464336Y-67425550D01*
X100461928Y-67450000D01*
X99390000Y-67450000D01*
X99390000Y-67152414D01*
X99328513Y-66843297D01*
X99207902Y-66552116D01*
X99032801Y-66290059D01*
X98809941Y-66067199D01*
X98769235Y-66040000D01*
X98809941Y-66012801D01*
X99032801Y-65789941D01*
X99207902Y-65527884D01*
X99328513Y-65236703D01*
X99390000Y-64927586D01*
X99390000Y-64612414D01*
X99328513Y-64303297D01*
X99207902Y-64012116D01*
X99040911Y-63762196D01*
X99109494Y-63725537D01*
X99206185Y-63646185D01*
X99285537Y-63549494D01*
X99344502Y-63439180D01*
X99380812Y-63319482D01*
X99393072Y-63195000D01*
X99393072Y-61328300D01*
X119046928Y-61328300D01*
X119046928Y-63195000D01*
G37*
X119046928Y-63195000D02*
X119059188Y-63319482D01*
X119095498Y-63439180D01*
X119154463Y-63549494D01*
X119233815Y-63646185D01*
X119330506Y-63725537D01*
X119399089Y-63762196D01*
X119232098Y-64012116D01*
X119111487Y-64303297D01*
X119050000Y-64612414D01*
X119050000Y-64927586D01*
X119111487Y-65236703D01*
X119232098Y-65527884D01*
X119407199Y-65789941D01*
X119630059Y-66012801D01*
X119670765Y-66040000D01*
X119630059Y-66067199D01*
X119407199Y-66290059D01*
X119232098Y-66552116D01*
X119111487Y-66843297D01*
X119050000Y-67152414D01*
X119050000Y-67467586D01*
X119111487Y-67776703D01*
X119232098Y-68067884D01*
X119407199Y-68329941D01*
X119630059Y-68552801D01*
X119670765Y-68580000D01*
X119630059Y-68607199D01*
X119407199Y-68830059D01*
X119232098Y-69092116D01*
X119111487Y-69383297D01*
X119050000Y-69692414D01*
X119050000Y-70007586D01*
X119111487Y-70316703D01*
X119232098Y-70607884D01*
X119407199Y-70869941D01*
X119630059Y-71092801D01*
X119670765Y-71120000D01*
X119630059Y-71147199D01*
X119407199Y-71370059D01*
X119232098Y-71632116D01*
X119111487Y-71923297D01*
X119050000Y-72232414D01*
X119050000Y-72547586D01*
X119111487Y-72856703D01*
X119232098Y-73147884D01*
X119407199Y-73409941D01*
X119630059Y-73632801D01*
X119670765Y-73660000D01*
X119630059Y-73687199D01*
X119407199Y-73910059D01*
X119350510Y-73994900D01*
X118377911Y-73994900D01*
X118236942Y-73919550D01*
X118076208Y-73870792D01*
X117909050Y-73854328D01*
X117396550Y-73854328D01*
X117229392Y-73870792D01*
X117068658Y-73919550D01*
X116942843Y-73986800D01*
X115889692Y-73986800D01*
X115858500Y-73983728D01*
X115408500Y-73983728D01*
X115377308Y-73986800D01*
X112963614Y-73986800D01*
X112933594Y-73962163D01*
X112823280Y-73903198D01*
X112798428Y-73895659D01*
X112937287Y-73756800D01*
X115377308Y-73756800D01*
X115408500Y-73759872D01*
X115858500Y-73759872D01*
X115982982Y-73747612D01*
X116102680Y-73711302D01*
X116212994Y-73652337D01*
X116309685Y-73572985D01*
X116389037Y-73476294D01*
X116448002Y-73365980D01*
X116484312Y-73246282D01*
X116488269Y-73206107D01*
X116501507Y-73181340D01*
X116554971Y-73005092D01*
X116573024Y-72821800D01*
X116554971Y-72638508D01*
X116501507Y-72462260D01*
X116488269Y-72437493D01*
X116484312Y-72397318D01*
X116448002Y-72277620D01*
X116389037Y-72167306D01*
X116309685Y-72070615D01*
X116212994Y-71991263D01*
X116102680Y-71932298D01*
X115982982Y-71895988D01*
X115858500Y-71883728D01*
X115408500Y-71883728D01*
X115377308Y-71886800D01*
X112595930Y-71886800D01*
X112549998Y-71882276D01*
X112504066Y-71886800D01*
X112366706Y-71900329D01*
X112190458Y-71953793D01*
X112028026Y-72040614D01*
X111885654Y-72157456D01*
X111856368Y-72193141D01*
X110600436Y-73449073D01*
X110564757Y-73478354D01*
X110447915Y-73620726D01*
X110441461Y-73632801D01*
X110361094Y-73783158D01*
X110307629Y-73959407D01*
X110289576Y-74142698D01*
X110294101Y-74188640D01*
X110294100Y-76146555D01*
X110239598Y-76248520D01*
X110203288Y-76368218D01*
X110191028Y-76492700D01*
X110191028Y-77392700D01*
X110203288Y-77517182D01*
X110239598Y-77636880D01*
X110294100Y-77738844D01*
X110294101Y-81204454D01*
X110239598Y-81306420D01*
X110203288Y-81426118D01*
X110191028Y-81550600D01*
X110191028Y-82450600D01*
X110203288Y-82575082D01*
X110239598Y-82694780D01*
X110294101Y-82796746D01*
X110294100Y-86418168D01*
X110289576Y-86464100D01*
X110294100Y-86510031D01*
X110307629Y-86647391D01*
X110361093Y-86823639D01*
X110447914Y-86986071D01*
X110564756Y-87128444D01*
X110600441Y-87157730D01*
X111472774Y-88030064D01*
X111502056Y-88065744D01*
X111608564Y-88153153D01*
X112069601Y-88614191D01*
X112069600Y-92202596D01*
X112035929Y-92243625D01*
X111956750Y-92391758D01*
X111907992Y-92552492D01*
X111891528Y-92719650D01*
X111891528Y-93157150D01*
X111907992Y-93324308D01*
X111956750Y-93485042D01*
X112035929Y-93633175D01*
X112112026Y-93725900D01*
X112035929Y-93818625D01*
X111956750Y-93966758D01*
X111907992Y-94127492D01*
X111894721Y-94262227D01*
X111886023Y-94290902D01*
X111864109Y-94513400D01*
X111886023Y-94735898D01*
X111894721Y-94764573D01*
X111895000Y-94767401D01*
X111895000Y-96108449D01*
X111889509Y-96164200D01*
X111895000Y-96219951D01*
X111911423Y-96386698D01*
X111920121Y-96415373D01*
X111933392Y-96550108D01*
X111982150Y-96710842D01*
X112061329Y-96858975D01*
X112079100Y-96880630D01*
X112024463Y-96947206D01*
X111965498Y-97057520D01*
X111929188Y-97177218D01*
X111916928Y-97301700D01*
X111920000Y-97453450D01*
X112078750Y-97612200D01*
X112903000Y-97612200D01*
X112903000Y-97592200D01*
X113157000Y-97592200D01*
X113157000Y-97612200D01*
X113177000Y-97612200D01*
X113177000Y-97866200D01*
X113157000Y-97866200D01*
X113157000Y-98652950D01*
X113239900Y-98735850D01*
X113157000Y-98818750D01*
X113157000Y-99668000D01*
X113177000Y-99668000D01*
X113177000Y-99922000D01*
X113157000Y-99922000D01*
X113157000Y-99942000D01*
X112903000Y-99942000D01*
X112903000Y-99922000D01*
X112153750Y-99922000D01*
X111995000Y-100080750D01*
X111991928Y-100295000D01*
X112004188Y-100419482D01*
X112040498Y-100539180D01*
X112099463Y-100649494D01*
X112178815Y-100746185D01*
X112275506Y-100825537D01*
X112284064Y-100830111D01*
X112151716Y-100991377D01*
X112046324Y-101188553D01*
X111981423Y-101402501D01*
X111959509Y-101625000D01*
X111981423Y-101847499D01*
X112046324Y-102061447D01*
X112068695Y-102103300D01*
X111209064Y-102103300D01*
X111251508Y-101986113D01*
X110295700Y-101030305D01*
X109339892Y-101986113D01*
X109398225Y-102147169D01*
X109274753Y-102184624D01*
X109077577Y-102290016D01*
X108904751Y-102431851D01*
X108762916Y-102604677D01*
X108671252Y-102776170D01*
X108664876Y-102755153D01*
X108559484Y-102557977D01*
X108501117Y-102486857D01*
X108453189Y-102428456D01*
X108453187Y-102428454D01*
X108417649Y-102385151D01*
X108374346Y-102349613D01*
X106938028Y-100913295D01*
X108653982Y-100913295D01*
X108697739Y-101232375D01*
X108802905Y-101536788D01*
X108895886Y-101710744D01*
X109160287Y-101806508D01*
X110116095Y-100850700D01*
X110475305Y-100850700D01*
X111431113Y-101806508D01*
X111695514Y-101710744D01*
X111836404Y-101421129D01*
X111918084Y-101109592D01*
X111937418Y-100788105D01*
X111893661Y-100469025D01*
X111788495Y-100164612D01*
X111695514Y-99990656D01*
X111431113Y-99894892D01*
X110475305Y-100850700D01*
X110116095Y-100850700D01*
X109160287Y-99894892D01*
X108895886Y-99990656D01*
X108754996Y-100280271D01*
X108673316Y-100591808D01*
X108653982Y-100913295D01*
X106938028Y-100913295D01*
X106933772Y-100909040D01*
X106933772Y-100855859D01*
X108074344Y-99715287D01*
X109339892Y-99715287D01*
X110295700Y-100671095D01*
X111251508Y-99715287D01*
X111155744Y-99450886D01*
X110866129Y-99309996D01*
X110554592Y-99228316D01*
X110233105Y-99208982D01*
X109914025Y-99252739D01*
X109609612Y-99357905D01*
X109435656Y-99450886D01*
X109339892Y-99715287D01*
X108074344Y-99715287D01*
X109612931Y-98176700D01*
X111916928Y-98176700D01*
X111929188Y-98301182D01*
X111965498Y-98420880D01*
X112024463Y-98531194D01*
X112103815Y-98627885D01*
X112200506Y-98707237D01*
X112291536Y-98755894D01*
X112275506Y-98764463D01*
X112178815Y-98843815D01*
X112099463Y-98940506D01*
X112040498Y-99050820D01*
X112004188Y-99170518D01*
X111991928Y-99295000D01*
X111995000Y-99509250D01*
X112153750Y-99668000D01*
X112903000Y-99668000D01*
X112903000Y-98818750D01*
X112820100Y-98735850D01*
X112903000Y-98652950D01*
X112903000Y-97866200D01*
X112078750Y-97866200D01*
X111920000Y-98024950D01*
X111916928Y-98176700D01*
X109612931Y-98176700D01*
X109945041Y-97844591D01*
X109988349Y-97809049D01*
X110130184Y-97636223D01*
X110235576Y-97439047D01*
X110300477Y-97225099D01*
X110316900Y-97058352D01*
X110316900Y-97058345D01*
X110322390Y-97002601D01*
X110316900Y-96946857D01*
X110316900Y-95778626D01*
X110319400Y-95778872D01*
X110471150Y-95775800D01*
X110629900Y-95617050D01*
X110629900Y-94792800D01*
X110883900Y-94792800D01*
X110883900Y-95617050D01*
X111042650Y-95775800D01*
X111194400Y-95778872D01*
X111318882Y-95766612D01*
X111438580Y-95730302D01*
X111548894Y-95671337D01*
X111645585Y-95591985D01*
X111724937Y-95495294D01*
X111783902Y-95384980D01*
X111820212Y-95265282D01*
X111832472Y-95140800D01*
X111829400Y-94951550D01*
X111670650Y-94792800D01*
X110883900Y-94792800D01*
X110629900Y-94792800D01*
X110609900Y-94792800D01*
X110609900Y-94538800D01*
X110629900Y-94538800D01*
X110629900Y-94518800D01*
X110883900Y-94518800D01*
X110883900Y-94538800D01*
X111670650Y-94538800D01*
X111829400Y-94380050D01*
X111832472Y-94190800D01*
X111820212Y-94066318D01*
X111783902Y-93946620D01*
X111724937Y-93836306D01*
X111645585Y-93739615D01*
X111548894Y-93660263D01*
X111438580Y-93601298D01*
X111318882Y-93564988D01*
X111194400Y-93552728D01*
X111042650Y-93555800D01*
X110883902Y-93714548D01*
X110883902Y-93555800D01*
X110821682Y-93555800D01*
X110855902Y-93491780D01*
X110892212Y-93372082D01*
X110904472Y-93247600D01*
X110904472Y-92027600D01*
X110892212Y-91903118D01*
X110855902Y-91783420D01*
X110796937Y-91673106D01*
X110717585Y-91576415D01*
X110620894Y-91497063D01*
X110510580Y-91438098D01*
X110390882Y-91401788D01*
X110266400Y-91389528D01*
X109616400Y-91389528D01*
X109491918Y-91401788D01*
X109466400Y-91409529D01*
X109440882Y-91401788D01*
X109316400Y-91389528D01*
X108666400Y-91389528D01*
X108541918Y-91401788D01*
X108516400Y-91409529D01*
X108490882Y-91401788D01*
X108366400Y-91389528D01*
X107716400Y-91389528D01*
X107591918Y-91401788D01*
X107472220Y-91438098D01*
X107361906Y-91497063D01*
X107318006Y-91533091D01*
X107108622Y-91536099D01*
X107061000Y-91531409D01*
X107022133Y-91535237D01*
X106888350Y-91463728D01*
X106721754Y-91413192D01*
X106548500Y-91396128D01*
X104398500Y-91396128D01*
X104225246Y-91413192D01*
X104058650Y-91463728D01*
X103905114Y-91545795D01*
X103770538Y-91656238D01*
X103660095Y-91790814D01*
X103578028Y-91944350D01*
X103527492Y-92110946D01*
X103510428Y-92284200D01*
X103510428Y-93034200D01*
X103527492Y-93207454D01*
X103578028Y-93374050D01*
X103660095Y-93527586D01*
X103770538Y-93662162D01*
X103905114Y-93772605D01*
X104058650Y-93854672D01*
X104225246Y-93905208D01*
X104398500Y-93922272D01*
X105926001Y-93922272D01*
X105926000Y-95324668D01*
X105449260Y-95801408D01*
X105446800Y-95529750D01*
X105288050Y-95371000D01*
X104063800Y-95371000D01*
X104063800Y-96345250D01*
X104222550Y-96504000D01*
X104743950Y-96506718D01*
X104469741Y-96780928D01*
X103311800Y-96780928D01*
X103138546Y-96797992D01*
X102971950Y-96848528D01*
X102858815Y-96909000D01*
X102500185Y-96909000D01*
X102387050Y-96848528D01*
X102220454Y-96797992D01*
X102047200Y-96780928D01*
X101688096Y-96780928D01*
X101604647Y-96736324D01*
X101390699Y-96671423D01*
X101223952Y-96655000D01*
X101223951Y-96655000D01*
X101168200Y-96649509D01*
X101112449Y-96655000D01*
X98917742Y-96655000D01*
X98809941Y-96547199D01*
X98684681Y-96463503D01*
X98720847Y-96360452D01*
X97790000Y-95429605D01*
X97775858Y-95443748D01*
X97596253Y-95264143D01*
X97610395Y-95250000D01*
X97969605Y-95250000D01*
X98900452Y-96180847D01*
X99161275Y-96089309D01*
X99267987Y-95869000D01*
X99909128Y-95869000D01*
X99921388Y-95993482D01*
X99957698Y-96113180D01*
X100016663Y-96223494D01*
X100096015Y-96320185D01*
X100192706Y-96399537D01*
X100303020Y-96458502D01*
X100422718Y-96494812D01*
X100547200Y-96507072D01*
X101136450Y-96504000D01*
X101295200Y-96345250D01*
X101295200Y-95371000D01*
X101549200Y-95371000D01*
X101549200Y-96345250D01*
X101707950Y-96504000D01*
X102297200Y-96507072D01*
X102421682Y-96494812D01*
X102541380Y-96458502D01*
X102651694Y-96399537D01*
X102679500Y-96376717D01*
X102707306Y-96399537D01*
X102817620Y-96458502D01*
X102937318Y-96494812D01*
X103061800Y-96507072D01*
X103651050Y-96504000D01*
X103809800Y-96345250D01*
X103809800Y-95371000D01*
X101549200Y-95371000D01*
X101295200Y-95371000D01*
X100070950Y-95371000D01*
X99912200Y-95529750D01*
X99909128Y-95869000D01*
X99267987Y-95869000D01*
X99298668Y-95805659D01*
X99378083Y-95500656D01*
X99396470Y-95186020D01*
X99353120Y-94873843D01*
X99264595Y-94619000D01*
X99909128Y-94619000D01*
X99912200Y-94958250D01*
X100070950Y-95117000D01*
X101295200Y-95117000D01*
X101295200Y-94142750D01*
X101549200Y-94142750D01*
X101549200Y-95117000D01*
X103809800Y-95117000D01*
X103809800Y-94142750D01*
X104063800Y-94142750D01*
X104063800Y-95117000D01*
X105288050Y-95117000D01*
X105446800Y-94958250D01*
X105449872Y-94619000D01*
X105437612Y-94494518D01*
X105401302Y-94374820D01*
X105342337Y-94264506D01*
X105262985Y-94167815D01*
X105166294Y-94088463D01*
X105055980Y-94029498D01*
X104936282Y-93993188D01*
X104811800Y-93980928D01*
X104222550Y-93984000D01*
X104063800Y-94142750D01*
X103809800Y-94142750D01*
X103651050Y-93984000D01*
X103061800Y-93980928D01*
X102937318Y-93993188D01*
X102817620Y-94029498D01*
X102707306Y-94088463D01*
X102679500Y-94111283D01*
X102651694Y-94088463D01*
X102541380Y-94029498D01*
X102421682Y-93993188D01*
X102297200Y-93980928D01*
X101707950Y-93984000D01*
X101549200Y-94142750D01*
X101295200Y-94142750D01*
X101136450Y-93984000D01*
X100547200Y-93980928D01*
X100422718Y-93993188D01*
X100303020Y-94029498D01*
X100192706Y-94088463D01*
X100096015Y-94167815D01*
X100016663Y-94264506D01*
X99957698Y-94374820D01*
X99921388Y-94494518D01*
X99909128Y-94619000D01*
X99264595Y-94619000D01*
X99249700Y-94576121D01*
X99161275Y-94410691D01*
X98900452Y-94319153D01*
X97969605Y-95250000D01*
X97610395Y-95250000D01*
X97596253Y-95235858D01*
X97775858Y-95056253D01*
X97790000Y-95070395D01*
X98720847Y-94139548D01*
X98684681Y-94036497D01*
X98809941Y-93952801D01*
X99032801Y-93729941D01*
X99207902Y-93467884D01*
X99328513Y-93176703D01*
X99390000Y-92867586D01*
X99390000Y-92552414D01*
X99328513Y-92243297D01*
X99207902Y-91952116D01*
X99032801Y-91690059D01*
X98809941Y-91467199D01*
X98769235Y-91440000D01*
X98809941Y-91412801D01*
X99032801Y-91189941D01*
X99207902Y-90927884D01*
X99328513Y-90636703D01*
X99390000Y-90327586D01*
X99390000Y-90012414D01*
X99328513Y-89703297D01*
X99207902Y-89412116D01*
X99032801Y-89150059D01*
X98809941Y-88927199D01*
X98769235Y-88900000D01*
X98809941Y-88872801D01*
X99032801Y-88649941D01*
X99207902Y-88387884D01*
X99248322Y-88290300D01*
X101945409Y-88290300D01*
X101967323Y-88512799D01*
X101976022Y-88541474D01*
X101989292Y-88676208D01*
X102038050Y-88836942D01*
X102117229Y-88985075D01*
X102193326Y-89077800D01*
X102117229Y-89170525D01*
X102038050Y-89318658D01*
X101989292Y-89479392D01*
X101976021Y-89614127D01*
X101967323Y-89642802D01*
X101945409Y-89865300D01*
X101967323Y-90087798D01*
X101976021Y-90116473D01*
X101989292Y-90251208D01*
X102038050Y-90411942D01*
X102117229Y-90560075D01*
X102223785Y-90689915D01*
X102353625Y-90796471D01*
X102501758Y-90875650D01*
X102662492Y-90924408D01*
X102669702Y-90925118D01*
X102863402Y-90983877D01*
X103085900Y-91005791D01*
X103203586Y-90994200D01*
X103945515Y-90994200D01*
X104058650Y-91054672D01*
X104225246Y-91105208D01*
X104398500Y-91122272D01*
X106548500Y-91122272D01*
X106721754Y-91105208D01*
X106888350Y-91054672D01*
X107041886Y-90972605D01*
X107138437Y-90893368D01*
X107185863Y-90982094D01*
X107265215Y-91078785D01*
X107361906Y-91158137D01*
X107472220Y-91217102D01*
X107591918Y-91253412D01*
X107716400Y-91265672D01*
X108366400Y-91265672D01*
X108490882Y-91253412D01*
X108516400Y-91245671D01*
X108541918Y-91253412D01*
X108666400Y-91265672D01*
X109316400Y-91265672D01*
X109440882Y-91253412D01*
X109466400Y-91245671D01*
X109491918Y-91253412D01*
X109616400Y-91265672D01*
X109655650Y-91262600D01*
X109814400Y-91103850D01*
X109814400Y-91021741D01*
X109846937Y-90982094D01*
X109905902Y-90871780D01*
X109942212Y-90752082D01*
X109954472Y-90627600D01*
X109954472Y-90144600D01*
X110068400Y-90144600D01*
X110068400Y-91103850D01*
X110227150Y-91262600D01*
X110266400Y-91265672D01*
X110390882Y-91253412D01*
X110510580Y-91217102D01*
X110620894Y-91158137D01*
X110717585Y-91078785D01*
X110796937Y-90982094D01*
X110855902Y-90871780D01*
X110892212Y-90752082D01*
X110904472Y-90627600D01*
X110901400Y-90303350D01*
X110742650Y-90144600D01*
X110068400Y-90144600D01*
X109954472Y-90144600D01*
X109954472Y-89407600D01*
X109942212Y-89283118D01*
X109926400Y-89230993D01*
X109926400Y-88931350D01*
X110068400Y-88931350D01*
X110068400Y-89890600D01*
X110742650Y-89890600D01*
X110901400Y-89731850D01*
X110904472Y-89407600D01*
X110892212Y-89283118D01*
X110855902Y-89163420D01*
X110796937Y-89053106D01*
X110717585Y-88956415D01*
X110620894Y-88877063D01*
X110510580Y-88818098D01*
X110390882Y-88781788D01*
X110266400Y-88769528D01*
X110227150Y-88772600D01*
X110068400Y-88931350D01*
X109926400Y-88931350D01*
X109926400Y-87345731D01*
X109930924Y-87299799D01*
X109912871Y-87116507D01*
X109890227Y-87041860D01*
X109859407Y-86940260D01*
X109772586Y-86777828D01*
X109655744Y-86635456D01*
X109620059Y-86606170D01*
X109088130Y-86074241D01*
X109058844Y-86038556D01*
X108916472Y-85921714D01*
X108754040Y-85834893D01*
X108577792Y-85781429D01*
X108440432Y-85767900D01*
X108394500Y-85763376D01*
X108348568Y-85767900D01*
X107228831Y-85767900D01*
X107182899Y-85763376D01*
X106999607Y-85781429D01*
X106946143Y-85797647D01*
X106823360Y-85834893D01*
X106660928Y-85921714D01*
X106518556Y-86038556D01*
X106489274Y-86074236D01*
X105710880Y-86852630D01*
X105599250Y-86741000D01*
X104775000Y-86741000D01*
X104775000Y-86761000D01*
X104521000Y-86761000D01*
X104521000Y-86741000D01*
X103696750Y-86741000D01*
X103538000Y-86899750D01*
X103534928Y-87051500D01*
X103545151Y-87155300D01*
X103030148Y-87155300D01*
X102863401Y-87171723D01*
X102669700Y-87230482D01*
X102662492Y-87231192D01*
X102501758Y-87279950D01*
X102353625Y-87359129D01*
X102223785Y-87465685D01*
X102117229Y-87595525D01*
X102038050Y-87743658D01*
X101989292Y-87904392D01*
X101976022Y-88039126D01*
X101967323Y-88067801D01*
X101945409Y-88290300D01*
X99248322Y-88290300D01*
X99328513Y-88096703D01*
X99390000Y-87787586D01*
X99390000Y-87472414D01*
X99328513Y-87163297D01*
X99207902Y-86872116D01*
X99032801Y-86610059D01*
X98809941Y-86387199D01*
X98684681Y-86303503D01*
X98720847Y-86200452D01*
X98696895Y-86176500D01*
X103534928Y-86176500D01*
X103538000Y-86328250D01*
X103696750Y-86487000D01*
X104521000Y-86487000D01*
X104521000Y-85700250D01*
X104775000Y-85700250D01*
X104775000Y-86487000D01*
X105599250Y-86487000D01*
X105758000Y-86328250D01*
X105761072Y-86176500D01*
X105748812Y-86052018D01*
X105712502Y-85932320D01*
X105653537Y-85822006D01*
X105574185Y-85725315D01*
X105477494Y-85645963D01*
X105367180Y-85586998D01*
X105247482Y-85550688D01*
X105123000Y-85538428D01*
X104933750Y-85541500D01*
X104775000Y-85700250D01*
X104521000Y-85700250D01*
X104362250Y-85541500D01*
X104173000Y-85538428D01*
X104048518Y-85550688D01*
X103928820Y-85586998D01*
X103818506Y-85645963D01*
X103721815Y-85725315D01*
X103642463Y-85822006D01*
X103583498Y-85932320D01*
X103547188Y-86052018D01*
X103534928Y-86176500D01*
X98696895Y-86176500D01*
X97790000Y-85269605D01*
X97775858Y-85283748D01*
X97596253Y-85104143D01*
X97610395Y-85090000D01*
X97969605Y-85090000D01*
X98900452Y-86020847D01*
X99161275Y-85929309D01*
X99298668Y-85645659D01*
X99378083Y-85340656D01*
X99396470Y-85026020D01*
X99353120Y-84713843D01*
X99249700Y-84416121D01*
X99161275Y-84250691D01*
X98900452Y-84159153D01*
X97969605Y-85090000D01*
X97610395Y-85090000D01*
X97596253Y-85075858D01*
X97775858Y-84896253D01*
X97790000Y-84910395D01*
X98720847Y-83979548D01*
X98684681Y-83876497D01*
X98809941Y-83792801D01*
X99032801Y-83569941D01*
X99207902Y-83307884D01*
X99328513Y-83016703D01*
X99390000Y-82707586D01*
X99390000Y-82392414D01*
X99328513Y-82083297D01*
X99207902Y-81792116D01*
X99032801Y-81530059D01*
X98809941Y-81307199D01*
X98769235Y-81280000D01*
X98809941Y-81252801D01*
X99032801Y-81029941D01*
X99207902Y-80767884D01*
X99328513Y-80476703D01*
X99390000Y-80167586D01*
X99390000Y-79852414D01*
X99328513Y-79543297D01*
X99207902Y-79252116D01*
X99032801Y-78990059D01*
X98809941Y-78767199D01*
X98769235Y-78740000D01*
X98809941Y-78712801D01*
X99032801Y-78489941D01*
X99207902Y-78227884D01*
X99328513Y-77936703D01*
X99390000Y-77627586D01*
X99390000Y-77312414D01*
X99328513Y-77003297D01*
X99207902Y-76712116D01*
X99032801Y-76450059D01*
X98809941Y-76227199D01*
X98769235Y-76200000D01*
X98809941Y-76172801D01*
X99032801Y-75949941D01*
X99207902Y-75687884D01*
X99328513Y-75396703D01*
X99390000Y-75087586D01*
X99390000Y-74772414D01*
X99328513Y-74463297D01*
X99207902Y-74172116D01*
X99032801Y-73910059D01*
X98809941Y-73687199D01*
X98769235Y-73660000D01*
X98809941Y-73632801D01*
X99032801Y-73409941D01*
X99207902Y-73147884D01*
X99328513Y-72856703D01*
X99390000Y-72547586D01*
X99390000Y-72232414D01*
X99328513Y-71923297D01*
X99207902Y-71632116D01*
X99032801Y-71370059D01*
X98809941Y-71147199D01*
X98769235Y-71120000D01*
X98809941Y-71092801D01*
X99032801Y-70869941D01*
X99207902Y-70607884D01*
X99328513Y-70316703D01*
X99390000Y-70007586D01*
X99390000Y-69692414D01*
X99328513Y-69383297D01*
X99207902Y-69092116D01*
X99032801Y-68830059D01*
X98809941Y-68607199D01*
X98769235Y-68580000D01*
X98809941Y-68552801D01*
X99032801Y-68329941D01*
X99207902Y-68067884D01*
X99328513Y-67776703D01*
X99390000Y-67467586D01*
X99390000Y-67450000D01*
X100461928Y-67450000D01*
X100461928Y-67950000D01*
X100474188Y-68074482D01*
X100481929Y-68100000D01*
X100474188Y-68125518D01*
X100461928Y-68250000D01*
X100461928Y-68750000D01*
X100464336Y-68774450D01*
X100464336Y-68799009D01*
X100476596Y-68923490D01*
X100495718Y-69019623D01*
X100532027Y-69139319D01*
X100569536Y-69229875D01*
X100628502Y-69340192D01*
X100682958Y-69421691D01*
X100715000Y-69460734D01*
X100715000Y-69519249D01*
X100709509Y-69575000D01*
X100715000Y-69630751D01*
X100715000Y-69630752D01*
X100731423Y-69797499D01*
X100796324Y-70011447D01*
X100901717Y-70208623D01*
X101043552Y-70381449D01*
X101086860Y-70416991D01*
X101545504Y-70875635D01*
X101581051Y-70918949D01*
X101753877Y-71060784D01*
X101915549Y-71147199D01*
X101951053Y-71166176D01*
X102165001Y-71231077D01*
X102387500Y-71252991D01*
X102443252Y-71247500D01*
X103341834Y-71247500D01*
X103501745Y-71296008D01*
X103674999Y-71313072D01*
X103990000Y-71313072D01*
X103990000Y-71780752D01*
X104006423Y-71947499D01*
X104071325Y-72161447D01*
X104176717Y-72358623D01*
X104318552Y-72531449D01*
X104491378Y-72673284D01*
X104688554Y-72778676D01*
X104902502Y-72843577D01*
X105125000Y-72865491D01*
X105347499Y-72843577D01*
X105561447Y-72778676D01*
X105758623Y-72673284D01*
X105931449Y-72531449D01*
X106073284Y-72358623D01*
X106178676Y-72161447D01*
X106243577Y-71947499D01*
X106260000Y-71780752D01*
X106260000Y-71313072D01*
X106575001Y-71313072D01*
X106748255Y-71296008D01*
X106914851Y-71245472D01*
X107068387Y-71163405D01*
X107202962Y-71052962D01*
X107313405Y-70918387D01*
X107395472Y-70764851D01*
X107446008Y-70598255D01*
X107463072Y-70425001D01*
X107463072Y-69799999D01*
X107446008Y-69626745D01*
X107395472Y-69460149D01*
X107313405Y-69306613D01*
X107202962Y-69172038D01*
X107068387Y-69061595D01*
X106914851Y-68979528D01*
X106748255Y-68928992D01*
X106575001Y-68911928D01*
X103674999Y-68911928D01*
X103501745Y-68928992D01*
X103341834Y-68977500D01*
X103212661Y-68977500D01*
X103223404Y-68923490D01*
X103235664Y-68799009D01*
X103235664Y-68774450D01*
X103238072Y-68750000D01*
X103238072Y-68250000D01*
X103225812Y-68125518D01*
X103218071Y-68100000D01*
X103225812Y-68074482D01*
X103238072Y-67950000D01*
X103238072Y-67450000D01*
X103235664Y-67425550D01*
X103235664Y-67400991D01*
X103223404Y-67276510D01*
X103204282Y-67180377D01*
X103167973Y-67060681D01*
X103131448Y-66972500D01*
X103341834Y-66972500D01*
X103501745Y-67021008D01*
X103674999Y-67038072D01*
X106575001Y-67038072D01*
X106748255Y-67021008D01*
X106861928Y-66986526D01*
X106861928Y-67650000D01*
X106878513Y-67794532D01*
X106918651Y-67913001D01*
X106981131Y-68021363D01*
X107063550Y-68115454D01*
X107162742Y-68191657D01*
X107274894Y-68247045D01*
X107395697Y-68279489D01*
X107520509Y-68287742D01*
X107644532Y-68271487D01*
X111944532Y-67271487D01*
X112044180Y-67239502D01*
X112154494Y-67180537D01*
X112251185Y-67101185D01*
X112330537Y-67004494D01*
X112389502Y-66894180D01*
X112425812Y-66774482D01*
X112438072Y-66650000D01*
X112438072Y-65977000D01*
X113261928Y-65977000D01*
X113261928Y-66650000D01*
X113270511Y-66754303D01*
X113302955Y-66875106D01*
X113358343Y-66987258D01*
X113434546Y-67086450D01*
X113528637Y-67168869D01*
X113636999Y-67231349D01*
X113755468Y-67271487D01*
X115923000Y-67775564D01*
X115923000Y-65977000D01*
X116177000Y-65977000D01*
X116177000Y-67834634D01*
X118055468Y-68271487D01*
X118200000Y-68288072D01*
X118324482Y-68275812D01*
X118444180Y-68239502D01*
X118554494Y-68180537D01*
X118651185Y-68101185D01*
X118730537Y-68004494D01*
X118789502Y-67894180D01*
X118825812Y-67774482D01*
X118838072Y-67650000D01*
X118838072Y-65977000D01*
X116177000Y-65977000D01*
X115923000Y-65977000D01*
X113261928Y-65977000D01*
X112438072Y-65977000D01*
X112438072Y-65050000D01*
X113261928Y-65050000D01*
X113261928Y-65723000D01*
X115923000Y-65723000D01*
X115923000Y-63924436D01*
X113755468Y-64428513D01*
X113655820Y-64460498D01*
X113545506Y-64519463D01*
X113448815Y-64598815D01*
X113369463Y-64695506D01*
X113310498Y-64805820D01*
X113274188Y-64925518D01*
X113261928Y-65050000D01*
X112438072Y-65050000D01*
X112429489Y-64945697D01*
X112397045Y-64824894D01*
X112341657Y-64712742D01*
X112265454Y-64613550D01*
X112171363Y-64531131D01*
X112063001Y-64468651D01*
X111944532Y-64428513D01*
X109523000Y-63865366D01*
X116177000Y-63865366D01*
X116177000Y-65723000D01*
X118838072Y-65723000D01*
X118838072Y-64050000D01*
X118821487Y-63905468D01*
X118781349Y-63786999D01*
X118718869Y-63678637D01*
X118636450Y-63584546D01*
X118537258Y-63508343D01*
X118425106Y-63452955D01*
X118304303Y-63420511D01*
X118179491Y-63412258D01*
X118055468Y-63428513D01*
X116177000Y-63865366D01*
X109523000Y-63865366D01*
X107644532Y-63428513D01*
X107500000Y-63411928D01*
X107375518Y-63424188D01*
X107255820Y-63460498D01*
X107145506Y-63519463D01*
X107048815Y-63598815D01*
X106969463Y-63695506D01*
X106910498Y-63805820D01*
X106874188Y-63925518D01*
X106861928Y-64050000D01*
X106861928Y-64688474D01*
X106748255Y-64653992D01*
X106575001Y-64636928D01*
X103674999Y-64636928D01*
X103501745Y-64653992D01*
X103341834Y-64702500D01*
X102593241Y-64702500D01*
X102537499Y-64697010D01*
X102481757Y-64702500D01*
X102481748Y-64702500D01*
X102315001Y-64718923D01*
X102101053Y-64783824D01*
X101903877Y-64889216D01*
X101731051Y-65031051D01*
X101695504Y-65074365D01*
X101086860Y-65683009D01*
X101043552Y-65718551D01*
X100901717Y-65891377D01*
X100796324Y-66088553D01*
X100731423Y-66302501D01*
X100719896Y-66419536D01*
X100709509Y-66525000D01*
X100715000Y-66580751D01*
X100715000Y-66739266D01*
X100682958Y-66778309D01*
X100628502Y-66859808D01*
X100569536Y-66970125D01*
X100532027Y-67060681D01*
X100495718Y-67180377D01*
X100476596Y-67276510D01*
X100464336Y-67400991D01*
X100464336Y-67425550D01*
X100461928Y-67450000D01*
X99390000Y-67450000D01*
X99390000Y-67152414D01*
X99328513Y-66843297D01*
X99207902Y-66552116D01*
X99032801Y-66290059D01*
X98809941Y-66067199D01*
X98769235Y-66040000D01*
X98809941Y-66012801D01*
X99032801Y-65789941D01*
X99207902Y-65527884D01*
X99328513Y-65236703D01*
X99390000Y-64927586D01*
X99390000Y-64612414D01*
X99328513Y-64303297D01*
X99207902Y-64012116D01*
X99040911Y-63762196D01*
X99109494Y-63725537D01*
X99206185Y-63646185D01*
X99285537Y-63549494D01*
X99344502Y-63439180D01*
X99380812Y-63319482D01*
X99393072Y-63195000D01*
X99393072Y-61328300D01*
X119046928Y-61328300D01*
X119046928Y-63195000D01*
G36*
X115408500Y-75859872D02*
G01*
X115858500Y-75859872D01*
X115889692Y-75856800D01*
X116578112Y-75856800D01*
X116551988Y-75942918D01*
X116539728Y-76067400D01*
X116542800Y-76219150D01*
X116701550Y-76377900D01*
X117525800Y-76377900D01*
X117525800Y-76357900D01*
X117779800Y-76357900D01*
X117779800Y-76377900D01*
X118604050Y-76377900D01*
X118762800Y-76219150D01*
X118765872Y-76067400D01*
X118753612Y-75942918D01*
X118729945Y-75864900D01*
X119350376Y-75864900D01*
X119407199Y-75949941D01*
X119630059Y-76172801D01*
X119755319Y-76256497D01*
X119719153Y-76359548D01*
X120650000Y-77290395D01*
X121580847Y-76359548D01*
X121544681Y-76256497D01*
X121669941Y-76172801D01*
X121840001Y-76002741D01*
X121840001Y-76567071D01*
X121760452Y-76539153D01*
X120829605Y-77470000D01*
X121760452Y-78400847D01*
X121840001Y-78372929D01*
X121840001Y-78937259D01*
X121669941Y-78767199D01*
X121544681Y-78683503D01*
X121580847Y-78580452D01*
X120650000Y-77649605D01*
X119719153Y-78580452D01*
X119755319Y-78683503D01*
X119630059Y-78767199D01*
X119407199Y-78990059D01*
X119232098Y-79252116D01*
X119111487Y-79543297D01*
X119050000Y-79852414D01*
X119050000Y-80167586D01*
X119111487Y-80476703D01*
X119232098Y-80767884D01*
X119407199Y-81029941D01*
X119630059Y-81252801D01*
X119670765Y-81280000D01*
X119630059Y-81307199D01*
X119407199Y-81530059D01*
X119232098Y-81792116D01*
X119111487Y-82083297D01*
X119050000Y-82392414D01*
X119050000Y-82707586D01*
X119111487Y-83016703D01*
X119232098Y-83307884D01*
X119407199Y-83569941D01*
X119630059Y-83792801D01*
X119670765Y-83820000D01*
X119630059Y-83847199D01*
X119407199Y-84070059D01*
X119232098Y-84332116D01*
X119111487Y-84623297D01*
X119050000Y-84932414D01*
X119050000Y-85247586D01*
X119111487Y-85556703D01*
X119232098Y-85847884D01*
X119407199Y-86109941D01*
X119630059Y-86332801D01*
X119670765Y-86360000D01*
X119630059Y-86387199D01*
X119407199Y-86610059D01*
X119232098Y-86872116D01*
X119111487Y-87163297D01*
X119050000Y-87472414D01*
X119050000Y-87787586D01*
X119111487Y-88096703D01*
X119232098Y-88387884D01*
X119407199Y-88649941D01*
X119630059Y-88872801D01*
X119670765Y-88900000D01*
X119630059Y-88927199D01*
X119407199Y-89150059D01*
X119350443Y-89235000D01*
X118294090Y-89235000D01*
X114064100Y-85005011D01*
X114064100Y-82796744D01*
X114118602Y-82694780D01*
X114154912Y-82575082D01*
X114167172Y-82450600D01*
X114167172Y-81550600D01*
X114154912Y-81426118D01*
X114118602Y-81306420D01*
X114064100Y-81204456D01*
X114064100Y-77738844D01*
X114118602Y-77636880D01*
X114154912Y-77517182D01*
X114167172Y-77392700D01*
X114167172Y-76942400D01*
X116539728Y-76942400D01*
X116551988Y-77066882D01*
X116588298Y-77186580D01*
X116647263Y-77296894D01*
X116726615Y-77393585D01*
X116823306Y-77472937D01*
X116933620Y-77531902D01*
X117053318Y-77568212D01*
X117177800Y-77580472D01*
X117367050Y-77577400D01*
X117525800Y-77418650D01*
X117525800Y-76631900D01*
X117779800Y-76631900D01*
X117779800Y-77418650D01*
X117938550Y-77577400D01*
X118127800Y-77580472D01*
X118252282Y-77568212D01*
X118365129Y-77533980D01*
X119043530Y-77533980D01*
X119086880Y-77846157D01*
X119190300Y-78143879D01*
X119278725Y-78309309D01*
X119539548Y-78400847D01*
X120470395Y-77470000D01*
X119539548Y-76539153D01*
X119278725Y-76630691D01*
X119141332Y-76914341D01*
X119061917Y-77219344D01*
X119043530Y-77533980D01*
X118365129Y-77533980D01*
X118371980Y-77531902D01*
X118482294Y-77472937D01*
X118578985Y-77393585D01*
X118658337Y-77296894D01*
X118717302Y-77186580D01*
X118753612Y-77066882D01*
X118765872Y-76942400D01*
X118762800Y-76790650D01*
X118604050Y-76631900D01*
X117779800Y-76631900D01*
X117525800Y-76631900D01*
X116701550Y-76631900D01*
X116542800Y-76790650D01*
X116539728Y-76942400D01*
X114167172Y-76942400D01*
X114167172Y-76492700D01*
X114154912Y-76368218D01*
X114118602Y-76248520D01*
X114059637Y-76138206D01*
X113980285Y-76041515D01*
X113883594Y-75962163D01*
X113773280Y-75903198D01*
X113653582Y-75866888D01*
X113551153Y-75856800D01*
X115377308Y-75856800D01*
X115408500Y-75859872D01*
G37*
X115408500Y-75859872D02*
X115858500Y-75859872D01*
X115889692Y-75856800D01*
X116578112Y-75856800D01*
X116551988Y-75942918D01*
X116539728Y-76067400D01*
X116542800Y-76219150D01*
X116701550Y-76377900D01*
X117525800Y-76377900D01*
X117525800Y-76357900D01*
X117779800Y-76357900D01*
X117779800Y-76377900D01*
X118604050Y-76377900D01*
X118762800Y-76219150D01*
X118765872Y-76067400D01*
X118753612Y-75942918D01*
X118729945Y-75864900D01*
X119350376Y-75864900D01*
X119407199Y-75949941D01*
X119630059Y-76172801D01*
X119755319Y-76256497D01*
X119719153Y-76359548D01*
X120650000Y-77290395D01*
X121580847Y-76359548D01*
X121544681Y-76256497D01*
X121669941Y-76172801D01*
X121840001Y-76002741D01*
X121840001Y-76567071D01*
X121760452Y-76539153D01*
X120829605Y-77470000D01*
X121760452Y-78400847D01*
X121840001Y-78372929D01*
X121840001Y-78937259D01*
X121669941Y-78767199D01*
X121544681Y-78683503D01*
X121580847Y-78580452D01*
X120650000Y-77649605D01*
X119719153Y-78580452D01*
X119755319Y-78683503D01*
X119630059Y-78767199D01*
X119407199Y-78990059D01*
X119232098Y-79252116D01*
X119111487Y-79543297D01*
X119050000Y-79852414D01*
X119050000Y-80167586D01*
X119111487Y-80476703D01*
X119232098Y-80767884D01*
X119407199Y-81029941D01*
X119630059Y-81252801D01*
X119670765Y-81280000D01*
X119630059Y-81307199D01*
X119407199Y-81530059D01*
X119232098Y-81792116D01*
X119111487Y-82083297D01*
X119050000Y-82392414D01*
X119050000Y-82707586D01*
X119111487Y-83016703D01*
X119232098Y-83307884D01*
X119407199Y-83569941D01*
X119630059Y-83792801D01*
X119670765Y-83820000D01*
X119630059Y-83847199D01*
X119407199Y-84070059D01*
X119232098Y-84332116D01*
X119111487Y-84623297D01*
X119050000Y-84932414D01*
X119050000Y-85247586D01*
X119111487Y-85556703D01*
X119232098Y-85847884D01*
X119407199Y-86109941D01*
X119630059Y-86332801D01*
X119670765Y-86360000D01*
X119630059Y-86387199D01*
X119407199Y-86610059D01*
X119232098Y-86872116D01*
X119111487Y-87163297D01*
X119050000Y-87472414D01*
X119050000Y-87787586D01*
X119111487Y-88096703D01*
X119232098Y-88387884D01*
X119407199Y-88649941D01*
X119630059Y-88872801D01*
X119670765Y-88900000D01*
X119630059Y-88927199D01*
X119407199Y-89150059D01*
X119350443Y-89235000D01*
X118294090Y-89235000D01*
X114064100Y-85005011D01*
X114064100Y-82796744D01*
X114118602Y-82694780D01*
X114154912Y-82575082D01*
X114167172Y-82450600D01*
X114167172Y-81550600D01*
X114154912Y-81426118D01*
X114118602Y-81306420D01*
X114064100Y-81204456D01*
X114064100Y-77738844D01*
X114118602Y-77636880D01*
X114154912Y-77517182D01*
X114167172Y-77392700D01*
X114167172Y-76942400D01*
X116539728Y-76942400D01*
X116551988Y-77066882D01*
X116588298Y-77186580D01*
X116647263Y-77296894D01*
X116726615Y-77393585D01*
X116823306Y-77472937D01*
X116933620Y-77531902D01*
X117053318Y-77568212D01*
X117177800Y-77580472D01*
X117367050Y-77577400D01*
X117525800Y-77418650D01*
X117525800Y-76631900D01*
X117779800Y-76631900D01*
X117779800Y-77418650D01*
X117938550Y-77577400D01*
X118127800Y-77580472D01*
X118252282Y-77568212D01*
X118365129Y-77533980D01*
X119043530Y-77533980D01*
X119086880Y-77846157D01*
X119190300Y-78143879D01*
X119278725Y-78309309D01*
X119539548Y-78400847D01*
X120470395Y-77470000D01*
X119539548Y-76539153D01*
X119278725Y-76630691D01*
X119141332Y-76914341D01*
X119061917Y-77219344D01*
X119043530Y-77533980D01*
X118365129Y-77533980D01*
X118371980Y-77531902D01*
X118482294Y-77472937D01*
X118578985Y-77393585D01*
X118658337Y-77296894D01*
X118717302Y-77186580D01*
X118753612Y-77066882D01*
X118765872Y-76942400D01*
X118762800Y-76790650D01*
X118604050Y-76631900D01*
X117779800Y-76631900D01*
X117525800Y-76631900D01*
X116701550Y-76631900D01*
X116542800Y-76790650D01*
X116539728Y-76942400D01*
X114167172Y-76942400D01*
X114167172Y-76492700D01*
X114154912Y-76368218D01*
X114118602Y-76248520D01*
X114059637Y-76138206D01*
X113980285Y-76041515D01*
X113883594Y-75962163D01*
X113773280Y-75903198D01*
X113653582Y-75866888D01*
X113551153Y-75856800D01*
X115377308Y-75856800D01*
X115408500Y-75859872D01*
G36*
X112194100Y-77738844D02*
G01*
X112194101Y-81204454D01*
X112179100Y-81232518D01*
X112164100Y-81204456D01*
X112164100Y-77738844D01*
X112179100Y-77710782D01*
X112194100Y-77738844D01*
G37*
X112194100Y-77738844D02*
X112194101Y-81204454D01*
X112179100Y-81232518D01*
X112164100Y-81204456D01*
X112164100Y-77738844D01*
X112179100Y-77710782D01*
X112194100Y-77738844D01*
M02*
