G04 #@! TF.GenerationSoftware,KiCad,Pcbnew,5.1.5+dfsg1-2build2*
G04 #@! TF.CreationDate,2022-11-05T00:29:27+01:00*
G04 #@! TF.ProjectId,MBus_to_radio,4d427573-5f74-46f5-9f72-6164696f2e6b,rev?*
G04 #@! TF.SameCoordinates,Original*
G04 #@! TF.FileFunction,Soldermask,Top*
G04 #@! TF.FilePolarity,Negative*
%FSLAX46Y46*%
G04 Gerber Fmt 4.6, Leading zero omitted, Abs format (unit mm)*
G04 Created by KiCad (PCBNEW 5.1.5+dfsg1-2build2) date 2022-11-05 00:29:27*
%MOMM*%
%LPD*%
G04 APERTURE LIST*
%ADD10C,0.100000*%
G04 APERTURE END LIST*
D10*
G36*
X118244794Y-110680155D02*
G01*
X118351150Y-110701311D01*
X118451334Y-110742809D01*
X118551520Y-110784307D01*
X118731844Y-110904795D01*
X118885205Y-111058156D01*
X119005693Y-111238480D01*
X119005693Y-111238481D01*
X119081455Y-111421385D01*
X119088689Y-111438851D01*
X119131000Y-111651560D01*
X119131000Y-111868440D01*
X119088689Y-112081149D01*
X119005693Y-112281520D01*
X118885205Y-112461844D01*
X118731844Y-112615205D01*
X118551520Y-112735693D01*
X118451334Y-112777191D01*
X118351150Y-112818689D01*
X118244795Y-112839844D01*
X118138440Y-112861000D01*
X117921560Y-112861000D01*
X117815205Y-112839844D01*
X117708850Y-112818689D01*
X117608666Y-112777191D01*
X117508480Y-112735693D01*
X117328156Y-112615205D01*
X117174795Y-112461844D01*
X117054307Y-112281520D01*
X116971311Y-112081149D01*
X116929000Y-111868440D01*
X116929000Y-111651560D01*
X116971311Y-111438851D01*
X116978546Y-111421385D01*
X117054307Y-111238481D01*
X117054307Y-111238480D01*
X117174795Y-111058156D01*
X117328156Y-110904795D01*
X117508480Y-110784307D01*
X117608666Y-110742809D01*
X117708850Y-110701311D01*
X117815206Y-110680155D01*
X117921560Y-110659000D01*
X118138440Y-110659000D01*
X118244794Y-110680155D01*
G37*
G36*
X114131000Y-112861000D02*
G01*
X111929000Y-112861000D01*
X111929000Y-110659000D01*
X114131000Y-110659000D01*
X114131000Y-112861000D01*
G37*
G36*
X101381000Y-111541000D02*
G01*
X99279000Y-111541000D01*
X99279000Y-109439000D01*
X101381000Y-109439000D01*
X101381000Y-111541000D01*
G37*
G36*
X105636564Y-109479389D02*
G01*
X105827833Y-109558615D01*
X105827835Y-109558616D01*
X105999973Y-109673635D01*
X106146365Y-109820027D01*
X106261385Y-109992167D01*
X106340611Y-110183436D01*
X106381000Y-110386484D01*
X106381000Y-110593516D01*
X106340611Y-110796564D01*
X106295780Y-110904795D01*
X106261384Y-110987835D01*
X106146365Y-111159973D01*
X105999973Y-111306365D01*
X105827835Y-111421384D01*
X105827834Y-111421385D01*
X105827833Y-111421385D01*
X105636564Y-111500611D01*
X105433516Y-111541000D01*
X105226484Y-111541000D01*
X105023436Y-111500611D01*
X104832167Y-111421385D01*
X104832166Y-111421385D01*
X104832165Y-111421384D01*
X104660027Y-111306365D01*
X104513635Y-111159973D01*
X104398616Y-110987835D01*
X104364220Y-110904795D01*
X104319389Y-110796564D01*
X104279000Y-110593516D01*
X104279000Y-110386484D01*
X104319389Y-110183436D01*
X104398615Y-109992167D01*
X104513635Y-109820027D01*
X104660027Y-109673635D01*
X104832165Y-109558616D01*
X104832167Y-109558615D01*
X105023436Y-109479389D01*
X105226484Y-109439000D01*
X105433516Y-109439000D01*
X105636564Y-109479389D01*
G37*
G36*
X116021000Y-106496000D02*
G01*
X115119000Y-106496000D01*
X115119000Y-105394000D01*
X116021000Y-105394000D01*
X116021000Y-106496000D01*
G37*
G36*
X113481000Y-106496000D02*
G01*
X112579000Y-106496000D01*
X112579000Y-105394000D01*
X113481000Y-105394000D01*
X113481000Y-106496000D01*
G37*
G36*
X110062200Y-103514300D02*
G01*
X109360200Y-103514300D01*
X109360200Y-102962300D01*
X110062200Y-102962300D01*
X110062200Y-103514300D01*
G37*
G36*
X107962200Y-103514300D02*
G01*
X107260200Y-103514300D01*
X107260200Y-102962300D01*
X107962200Y-102962300D01*
X107962200Y-103514300D01*
G37*
G36*
X119755256Y-99991298D02*
G01*
X119861579Y-100012447D01*
X120162042Y-100136903D01*
X120432451Y-100317585D01*
X120662415Y-100547549D01*
X120843097Y-100817958D01*
X120967553Y-101118421D01*
X120988702Y-101224744D01*
X121031000Y-101437389D01*
X121031000Y-101762611D01*
X121027126Y-101782085D01*
X120967553Y-102081579D01*
X120843097Y-102382042D01*
X120662415Y-102652451D01*
X120432451Y-102882415D01*
X120162042Y-103063097D01*
X119861579Y-103187553D01*
X119755256Y-103208702D01*
X119542611Y-103251000D01*
X119217389Y-103251000D01*
X119004744Y-103208702D01*
X118898421Y-103187553D01*
X118597958Y-103063097D01*
X118327549Y-102882415D01*
X118097585Y-102652451D01*
X117916903Y-102382042D01*
X117792447Y-102081579D01*
X117732874Y-101782085D01*
X117729000Y-101762611D01*
X117729000Y-101437389D01*
X117771298Y-101224744D01*
X117792447Y-101118421D01*
X117916903Y-100817958D01*
X118097585Y-100547549D01*
X118327549Y-100317585D01*
X118597958Y-100136903D01*
X118898421Y-100012447D01*
X119004744Y-99991298D01*
X119217389Y-99949000D01*
X119542611Y-99949000D01*
X119755256Y-99991298D01*
G37*
G36*
X99435256Y-99991298D02*
G01*
X99541579Y-100012447D01*
X99842042Y-100136903D01*
X100112451Y-100317585D01*
X100342415Y-100547549D01*
X100523097Y-100817958D01*
X100647553Y-101118421D01*
X100668702Y-101224744D01*
X100711000Y-101437389D01*
X100711000Y-101762611D01*
X100707126Y-101782085D01*
X100647553Y-102081579D01*
X100523097Y-102382042D01*
X100342415Y-102652451D01*
X100112451Y-102882415D01*
X99842042Y-103063097D01*
X99541579Y-103187553D01*
X99435256Y-103208702D01*
X99222611Y-103251000D01*
X98897389Y-103251000D01*
X98684744Y-103208702D01*
X98578421Y-103187553D01*
X98277958Y-103063097D01*
X98007549Y-102882415D01*
X97777585Y-102652451D01*
X97596903Y-102382042D01*
X97472447Y-102081579D01*
X97412874Y-101782085D01*
X97409000Y-101762611D01*
X97409000Y-101437389D01*
X97451298Y-101224744D01*
X97472447Y-101118421D01*
X97596903Y-100817958D01*
X97777585Y-100547549D01*
X98007549Y-100317585D01*
X98277958Y-100136903D01*
X98578421Y-100012447D01*
X98684744Y-99991298D01*
X98897389Y-99949000D01*
X99222611Y-99949000D01*
X99435256Y-99991298D01*
G37*
G36*
X110602264Y-99840089D02*
G01*
X110793533Y-99919315D01*
X110793535Y-99919316D01*
X110965673Y-100034335D01*
X111112065Y-100180727D01*
X111203511Y-100317585D01*
X111227085Y-100352867D01*
X111306311Y-100544136D01*
X111346700Y-100747184D01*
X111346700Y-100954216D01*
X111306311Y-101157264D01*
X111227085Y-101348533D01*
X111227084Y-101348535D01*
X111112065Y-101520673D01*
X110965673Y-101667065D01*
X110793535Y-101782084D01*
X110793534Y-101782085D01*
X110793533Y-101782085D01*
X110602264Y-101861311D01*
X110399216Y-101901700D01*
X110192184Y-101901700D01*
X109989136Y-101861311D01*
X109797867Y-101782085D01*
X109797866Y-101782085D01*
X109797865Y-101782084D01*
X109625727Y-101667065D01*
X109479335Y-101520673D01*
X109364316Y-101348535D01*
X109364315Y-101348533D01*
X109285089Y-101157264D01*
X109244700Y-100954216D01*
X109244700Y-100747184D01*
X109285089Y-100544136D01*
X109364315Y-100352867D01*
X109387890Y-100317585D01*
X109479335Y-100180727D01*
X109625727Y-100034335D01*
X109797865Y-99919316D01*
X109797867Y-99919315D01*
X109989136Y-99840089D01*
X110192184Y-99799700D01*
X110399216Y-99799700D01*
X110602264Y-99840089D01*
G37*
G36*
X106346700Y-101901700D02*
G01*
X104244700Y-101901700D01*
X104244700Y-99799700D01*
X106346700Y-99799700D01*
X106346700Y-101901700D01*
G37*
G36*
X113481000Y-100346000D02*
G01*
X112579000Y-100346000D01*
X112579000Y-99244000D01*
X113481000Y-99244000D01*
X113481000Y-100346000D01*
G37*
G36*
X116021000Y-100346000D02*
G01*
X115119000Y-100346000D01*
X115119000Y-99244000D01*
X116021000Y-99244000D01*
X116021000Y-100346000D01*
G37*
G36*
X120880926Y-96800029D02*
G01*
X120946356Y-96813044D01*
X121131256Y-96889632D01*
X121297662Y-97000821D01*
X121439179Y-97142338D01*
X121550368Y-97308744D01*
X121626956Y-97493644D01*
X121666000Y-97689933D01*
X121666000Y-97890067D01*
X121626956Y-98086356D01*
X121550368Y-98271256D01*
X121439179Y-98437662D01*
X121297662Y-98579179D01*
X121131256Y-98690368D01*
X120946356Y-98766956D01*
X120880926Y-98779971D01*
X120750069Y-98806000D01*
X120549931Y-98806000D01*
X120419074Y-98779971D01*
X120353644Y-98766956D01*
X120168744Y-98690368D01*
X120002338Y-98579179D01*
X119860821Y-98437662D01*
X119749632Y-98271256D01*
X119673044Y-98086356D01*
X119634000Y-97890067D01*
X119634000Y-97689933D01*
X119673044Y-97493644D01*
X119749632Y-97308744D01*
X119860821Y-97142338D01*
X120002338Y-97000821D01*
X120168744Y-96889632D01*
X120353644Y-96813044D01*
X120419074Y-96800029D01*
X120549931Y-96774000D01*
X120750069Y-96774000D01*
X120880926Y-96800029D01*
G37*
G36*
X98020926Y-96800029D02*
G01*
X98086356Y-96813044D01*
X98271256Y-96889632D01*
X98437662Y-97000821D01*
X98579179Y-97142338D01*
X98690368Y-97308744D01*
X98766956Y-97493644D01*
X98806000Y-97689933D01*
X98806000Y-97890067D01*
X98766956Y-98086356D01*
X98690368Y-98271256D01*
X98579179Y-98437662D01*
X98437662Y-98579179D01*
X98271256Y-98690368D01*
X98086356Y-98766956D01*
X98020926Y-98779971D01*
X97890069Y-98806000D01*
X97689931Y-98806000D01*
X97559074Y-98779971D01*
X97493644Y-98766956D01*
X97308744Y-98690368D01*
X97142338Y-98579179D01*
X97000821Y-98437662D01*
X96889632Y-98271256D01*
X96813044Y-98086356D01*
X96774000Y-97890067D01*
X96774000Y-97689933D01*
X96813044Y-97493644D01*
X96889632Y-97308744D01*
X97000821Y-97142338D01*
X97142338Y-97000821D01*
X97308744Y-96889632D01*
X97493644Y-96813044D01*
X97559074Y-96800029D01*
X97689931Y-96774000D01*
X97890069Y-96774000D01*
X98020926Y-96800029D01*
G37*
G36*
X104705404Y-97372347D02*
G01*
X104741944Y-97383432D01*
X104775621Y-97401433D01*
X104805141Y-97425659D01*
X104829367Y-97455179D01*
X104847368Y-97488856D01*
X104858453Y-97525396D01*
X104862800Y-97569538D01*
X104862800Y-98518462D01*
X104858453Y-98562604D01*
X104847368Y-98599144D01*
X104829367Y-98632821D01*
X104805141Y-98662341D01*
X104775621Y-98686567D01*
X104741944Y-98704568D01*
X104705404Y-98715653D01*
X104661262Y-98720000D01*
X103212338Y-98720000D01*
X103168196Y-98715653D01*
X103131656Y-98704568D01*
X103097979Y-98686567D01*
X103068459Y-98662341D01*
X103044233Y-98632821D01*
X103026232Y-98599144D01*
X103015147Y-98562604D01*
X103010800Y-98518462D01*
X103010800Y-97569538D01*
X103015147Y-97525396D01*
X103026232Y-97488856D01*
X103044233Y-97455179D01*
X103068459Y-97425659D01*
X103097979Y-97401433D01*
X103131656Y-97383432D01*
X103168196Y-97372347D01*
X103212338Y-97368000D01*
X104661262Y-97368000D01*
X104705404Y-97372347D01*
G37*
G36*
X102190804Y-97372347D02*
G01*
X102227344Y-97383432D01*
X102261021Y-97401433D01*
X102290541Y-97425659D01*
X102314767Y-97455179D01*
X102332768Y-97488856D01*
X102343853Y-97525396D01*
X102348200Y-97569538D01*
X102348200Y-98518462D01*
X102343853Y-98562604D01*
X102332768Y-98599144D01*
X102314767Y-98632821D01*
X102290541Y-98662341D01*
X102261021Y-98686567D01*
X102227344Y-98704568D01*
X102190804Y-98715653D01*
X102146662Y-98720000D01*
X100697738Y-98720000D01*
X100653596Y-98715653D01*
X100617056Y-98704568D01*
X100583379Y-98686567D01*
X100553859Y-98662341D01*
X100529633Y-98632821D01*
X100511632Y-98599144D01*
X100500547Y-98562604D01*
X100496200Y-98518462D01*
X100496200Y-97569538D01*
X100500547Y-97525396D01*
X100511632Y-97488856D01*
X100529633Y-97455179D01*
X100553859Y-97425659D01*
X100583379Y-97401433D01*
X100617056Y-97383432D01*
X100653596Y-97372347D01*
X100697738Y-97368000D01*
X102146662Y-97368000D01*
X102190804Y-97372347D01*
G37*
G36*
X115945600Y-98572800D02*
G01*
X115143600Y-98572800D01*
X115143600Y-97870800D01*
X115945600Y-97870800D01*
X115945600Y-98572800D01*
G37*
G36*
X113409591Y-97254785D02*
G01*
X113443569Y-97265093D01*
X113474890Y-97281834D01*
X113502339Y-97304361D01*
X113524866Y-97331810D01*
X113541607Y-97363131D01*
X113551915Y-97397109D01*
X113556000Y-97438590D01*
X113556000Y-98039810D01*
X113551915Y-98081291D01*
X113541607Y-98115269D01*
X113524866Y-98146590D01*
X113502339Y-98174039D01*
X113474890Y-98196566D01*
X113443569Y-98213307D01*
X113409591Y-98223615D01*
X113368110Y-98227700D01*
X112691890Y-98227700D01*
X112650409Y-98223615D01*
X112616431Y-98213307D01*
X112585110Y-98196566D01*
X112557661Y-98174039D01*
X112535134Y-98146590D01*
X112518393Y-98115269D01*
X112508085Y-98081291D01*
X112504000Y-98039810D01*
X112504000Y-97438590D01*
X112508085Y-97397109D01*
X112518393Y-97363131D01*
X112535134Y-97331810D01*
X112557661Y-97304361D01*
X112585110Y-97281834D01*
X112616431Y-97265093D01*
X112650409Y-97254785D01*
X112691890Y-97250700D01*
X113368110Y-97250700D01*
X113409591Y-97254785D01*
G37*
G36*
X115945600Y-97172800D02*
G01*
X115143600Y-97172800D01*
X115143600Y-96470800D01*
X115945600Y-96470800D01*
X115945600Y-97172800D01*
G37*
G36*
X113409591Y-95679785D02*
G01*
X113443569Y-95690093D01*
X113474890Y-95706834D01*
X113502339Y-95729361D01*
X113524866Y-95756810D01*
X113541607Y-95788131D01*
X113551915Y-95822109D01*
X113556000Y-95863590D01*
X113556000Y-96464810D01*
X113551915Y-96506291D01*
X113541607Y-96540269D01*
X113524866Y-96571590D01*
X113502339Y-96599039D01*
X113474890Y-96621566D01*
X113443569Y-96638307D01*
X113409591Y-96648615D01*
X113368110Y-96652700D01*
X112691890Y-96652700D01*
X112650409Y-96648615D01*
X112616431Y-96638307D01*
X112585110Y-96621566D01*
X112557661Y-96599039D01*
X112535134Y-96571590D01*
X112518393Y-96540269D01*
X112508085Y-96506291D01*
X112504000Y-96464810D01*
X112504000Y-95863590D01*
X112508085Y-95822109D01*
X112518393Y-95788131D01*
X112535134Y-95756810D01*
X112557661Y-95729361D01*
X112585110Y-95706834D01*
X112616431Y-95690093D01*
X112650409Y-95679785D01*
X112691890Y-95675700D01*
X113368110Y-95675700D01*
X113409591Y-95679785D01*
G37*
G36*
X120880926Y-94260029D02*
G01*
X120946356Y-94273044D01*
X121131256Y-94349632D01*
X121297662Y-94460821D01*
X121439179Y-94602338D01*
X121550368Y-94768744D01*
X121626956Y-94953644D01*
X121630362Y-94970766D01*
X121645206Y-95045391D01*
X121666000Y-95149933D01*
X121666000Y-95350067D01*
X121626956Y-95546356D01*
X121550368Y-95731256D01*
X121439179Y-95897662D01*
X121297662Y-96039179D01*
X121131256Y-96150368D01*
X120946356Y-96226956D01*
X120880926Y-96239971D01*
X120750069Y-96266000D01*
X120549931Y-96266000D01*
X120419074Y-96239971D01*
X120353644Y-96226956D01*
X120168744Y-96150368D01*
X120002338Y-96039179D01*
X119860821Y-95897662D01*
X119749632Y-95731256D01*
X119673044Y-95546356D01*
X119634000Y-95350067D01*
X119634000Y-95149933D01*
X119654795Y-95045391D01*
X119669638Y-94970766D01*
X119673044Y-94953644D01*
X119749632Y-94768744D01*
X119860821Y-94602338D01*
X120002338Y-94460821D01*
X120168744Y-94349632D01*
X120353644Y-94273044D01*
X120419074Y-94260029D01*
X120549931Y-94234000D01*
X120750069Y-94234000D01*
X120880926Y-94260029D01*
G37*
G36*
X98020926Y-94260029D02*
G01*
X98086356Y-94273044D01*
X98271256Y-94349632D01*
X98437662Y-94460821D01*
X98579179Y-94602338D01*
X98690368Y-94768744D01*
X98766956Y-94953644D01*
X98770362Y-94970766D01*
X98785206Y-95045391D01*
X98806000Y-95149933D01*
X98806000Y-95350067D01*
X98766956Y-95546356D01*
X98690368Y-95731256D01*
X98579179Y-95897662D01*
X98437662Y-96039179D01*
X98271256Y-96150368D01*
X98086356Y-96226956D01*
X98020926Y-96239971D01*
X97890069Y-96266000D01*
X97689931Y-96266000D01*
X97559074Y-96239971D01*
X97493644Y-96226956D01*
X97308744Y-96150368D01*
X97142338Y-96039179D01*
X97000821Y-95897662D01*
X96889632Y-95731256D01*
X96813044Y-95546356D01*
X96774000Y-95350067D01*
X96774000Y-95149933D01*
X96794795Y-95045391D01*
X96809638Y-94970766D01*
X96813044Y-94953644D01*
X96889632Y-94768744D01*
X97000821Y-94602338D01*
X97142338Y-94460821D01*
X97308744Y-94349632D01*
X97493644Y-94273044D01*
X97559074Y-94260029D01*
X97689931Y-94234000D01*
X97890069Y-94234000D01*
X98020926Y-94260029D01*
G37*
G36*
X104705404Y-94572347D02*
G01*
X104741944Y-94583432D01*
X104775621Y-94601433D01*
X104805141Y-94625659D01*
X104829367Y-94655179D01*
X104847368Y-94688856D01*
X104858453Y-94725396D01*
X104862800Y-94769538D01*
X104862800Y-95718462D01*
X104858453Y-95762604D01*
X104847368Y-95799144D01*
X104829367Y-95832821D01*
X104805141Y-95862341D01*
X104775621Y-95886567D01*
X104741944Y-95904568D01*
X104705404Y-95915653D01*
X104661262Y-95920000D01*
X103212338Y-95920000D01*
X103168196Y-95915653D01*
X103131656Y-95904568D01*
X103097979Y-95886567D01*
X103068459Y-95862341D01*
X103044233Y-95832821D01*
X103026232Y-95799144D01*
X103015147Y-95762604D01*
X103010800Y-95718462D01*
X103010800Y-94769538D01*
X103015147Y-94725396D01*
X103026232Y-94688856D01*
X103044233Y-94655179D01*
X103068459Y-94625659D01*
X103097979Y-94601433D01*
X103131656Y-94583432D01*
X103168196Y-94572347D01*
X103212338Y-94568000D01*
X104661262Y-94568000D01*
X104705404Y-94572347D01*
G37*
G36*
X102190804Y-94572347D02*
G01*
X102227344Y-94583432D01*
X102261021Y-94601433D01*
X102290541Y-94625659D01*
X102314767Y-94655179D01*
X102332768Y-94688856D01*
X102343853Y-94725396D01*
X102348200Y-94769538D01*
X102348200Y-95718462D01*
X102343853Y-95762604D01*
X102332768Y-95799144D01*
X102314767Y-95832821D01*
X102290541Y-95862341D01*
X102261021Y-95886567D01*
X102227344Y-95904568D01*
X102190804Y-95915653D01*
X102146662Y-95920000D01*
X100697738Y-95920000D01*
X100653596Y-95915653D01*
X100617056Y-95904568D01*
X100583379Y-95886567D01*
X100553859Y-95862341D01*
X100529633Y-95832821D01*
X100511632Y-95799144D01*
X100500547Y-95762604D01*
X100496200Y-95718462D01*
X100496200Y-94769538D01*
X100500547Y-94725396D01*
X100511632Y-94688856D01*
X100529633Y-94655179D01*
X100553859Y-94625659D01*
X100583379Y-94601433D01*
X100617056Y-94583432D01*
X100653596Y-94572347D01*
X100697738Y-94568000D01*
X102146662Y-94568000D01*
X102190804Y-94572347D01*
G37*
G36*
X109523991Y-94143885D02*
G01*
X109557969Y-94154193D01*
X109589290Y-94170934D01*
X109616739Y-94193461D01*
X109639266Y-94220910D01*
X109656007Y-94252231D01*
X109666315Y-94286209D01*
X109670400Y-94327690D01*
X109670400Y-95003910D01*
X109666315Y-95045391D01*
X109656007Y-95079369D01*
X109639266Y-95110690D01*
X109616739Y-95138139D01*
X109589290Y-95160666D01*
X109557969Y-95177407D01*
X109523991Y-95187715D01*
X109482510Y-95191800D01*
X108881290Y-95191800D01*
X108839809Y-95187715D01*
X108805831Y-95177407D01*
X108774510Y-95160666D01*
X108747061Y-95138139D01*
X108724534Y-95110690D01*
X108707793Y-95079369D01*
X108697485Y-95045391D01*
X108693400Y-95003910D01*
X108693400Y-94327690D01*
X108697485Y-94286209D01*
X108707793Y-94252231D01*
X108724534Y-94220910D01*
X108747061Y-94193461D01*
X108774510Y-94170934D01*
X108805831Y-94154193D01*
X108839809Y-94143885D01*
X108881290Y-94139800D01*
X109482510Y-94139800D01*
X109523991Y-94143885D01*
G37*
G36*
X111098991Y-94143885D02*
G01*
X111132969Y-94154193D01*
X111164290Y-94170934D01*
X111191739Y-94193461D01*
X111214266Y-94220910D01*
X111231007Y-94252231D01*
X111241315Y-94286209D01*
X111245400Y-94327690D01*
X111245400Y-95003910D01*
X111241315Y-95045391D01*
X111231007Y-95079369D01*
X111214266Y-95110690D01*
X111191739Y-95138139D01*
X111164290Y-95160666D01*
X111132969Y-95177407D01*
X111098991Y-95187715D01*
X111057510Y-95191800D01*
X110456290Y-95191800D01*
X110414809Y-95187715D01*
X110380831Y-95177407D01*
X110349510Y-95160666D01*
X110322061Y-95138139D01*
X110299534Y-95110690D01*
X110282793Y-95079369D01*
X110272485Y-95045391D01*
X110268400Y-95003910D01*
X110268400Y-94327690D01*
X110272485Y-94286209D01*
X110282793Y-94252231D01*
X110299534Y-94220910D01*
X110322061Y-94193461D01*
X110349510Y-94170934D01*
X110380831Y-94154193D01*
X110414809Y-94143885D01*
X110456290Y-94139800D01*
X111057510Y-94139800D01*
X111098991Y-94143885D01*
G37*
G36*
X113384191Y-94028985D02*
G01*
X113418169Y-94039293D01*
X113449490Y-94056034D01*
X113476939Y-94078561D01*
X113499466Y-94106010D01*
X113516207Y-94137331D01*
X113526515Y-94171309D01*
X113530600Y-94212790D01*
X113530600Y-94814010D01*
X113526515Y-94855491D01*
X113516207Y-94889469D01*
X113499466Y-94920790D01*
X113476939Y-94948239D01*
X113449490Y-94970766D01*
X113418169Y-94987507D01*
X113384191Y-94997815D01*
X113342710Y-95001900D01*
X112666490Y-95001900D01*
X112625009Y-94997815D01*
X112591031Y-94987507D01*
X112559710Y-94970766D01*
X112532261Y-94948239D01*
X112509734Y-94920790D01*
X112492993Y-94889469D01*
X112482685Y-94855491D01*
X112478600Y-94814010D01*
X112478600Y-94212790D01*
X112482685Y-94171309D01*
X112492993Y-94137331D01*
X112509734Y-94106010D01*
X112532261Y-94078561D01*
X112559710Y-94056034D01*
X112591031Y-94039293D01*
X112625009Y-94028985D01*
X112666490Y-94024900D01*
X113342710Y-94024900D01*
X113384191Y-94028985D01*
G37*
G36*
X120880926Y-91720029D02*
G01*
X120946356Y-91733044D01*
X121131256Y-91809632D01*
X121297662Y-91920821D01*
X121439179Y-92062338D01*
X121550368Y-92228744D01*
X121626956Y-92413645D01*
X121664160Y-92600680D01*
X121666000Y-92609933D01*
X121666000Y-92810067D01*
X121626956Y-93006356D01*
X121550368Y-93191256D01*
X121439179Y-93357662D01*
X121297662Y-93499179D01*
X121131256Y-93610368D01*
X120946356Y-93686956D01*
X120880926Y-93699971D01*
X120750069Y-93726000D01*
X120549931Y-93726000D01*
X120419074Y-93699971D01*
X120353644Y-93686956D01*
X120168744Y-93610368D01*
X120002338Y-93499179D01*
X119860821Y-93357662D01*
X119749632Y-93191256D01*
X119673044Y-93006356D01*
X119634000Y-92810067D01*
X119634000Y-92609933D01*
X119635841Y-92600680D01*
X119673044Y-92413645D01*
X119749632Y-92228744D01*
X119860821Y-92062338D01*
X120002338Y-91920821D01*
X120168744Y-91809632D01*
X120353644Y-91733044D01*
X120419074Y-91720029D01*
X120549931Y-91694000D01*
X120750069Y-91694000D01*
X120880926Y-91720029D01*
G37*
G36*
X98020926Y-91720029D02*
G01*
X98086356Y-91733044D01*
X98271256Y-91809632D01*
X98437662Y-91920821D01*
X98579179Y-92062338D01*
X98690368Y-92228744D01*
X98766956Y-92413645D01*
X98804160Y-92600680D01*
X98806000Y-92609933D01*
X98806000Y-92810067D01*
X98766956Y-93006356D01*
X98690368Y-93191256D01*
X98579179Y-93357662D01*
X98437662Y-93499179D01*
X98271256Y-93610368D01*
X98086356Y-93686956D01*
X98020926Y-93699971D01*
X97890069Y-93726000D01*
X97689931Y-93726000D01*
X97559074Y-93699971D01*
X97493644Y-93686956D01*
X97308744Y-93610368D01*
X97142338Y-93499179D01*
X97000821Y-93357662D01*
X96889632Y-93191256D01*
X96813044Y-93006356D01*
X96774000Y-92810067D01*
X96774000Y-92609933D01*
X96775841Y-92600680D01*
X96813044Y-92413645D01*
X96889632Y-92228744D01*
X97000821Y-92062338D01*
X97142338Y-91920821D01*
X97308744Y-91809632D01*
X97493644Y-91733044D01*
X97559074Y-91720029D01*
X97689931Y-91694000D01*
X97890069Y-91694000D01*
X98020926Y-91720029D01*
G37*
G36*
X113384191Y-92453985D02*
G01*
X113418169Y-92464293D01*
X113449490Y-92481034D01*
X113476939Y-92503561D01*
X113499466Y-92531010D01*
X113516207Y-92562331D01*
X113526515Y-92596309D01*
X113530600Y-92637790D01*
X113530600Y-93239010D01*
X113526515Y-93280491D01*
X113516207Y-93314469D01*
X113499466Y-93345790D01*
X113476939Y-93373239D01*
X113449490Y-93395766D01*
X113418169Y-93412507D01*
X113384191Y-93422815D01*
X113342710Y-93426900D01*
X112666490Y-93426900D01*
X112625009Y-93422815D01*
X112591031Y-93412507D01*
X112559710Y-93395766D01*
X112532261Y-93373239D01*
X112509734Y-93345790D01*
X112492993Y-93314469D01*
X112482685Y-93280491D01*
X112478600Y-93239010D01*
X112478600Y-92637790D01*
X112482685Y-92596309D01*
X112492993Y-92562331D01*
X112509734Y-92531010D01*
X112532261Y-92503561D01*
X112559710Y-92481034D01*
X112591031Y-92464293D01*
X112625009Y-92453985D01*
X112666490Y-92449900D01*
X113342710Y-92449900D01*
X113384191Y-92453985D01*
G37*
G36*
X106692104Y-91987547D02*
G01*
X106728644Y-91998632D01*
X106762321Y-92016633D01*
X106791841Y-92040859D01*
X106816067Y-92070379D01*
X106834068Y-92104056D01*
X106845153Y-92140596D01*
X106849500Y-92184738D01*
X106849500Y-93133662D01*
X106845153Y-93177804D01*
X106834068Y-93214344D01*
X106816067Y-93248021D01*
X106791841Y-93277541D01*
X106762321Y-93301767D01*
X106728644Y-93319768D01*
X106692104Y-93330853D01*
X106647962Y-93335200D01*
X104299038Y-93335200D01*
X104254896Y-93330853D01*
X104218356Y-93319768D01*
X104184679Y-93301767D01*
X104155159Y-93277541D01*
X104130933Y-93248021D01*
X104112932Y-93214344D01*
X104101847Y-93177804D01*
X104097500Y-93133662D01*
X104097500Y-92184738D01*
X104101847Y-92140596D01*
X104112932Y-92104056D01*
X104130933Y-92070379D01*
X104155159Y-92040859D01*
X104184679Y-92016633D01*
X104218356Y-91998632D01*
X104254896Y-91987547D01*
X104299038Y-91983200D01*
X106647962Y-91983200D01*
X106692104Y-91987547D01*
G37*
G36*
X110317400Y-93298600D02*
G01*
X107665400Y-93298600D01*
X107665400Y-91976600D01*
X110317400Y-91976600D01*
X110317400Y-93298600D01*
G37*
G36*
X120880926Y-89180029D02*
G01*
X120946356Y-89193044D01*
X121131256Y-89269632D01*
X121297662Y-89380821D01*
X121439179Y-89522338D01*
X121550368Y-89688744D01*
X121626956Y-89873645D01*
X121666000Y-90069931D01*
X121666000Y-90270069D01*
X121653350Y-90333662D01*
X121626956Y-90466356D01*
X121550368Y-90651256D01*
X121439179Y-90817662D01*
X121297662Y-90959179D01*
X121131256Y-91070368D01*
X120946356Y-91146956D01*
X120880926Y-91159971D01*
X120750069Y-91186000D01*
X120549931Y-91186000D01*
X120419074Y-91159971D01*
X120353644Y-91146956D01*
X120168744Y-91070368D01*
X120002338Y-90959179D01*
X119860821Y-90817662D01*
X119749632Y-90651256D01*
X119673044Y-90466356D01*
X119646650Y-90333662D01*
X119634000Y-90270069D01*
X119634000Y-90069931D01*
X119673044Y-89873645D01*
X119749632Y-89688744D01*
X119860821Y-89522338D01*
X120002338Y-89380821D01*
X120168744Y-89269632D01*
X120353644Y-89193044D01*
X120419074Y-89180029D01*
X120549931Y-89154000D01*
X120750069Y-89154000D01*
X120880926Y-89180029D01*
G37*
G36*
X98020926Y-89180029D02*
G01*
X98086356Y-89193044D01*
X98271256Y-89269632D01*
X98437662Y-89380821D01*
X98579179Y-89522338D01*
X98690368Y-89688744D01*
X98766956Y-89873645D01*
X98806000Y-90069931D01*
X98806000Y-90270069D01*
X98793350Y-90333662D01*
X98766956Y-90466356D01*
X98690368Y-90651256D01*
X98579179Y-90817662D01*
X98437662Y-90959179D01*
X98271256Y-91070368D01*
X98086356Y-91146956D01*
X98020926Y-91159971D01*
X97890069Y-91186000D01*
X97689931Y-91186000D01*
X97559074Y-91159971D01*
X97493644Y-91146956D01*
X97308744Y-91070368D01*
X97142338Y-90959179D01*
X97000821Y-90817662D01*
X96889632Y-90651256D01*
X96813044Y-90466356D01*
X96786650Y-90333662D01*
X96774000Y-90270069D01*
X96774000Y-90069931D01*
X96813044Y-89873645D01*
X96889632Y-89688744D01*
X97000821Y-89522338D01*
X97142338Y-89380821D01*
X97308744Y-89269632D01*
X97493644Y-89193044D01*
X97559074Y-89180029D01*
X97689931Y-89154000D01*
X97890069Y-89154000D01*
X98020926Y-89180029D01*
G37*
G36*
X110317400Y-90678600D02*
G01*
X107665400Y-90678600D01*
X107665400Y-89356600D01*
X110317400Y-89356600D01*
X110317400Y-90678600D01*
G37*
G36*
X106692104Y-89187547D02*
G01*
X106728644Y-89198632D01*
X106762321Y-89216633D01*
X106791841Y-89240859D01*
X106816067Y-89270379D01*
X106834068Y-89304056D01*
X106845153Y-89340596D01*
X106849500Y-89384738D01*
X106849500Y-90333662D01*
X106845153Y-90377804D01*
X106834068Y-90414344D01*
X106816067Y-90448021D01*
X106791841Y-90477541D01*
X106762321Y-90501767D01*
X106728644Y-90519768D01*
X106692104Y-90530853D01*
X106647962Y-90535200D01*
X104299038Y-90535200D01*
X104254896Y-90530853D01*
X104218356Y-90519768D01*
X104184679Y-90501767D01*
X104155159Y-90477541D01*
X104130933Y-90448021D01*
X104112932Y-90414344D01*
X104101847Y-90377804D01*
X104097500Y-90333662D01*
X104097500Y-89384738D01*
X104101847Y-89340596D01*
X104112932Y-89304056D01*
X104130933Y-89270379D01*
X104155159Y-89240859D01*
X104184679Y-89216633D01*
X104218356Y-89198632D01*
X104254896Y-89187547D01*
X104299038Y-89183200D01*
X106647962Y-89183200D01*
X106692104Y-89187547D01*
G37*
G36*
X103465491Y-89380885D02*
G01*
X103499469Y-89391193D01*
X103530790Y-89407934D01*
X103558239Y-89430461D01*
X103580766Y-89457910D01*
X103597507Y-89489231D01*
X103607815Y-89523209D01*
X103611900Y-89564690D01*
X103611900Y-90165910D01*
X103607815Y-90207391D01*
X103597507Y-90241369D01*
X103580766Y-90272690D01*
X103558239Y-90300139D01*
X103530790Y-90322666D01*
X103499469Y-90339407D01*
X103465491Y-90349715D01*
X103424010Y-90353800D01*
X102747790Y-90353800D01*
X102706309Y-90349715D01*
X102672331Y-90339407D01*
X102641010Y-90322666D01*
X102613561Y-90300139D01*
X102591034Y-90272690D01*
X102574293Y-90241369D01*
X102563985Y-90207391D01*
X102559900Y-90165910D01*
X102559900Y-89564690D01*
X102563985Y-89523209D01*
X102574293Y-89489231D01*
X102591034Y-89457910D01*
X102613561Y-89430461D01*
X102641010Y-89407934D01*
X102672331Y-89391193D01*
X102706309Y-89380885D01*
X102747790Y-89376800D01*
X103424010Y-89376800D01*
X103465491Y-89380885D01*
G37*
G36*
X103465491Y-87805885D02*
G01*
X103499469Y-87816193D01*
X103530790Y-87832934D01*
X103558239Y-87855461D01*
X103580766Y-87882910D01*
X103597507Y-87914231D01*
X103607815Y-87948209D01*
X103611900Y-87989690D01*
X103611900Y-88590910D01*
X103607815Y-88632391D01*
X103597507Y-88666369D01*
X103580766Y-88697690D01*
X103558239Y-88725139D01*
X103530790Y-88747666D01*
X103499469Y-88764407D01*
X103465491Y-88774715D01*
X103424010Y-88778800D01*
X102747790Y-88778800D01*
X102706309Y-88774715D01*
X102672331Y-88764407D01*
X102641010Y-88747666D01*
X102613561Y-88725139D01*
X102591034Y-88697690D01*
X102574293Y-88666369D01*
X102563985Y-88632391D01*
X102559900Y-88590910D01*
X102559900Y-87989690D01*
X102563985Y-87948209D01*
X102574293Y-87914231D01*
X102591034Y-87882910D01*
X102613561Y-87855461D01*
X102641010Y-87832934D01*
X102672331Y-87816193D01*
X102706309Y-87805885D01*
X102747790Y-87801800D01*
X103424010Y-87801800D01*
X103465491Y-87805885D01*
G37*
G36*
X105027591Y-87704585D02*
G01*
X105061569Y-87714893D01*
X105092890Y-87731634D01*
X105120339Y-87754161D01*
X105142866Y-87781610D01*
X105159607Y-87812931D01*
X105169915Y-87846909D01*
X105174000Y-87888390D01*
X105174000Y-88489610D01*
X105169915Y-88531091D01*
X105159607Y-88565069D01*
X105142866Y-88596390D01*
X105120339Y-88623839D01*
X105092890Y-88646366D01*
X105061569Y-88663107D01*
X105027591Y-88673415D01*
X104986110Y-88677500D01*
X104309890Y-88677500D01*
X104268409Y-88673415D01*
X104234431Y-88663107D01*
X104203110Y-88646366D01*
X104175661Y-88623839D01*
X104153134Y-88596390D01*
X104136393Y-88565069D01*
X104126085Y-88531091D01*
X104122000Y-88489610D01*
X104122000Y-87888390D01*
X104126085Y-87846909D01*
X104136393Y-87812931D01*
X104153134Y-87781610D01*
X104175661Y-87754161D01*
X104203110Y-87731634D01*
X104234431Y-87714893D01*
X104268409Y-87704585D01*
X104309890Y-87700500D01*
X104986110Y-87700500D01*
X105027591Y-87704585D01*
G37*
G36*
X98020926Y-86640029D02*
G01*
X98086356Y-86653044D01*
X98271256Y-86729632D01*
X98437662Y-86840821D01*
X98579179Y-86982338D01*
X98690368Y-87148744D01*
X98766956Y-87333645D01*
X98806000Y-87529931D01*
X98806000Y-87730069D01*
X98785539Y-87832934D01*
X98766956Y-87926356D01*
X98690368Y-88111256D01*
X98579179Y-88277662D01*
X98437662Y-88419179D01*
X98271256Y-88530368D01*
X98086356Y-88606956D01*
X98054965Y-88613200D01*
X97890069Y-88646000D01*
X97689931Y-88646000D01*
X97525035Y-88613200D01*
X97493644Y-88606956D01*
X97308744Y-88530368D01*
X97142338Y-88419179D01*
X97000821Y-88277662D01*
X96889632Y-88111256D01*
X96813044Y-87926356D01*
X96794461Y-87832934D01*
X96774000Y-87730069D01*
X96774000Y-87529931D01*
X96813044Y-87333645D01*
X96889632Y-87148744D01*
X97000821Y-86982338D01*
X97142338Y-86840821D01*
X97308744Y-86729632D01*
X97493644Y-86653044D01*
X97559074Y-86640029D01*
X97689931Y-86614000D01*
X97890069Y-86614000D01*
X98020926Y-86640029D01*
G37*
G36*
X120880926Y-86640029D02*
G01*
X120946356Y-86653044D01*
X121131256Y-86729632D01*
X121297662Y-86840821D01*
X121439179Y-86982338D01*
X121550368Y-87148744D01*
X121626956Y-87333645D01*
X121666000Y-87529931D01*
X121666000Y-87730069D01*
X121645539Y-87832934D01*
X121626956Y-87926356D01*
X121550368Y-88111256D01*
X121439179Y-88277662D01*
X121297662Y-88419179D01*
X121131256Y-88530368D01*
X120946356Y-88606956D01*
X120914965Y-88613200D01*
X120750069Y-88646000D01*
X120549931Y-88646000D01*
X120385035Y-88613200D01*
X120353644Y-88606956D01*
X120168744Y-88530368D01*
X120002338Y-88419179D01*
X119860821Y-88277662D01*
X119749632Y-88111256D01*
X119673044Y-87926356D01*
X119654461Y-87832934D01*
X119634000Y-87730069D01*
X119634000Y-87529931D01*
X119673044Y-87333645D01*
X119749632Y-87148744D01*
X119860821Y-86982338D01*
X120002338Y-86840821D01*
X120168744Y-86729632D01*
X120353644Y-86653044D01*
X120419074Y-86640029D01*
X120549931Y-86614000D01*
X120750069Y-86614000D01*
X120880926Y-86640029D01*
G37*
G36*
X106615691Y-87565285D02*
G01*
X106649669Y-87575593D01*
X106680990Y-87592334D01*
X106708439Y-87614861D01*
X106730966Y-87642310D01*
X106747707Y-87673631D01*
X106758015Y-87707609D01*
X106762100Y-87749090D01*
X106762100Y-88425310D01*
X106758015Y-88466791D01*
X106747707Y-88500769D01*
X106730966Y-88532090D01*
X106708439Y-88559539D01*
X106680990Y-88582066D01*
X106649669Y-88598807D01*
X106615691Y-88609115D01*
X106574210Y-88613200D01*
X105972990Y-88613200D01*
X105931509Y-88609115D01*
X105897531Y-88598807D01*
X105866210Y-88582066D01*
X105838761Y-88559539D01*
X105816234Y-88532090D01*
X105799493Y-88500769D01*
X105789185Y-88466791D01*
X105785100Y-88425310D01*
X105785100Y-87749090D01*
X105789185Y-87707609D01*
X105799493Y-87673631D01*
X105816234Y-87642310D01*
X105838761Y-87614861D01*
X105866210Y-87592334D01*
X105897531Y-87575593D01*
X105931509Y-87565285D01*
X105972990Y-87561200D01*
X106574210Y-87561200D01*
X106615691Y-87565285D01*
G37*
G36*
X108190691Y-87565285D02*
G01*
X108224669Y-87575593D01*
X108255990Y-87592334D01*
X108283439Y-87614861D01*
X108305966Y-87642310D01*
X108322707Y-87673631D01*
X108333015Y-87707609D01*
X108337100Y-87749090D01*
X108337100Y-88425310D01*
X108333015Y-88466791D01*
X108322707Y-88500769D01*
X108305966Y-88532090D01*
X108283439Y-88559539D01*
X108255990Y-88582066D01*
X108224669Y-88598807D01*
X108190691Y-88609115D01*
X108149210Y-88613200D01*
X107547990Y-88613200D01*
X107506509Y-88609115D01*
X107472531Y-88598807D01*
X107441210Y-88582066D01*
X107413761Y-88559539D01*
X107391234Y-88532090D01*
X107374493Y-88500769D01*
X107364185Y-88466791D01*
X107360100Y-88425310D01*
X107360100Y-87749090D01*
X107364185Y-87707609D01*
X107374493Y-87673631D01*
X107391234Y-87642310D01*
X107413761Y-87614861D01*
X107441210Y-87592334D01*
X107472531Y-87575593D01*
X107506509Y-87565285D01*
X107547990Y-87561200D01*
X108149210Y-87561200D01*
X108190691Y-87565285D01*
G37*
G36*
X105027591Y-86129585D02*
G01*
X105061569Y-86139893D01*
X105092890Y-86156634D01*
X105120339Y-86179161D01*
X105142866Y-86206610D01*
X105159607Y-86237931D01*
X105169915Y-86271909D01*
X105174000Y-86313390D01*
X105174000Y-86914610D01*
X105169915Y-86956091D01*
X105159607Y-86990069D01*
X105142866Y-87021390D01*
X105120339Y-87048839D01*
X105092890Y-87071366D01*
X105061569Y-87088107D01*
X105027591Y-87098415D01*
X104986110Y-87102500D01*
X104309890Y-87102500D01*
X104268409Y-87098415D01*
X104234431Y-87088107D01*
X104203110Y-87071366D01*
X104175661Y-87048839D01*
X104153134Y-87021390D01*
X104136393Y-86990069D01*
X104126085Y-86956091D01*
X104122000Y-86914610D01*
X104122000Y-86313390D01*
X104126085Y-86271909D01*
X104136393Y-86237931D01*
X104153134Y-86206610D01*
X104175661Y-86179161D01*
X104203110Y-86156634D01*
X104234431Y-86139893D01*
X104268409Y-86129585D01*
X104309890Y-86125500D01*
X104986110Y-86125500D01*
X105027591Y-86129585D01*
G37*
G36*
X98020926Y-84100029D02*
G01*
X98086356Y-84113044D01*
X98271256Y-84189632D01*
X98437662Y-84300821D01*
X98579179Y-84442338D01*
X98690368Y-84608744D01*
X98766956Y-84793644D01*
X98806000Y-84989933D01*
X98806000Y-85190067D01*
X98766956Y-85386356D01*
X98690368Y-85571256D01*
X98579179Y-85737662D01*
X98437662Y-85879179D01*
X98271256Y-85990368D01*
X98086356Y-86066956D01*
X98020926Y-86079971D01*
X97890069Y-86106000D01*
X97689931Y-86106000D01*
X97559074Y-86079971D01*
X97493644Y-86066956D01*
X97308744Y-85990368D01*
X97142338Y-85879179D01*
X97000821Y-85737662D01*
X96889632Y-85571256D01*
X96813044Y-85386356D01*
X96774000Y-85190067D01*
X96774000Y-84989933D01*
X96813044Y-84793644D01*
X96889632Y-84608744D01*
X97000821Y-84442338D01*
X97142338Y-84300821D01*
X97308744Y-84189632D01*
X97493644Y-84113044D01*
X97559074Y-84100029D01*
X97689931Y-84074000D01*
X97890069Y-84074000D01*
X98020926Y-84100029D01*
G37*
G36*
X120880926Y-84100029D02*
G01*
X120946356Y-84113044D01*
X121131256Y-84189632D01*
X121297662Y-84300821D01*
X121439179Y-84442338D01*
X121550368Y-84608744D01*
X121626956Y-84793644D01*
X121666000Y-84989933D01*
X121666000Y-85190067D01*
X121626956Y-85386356D01*
X121550368Y-85571256D01*
X121439179Y-85737662D01*
X121297662Y-85879179D01*
X121131256Y-85990368D01*
X120946356Y-86066956D01*
X120880926Y-86079971D01*
X120750069Y-86106000D01*
X120549931Y-86106000D01*
X120419074Y-86079971D01*
X120353644Y-86066956D01*
X120168744Y-85990368D01*
X120002338Y-85879179D01*
X119860821Y-85737662D01*
X119749632Y-85571256D01*
X119673044Y-85386356D01*
X119634000Y-85190067D01*
X119634000Y-84989933D01*
X119673044Y-84793644D01*
X119749632Y-84608744D01*
X119860821Y-84442338D01*
X120002338Y-84300821D01*
X120168744Y-84189632D01*
X120353644Y-84113044D01*
X120419074Y-84100029D01*
X120549931Y-84074000D01*
X120750069Y-84074000D01*
X120880926Y-84100029D01*
G37*
G36*
X98020926Y-81560029D02*
G01*
X98086356Y-81573044D01*
X98271256Y-81649632D01*
X98437662Y-81760821D01*
X98579179Y-81902338D01*
X98690368Y-82068744D01*
X98766956Y-82253644D01*
X98806000Y-82449933D01*
X98806000Y-82650067D01*
X98766956Y-82846356D01*
X98690368Y-83031256D01*
X98579179Y-83197662D01*
X98437662Y-83339179D01*
X98271256Y-83450368D01*
X98086356Y-83526956D01*
X98020926Y-83539971D01*
X97890069Y-83566000D01*
X97689931Y-83566000D01*
X97559074Y-83539971D01*
X97493644Y-83526956D01*
X97308744Y-83450368D01*
X97142338Y-83339179D01*
X97000821Y-83197662D01*
X96889632Y-83031256D01*
X96813044Y-82846356D01*
X96774000Y-82650067D01*
X96774000Y-82449933D01*
X96813044Y-82253644D01*
X96889632Y-82068744D01*
X97000821Y-81902338D01*
X97142338Y-81760821D01*
X97308744Y-81649632D01*
X97493644Y-81573044D01*
X97559074Y-81560029D01*
X97689931Y-81534000D01*
X97890069Y-81534000D01*
X98020926Y-81560029D01*
G37*
G36*
X120880926Y-81560029D02*
G01*
X120946356Y-81573044D01*
X121131256Y-81649632D01*
X121297662Y-81760821D01*
X121439179Y-81902338D01*
X121550368Y-82068744D01*
X121626956Y-82253644D01*
X121666000Y-82449933D01*
X121666000Y-82650067D01*
X121626956Y-82846356D01*
X121550368Y-83031256D01*
X121439179Y-83197662D01*
X121297662Y-83339179D01*
X121131256Y-83450368D01*
X120946356Y-83526956D01*
X120880926Y-83539971D01*
X120750069Y-83566000D01*
X120549931Y-83566000D01*
X120419074Y-83539971D01*
X120353644Y-83526956D01*
X120168744Y-83450368D01*
X120002338Y-83339179D01*
X119860821Y-83197662D01*
X119749632Y-83031256D01*
X119673044Y-82846356D01*
X119634000Y-82650067D01*
X119634000Y-82449933D01*
X119673044Y-82253644D01*
X119749632Y-82068744D01*
X119860821Y-81902338D01*
X120002338Y-81760821D01*
X120168744Y-81649632D01*
X120353644Y-81573044D01*
X120419074Y-81560029D01*
X120549931Y-81534000D01*
X120750069Y-81534000D01*
X120880926Y-81560029D01*
G37*
G36*
X113580100Y-82501600D02*
G01*
X112678100Y-82501600D01*
X112678100Y-81499600D01*
X113580100Y-81499600D01*
X113580100Y-82501600D01*
G37*
G36*
X111680100Y-82501600D02*
G01*
X110778100Y-82501600D01*
X110778100Y-81499600D01*
X111680100Y-81499600D01*
X111680100Y-82501600D01*
G37*
G36*
X98020926Y-79020029D02*
G01*
X98086356Y-79033044D01*
X98271256Y-79109632D01*
X98437662Y-79220821D01*
X98579179Y-79362338D01*
X98690368Y-79528744D01*
X98766956Y-79713644D01*
X98806000Y-79909933D01*
X98806000Y-80110067D01*
X98766956Y-80306356D01*
X98690368Y-80491256D01*
X98579179Y-80657662D01*
X98437662Y-80799179D01*
X98271256Y-80910368D01*
X98086356Y-80986956D01*
X98020926Y-80999971D01*
X97890069Y-81026000D01*
X97689931Y-81026000D01*
X97559074Y-80999971D01*
X97493644Y-80986956D01*
X97308744Y-80910368D01*
X97142338Y-80799179D01*
X97000821Y-80657662D01*
X96889632Y-80491256D01*
X96813044Y-80306356D01*
X96774000Y-80110067D01*
X96774000Y-79909933D01*
X96813044Y-79713644D01*
X96889632Y-79528744D01*
X97000821Y-79362338D01*
X97142338Y-79220821D01*
X97308744Y-79109632D01*
X97493644Y-79033044D01*
X97559074Y-79020029D01*
X97689931Y-78994000D01*
X97890069Y-78994000D01*
X98020926Y-79020029D01*
G37*
G36*
X120880926Y-79020029D02*
G01*
X120946356Y-79033044D01*
X121131256Y-79109632D01*
X121297662Y-79220821D01*
X121439179Y-79362338D01*
X121550368Y-79528744D01*
X121626956Y-79713644D01*
X121666000Y-79909933D01*
X121666000Y-80110067D01*
X121626956Y-80306356D01*
X121550368Y-80491256D01*
X121439179Y-80657662D01*
X121297662Y-80799179D01*
X121131256Y-80910368D01*
X120946356Y-80986956D01*
X120880926Y-80999971D01*
X120750069Y-81026000D01*
X120549931Y-81026000D01*
X120419074Y-80999971D01*
X120353644Y-80986956D01*
X120168744Y-80910368D01*
X120002338Y-80799179D01*
X119860821Y-80657662D01*
X119749632Y-80491256D01*
X119673044Y-80306356D01*
X119634000Y-80110067D01*
X119634000Y-79909933D01*
X119673044Y-79713644D01*
X119749632Y-79528744D01*
X119860821Y-79362338D01*
X120002338Y-79220821D01*
X120168744Y-79109632D01*
X120353644Y-79033044D01*
X120419074Y-79020029D01*
X120549931Y-78994000D01*
X120750069Y-78994000D01*
X120880926Y-79020029D01*
G37*
G36*
X112630100Y-80501600D02*
G01*
X111728100Y-80501600D01*
X111728100Y-79499600D01*
X112630100Y-79499600D01*
X112630100Y-80501600D01*
G37*
G36*
X98020926Y-76480029D02*
G01*
X98086356Y-76493044D01*
X98271256Y-76569632D01*
X98437662Y-76680821D01*
X98579179Y-76822338D01*
X98690368Y-76988744D01*
X98766956Y-77173645D01*
X98806000Y-77369931D01*
X98806000Y-77570069D01*
X98786427Y-77668469D01*
X98766956Y-77766356D01*
X98690368Y-77951256D01*
X98579179Y-78117662D01*
X98437662Y-78259179D01*
X98271256Y-78370368D01*
X98086356Y-78446956D01*
X98020926Y-78459971D01*
X97890069Y-78486000D01*
X97689931Y-78486000D01*
X97559074Y-78459971D01*
X97493644Y-78446956D01*
X97308744Y-78370368D01*
X97142338Y-78259179D01*
X97000821Y-78117662D01*
X96889632Y-77951256D01*
X96813044Y-77766356D01*
X96793573Y-77668469D01*
X96774000Y-77570069D01*
X96774000Y-77369931D01*
X96813044Y-77173645D01*
X96889632Y-76988744D01*
X97000821Y-76822338D01*
X97142338Y-76680821D01*
X97308744Y-76569632D01*
X97493644Y-76493044D01*
X97559074Y-76480029D01*
X97689931Y-76454000D01*
X97890069Y-76454000D01*
X98020926Y-76480029D01*
G37*
G36*
X120880926Y-76480029D02*
G01*
X120946356Y-76493044D01*
X121131256Y-76569632D01*
X121297662Y-76680821D01*
X121439179Y-76822338D01*
X121550368Y-76988744D01*
X121626956Y-77173645D01*
X121666000Y-77369931D01*
X121666000Y-77570069D01*
X121646427Y-77668469D01*
X121626956Y-77766356D01*
X121550368Y-77951256D01*
X121439179Y-78117662D01*
X121297662Y-78259179D01*
X121131256Y-78370368D01*
X120946356Y-78446956D01*
X120880926Y-78459971D01*
X120750069Y-78486000D01*
X120549931Y-78486000D01*
X120419074Y-78459971D01*
X120353644Y-78446956D01*
X120168744Y-78370368D01*
X120002338Y-78259179D01*
X119860821Y-78117662D01*
X119749632Y-77951256D01*
X119673044Y-77766356D01*
X119653573Y-77668469D01*
X119634000Y-77570069D01*
X119634000Y-77369931D01*
X119673044Y-77173645D01*
X119749632Y-76988744D01*
X119860821Y-76822338D01*
X120002338Y-76680821D01*
X120168744Y-76569632D01*
X120353644Y-76493044D01*
X120419074Y-76480029D01*
X120549931Y-76454000D01*
X120750069Y-76454000D01*
X120880926Y-76480029D01*
G37*
G36*
X113580100Y-78205700D02*
G01*
X112678100Y-78205700D01*
X112678100Y-77203700D01*
X113580100Y-77203700D01*
X113580100Y-78205700D01*
G37*
G36*
X111680100Y-78205700D02*
G01*
X110778100Y-78205700D01*
X110778100Y-77203700D01*
X111680100Y-77203700D01*
X111680100Y-78205700D01*
G37*
G36*
X117803791Y-76807985D02*
G01*
X117837769Y-76818293D01*
X117869090Y-76835034D01*
X117896539Y-76857561D01*
X117919066Y-76885010D01*
X117935807Y-76916331D01*
X117946115Y-76950309D01*
X117950200Y-76991790D01*
X117950200Y-77593010D01*
X117946115Y-77634491D01*
X117935807Y-77668469D01*
X117919066Y-77699790D01*
X117896539Y-77727239D01*
X117869090Y-77749766D01*
X117837769Y-77766507D01*
X117803791Y-77776815D01*
X117762310Y-77780900D01*
X117086090Y-77780900D01*
X117044609Y-77776815D01*
X117010631Y-77766507D01*
X116979310Y-77749766D01*
X116951861Y-77727239D01*
X116929334Y-77699790D01*
X116912593Y-77668469D01*
X116902285Y-77634491D01*
X116898200Y-77593010D01*
X116898200Y-76991790D01*
X116902285Y-76950309D01*
X116912593Y-76916331D01*
X116929334Y-76885010D01*
X116951861Y-76857561D01*
X116979310Y-76835034D01*
X117010631Y-76818293D01*
X117044609Y-76807985D01*
X117086090Y-76803900D01*
X117762310Y-76803900D01*
X117803791Y-76807985D01*
G37*
G36*
X117803791Y-75232985D02*
G01*
X117837769Y-75243293D01*
X117869090Y-75260034D01*
X117896539Y-75282561D01*
X117919066Y-75310010D01*
X117935807Y-75341331D01*
X117946115Y-75375309D01*
X117950200Y-75416790D01*
X117950200Y-76018010D01*
X117946115Y-76059491D01*
X117935807Y-76093469D01*
X117919066Y-76124790D01*
X117896539Y-76152239D01*
X117869090Y-76174766D01*
X117837769Y-76191507D01*
X117803791Y-76201815D01*
X117762310Y-76205900D01*
X117086090Y-76205900D01*
X117044609Y-76201815D01*
X117010631Y-76191507D01*
X116979310Y-76174766D01*
X116951861Y-76152239D01*
X116929334Y-76124790D01*
X116912593Y-76093469D01*
X116902285Y-76059491D01*
X116898200Y-76018010D01*
X116898200Y-75416790D01*
X116902285Y-75375309D01*
X116912593Y-75341331D01*
X116929334Y-75310010D01*
X116951861Y-75282561D01*
X116979310Y-75260034D01*
X117010631Y-75243293D01*
X117044609Y-75232985D01*
X117086090Y-75228900D01*
X117762310Y-75228900D01*
X117803791Y-75232985D01*
G37*
G36*
X112630100Y-76205700D02*
G01*
X111728100Y-76205700D01*
X111728100Y-75203700D01*
X112630100Y-75203700D01*
X112630100Y-76205700D01*
G37*
G36*
X115693600Y-76089700D02*
G01*
X115141600Y-76089700D01*
X115141600Y-75387700D01*
X115693600Y-75387700D01*
X115693600Y-76089700D01*
G37*
G36*
X120880926Y-73940029D02*
G01*
X120946356Y-73953044D01*
X121131256Y-74029632D01*
X121297662Y-74140821D01*
X121439179Y-74282338D01*
X121550368Y-74448744D01*
X121626956Y-74633644D01*
X121666000Y-74829933D01*
X121666000Y-75030067D01*
X121626956Y-75226356D01*
X121550368Y-75411256D01*
X121439179Y-75577662D01*
X121297662Y-75719179D01*
X121131256Y-75830368D01*
X120946356Y-75906956D01*
X120880926Y-75919971D01*
X120750069Y-75946000D01*
X120549931Y-75946000D01*
X120419074Y-75919971D01*
X120353644Y-75906956D01*
X120168744Y-75830368D01*
X120002338Y-75719179D01*
X119860821Y-75577662D01*
X119749632Y-75411256D01*
X119673044Y-75226356D01*
X119634000Y-75030067D01*
X119634000Y-74829933D01*
X119673044Y-74633644D01*
X119749632Y-74448744D01*
X119860821Y-74282338D01*
X120002338Y-74140821D01*
X120168744Y-74029632D01*
X120353644Y-73953044D01*
X120419074Y-73940029D01*
X120549931Y-73914000D01*
X120750069Y-73914000D01*
X120880926Y-73940029D01*
G37*
G36*
X98020926Y-73940029D02*
G01*
X98086356Y-73953044D01*
X98271256Y-74029632D01*
X98437662Y-74140821D01*
X98579179Y-74282338D01*
X98690368Y-74448744D01*
X98766956Y-74633644D01*
X98806000Y-74829933D01*
X98806000Y-75030067D01*
X98766956Y-75226356D01*
X98690368Y-75411256D01*
X98579179Y-75577662D01*
X98437662Y-75719179D01*
X98271256Y-75830368D01*
X98086356Y-75906956D01*
X98020926Y-75919971D01*
X97890069Y-75946000D01*
X97689931Y-75946000D01*
X97559074Y-75919971D01*
X97493644Y-75906956D01*
X97308744Y-75830368D01*
X97142338Y-75719179D01*
X97000821Y-75577662D01*
X96889632Y-75411256D01*
X96813044Y-75226356D01*
X96774000Y-75030067D01*
X96774000Y-74829933D01*
X96813044Y-74633644D01*
X96889632Y-74448744D01*
X97000821Y-74282338D01*
X97142338Y-74140821D01*
X97308744Y-74029632D01*
X97493644Y-73953044D01*
X97559074Y-73940029D01*
X97689931Y-73914000D01*
X97890069Y-73914000D01*
X98020926Y-73940029D01*
G37*
G36*
X115693600Y-73989700D02*
G01*
X115141600Y-73989700D01*
X115141600Y-73287700D01*
X115693600Y-73287700D01*
X115693600Y-73989700D01*
G37*
G36*
X120880926Y-71400029D02*
G01*
X120946356Y-71413044D01*
X121131256Y-71489632D01*
X121297662Y-71600821D01*
X121439179Y-71742338D01*
X121550368Y-71908744D01*
X121626956Y-72093644D01*
X121666000Y-72289933D01*
X121666000Y-72490067D01*
X121626956Y-72686356D01*
X121550368Y-72871256D01*
X121439179Y-73037662D01*
X121297662Y-73179179D01*
X121131256Y-73290368D01*
X120946356Y-73366956D01*
X120880926Y-73379971D01*
X120750069Y-73406000D01*
X120549931Y-73406000D01*
X120419074Y-73379971D01*
X120353644Y-73366956D01*
X120168744Y-73290368D01*
X120002338Y-73179179D01*
X119860821Y-73037662D01*
X119749632Y-72871256D01*
X119673044Y-72686356D01*
X119634000Y-72490067D01*
X119634000Y-72289933D01*
X119673044Y-72093644D01*
X119749632Y-71908744D01*
X119860821Y-71742338D01*
X120002338Y-71600821D01*
X120168744Y-71489632D01*
X120353644Y-71413044D01*
X120419074Y-71400029D01*
X120549931Y-71374000D01*
X120750069Y-71374000D01*
X120880926Y-71400029D01*
G37*
G36*
X98020926Y-71400029D02*
G01*
X98086356Y-71413044D01*
X98271256Y-71489632D01*
X98437662Y-71600821D01*
X98579179Y-71742338D01*
X98690368Y-71908744D01*
X98766956Y-72093644D01*
X98806000Y-72289933D01*
X98806000Y-72490067D01*
X98766956Y-72686356D01*
X98690368Y-72871256D01*
X98579179Y-73037662D01*
X98437662Y-73179179D01*
X98271256Y-73290368D01*
X98086356Y-73366956D01*
X98020926Y-73379971D01*
X97890069Y-73406000D01*
X97689931Y-73406000D01*
X97559074Y-73379971D01*
X97493644Y-73366956D01*
X97308744Y-73290368D01*
X97142338Y-73179179D01*
X97000821Y-73037662D01*
X96889632Y-72871256D01*
X96813044Y-72686356D01*
X96774000Y-72490067D01*
X96774000Y-72289933D01*
X96813044Y-72093644D01*
X96889632Y-71908744D01*
X97000821Y-71742338D01*
X97142338Y-71600821D01*
X97308744Y-71489632D01*
X97493644Y-71413044D01*
X97559074Y-71400029D01*
X97689931Y-71374000D01*
X97890069Y-71374000D01*
X98020926Y-71400029D01*
G37*
G36*
X98020926Y-68860029D02*
G01*
X98086356Y-68873044D01*
X98271256Y-68949632D01*
X98437662Y-69060821D01*
X98579179Y-69202338D01*
X98690368Y-69368744D01*
X98766956Y-69553644D01*
X98806000Y-69749933D01*
X98806000Y-69950067D01*
X98766956Y-70146356D01*
X98690368Y-70331256D01*
X98579179Y-70497662D01*
X98437662Y-70639179D01*
X98271256Y-70750368D01*
X98086356Y-70826956D01*
X98020926Y-70839971D01*
X97890069Y-70866000D01*
X97689931Y-70866000D01*
X97559074Y-70839971D01*
X97493644Y-70826956D01*
X97308744Y-70750368D01*
X97142338Y-70639179D01*
X97000821Y-70497662D01*
X96889632Y-70331256D01*
X96813044Y-70146356D01*
X96774000Y-69950067D01*
X96774000Y-69749933D01*
X96813044Y-69553644D01*
X96889632Y-69368744D01*
X97000821Y-69202338D01*
X97142338Y-69060821D01*
X97308744Y-68949632D01*
X97493644Y-68873044D01*
X97559074Y-68860029D01*
X97689931Y-68834000D01*
X97890069Y-68834000D01*
X98020926Y-68860029D01*
G37*
G36*
X120880926Y-68860029D02*
G01*
X120946356Y-68873044D01*
X121131256Y-68949632D01*
X121297662Y-69060821D01*
X121439179Y-69202338D01*
X121550368Y-69368744D01*
X121626956Y-69553644D01*
X121666000Y-69749933D01*
X121666000Y-69950067D01*
X121626956Y-70146356D01*
X121550368Y-70331256D01*
X121439179Y-70497662D01*
X121297662Y-70639179D01*
X121131256Y-70750368D01*
X120946356Y-70826956D01*
X120880926Y-70839971D01*
X120750069Y-70866000D01*
X120549931Y-70866000D01*
X120419074Y-70839971D01*
X120353644Y-70826956D01*
X120168744Y-70750368D01*
X120002338Y-70639179D01*
X119860821Y-70497662D01*
X119749632Y-70331256D01*
X119673044Y-70146356D01*
X119634000Y-69950067D01*
X119634000Y-69749933D01*
X119673044Y-69553644D01*
X119749632Y-69368744D01*
X119860821Y-69202338D01*
X120002338Y-69060821D01*
X120168744Y-68949632D01*
X120353644Y-68873044D01*
X120419074Y-68860029D01*
X120549931Y-68834000D01*
X120750069Y-68834000D01*
X120880926Y-68860029D01*
G37*
G36*
X120880926Y-66320029D02*
G01*
X120946356Y-66333044D01*
X121131256Y-66409632D01*
X121297662Y-66520821D01*
X121439179Y-66662338D01*
X121550368Y-66828744D01*
X121626956Y-67013644D01*
X121666000Y-67209933D01*
X121666000Y-67410067D01*
X121626956Y-67606356D01*
X121550368Y-67791256D01*
X121439179Y-67957662D01*
X121297662Y-68099179D01*
X121131256Y-68210368D01*
X120946356Y-68286956D01*
X120880926Y-68299971D01*
X120750069Y-68326000D01*
X120549931Y-68326000D01*
X120419074Y-68299971D01*
X120353644Y-68286956D01*
X120168744Y-68210368D01*
X120002338Y-68099179D01*
X119860821Y-67957662D01*
X119749632Y-67791256D01*
X119673044Y-67606356D01*
X119634000Y-67410067D01*
X119634000Y-67209933D01*
X119673044Y-67013644D01*
X119749632Y-66828744D01*
X119860821Y-66662338D01*
X120002338Y-66520821D01*
X120168744Y-66409632D01*
X120353644Y-66333044D01*
X120419074Y-66320029D01*
X120549931Y-66294000D01*
X120750069Y-66294000D01*
X120880926Y-66320029D01*
G37*
G36*
X98020926Y-66320029D02*
G01*
X98086356Y-66333044D01*
X98271256Y-66409632D01*
X98437662Y-66520821D01*
X98579179Y-66662338D01*
X98690368Y-66828744D01*
X98766956Y-67013644D01*
X98806000Y-67209933D01*
X98806000Y-67410067D01*
X98766956Y-67606356D01*
X98690368Y-67791256D01*
X98579179Y-67957662D01*
X98437662Y-68099179D01*
X98271256Y-68210368D01*
X98086356Y-68286956D01*
X98020926Y-68299971D01*
X97890069Y-68326000D01*
X97689931Y-68326000D01*
X97559074Y-68299971D01*
X97493644Y-68286956D01*
X97308744Y-68210368D01*
X97142338Y-68099179D01*
X97000821Y-67957662D01*
X96889632Y-67791256D01*
X96813044Y-67606356D01*
X96774000Y-67410067D01*
X96774000Y-67209933D01*
X96813044Y-67013644D01*
X96889632Y-66828744D01*
X97000821Y-66662338D01*
X97142338Y-66520821D01*
X97308744Y-66409632D01*
X97493644Y-66333044D01*
X97559074Y-66320029D01*
X97689931Y-66294000D01*
X97890069Y-66294000D01*
X98020926Y-66320029D01*
G37*
G36*
X120880926Y-63780029D02*
G01*
X120946356Y-63793044D01*
X121131256Y-63869632D01*
X121297662Y-63980821D01*
X121439179Y-64122338D01*
X121550368Y-64288744D01*
X121626956Y-64473644D01*
X121666000Y-64669933D01*
X121666000Y-64870067D01*
X121626956Y-65066356D01*
X121550368Y-65251256D01*
X121439179Y-65417662D01*
X121297662Y-65559179D01*
X121131256Y-65670368D01*
X120946356Y-65746956D01*
X120880926Y-65759971D01*
X120750069Y-65786000D01*
X120549931Y-65786000D01*
X120419074Y-65759971D01*
X120353644Y-65746956D01*
X120168744Y-65670368D01*
X120002338Y-65559179D01*
X119860821Y-65417662D01*
X119749632Y-65251256D01*
X119673044Y-65066356D01*
X119634000Y-64870067D01*
X119634000Y-64669933D01*
X119673044Y-64473644D01*
X119749632Y-64288744D01*
X119860821Y-64122338D01*
X120002338Y-63980821D01*
X120168744Y-63869632D01*
X120353644Y-63793044D01*
X120419074Y-63780029D01*
X120549931Y-63754000D01*
X120750069Y-63754000D01*
X120880926Y-63780029D01*
G37*
G36*
X98020926Y-63780029D02*
G01*
X98086356Y-63793044D01*
X98271256Y-63869632D01*
X98437662Y-63980821D01*
X98579179Y-64122338D01*
X98690368Y-64288744D01*
X98766956Y-64473644D01*
X98806000Y-64669933D01*
X98806000Y-64870067D01*
X98766956Y-65066356D01*
X98690368Y-65251256D01*
X98579179Y-65417662D01*
X98437662Y-65559179D01*
X98271256Y-65670368D01*
X98086356Y-65746956D01*
X98020926Y-65759971D01*
X97890069Y-65786000D01*
X97689931Y-65786000D01*
X97559074Y-65759971D01*
X97493644Y-65746956D01*
X97308744Y-65670368D01*
X97142338Y-65559179D01*
X97000821Y-65417662D01*
X96889632Y-65251256D01*
X96813044Y-65066356D01*
X96774000Y-64870067D01*
X96774000Y-64669933D01*
X96813044Y-64473644D01*
X96889632Y-64288744D01*
X97000821Y-64122338D01*
X97142338Y-63980821D01*
X97308744Y-63869632D01*
X97493644Y-63793044D01*
X97559074Y-63780029D01*
X97689931Y-63754000D01*
X97890069Y-63754000D01*
X98020926Y-63780029D01*
G37*
G36*
X98806000Y-63246000D02*
G01*
X96774000Y-63246000D01*
X96774000Y-61214000D01*
X98806000Y-61214000D01*
X98806000Y-63246000D01*
G37*
G36*
X121666000Y-63246000D02*
G01*
X119634000Y-63246000D01*
X119634000Y-61214000D01*
X121666000Y-61214000D01*
X121666000Y-63246000D01*
G37*
G36*
X99435256Y-56811298D02*
G01*
X99541579Y-56832447D01*
X99842042Y-56956903D01*
X100112451Y-57137585D01*
X100342415Y-57367549D01*
X100523097Y-57637958D01*
X100647553Y-57938421D01*
X100711000Y-58257391D01*
X100711000Y-58582609D01*
X100647553Y-58901579D01*
X100523097Y-59202042D01*
X100342415Y-59472451D01*
X100112451Y-59702415D01*
X99842042Y-59883097D01*
X99541579Y-60007553D01*
X99435256Y-60028702D01*
X99222611Y-60071000D01*
X98897389Y-60071000D01*
X98684744Y-60028702D01*
X98578421Y-60007553D01*
X98277958Y-59883097D01*
X98007549Y-59702415D01*
X97777585Y-59472451D01*
X97596903Y-59202042D01*
X97472447Y-58901579D01*
X97409000Y-58582609D01*
X97409000Y-58257391D01*
X97472447Y-57938421D01*
X97596903Y-57637958D01*
X97777585Y-57367549D01*
X98007549Y-57137585D01*
X98277958Y-56956903D01*
X98578421Y-56832447D01*
X98684744Y-56811298D01*
X98897389Y-56769000D01*
X99222611Y-56769000D01*
X99435256Y-56811298D01*
G37*
G36*
X119755256Y-56811298D02*
G01*
X119861579Y-56832447D01*
X120162042Y-56956903D01*
X120432451Y-57137585D01*
X120662415Y-57367549D01*
X120843097Y-57637958D01*
X120967553Y-57938421D01*
X121031000Y-58257391D01*
X121031000Y-58582609D01*
X120967553Y-58901579D01*
X120843097Y-59202042D01*
X120662415Y-59472451D01*
X120432451Y-59702415D01*
X120162042Y-59883097D01*
X119861579Y-60007553D01*
X119755256Y-60028702D01*
X119542611Y-60071000D01*
X119217389Y-60071000D01*
X119004744Y-60028702D01*
X118898421Y-60007553D01*
X118597958Y-59883097D01*
X118327549Y-59702415D01*
X118097585Y-59472451D01*
X117916903Y-59202042D01*
X117792447Y-58901579D01*
X117729000Y-58582609D01*
X117729000Y-58257391D01*
X117792447Y-57938421D01*
X117916903Y-57637958D01*
X118097585Y-57367549D01*
X118327549Y-57137585D01*
X118597958Y-56956903D01*
X118898421Y-56832447D01*
X119004744Y-56811298D01*
X119217389Y-56769000D01*
X119542611Y-56769000D01*
X119755256Y-56811298D01*
G37*
M02*
