G04 #@! TF.GenerationSoftware,KiCad,Pcbnew,5.1.5+dfsg1-2build2*
G04 #@! TF.CreationDate,2022-11-05T00:29:27+01:00*
G04 #@! TF.ProjectId,MBus_to_radio,4d427573-5f74-46f5-9f72-6164696f2e6b,rev?*
G04 #@! TF.SameCoordinates,Original*
G04 #@! TF.FileFunction,Legend,Bot*
G04 #@! TF.FilePolarity,Positive*
%FSLAX46Y46*%
G04 Gerber Fmt 4.6, Leading zero omitted, Abs format (unit mm)*
G04 Created by KiCad (PCBNEW 5.1.5+dfsg1-2build2) date 2022-11-05 00:29:27*
%MOMM*%
%LPD*%
G04 APERTURE LIST*
%ADD10C,0.300000*%
%ADD11C,0.120000*%
%ADD12C,0.150000*%
%ADD13C,2.102000*%
%ADD14R,2.102000X2.102000*%
%ADD15C,2.202000*%
%ADD16R,2.202000X2.202000*%
%ADD17C,3.302000*%
%ADD18C,2.032000*%
%ADD19R,2.032000X2.032000*%
G04 APERTURE END LIST*
D10*
X119008885Y-115016671D02*
X119008885Y-113516671D01*
X118508885Y-114588100D01*
X118008885Y-113516671D01*
X118008885Y-115016671D01*
X117294600Y-114445242D02*
X116151742Y-114445242D01*
X114937457Y-114230957D02*
X114723171Y-114302385D01*
X114651742Y-114373814D01*
X114580314Y-114516671D01*
X114580314Y-114730957D01*
X114651742Y-114873814D01*
X114723171Y-114945242D01*
X114866028Y-115016671D01*
X115437457Y-115016671D01*
X115437457Y-113516671D01*
X114937457Y-113516671D01*
X114794600Y-113588100D01*
X114723171Y-113659528D01*
X114651742Y-113802385D01*
X114651742Y-113945242D01*
X114723171Y-114088100D01*
X114794600Y-114159528D01*
X114937457Y-114230957D01*
X115437457Y-114230957D01*
X113294600Y-114016671D02*
X113294600Y-115016671D01*
X113937457Y-114016671D02*
X113937457Y-114802385D01*
X113866028Y-114945242D01*
X113723171Y-115016671D01*
X113508885Y-115016671D01*
X113366028Y-114945242D01*
X113294600Y-114873814D01*
X112651742Y-114945242D02*
X112508885Y-115016671D01*
X112223171Y-115016671D01*
X112080314Y-114945242D01*
X112008885Y-114802385D01*
X112008885Y-114730957D01*
X112080314Y-114588100D01*
X112223171Y-114516671D01*
X112437457Y-114516671D01*
X112580314Y-114445242D01*
X112651742Y-114302385D01*
X112651742Y-114230957D01*
X112580314Y-114088100D01*
X112437457Y-114016671D01*
X112223171Y-114016671D01*
X112080314Y-114088100D01*
X113230357Y-62086328D02*
X113230357Y-62586328D01*
X114016071Y-62800614D02*
X114016071Y-62086328D01*
X112516071Y-62086328D01*
X112516071Y-62800614D01*
X112516071Y-63229185D02*
X114016071Y-63729185D01*
X112516071Y-64229185D01*
X114016071Y-64729185D02*
X112516071Y-64729185D01*
X114016071Y-65586328D01*
X112516071Y-65586328D01*
X114016071Y-67443471D02*
X112516071Y-67443471D01*
X114016071Y-68300614D02*
X113158928Y-67657757D01*
X112516071Y-68300614D02*
X113373214Y-67443471D01*
X114016071Y-69586328D02*
X113230357Y-69586328D01*
X113087500Y-69514900D01*
X113016071Y-69372042D01*
X113016071Y-69086328D01*
X113087500Y-68943471D01*
X113944642Y-69586328D02*
X114016071Y-69443471D01*
X114016071Y-69086328D01*
X113944642Y-68943471D01*
X113801785Y-68872042D01*
X113658928Y-68872042D01*
X113516071Y-68943471D01*
X113444642Y-69086328D01*
X113444642Y-69443471D01*
X113373214Y-69586328D01*
X114016071Y-70300614D02*
X113016071Y-70300614D01*
X112516071Y-70300614D02*
X112587500Y-70229185D01*
X112658928Y-70300614D01*
X112587500Y-70372042D01*
X112516071Y-70300614D01*
X112658928Y-70300614D01*
X113016071Y-70800614D02*
X113016071Y-71372042D01*
X114016071Y-71014900D02*
X112730357Y-71014900D01*
X112587500Y-71086328D01*
X112516071Y-71229185D01*
X112516071Y-71372042D01*
X114016071Y-72514900D02*
X113230357Y-72514900D01*
X113087500Y-72443471D01*
X113016071Y-72300614D01*
X113016071Y-72014900D01*
X113087500Y-71872042D01*
X113944642Y-72514900D02*
X114016071Y-72372042D01*
X114016071Y-72014900D01*
X113944642Y-71872042D01*
X113801785Y-71800614D01*
X113658928Y-71800614D01*
X113516071Y-71872042D01*
X113444642Y-72014900D01*
X113444642Y-72372042D01*
X113373214Y-72514900D01*
X114016071Y-74372042D02*
X112516071Y-74372042D01*
X113016071Y-75086328D02*
X114016071Y-75086328D01*
X113158928Y-75086328D02*
X113087500Y-75157757D01*
X113016071Y-75300614D01*
X113016071Y-75514900D01*
X113087500Y-75657757D01*
X113230357Y-75729185D01*
X114016071Y-75729185D01*
X113016071Y-76229185D02*
X113016071Y-76800614D01*
X112516071Y-76443471D02*
X113801785Y-76443471D01*
X113944642Y-76514900D01*
X114016071Y-76657757D01*
X114016071Y-76800614D01*
X113944642Y-77872042D02*
X114016071Y-77729185D01*
X114016071Y-77443471D01*
X113944642Y-77300614D01*
X113801785Y-77229185D01*
X113230357Y-77229185D01*
X113087500Y-77300614D01*
X113016071Y-77443471D01*
X113016071Y-77729185D01*
X113087500Y-77872042D01*
X113230357Y-77943471D01*
X113373214Y-77943471D01*
X113516071Y-77229185D01*
X114016071Y-78586328D02*
X113016071Y-78586328D01*
X113301785Y-78586328D02*
X113158928Y-78657757D01*
X113087500Y-78729185D01*
X113016071Y-78872042D01*
X113016071Y-79014899D01*
X113016071Y-79300614D02*
X113016071Y-79872042D01*
X114016071Y-79514899D02*
X112730357Y-79514899D01*
X112587500Y-79586328D01*
X112516071Y-79729185D01*
X112516071Y-79872042D01*
X114016071Y-81014899D02*
X113230357Y-81014899D01*
X113087500Y-80943471D01*
X113016071Y-80800614D01*
X113016071Y-80514899D01*
X113087500Y-80372042D01*
X113944642Y-81014899D02*
X114016071Y-80872042D01*
X114016071Y-80514899D01*
X113944642Y-80372042D01*
X113801785Y-80300614D01*
X113658928Y-80300614D01*
X113516071Y-80372042D01*
X113444642Y-80514899D01*
X113444642Y-80872042D01*
X113373214Y-81014899D01*
X113944642Y-82372042D02*
X114016071Y-82229185D01*
X114016071Y-81943471D01*
X113944642Y-81800614D01*
X113873214Y-81729185D01*
X113730357Y-81657757D01*
X113301785Y-81657757D01*
X113158928Y-81729185D01*
X113087500Y-81800614D01*
X113016071Y-81943471D01*
X113016071Y-82229185D01*
X113087500Y-82372042D01*
X113944642Y-83586328D02*
X114016071Y-83443471D01*
X114016071Y-83157757D01*
X113944642Y-83014899D01*
X113801785Y-82943471D01*
X113230357Y-82943471D01*
X113087500Y-83014899D01*
X113016071Y-83157757D01*
X113016071Y-83443471D01*
X113087500Y-83586328D01*
X113230357Y-83657757D01*
X113373214Y-83657757D01*
X113516071Y-82943471D01*
X112516071Y-85229185D02*
X114016071Y-85729185D01*
X112516071Y-86229185D01*
X112658928Y-86657757D02*
X112587500Y-86729185D01*
X112516071Y-86872042D01*
X112516071Y-87229185D01*
X112587500Y-87372042D01*
X112658928Y-87443471D01*
X112801785Y-87514899D01*
X112944642Y-87514899D01*
X113158928Y-87443471D01*
X114016071Y-86586328D01*
X114016071Y-87514899D01*
X115066071Y-67729185D02*
X115066071Y-68586328D01*
X116566071Y-68157757D02*
X115066071Y-68157757D01*
X116566071Y-69300614D02*
X116494642Y-69157757D01*
X116423214Y-69086328D01*
X116280357Y-69014900D01*
X115851785Y-69014900D01*
X115708928Y-69086328D01*
X115637500Y-69157757D01*
X115566071Y-69300614D01*
X115566071Y-69514900D01*
X115637500Y-69657757D01*
X115708928Y-69729185D01*
X115851785Y-69800614D01*
X116280357Y-69800614D01*
X116423214Y-69729185D01*
X116494642Y-69657757D01*
X116566071Y-69514900D01*
X116566071Y-69300614D01*
X116566071Y-70443471D02*
X115066071Y-70443471D01*
X115637500Y-70443471D02*
X115566071Y-70586328D01*
X115566071Y-70872042D01*
X115637500Y-71014900D01*
X115708928Y-71086328D01*
X115851785Y-71157757D01*
X116280357Y-71157757D01*
X116423214Y-71086328D01*
X116494642Y-71014900D01*
X116566071Y-70872042D01*
X116566071Y-70586328D01*
X116494642Y-70443471D01*
X116566071Y-71800614D02*
X115566071Y-71800614D01*
X115066071Y-71800614D02*
X115137500Y-71729185D01*
X115208928Y-71800614D01*
X115137500Y-71872042D01*
X115066071Y-71800614D01*
X115208928Y-71800614D01*
X116566071Y-73157757D02*
X115780357Y-73157757D01*
X115637500Y-73086328D01*
X115566071Y-72943471D01*
X115566071Y-72657757D01*
X115637500Y-72514900D01*
X116494642Y-73157757D02*
X116566071Y-73014900D01*
X116566071Y-72657757D01*
X116494642Y-72514900D01*
X116351785Y-72443471D01*
X116208928Y-72443471D01*
X116066071Y-72514900D01*
X115994642Y-72657757D01*
X115994642Y-73014900D01*
X115923214Y-73157757D01*
X116494642Y-73800614D02*
X116566071Y-73943471D01*
X116566071Y-74229185D01*
X116494642Y-74372042D01*
X116351785Y-74443471D01*
X116280357Y-74443471D01*
X116137500Y-74372042D01*
X116066071Y-74229185D01*
X116066071Y-74014900D01*
X115994642Y-73872042D01*
X115851785Y-73800614D01*
X115780357Y-73800614D01*
X115637500Y-73872042D01*
X115566071Y-74014900D01*
X115566071Y-74229185D01*
X115637500Y-74372042D01*
X115780357Y-76229185D02*
X115780357Y-76729185D01*
X116566071Y-76943471D02*
X116566071Y-76229185D01*
X115066071Y-76229185D01*
X115066071Y-76943471D01*
X116494642Y-78229185D02*
X116566071Y-78086328D01*
X116566071Y-77800614D01*
X116494642Y-77657757D01*
X116423214Y-77586328D01*
X116280357Y-77514900D01*
X115851785Y-77514900D01*
X115708928Y-77586328D01*
X115637500Y-77657757D01*
X115566071Y-77800614D01*
X115566071Y-78086328D01*
X115637500Y-78229185D01*
X116566071Y-78872042D02*
X115066071Y-78872042D01*
X115994642Y-79014900D02*
X116566071Y-79443471D01*
X115566071Y-79443471D02*
X116137500Y-78872042D01*
X116494642Y-80657757D02*
X116566071Y-80514900D01*
X116566071Y-80229185D01*
X116494642Y-80086328D01*
X116351785Y-80014900D01*
X115780357Y-80014900D01*
X115637500Y-80086328D01*
X115566071Y-80229185D01*
X115566071Y-80514900D01*
X115637500Y-80657757D01*
X115780357Y-80729185D01*
X115923214Y-80729185D01*
X116066071Y-80014900D01*
X116566071Y-81372042D02*
X115566071Y-81372042D01*
X115851785Y-81372042D02*
X115708928Y-81443471D01*
X115637500Y-81514900D01*
X115566071Y-81657757D01*
X115566071Y-81800614D01*
X119116071Y-70693471D02*
X119116071Y-69836328D01*
X119116071Y-70264900D02*
X117616071Y-70264900D01*
X117830357Y-70122042D01*
X117973214Y-69979185D01*
X118044642Y-69836328D01*
X119116071Y-72122042D02*
X119116071Y-71264900D01*
X119116071Y-71693471D02*
X117616071Y-71693471D01*
X117830357Y-71550614D01*
X117973214Y-71407757D01*
X118044642Y-71264900D01*
X118544642Y-72764900D02*
X118544642Y-73907757D01*
X117758928Y-74550614D02*
X117687500Y-74622042D01*
X117616071Y-74764900D01*
X117616071Y-75122042D01*
X117687500Y-75264900D01*
X117758928Y-75336328D01*
X117901785Y-75407757D01*
X118044642Y-75407757D01*
X118258928Y-75336328D01*
X119116071Y-74479185D01*
X119116071Y-75407757D01*
X117616071Y-76336328D02*
X117616071Y-76479185D01*
X117687500Y-76622042D01*
X117758928Y-76693471D01*
X117901785Y-76764900D01*
X118187500Y-76836328D01*
X118544642Y-76836328D01*
X118830357Y-76764900D01*
X118973214Y-76693471D01*
X119044642Y-76622042D01*
X119116071Y-76479185D01*
X119116071Y-76336328D01*
X119044642Y-76193471D01*
X118973214Y-76122042D01*
X118830357Y-76050614D01*
X118544642Y-75979185D01*
X118187500Y-75979185D01*
X117901785Y-76050614D01*
X117758928Y-76122042D01*
X117687500Y-76193471D01*
X117616071Y-76336328D01*
X117758928Y-77407757D02*
X117687500Y-77479185D01*
X117616071Y-77622042D01*
X117616071Y-77979185D01*
X117687500Y-78122042D01*
X117758928Y-78193471D01*
X117901785Y-78264900D01*
X118044642Y-78264900D01*
X118258928Y-78193471D01*
X119116071Y-77336328D01*
X119116071Y-78264900D01*
X117758928Y-78836328D02*
X117687500Y-78907757D01*
X117616071Y-79050614D01*
X117616071Y-79407757D01*
X117687500Y-79550614D01*
X117758928Y-79622042D01*
X117901785Y-79693471D01*
X118044642Y-79693471D01*
X118258928Y-79622042D01*
X119116071Y-78764900D01*
X119116071Y-79693471D01*
D11*
X102816054Y-104225700D02*
X102816054Y-103225700D01*
X102316054Y-103725700D02*
X103316054Y-103725700D01*
X112876700Y-101449700D02*
X112876700Y-100251700D01*
X112836700Y-101712700D02*
X112836700Y-99988700D01*
X112796700Y-101912700D02*
X112796700Y-99788700D01*
X112756700Y-102080700D02*
X112756700Y-99620700D01*
X112716700Y-102228700D02*
X112716700Y-99472700D01*
X112676700Y-102360700D02*
X112676700Y-99340700D01*
X112636700Y-102480700D02*
X112636700Y-99220700D01*
X112596700Y-102592700D02*
X112596700Y-99108700D01*
X112556700Y-102696700D02*
X112556700Y-99004700D01*
X112516700Y-102794700D02*
X112516700Y-98906700D01*
X112476700Y-102887700D02*
X112476700Y-98813700D01*
X112436700Y-102975700D02*
X112436700Y-98725700D01*
X112396700Y-103059700D02*
X112396700Y-98641700D01*
X112356700Y-103139700D02*
X112356700Y-98561700D01*
X112316700Y-103215700D02*
X112316700Y-98485700D01*
X112276700Y-103289700D02*
X112276700Y-98411700D01*
X112236700Y-103360700D02*
X112236700Y-98340700D01*
X112196700Y-103429700D02*
X112196700Y-98271700D01*
X112156700Y-103495700D02*
X112156700Y-98205700D01*
X112116700Y-103559700D02*
X112116700Y-98141700D01*
X112076700Y-103620700D02*
X112076700Y-98080700D01*
X112036700Y-103680700D02*
X112036700Y-98020700D01*
X111996700Y-103739700D02*
X111996700Y-97961700D01*
X111956700Y-103795700D02*
X111956700Y-97905700D01*
X111916700Y-103850700D02*
X111916700Y-97850700D01*
X111876700Y-103904700D02*
X111876700Y-97796700D01*
X111836700Y-103956700D02*
X111836700Y-97744700D01*
X111796700Y-104006700D02*
X111796700Y-97694700D01*
X111756700Y-104056700D02*
X111756700Y-97644700D01*
X111716700Y-104104700D02*
X111716700Y-97596700D01*
X111676700Y-104151700D02*
X111676700Y-97549700D01*
X111636700Y-104197700D02*
X111636700Y-97503700D01*
X111596700Y-104242700D02*
X111596700Y-97458700D01*
X111556700Y-104286700D02*
X111556700Y-97414700D01*
X111516700Y-99609700D02*
X111516700Y-97372700D01*
X111516700Y-104328700D02*
X111516700Y-102091700D01*
X111476700Y-99609700D02*
X111476700Y-97330700D01*
X111476700Y-104370700D02*
X111476700Y-102091700D01*
X111436700Y-99609700D02*
X111436700Y-97289700D01*
X111436700Y-104411700D02*
X111436700Y-102091700D01*
X111396700Y-99609700D02*
X111396700Y-97249700D01*
X111396700Y-104451700D02*
X111396700Y-102091700D01*
X111356700Y-99609700D02*
X111356700Y-97210700D01*
X111356700Y-104490700D02*
X111356700Y-102091700D01*
X111316700Y-99609700D02*
X111316700Y-97171700D01*
X111316700Y-104529700D02*
X111316700Y-102091700D01*
X111276700Y-99609700D02*
X111276700Y-97134700D01*
X111276700Y-104566700D02*
X111276700Y-102091700D01*
X111236700Y-99609700D02*
X111236700Y-97097700D01*
X111236700Y-104603700D02*
X111236700Y-102091700D01*
X111196700Y-99609700D02*
X111196700Y-97061700D01*
X111196700Y-104639700D02*
X111196700Y-102091700D01*
X111156700Y-99609700D02*
X111156700Y-97026700D01*
X111156700Y-104674700D02*
X111156700Y-102091700D01*
X111116700Y-99609700D02*
X111116700Y-96992700D01*
X111116700Y-104708700D02*
X111116700Y-102091700D01*
X111076700Y-99609700D02*
X111076700Y-96958700D01*
X111076700Y-104742700D02*
X111076700Y-102091700D01*
X111036700Y-99609700D02*
X111036700Y-96925700D01*
X111036700Y-104775700D02*
X111036700Y-102091700D01*
X110996700Y-99609700D02*
X110996700Y-96893700D01*
X110996700Y-104807700D02*
X110996700Y-102091700D01*
X110956700Y-99609700D02*
X110956700Y-96861700D01*
X110956700Y-104839700D02*
X110956700Y-102091700D01*
X110916700Y-99609700D02*
X110916700Y-96830700D01*
X110916700Y-104870700D02*
X110916700Y-102091700D01*
X110876700Y-99609700D02*
X110876700Y-96800700D01*
X110876700Y-104900700D02*
X110876700Y-102091700D01*
X110836700Y-99609700D02*
X110836700Y-96770700D01*
X110836700Y-104930700D02*
X110836700Y-102091700D01*
X110796700Y-99609700D02*
X110796700Y-96740700D01*
X110796700Y-104960700D02*
X110796700Y-102091700D01*
X110756700Y-99609700D02*
X110756700Y-96712700D01*
X110756700Y-104988700D02*
X110756700Y-102091700D01*
X110716700Y-99609700D02*
X110716700Y-96684700D01*
X110716700Y-105016700D02*
X110716700Y-102091700D01*
X110676700Y-99609700D02*
X110676700Y-96656700D01*
X110676700Y-105044700D02*
X110676700Y-102091700D01*
X110636700Y-99609700D02*
X110636700Y-96629700D01*
X110636700Y-105071700D02*
X110636700Y-102091700D01*
X110596700Y-99609700D02*
X110596700Y-96603700D01*
X110596700Y-105097700D02*
X110596700Y-102091700D01*
X110556700Y-99609700D02*
X110556700Y-96577700D01*
X110556700Y-105123700D02*
X110556700Y-102091700D01*
X110516700Y-99609700D02*
X110516700Y-96552700D01*
X110516700Y-105148700D02*
X110516700Y-102091700D01*
X110476700Y-99609700D02*
X110476700Y-96527700D01*
X110476700Y-105173700D02*
X110476700Y-102091700D01*
X110436700Y-99609700D02*
X110436700Y-96503700D01*
X110436700Y-105197700D02*
X110436700Y-102091700D01*
X110396700Y-99609700D02*
X110396700Y-96479700D01*
X110396700Y-105221700D02*
X110396700Y-102091700D01*
X110356700Y-99609700D02*
X110356700Y-96455700D01*
X110356700Y-105245700D02*
X110356700Y-102091700D01*
X110316700Y-99609700D02*
X110316700Y-96433700D01*
X110316700Y-105267700D02*
X110316700Y-102091700D01*
X110276700Y-99609700D02*
X110276700Y-96410700D01*
X110276700Y-105290700D02*
X110276700Y-102091700D01*
X110236700Y-99609700D02*
X110236700Y-96388700D01*
X110236700Y-105312700D02*
X110236700Y-102091700D01*
X110196700Y-99609700D02*
X110196700Y-96367700D01*
X110196700Y-105333700D02*
X110196700Y-102091700D01*
X110156700Y-99609700D02*
X110156700Y-96346700D01*
X110156700Y-105354700D02*
X110156700Y-102091700D01*
X110116700Y-99609700D02*
X110116700Y-96325700D01*
X110116700Y-105375700D02*
X110116700Y-102091700D01*
X110076700Y-99609700D02*
X110076700Y-96305700D01*
X110076700Y-105395700D02*
X110076700Y-102091700D01*
X110036700Y-99609700D02*
X110036700Y-96286700D01*
X110036700Y-105414700D02*
X110036700Y-102091700D01*
X109996700Y-99609700D02*
X109996700Y-96266700D01*
X109996700Y-105434700D02*
X109996700Y-102091700D01*
X109956700Y-99609700D02*
X109956700Y-96247700D01*
X109956700Y-105453700D02*
X109956700Y-102091700D01*
X109916700Y-99609700D02*
X109916700Y-96229700D01*
X109916700Y-105471700D02*
X109916700Y-102091700D01*
X109876700Y-99609700D02*
X109876700Y-96211700D01*
X109876700Y-105489700D02*
X109876700Y-102091700D01*
X109836700Y-99609700D02*
X109836700Y-96193700D01*
X109836700Y-105507700D02*
X109836700Y-102091700D01*
X109796700Y-99609700D02*
X109796700Y-96176700D01*
X109796700Y-105524700D02*
X109796700Y-102091700D01*
X109756700Y-99609700D02*
X109756700Y-96160700D01*
X109756700Y-105540700D02*
X109756700Y-102091700D01*
X109716700Y-99609700D02*
X109716700Y-96143700D01*
X109716700Y-105557700D02*
X109716700Y-102091700D01*
X109676700Y-99609700D02*
X109676700Y-96127700D01*
X109676700Y-105573700D02*
X109676700Y-102091700D01*
X109636700Y-99609700D02*
X109636700Y-96112700D01*
X109636700Y-105588700D02*
X109636700Y-102091700D01*
X109596700Y-99609700D02*
X109596700Y-96096700D01*
X109596700Y-105604700D02*
X109596700Y-102091700D01*
X109556700Y-99609700D02*
X109556700Y-96082700D01*
X109556700Y-105618700D02*
X109556700Y-102091700D01*
X109516700Y-99609700D02*
X109516700Y-96067700D01*
X109516700Y-105633700D02*
X109516700Y-102091700D01*
X109476700Y-99609700D02*
X109476700Y-96053700D01*
X109476700Y-105647700D02*
X109476700Y-102091700D01*
X109436700Y-99609700D02*
X109436700Y-96039700D01*
X109436700Y-105661700D02*
X109436700Y-102091700D01*
X109396700Y-99609700D02*
X109396700Y-96026700D01*
X109396700Y-105674700D02*
X109396700Y-102091700D01*
X109356700Y-99609700D02*
X109356700Y-96013700D01*
X109356700Y-105687700D02*
X109356700Y-102091700D01*
X109316700Y-99609700D02*
X109316700Y-96000700D01*
X109316700Y-105700700D02*
X109316700Y-102091700D01*
X109276700Y-99609700D02*
X109276700Y-95988700D01*
X109276700Y-105712700D02*
X109276700Y-102091700D01*
X109236700Y-99609700D02*
X109236700Y-95976700D01*
X109236700Y-105724700D02*
X109236700Y-102091700D01*
X109196700Y-99609700D02*
X109196700Y-95965700D01*
X109196700Y-105735700D02*
X109196700Y-102091700D01*
X109156700Y-99609700D02*
X109156700Y-95953700D01*
X109156700Y-105747700D02*
X109156700Y-102091700D01*
X109116700Y-99609700D02*
X109116700Y-95943700D01*
X109116700Y-105757700D02*
X109116700Y-102091700D01*
X109076700Y-99609700D02*
X109076700Y-95932700D01*
X109076700Y-105768700D02*
X109076700Y-102091700D01*
X109036700Y-105778700D02*
X109036700Y-95922700D01*
X108996700Y-105788700D02*
X108996700Y-95912700D01*
X108956700Y-105797700D02*
X108956700Y-95903700D01*
X108916700Y-105806700D02*
X108916700Y-95894700D01*
X108876700Y-105815700D02*
X108876700Y-95885700D01*
X108836700Y-105824700D02*
X108836700Y-95876700D01*
X108796700Y-105832700D02*
X108796700Y-95868700D01*
X108756700Y-105840700D02*
X108756700Y-95860700D01*
X108716700Y-105847700D02*
X108716700Y-95853700D01*
X108676700Y-105854700D02*
X108676700Y-95846700D01*
X108636700Y-105861700D02*
X108636700Y-95839700D01*
X108596700Y-105868700D02*
X108596700Y-95832700D01*
X108556700Y-105874700D02*
X108556700Y-95826700D01*
X108516700Y-105880700D02*
X108516700Y-95820700D01*
X108475700Y-105885700D02*
X108475700Y-95815700D01*
X108435700Y-105890700D02*
X108435700Y-95810700D01*
X108395700Y-105895700D02*
X108395700Y-95805700D01*
X108355700Y-105900700D02*
X108355700Y-95800700D01*
X108315700Y-105904700D02*
X108315700Y-95796700D01*
X108275700Y-105908700D02*
X108275700Y-95792700D01*
X108235700Y-105912700D02*
X108235700Y-95788700D01*
X108195700Y-105915700D02*
X108195700Y-95785700D01*
X108155700Y-105918700D02*
X108155700Y-95782700D01*
X108115700Y-105920700D02*
X108115700Y-95780700D01*
X108075700Y-105923700D02*
X108075700Y-95777700D01*
X108035700Y-105925700D02*
X108035700Y-95775700D01*
X107995700Y-105927700D02*
X107995700Y-95773700D01*
X107955700Y-105928700D02*
X107955700Y-95772700D01*
X107915700Y-105929700D02*
X107915700Y-95771700D01*
X107875700Y-105930700D02*
X107875700Y-95770700D01*
X107835700Y-105930700D02*
X107835700Y-95770700D01*
X107795700Y-105930700D02*
X107795700Y-95770700D01*
X112915700Y-100850700D02*
G75*
G03X112915700Y-100850700I-5120000J0D01*
G01*
D12*
X107962366Y-107457842D02*
X108009985Y-107505461D01*
X108152842Y-107553080D01*
X108248080Y-107553080D01*
X108390938Y-107505461D01*
X108486176Y-107410223D01*
X108533795Y-107314985D01*
X108581414Y-107124509D01*
X108581414Y-106981652D01*
X108533795Y-106791176D01*
X108486176Y-106695938D01*
X108390938Y-106600700D01*
X108248080Y-106553080D01*
X108152842Y-106553080D01*
X108009985Y-106600700D01*
X107962366Y-106648319D01*
X107629033Y-106553080D02*
X106962366Y-106553080D01*
X107390938Y-107553080D01*
%LPC*%
D13*
X110295700Y-100850700D03*
D14*
X105295700Y-100850700D03*
D15*
X118030000Y-111760000D03*
D16*
X113030000Y-111760000D03*
D13*
X105330000Y-110490000D03*
D14*
X100330000Y-110490000D03*
D17*
X99060000Y-101600000D03*
X119380000Y-101600000D03*
X119380000Y-58420000D03*
X99060000Y-58420000D03*
D18*
X120650000Y-97790000D03*
X120650000Y-95250000D03*
X120650000Y-92710000D03*
X120650000Y-90170000D03*
X120650000Y-87630000D03*
X120650000Y-85090000D03*
X120650000Y-82550000D03*
X120650000Y-80010000D03*
X120650000Y-77470000D03*
X120650000Y-74930000D03*
X120650000Y-72390000D03*
X120650000Y-69850000D03*
X120650000Y-67310000D03*
X120650000Y-64770000D03*
D19*
X120650000Y-62230000D03*
D18*
X97790000Y-97790000D03*
X97790000Y-95250000D03*
X97790000Y-92710000D03*
X97790000Y-90170000D03*
X97790000Y-87630000D03*
X97790000Y-85090000D03*
X97790000Y-82550000D03*
X97790000Y-80010000D03*
X97790000Y-77470000D03*
X97790000Y-74930000D03*
X97790000Y-72390000D03*
X97790000Y-69850000D03*
X97790000Y-67310000D03*
X97790000Y-64770000D03*
D19*
X97790000Y-62230000D03*
M02*
