G04 #@! TF.GenerationSoftware,KiCad,Pcbnew,5.1.5+dfsg1-2build2*
G04 #@! TF.CreationDate,2022-12-06T01:13:10+01:00*
G04 #@! TF.ProjectId,MBus_to_radio,4d427573-5f74-46f5-9f72-6164696f2e6b,rev?*
G04 #@! TF.SameCoordinates,Original*
G04 #@! TF.FileFunction,Legend,Bot*
G04 #@! TF.FilePolarity,Positive*
%FSLAX46Y46*%
G04 Gerber Fmt 4.6, Leading zero omitted, Abs format (unit mm)*
G04 Created by KiCad (PCBNEW 5.1.5+dfsg1-2build2) date 2022-12-06 01:13:10*
%MOMM*%
%LPD*%
G04 APERTURE LIST*
%ADD10C,0.300000*%
%ADD11C,0.150000*%
%ADD12C,0.100000*%
%ADD13C,0.120000*%
G04 APERTURE END LIST*
D10*
X100782142Y-64535714D02*
X100853571Y-64750000D01*
X100853571Y-65107142D01*
X100782142Y-65250000D01*
X100710714Y-65321428D01*
X100567857Y-65392857D01*
X100425000Y-65392857D01*
X100282142Y-65321428D01*
X100210714Y-65250000D01*
X100139285Y-65107142D01*
X100067857Y-64821428D01*
X99996428Y-64678571D01*
X99925000Y-64607142D01*
X99782142Y-64535714D01*
X99639285Y-64535714D01*
X99496428Y-64607142D01*
X99425000Y-64678571D01*
X99353571Y-64821428D01*
X99353571Y-65178571D01*
X99425000Y-65392857D01*
X99353571Y-65892857D02*
X100853571Y-66250000D01*
X99782142Y-66535714D01*
X100853571Y-66821428D01*
X99353571Y-67178571D01*
X100710714Y-67750000D02*
X100782142Y-67821428D01*
X100853571Y-67750000D01*
X100782142Y-67678571D01*
X100710714Y-67750000D01*
X100853571Y-67750000D01*
X99925000Y-67750000D02*
X99996428Y-67821428D01*
X100067857Y-67750000D01*
X99996428Y-67678571D01*
X99925000Y-67750000D01*
X100067857Y-67750000D01*
X100853571Y-69607142D02*
X99353571Y-69607142D01*
X100425000Y-70107142D01*
X99353571Y-70607142D01*
X100853571Y-70607142D01*
X100853571Y-71964285D02*
X100067857Y-71964285D01*
X99925000Y-71892857D01*
X99853571Y-71750000D01*
X99853571Y-71464285D01*
X99925000Y-71321428D01*
X100782142Y-71964285D02*
X100853571Y-71821428D01*
X100853571Y-71464285D01*
X100782142Y-71321428D01*
X100639285Y-71250000D01*
X100496428Y-71250000D01*
X100353571Y-71321428D01*
X100282142Y-71464285D01*
X100282142Y-71821428D01*
X100210714Y-71964285D01*
X99853571Y-72464285D02*
X99853571Y-73035714D01*
X99353571Y-72678571D02*
X100639285Y-72678571D01*
X100782142Y-72750000D01*
X100853571Y-72892857D01*
X100853571Y-73035714D01*
X99853571Y-73321428D02*
X99853571Y-73892857D01*
X99353571Y-73535714D02*
X100639285Y-73535714D01*
X100782142Y-73607142D01*
X100853571Y-73750000D01*
X100853571Y-73892857D01*
X100853571Y-74392857D02*
X99353571Y-74392857D01*
X100853571Y-75035714D02*
X100067857Y-75035714D01*
X99925000Y-74964285D01*
X99853571Y-74821428D01*
X99853571Y-74607142D01*
X99925000Y-74464285D01*
X99996428Y-74392857D01*
X100853571Y-75750000D02*
X99853571Y-75750000D01*
X99353571Y-75750000D02*
X99425000Y-75678571D01*
X99496428Y-75750000D01*
X99425000Y-75821428D01*
X99353571Y-75750000D01*
X99496428Y-75750000D01*
X100853571Y-77107142D02*
X100067857Y-77107142D01*
X99925000Y-77035714D01*
X99853571Y-76892857D01*
X99853571Y-76607142D01*
X99925000Y-76464285D01*
X100782142Y-77107142D02*
X100853571Y-76964285D01*
X100853571Y-76607142D01*
X100782142Y-76464285D01*
X100639285Y-76392857D01*
X100496428Y-76392857D01*
X100353571Y-76464285D01*
X100282142Y-76607142D01*
X100282142Y-76964285D01*
X100210714Y-77107142D01*
X100782142Y-77750000D02*
X100853571Y-77892857D01*
X100853571Y-78178571D01*
X100782142Y-78321428D01*
X100639285Y-78392857D01*
X100567857Y-78392857D01*
X100425000Y-78321428D01*
X100353571Y-78178571D01*
X100353571Y-77964285D01*
X100282142Y-77821428D01*
X100139285Y-77750000D01*
X100067857Y-77750000D01*
X99925000Y-77821428D01*
X99853571Y-77964285D01*
X99853571Y-78178571D01*
X99925000Y-78321428D01*
X100853571Y-80178571D02*
X99353571Y-80178571D01*
X99353571Y-80750000D01*
X99425000Y-80892857D01*
X99496428Y-80964285D01*
X99639285Y-81035714D01*
X99853571Y-81035714D01*
X99996428Y-80964285D01*
X100067857Y-80892857D01*
X100139285Y-80750000D01*
X100139285Y-80178571D01*
X100853571Y-81678571D02*
X99853571Y-81678571D01*
X100139285Y-81678571D02*
X99996428Y-81750000D01*
X99925000Y-81821428D01*
X99853571Y-81964285D01*
X99853571Y-82107142D01*
X100782142Y-83178571D02*
X100853571Y-83035714D01*
X100853571Y-82750000D01*
X100782142Y-82607142D01*
X100639285Y-82535714D01*
X100067857Y-82535714D01*
X99925000Y-82607142D01*
X99853571Y-82750000D01*
X99853571Y-83035714D01*
X99925000Y-83178571D01*
X100067857Y-83250000D01*
X100210714Y-83250000D01*
X100353571Y-82535714D01*
X99853571Y-83750000D02*
X100853571Y-84107142D01*
X99853571Y-84464285D02*
X100853571Y-84107142D01*
X101210714Y-83964285D01*
X101282142Y-83892857D01*
X101353571Y-83750000D01*
X100853571Y-85035714D02*
X99853571Y-85035714D01*
X99996428Y-85035714D02*
X99925000Y-85107142D01*
X99853571Y-85250000D01*
X99853571Y-85464285D01*
X99925000Y-85607142D01*
X100067857Y-85678571D01*
X100853571Y-85678571D01*
X100067857Y-85678571D02*
X99925000Y-85750000D01*
X99853571Y-85892857D01*
X99853571Y-86107142D01*
X99925000Y-86250000D01*
X100067857Y-86321428D01*
X100853571Y-86321428D01*
X100853571Y-87678571D02*
X100067857Y-87678571D01*
X99925000Y-87607142D01*
X99853571Y-87464285D01*
X99853571Y-87178571D01*
X99925000Y-87035714D01*
X100782142Y-87678571D02*
X100853571Y-87535714D01*
X100853571Y-87178571D01*
X100782142Y-87035714D01*
X100639285Y-86964285D01*
X100496428Y-86964285D01*
X100353571Y-87035714D01*
X100282142Y-87178571D01*
X100282142Y-87535714D01*
X100210714Y-87678571D01*
X99853571Y-88392857D02*
X100853571Y-88392857D01*
X99996428Y-88392857D02*
X99925000Y-88464285D01*
X99853571Y-88607142D01*
X99853571Y-88821428D01*
X99925000Y-88964285D01*
X100067857Y-89035714D01*
X100853571Y-89035714D01*
X99853571Y-89750000D02*
X100853571Y-89750000D01*
X99996428Y-89750000D02*
X99925000Y-89821428D01*
X99853571Y-89964285D01*
X99853571Y-90178571D01*
X99925000Y-90321428D01*
X100067857Y-90392857D01*
X100853571Y-90392857D01*
D11*
X108902380Y-63948809D02*
X107902380Y-63948809D01*
X108902380Y-64520238D01*
X107902380Y-64520238D01*
X108902380Y-65139285D02*
X108854761Y-65044047D01*
X108807142Y-64996428D01*
X108711904Y-64948809D01*
X108426190Y-64948809D01*
X108330952Y-64996428D01*
X108283333Y-65044047D01*
X108235714Y-65139285D01*
X108235714Y-65282142D01*
X108283333Y-65377380D01*
X108330952Y-65425000D01*
X108426190Y-65472619D01*
X108711904Y-65472619D01*
X108807142Y-65425000D01*
X108854761Y-65377380D01*
X108902380Y-65282142D01*
X108902380Y-65139285D01*
X108807142Y-65901190D02*
X108854761Y-65948809D01*
X108902380Y-65901190D01*
X108854761Y-65853571D01*
X108807142Y-65901190D01*
X108902380Y-65901190D01*
X108283333Y-65901190D02*
X108330952Y-65948809D01*
X108378571Y-65901190D01*
X108330952Y-65853571D01*
X108283333Y-65901190D01*
X108378571Y-65901190D01*
D12*
G36*
X113625000Y-69975000D02*
G01*
X109225000Y-69975000D01*
X109225000Y-63750000D01*
X113625000Y-63750000D01*
X113625000Y-69975000D01*
G37*
X113625000Y-69975000D02*
X109225000Y-69975000D01*
X109225000Y-63750000D01*
X113625000Y-63750000D01*
X113625000Y-69975000D01*
D10*
X119008885Y-115016671D02*
X119008885Y-113516671D01*
X118508885Y-114588100D01*
X118008885Y-113516671D01*
X118008885Y-115016671D01*
X117294600Y-114445242D02*
X116151742Y-114445242D01*
X114937457Y-114230957D02*
X114723171Y-114302385D01*
X114651742Y-114373814D01*
X114580314Y-114516671D01*
X114580314Y-114730957D01*
X114651742Y-114873814D01*
X114723171Y-114945242D01*
X114866028Y-115016671D01*
X115437457Y-115016671D01*
X115437457Y-113516671D01*
X114937457Y-113516671D01*
X114794600Y-113588100D01*
X114723171Y-113659528D01*
X114651742Y-113802385D01*
X114651742Y-113945242D01*
X114723171Y-114088100D01*
X114794600Y-114159528D01*
X114937457Y-114230957D01*
X115437457Y-114230957D01*
X113294600Y-114016671D02*
X113294600Y-115016671D01*
X113937457Y-114016671D02*
X113937457Y-114802385D01*
X113866028Y-114945242D01*
X113723171Y-115016671D01*
X113508885Y-115016671D01*
X113366028Y-114945242D01*
X113294600Y-114873814D01*
X112651742Y-114945242D02*
X112508885Y-115016671D01*
X112223171Y-115016671D01*
X112080314Y-114945242D01*
X112008885Y-114802385D01*
X112008885Y-114730957D01*
X112080314Y-114588100D01*
X112223171Y-114516671D01*
X112437457Y-114516671D01*
X112580314Y-114445242D01*
X112651742Y-114302385D01*
X112651742Y-114230957D01*
X112580314Y-114088100D01*
X112437457Y-114016671D01*
X112223171Y-114016671D01*
X112080314Y-114088100D01*
X115978571Y-69128571D02*
X115264285Y-68628571D01*
X115978571Y-68271428D02*
X114478571Y-68271428D01*
X114478571Y-68842857D01*
X114550000Y-68985714D01*
X114621428Y-69057142D01*
X114764285Y-69128571D01*
X114978571Y-69128571D01*
X115121428Y-69057142D01*
X115192857Y-68985714D01*
X115264285Y-68842857D01*
X115264285Y-68271428D01*
X115907142Y-70342857D02*
X115978571Y-70200000D01*
X115978571Y-69914285D01*
X115907142Y-69771428D01*
X115764285Y-69700000D01*
X115192857Y-69700000D01*
X115050000Y-69771428D01*
X114978571Y-69914285D01*
X114978571Y-70200000D01*
X115050000Y-70342857D01*
X115192857Y-70414285D01*
X115335714Y-70414285D01*
X115478571Y-69700000D01*
X115978571Y-71057142D02*
X114978571Y-71057142D01*
X115121428Y-71057142D02*
X115050000Y-71128571D01*
X114978571Y-71271428D01*
X114978571Y-71485714D01*
X115050000Y-71628571D01*
X115192857Y-71700000D01*
X115978571Y-71700000D01*
X115192857Y-71700000D02*
X115050000Y-71771428D01*
X114978571Y-71914285D01*
X114978571Y-72128571D01*
X115050000Y-72271428D01*
X115192857Y-72342857D01*
X115978571Y-72342857D01*
X115978571Y-73271428D02*
X115907142Y-73128571D01*
X115835714Y-73057142D01*
X115692857Y-72985714D01*
X115264285Y-72985714D01*
X115121428Y-73057142D01*
X115050000Y-73128571D01*
X114978571Y-73271428D01*
X114978571Y-73485714D01*
X115050000Y-73628571D01*
X115121428Y-73700000D01*
X115264285Y-73771428D01*
X115692857Y-73771428D01*
X115835714Y-73700000D01*
X115907142Y-73628571D01*
X115978571Y-73485714D01*
X115978571Y-73271428D01*
X114978571Y-74271428D02*
X115978571Y-74628571D01*
X114978571Y-74985714D01*
X115907142Y-76128571D02*
X115978571Y-75985714D01*
X115978571Y-75700000D01*
X115907142Y-75557142D01*
X115764285Y-75485714D01*
X115192857Y-75485714D01*
X115050000Y-75557142D01*
X114978571Y-75700000D01*
X114978571Y-75985714D01*
X115050000Y-76128571D01*
X115192857Y-76200000D01*
X115335714Y-76200000D01*
X115478571Y-75485714D01*
X115978571Y-77985714D02*
X114478571Y-77985714D01*
X115978571Y-78842857D01*
X114478571Y-78842857D01*
X115978571Y-79771428D02*
X115907142Y-79628571D01*
X115835714Y-79557142D01*
X115692857Y-79485714D01*
X115264285Y-79485714D01*
X115121428Y-79557142D01*
X115050000Y-79628571D01*
X114978571Y-79771428D01*
X114978571Y-79985714D01*
X115050000Y-80128571D01*
X115121428Y-80200000D01*
X115264285Y-80271428D01*
X115692857Y-80271428D01*
X115835714Y-80200000D01*
X115907142Y-80128571D01*
X115978571Y-79985714D01*
X115978571Y-79771428D01*
X115978571Y-81557142D02*
X114478571Y-81557142D01*
X115907142Y-81557142D02*
X115978571Y-81414285D01*
X115978571Y-81128571D01*
X115907142Y-80985714D01*
X115835714Y-80914285D01*
X115692857Y-80842857D01*
X115264285Y-80842857D01*
X115121428Y-80914285D01*
X115050000Y-80985714D01*
X114978571Y-81128571D01*
X114978571Y-81414285D01*
X115050000Y-81557142D01*
X115907142Y-82842857D02*
X115978571Y-82700000D01*
X115978571Y-82414285D01*
X115907142Y-82271428D01*
X115764285Y-82200000D01*
X115192857Y-82200000D01*
X115050000Y-82271428D01*
X114978571Y-82414285D01*
X114978571Y-82700000D01*
X115050000Y-82842857D01*
X115192857Y-82914285D01*
X115335714Y-82914285D01*
X115478571Y-82200000D01*
X115978571Y-83557142D02*
X114478571Y-83557142D01*
X115550000Y-84057142D01*
X114478571Y-84557142D01*
X115978571Y-84557142D01*
X115835714Y-86128571D02*
X115907142Y-86057142D01*
X115978571Y-85842857D01*
X115978571Y-85700000D01*
X115907142Y-85485714D01*
X115764285Y-85342857D01*
X115621428Y-85271428D01*
X115335714Y-85200000D01*
X115121428Y-85200000D01*
X114835714Y-85271428D01*
X114692857Y-85342857D01*
X114550000Y-85485714D01*
X114478571Y-85700000D01*
X114478571Y-85842857D01*
X114550000Y-86057142D01*
X114621428Y-86128571D01*
X114478571Y-86771428D02*
X115692857Y-86771428D01*
X115835714Y-86842857D01*
X115907142Y-86914285D01*
X115978571Y-87057142D01*
X115978571Y-87342857D01*
X115907142Y-87485714D01*
X115835714Y-87557142D01*
X115692857Y-87628571D01*
X114478571Y-87628571D01*
X117528571Y-67092857D02*
X118528571Y-67378571D01*
X117814285Y-67664285D01*
X118528571Y-67950000D01*
X117528571Y-68235714D01*
X118528571Y-68807142D02*
X117028571Y-68807142D01*
X118528571Y-69450000D02*
X117742857Y-69450000D01*
X117600000Y-69378571D01*
X117528571Y-69235714D01*
X117528571Y-69021428D01*
X117600000Y-68878571D01*
X117671428Y-68807142D01*
X118457142Y-70735714D02*
X118528571Y-70592857D01*
X118528571Y-70307142D01*
X118457142Y-70164285D01*
X118314285Y-70092857D01*
X117742857Y-70092857D01*
X117600000Y-70164285D01*
X117528571Y-70307142D01*
X117528571Y-70592857D01*
X117600000Y-70735714D01*
X117742857Y-70807142D01*
X117885714Y-70807142D01*
X118028571Y-70092857D01*
X117528571Y-71450000D02*
X118528571Y-71450000D01*
X117671428Y-71450000D02*
X117600000Y-71521428D01*
X117528571Y-71664285D01*
X117528571Y-71878571D01*
X117600000Y-72021428D01*
X117742857Y-72092857D01*
X118528571Y-72092857D01*
X117528571Y-73950000D02*
X119028571Y-73950000D01*
X117600000Y-73950000D02*
X117528571Y-74092857D01*
X117528571Y-74378571D01*
X117600000Y-74521428D01*
X117671428Y-74592857D01*
X117814285Y-74664285D01*
X118242857Y-74664285D01*
X118385714Y-74592857D01*
X118457142Y-74521428D01*
X118528571Y-74378571D01*
X118528571Y-74092857D01*
X118457142Y-73950000D01*
X118528571Y-75307142D02*
X117528571Y-75307142D01*
X117814285Y-75307142D02*
X117671428Y-75378571D01*
X117600000Y-75450000D01*
X117528571Y-75592857D01*
X117528571Y-75735714D01*
X118528571Y-76450000D02*
X118457142Y-76307142D01*
X118385714Y-76235714D01*
X118242857Y-76164285D01*
X117814285Y-76164285D01*
X117671428Y-76235714D01*
X117600000Y-76307142D01*
X117528571Y-76450000D01*
X117528571Y-76664285D01*
X117600000Y-76807142D01*
X117671428Y-76878571D01*
X117814285Y-76950000D01*
X118242857Y-76950000D01*
X118385714Y-76878571D01*
X118457142Y-76807142D01*
X118528571Y-76664285D01*
X118528571Y-76450000D01*
X117528571Y-78235714D02*
X118742857Y-78235714D01*
X118885714Y-78164285D01*
X118957142Y-78092857D01*
X119028571Y-77950000D01*
X119028571Y-77735714D01*
X118957142Y-77592857D01*
X118457142Y-78235714D02*
X118528571Y-78092857D01*
X118528571Y-77807142D01*
X118457142Y-77664285D01*
X118385714Y-77592857D01*
X118242857Y-77521428D01*
X117814285Y-77521428D01*
X117671428Y-77592857D01*
X117600000Y-77664285D01*
X117528571Y-77807142D01*
X117528571Y-78092857D01*
X117600000Y-78235714D01*
X118528571Y-78950000D02*
X117528571Y-78950000D01*
X117814285Y-78950000D02*
X117671428Y-79021428D01*
X117600000Y-79092857D01*
X117528571Y-79235714D01*
X117528571Y-79378571D01*
X118528571Y-80521428D02*
X117742857Y-80521428D01*
X117600000Y-80450000D01*
X117528571Y-80307142D01*
X117528571Y-80021428D01*
X117600000Y-79878571D01*
X118457142Y-80521428D02*
X118528571Y-80378571D01*
X118528571Y-80021428D01*
X118457142Y-79878571D01*
X118314285Y-79807142D01*
X118171428Y-79807142D01*
X118028571Y-79878571D01*
X117957142Y-80021428D01*
X117957142Y-80378571D01*
X117885714Y-80521428D01*
X118528571Y-81235714D02*
X117528571Y-81235714D01*
X117671428Y-81235714D02*
X117600000Y-81307142D01*
X117528571Y-81450000D01*
X117528571Y-81664285D01*
X117600000Y-81807142D01*
X117742857Y-81878571D01*
X118528571Y-81878571D01*
X117742857Y-81878571D02*
X117600000Y-81950000D01*
X117528571Y-82092857D01*
X117528571Y-82307142D01*
X117600000Y-82450000D01*
X117742857Y-82521428D01*
X118528571Y-82521428D01*
X118528571Y-83235714D02*
X117528571Y-83235714D01*
X117671428Y-83235714D02*
X117600000Y-83307142D01*
X117528571Y-83450000D01*
X117528571Y-83664285D01*
X117600000Y-83807142D01*
X117742857Y-83878571D01*
X118528571Y-83878571D01*
X117742857Y-83878571D02*
X117600000Y-83950000D01*
X117528571Y-84092857D01*
X117528571Y-84307142D01*
X117600000Y-84450000D01*
X117742857Y-84521428D01*
X118528571Y-84521428D01*
X118528571Y-85235714D02*
X117528571Y-85235714D01*
X117028571Y-85235714D02*
X117100000Y-85164285D01*
X117171428Y-85235714D01*
X117100000Y-85307142D01*
X117028571Y-85235714D01*
X117171428Y-85235714D01*
X117528571Y-85950000D02*
X118528571Y-85950000D01*
X117671428Y-85950000D02*
X117600000Y-86021428D01*
X117528571Y-86164285D01*
X117528571Y-86378571D01*
X117600000Y-86521428D01*
X117742857Y-86592857D01*
X118528571Y-86592857D01*
X117528571Y-87950000D02*
X118742857Y-87950000D01*
X118885714Y-87878571D01*
X118957142Y-87807142D01*
X119028571Y-87664285D01*
X119028571Y-87450000D01*
X118957142Y-87307142D01*
X118457142Y-87950000D02*
X118528571Y-87807142D01*
X118528571Y-87521428D01*
X118457142Y-87378571D01*
X118385714Y-87307142D01*
X118242857Y-87235714D01*
X117814285Y-87235714D01*
X117671428Y-87307142D01*
X117600000Y-87378571D01*
X117528571Y-87521428D01*
X117528571Y-87807142D01*
X117600000Y-87950000D01*
X118385714Y-88664285D02*
X118457142Y-88735714D01*
X118528571Y-88664285D01*
X118457142Y-88592857D01*
X118385714Y-88664285D01*
X118528571Y-88664285D01*
X117957142Y-88664285D02*
X117100000Y-88592857D01*
X117028571Y-88664285D01*
X117100000Y-88735714D01*
X117957142Y-88664285D01*
X117028571Y-88664285D01*
X100210714Y-62282142D02*
X100710714Y-62282142D01*
X100925000Y-61496428D02*
X100210714Y-61496428D01*
X100210714Y-62996428D01*
X100925000Y-62996428D01*
X101353571Y-62996428D02*
X101853571Y-61496428D01*
X102353571Y-62996428D01*
X102853571Y-61496428D02*
X102853571Y-62996428D01*
X103710714Y-61496428D01*
X103710714Y-62996428D01*
X105567857Y-61496428D02*
X105567857Y-62996428D01*
X106282142Y-62496428D02*
X106282142Y-61496428D01*
X106282142Y-62353571D02*
X106353571Y-62425000D01*
X106496428Y-62496428D01*
X106710714Y-62496428D01*
X106853571Y-62425000D01*
X106925000Y-62282142D01*
X106925000Y-61496428D01*
X107425000Y-62496428D02*
X107996428Y-62496428D01*
X107639285Y-62996428D02*
X107639285Y-61710714D01*
X107710714Y-61567857D01*
X107853571Y-61496428D01*
X107996428Y-61496428D01*
X109067857Y-61567857D02*
X108925000Y-61496428D01*
X108639285Y-61496428D01*
X108496428Y-61567857D01*
X108425000Y-61710714D01*
X108425000Y-62282142D01*
X108496428Y-62425000D01*
X108639285Y-62496428D01*
X108925000Y-62496428D01*
X109067857Y-62425000D01*
X109139285Y-62282142D01*
X109139285Y-62139285D01*
X108425000Y-61996428D01*
X109782142Y-61496428D02*
X109782142Y-62496428D01*
X109782142Y-62210714D02*
X109853571Y-62353571D01*
X109925000Y-62425000D01*
X110067857Y-62496428D01*
X110210714Y-62496428D01*
X110496428Y-62496428D02*
X111067857Y-62496428D01*
X110710714Y-61496428D02*
X110710714Y-62782142D01*
X110782142Y-62925000D01*
X110925000Y-62996428D01*
X111067857Y-62996428D01*
X112210714Y-61496428D02*
X112210714Y-62282142D01*
X112139285Y-62425000D01*
X111996428Y-62496428D01*
X111710714Y-62496428D01*
X111567857Y-62425000D01*
X112210714Y-61567857D02*
X112067857Y-61496428D01*
X111710714Y-61496428D01*
X111567857Y-61567857D01*
X111496428Y-61710714D01*
X111496428Y-61853571D01*
X111567857Y-61996428D01*
X111710714Y-62067857D01*
X112067857Y-62067857D01*
X112210714Y-62139285D01*
X113567857Y-61567857D02*
X113425000Y-61496428D01*
X113139285Y-61496428D01*
X112996428Y-61567857D01*
X112925000Y-61639285D01*
X112853571Y-61782142D01*
X112853571Y-62210714D01*
X112925000Y-62353571D01*
X112996428Y-62425000D01*
X113139285Y-62496428D01*
X113425000Y-62496428D01*
X113567857Y-62425000D01*
X114782142Y-61567857D02*
X114639285Y-61496428D01*
X114353571Y-61496428D01*
X114210714Y-61567857D01*
X114139285Y-61710714D01*
X114139285Y-62282142D01*
X114210714Y-62425000D01*
X114353571Y-62496428D01*
X114639285Y-62496428D01*
X114782142Y-62425000D01*
X114853571Y-62282142D01*
X114853571Y-62139285D01*
X114139285Y-61996428D01*
X116425000Y-62996428D02*
X116925000Y-61496428D01*
X117425000Y-62996428D01*
X117853571Y-62853571D02*
X117925000Y-62925000D01*
X118067857Y-62996428D01*
X118425000Y-62996428D01*
X118567857Y-62925000D01*
X118639285Y-62853571D01*
X118710714Y-62710714D01*
X118710714Y-62567857D01*
X118639285Y-62353571D01*
X117782142Y-61496428D01*
X118710714Y-61496428D01*
X102389285Y-60446428D02*
X103246428Y-60446428D01*
X102817857Y-58946428D02*
X102817857Y-60446428D01*
X103960714Y-58946428D02*
X103817857Y-59017857D01*
X103746428Y-59089285D01*
X103675000Y-59232142D01*
X103675000Y-59660714D01*
X103746428Y-59803571D01*
X103817857Y-59875000D01*
X103960714Y-59946428D01*
X104175000Y-59946428D01*
X104317857Y-59875000D01*
X104389285Y-59803571D01*
X104460714Y-59660714D01*
X104460714Y-59232142D01*
X104389285Y-59089285D01*
X104317857Y-59017857D01*
X104175000Y-58946428D01*
X103960714Y-58946428D01*
X105103571Y-58946428D02*
X105103571Y-60446428D01*
X105103571Y-59875000D02*
X105246428Y-59946428D01*
X105532142Y-59946428D01*
X105675000Y-59875000D01*
X105746428Y-59803571D01*
X105817857Y-59660714D01*
X105817857Y-59232142D01*
X105746428Y-59089285D01*
X105675000Y-59017857D01*
X105532142Y-58946428D01*
X105246428Y-58946428D01*
X105103571Y-59017857D01*
X106460714Y-58946428D02*
X106460714Y-59946428D01*
X106460714Y-60446428D02*
X106389285Y-60375000D01*
X106460714Y-60303571D01*
X106532142Y-60375000D01*
X106460714Y-60446428D01*
X106460714Y-60303571D01*
X107817857Y-58946428D02*
X107817857Y-59732142D01*
X107746428Y-59875000D01*
X107603571Y-59946428D01*
X107317857Y-59946428D01*
X107175000Y-59875000D01*
X107817857Y-59017857D02*
X107675000Y-58946428D01*
X107317857Y-58946428D01*
X107175000Y-59017857D01*
X107103571Y-59160714D01*
X107103571Y-59303571D01*
X107175000Y-59446428D01*
X107317857Y-59517857D01*
X107675000Y-59517857D01*
X107817857Y-59589285D01*
X108460714Y-59017857D02*
X108603571Y-58946428D01*
X108889285Y-58946428D01*
X109032142Y-59017857D01*
X109103571Y-59160714D01*
X109103571Y-59232142D01*
X109032142Y-59375000D01*
X108889285Y-59446428D01*
X108675000Y-59446428D01*
X108532142Y-59517857D01*
X108460714Y-59660714D01*
X108460714Y-59732142D01*
X108532142Y-59875000D01*
X108675000Y-59946428D01*
X108889285Y-59946428D01*
X109032142Y-59875000D01*
X110889285Y-59732142D02*
X111389285Y-59732142D01*
X111603571Y-58946428D02*
X110889285Y-58946428D01*
X110889285Y-60446428D01*
X111603571Y-60446428D01*
X112889285Y-59017857D02*
X112746428Y-58946428D01*
X112460714Y-58946428D01*
X112317857Y-59017857D01*
X112246428Y-59089285D01*
X112175000Y-59232142D01*
X112175000Y-59660714D01*
X112246428Y-59803571D01*
X112317857Y-59875000D01*
X112460714Y-59946428D01*
X112746428Y-59946428D01*
X112889285Y-59875000D01*
X113532142Y-58946428D02*
X113532142Y-60446428D01*
X113675000Y-59517857D02*
X114103571Y-58946428D01*
X114103571Y-59946428D02*
X113532142Y-59375000D01*
X115317857Y-59017857D02*
X115175000Y-58946428D01*
X114889285Y-58946428D01*
X114746428Y-59017857D01*
X114675000Y-59160714D01*
X114675000Y-59732142D01*
X114746428Y-59875000D01*
X114889285Y-59946428D01*
X115175000Y-59946428D01*
X115317857Y-59875000D01*
X115389285Y-59732142D01*
X115389285Y-59589285D01*
X114675000Y-59446428D01*
X116032142Y-58946428D02*
X116032142Y-59946428D01*
X116032142Y-59660714D02*
X116103571Y-59803571D01*
X116175000Y-59875000D01*
X116317857Y-59946428D01*
X116460714Y-59946428D01*
X105353571Y-56396428D02*
X104496428Y-56396428D01*
X104925000Y-56396428D02*
X104925000Y-57896428D01*
X104782142Y-57682142D01*
X104639285Y-57539285D01*
X104496428Y-57467857D01*
X106782142Y-56396428D02*
X105925000Y-56396428D01*
X106353571Y-56396428D02*
X106353571Y-57896428D01*
X106210714Y-57682142D01*
X106067857Y-57539285D01*
X105925000Y-57467857D01*
X107425000Y-56967857D02*
X108567857Y-56967857D01*
X109210714Y-57753571D02*
X109282142Y-57825000D01*
X109425000Y-57896428D01*
X109782142Y-57896428D01*
X109925000Y-57825000D01*
X109996428Y-57753571D01*
X110067857Y-57610714D01*
X110067857Y-57467857D01*
X109996428Y-57253571D01*
X109139285Y-56396428D01*
X110067857Y-56396428D01*
X110996428Y-57896428D02*
X111139285Y-57896428D01*
X111282142Y-57825000D01*
X111353571Y-57753571D01*
X111425000Y-57610714D01*
X111496428Y-57325000D01*
X111496428Y-56967857D01*
X111425000Y-56682142D01*
X111353571Y-56539285D01*
X111282142Y-56467857D01*
X111139285Y-56396428D01*
X110996428Y-56396428D01*
X110853571Y-56467857D01*
X110782142Y-56539285D01*
X110710714Y-56682142D01*
X110639285Y-56967857D01*
X110639285Y-57325000D01*
X110710714Y-57610714D01*
X110782142Y-57753571D01*
X110853571Y-57825000D01*
X110996428Y-57896428D01*
X112067857Y-57753571D02*
X112139285Y-57825000D01*
X112282142Y-57896428D01*
X112639285Y-57896428D01*
X112782142Y-57825000D01*
X112853571Y-57753571D01*
X112925000Y-57610714D01*
X112925000Y-57467857D01*
X112853571Y-57253571D01*
X111996428Y-56396428D01*
X112925000Y-56396428D01*
X113496428Y-57753571D02*
X113567857Y-57825000D01*
X113710714Y-57896428D01*
X114067857Y-57896428D01*
X114210714Y-57825000D01*
X114282142Y-57753571D01*
X114353571Y-57610714D01*
X114353571Y-57467857D01*
X114282142Y-57253571D01*
X113425000Y-56396428D01*
X114353571Y-56396428D01*
D13*
X102816054Y-104225700D02*
X102816054Y-103225700D01*
X102316054Y-103725700D02*
X103316054Y-103725700D01*
X112876700Y-101449700D02*
X112876700Y-100251700D01*
X112836700Y-101712700D02*
X112836700Y-99988700D01*
X112796700Y-101912700D02*
X112796700Y-99788700D01*
X112756700Y-102080700D02*
X112756700Y-99620700D01*
X112716700Y-102228700D02*
X112716700Y-99472700D01*
X112676700Y-102360700D02*
X112676700Y-99340700D01*
X112636700Y-102480700D02*
X112636700Y-99220700D01*
X112596700Y-102592700D02*
X112596700Y-99108700D01*
X112556700Y-102696700D02*
X112556700Y-99004700D01*
X112516700Y-102794700D02*
X112516700Y-98906700D01*
X112476700Y-102887700D02*
X112476700Y-98813700D01*
X112436700Y-102975700D02*
X112436700Y-98725700D01*
X112396700Y-103059700D02*
X112396700Y-98641700D01*
X112356700Y-103139700D02*
X112356700Y-98561700D01*
X112316700Y-103215700D02*
X112316700Y-98485700D01*
X112276700Y-103289700D02*
X112276700Y-98411700D01*
X112236700Y-103360700D02*
X112236700Y-98340700D01*
X112196700Y-103429700D02*
X112196700Y-98271700D01*
X112156700Y-103495700D02*
X112156700Y-98205700D01*
X112116700Y-103559700D02*
X112116700Y-98141700D01*
X112076700Y-103620700D02*
X112076700Y-98080700D01*
X112036700Y-103680700D02*
X112036700Y-98020700D01*
X111996700Y-103739700D02*
X111996700Y-97961700D01*
X111956700Y-103795700D02*
X111956700Y-97905700D01*
X111916700Y-103850700D02*
X111916700Y-97850700D01*
X111876700Y-103904700D02*
X111876700Y-97796700D01*
X111836700Y-103956700D02*
X111836700Y-97744700D01*
X111796700Y-104006700D02*
X111796700Y-97694700D01*
X111756700Y-104056700D02*
X111756700Y-97644700D01*
X111716700Y-104104700D02*
X111716700Y-97596700D01*
X111676700Y-104151700D02*
X111676700Y-97549700D01*
X111636700Y-104197700D02*
X111636700Y-97503700D01*
X111596700Y-104242700D02*
X111596700Y-97458700D01*
X111556700Y-104286700D02*
X111556700Y-97414700D01*
X111516700Y-99609700D02*
X111516700Y-97372700D01*
X111516700Y-104328700D02*
X111516700Y-102091700D01*
X111476700Y-99609700D02*
X111476700Y-97330700D01*
X111476700Y-104370700D02*
X111476700Y-102091700D01*
X111436700Y-99609700D02*
X111436700Y-97289700D01*
X111436700Y-104411700D02*
X111436700Y-102091700D01*
X111396700Y-99609700D02*
X111396700Y-97249700D01*
X111396700Y-104451700D02*
X111396700Y-102091700D01*
X111356700Y-99609700D02*
X111356700Y-97210700D01*
X111356700Y-104490700D02*
X111356700Y-102091700D01*
X111316700Y-99609700D02*
X111316700Y-97171700D01*
X111316700Y-104529700D02*
X111316700Y-102091700D01*
X111276700Y-99609700D02*
X111276700Y-97134700D01*
X111276700Y-104566700D02*
X111276700Y-102091700D01*
X111236700Y-99609700D02*
X111236700Y-97097700D01*
X111236700Y-104603700D02*
X111236700Y-102091700D01*
X111196700Y-99609700D02*
X111196700Y-97061700D01*
X111196700Y-104639700D02*
X111196700Y-102091700D01*
X111156700Y-99609700D02*
X111156700Y-97026700D01*
X111156700Y-104674700D02*
X111156700Y-102091700D01*
X111116700Y-99609700D02*
X111116700Y-96992700D01*
X111116700Y-104708700D02*
X111116700Y-102091700D01*
X111076700Y-99609700D02*
X111076700Y-96958700D01*
X111076700Y-104742700D02*
X111076700Y-102091700D01*
X111036700Y-99609700D02*
X111036700Y-96925700D01*
X111036700Y-104775700D02*
X111036700Y-102091700D01*
X110996700Y-99609700D02*
X110996700Y-96893700D01*
X110996700Y-104807700D02*
X110996700Y-102091700D01*
X110956700Y-99609700D02*
X110956700Y-96861700D01*
X110956700Y-104839700D02*
X110956700Y-102091700D01*
X110916700Y-99609700D02*
X110916700Y-96830700D01*
X110916700Y-104870700D02*
X110916700Y-102091700D01*
X110876700Y-99609700D02*
X110876700Y-96800700D01*
X110876700Y-104900700D02*
X110876700Y-102091700D01*
X110836700Y-99609700D02*
X110836700Y-96770700D01*
X110836700Y-104930700D02*
X110836700Y-102091700D01*
X110796700Y-99609700D02*
X110796700Y-96740700D01*
X110796700Y-104960700D02*
X110796700Y-102091700D01*
X110756700Y-99609700D02*
X110756700Y-96712700D01*
X110756700Y-104988700D02*
X110756700Y-102091700D01*
X110716700Y-99609700D02*
X110716700Y-96684700D01*
X110716700Y-105016700D02*
X110716700Y-102091700D01*
X110676700Y-99609700D02*
X110676700Y-96656700D01*
X110676700Y-105044700D02*
X110676700Y-102091700D01*
X110636700Y-99609700D02*
X110636700Y-96629700D01*
X110636700Y-105071700D02*
X110636700Y-102091700D01*
X110596700Y-99609700D02*
X110596700Y-96603700D01*
X110596700Y-105097700D02*
X110596700Y-102091700D01*
X110556700Y-99609700D02*
X110556700Y-96577700D01*
X110556700Y-105123700D02*
X110556700Y-102091700D01*
X110516700Y-99609700D02*
X110516700Y-96552700D01*
X110516700Y-105148700D02*
X110516700Y-102091700D01*
X110476700Y-99609700D02*
X110476700Y-96527700D01*
X110476700Y-105173700D02*
X110476700Y-102091700D01*
X110436700Y-99609700D02*
X110436700Y-96503700D01*
X110436700Y-105197700D02*
X110436700Y-102091700D01*
X110396700Y-99609700D02*
X110396700Y-96479700D01*
X110396700Y-105221700D02*
X110396700Y-102091700D01*
X110356700Y-99609700D02*
X110356700Y-96455700D01*
X110356700Y-105245700D02*
X110356700Y-102091700D01*
X110316700Y-99609700D02*
X110316700Y-96433700D01*
X110316700Y-105267700D02*
X110316700Y-102091700D01*
X110276700Y-99609700D02*
X110276700Y-96410700D01*
X110276700Y-105290700D02*
X110276700Y-102091700D01*
X110236700Y-99609700D02*
X110236700Y-96388700D01*
X110236700Y-105312700D02*
X110236700Y-102091700D01*
X110196700Y-99609700D02*
X110196700Y-96367700D01*
X110196700Y-105333700D02*
X110196700Y-102091700D01*
X110156700Y-99609700D02*
X110156700Y-96346700D01*
X110156700Y-105354700D02*
X110156700Y-102091700D01*
X110116700Y-99609700D02*
X110116700Y-96325700D01*
X110116700Y-105375700D02*
X110116700Y-102091700D01*
X110076700Y-99609700D02*
X110076700Y-96305700D01*
X110076700Y-105395700D02*
X110076700Y-102091700D01*
X110036700Y-99609700D02*
X110036700Y-96286700D01*
X110036700Y-105414700D02*
X110036700Y-102091700D01*
X109996700Y-99609700D02*
X109996700Y-96266700D01*
X109996700Y-105434700D02*
X109996700Y-102091700D01*
X109956700Y-99609700D02*
X109956700Y-96247700D01*
X109956700Y-105453700D02*
X109956700Y-102091700D01*
X109916700Y-99609700D02*
X109916700Y-96229700D01*
X109916700Y-105471700D02*
X109916700Y-102091700D01*
X109876700Y-99609700D02*
X109876700Y-96211700D01*
X109876700Y-105489700D02*
X109876700Y-102091700D01*
X109836700Y-99609700D02*
X109836700Y-96193700D01*
X109836700Y-105507700D02*
X109836700Y-102091700D01*
X109796700Y-99609700D02*
X109796700Y-96176700D01*
X109796700Y-105524700D02*
X109796700Y-102091700D01*
X109756700Y-99609700D02*
X109756700Y-96160700D01*
X109756700Y-105540700D02*
X109756700Y-102091700D01*
X109716700Y-99609700D02*
X109716700Y-96143700D01*
X109716700Y-105557700D02*
X109716700Y-102091700D01*
X109676700Y-99609700D02*
X109676700Y-96127700D01*
X109676700Y-105573700D02*
X109676700Y-102091700D01*
X109636700Y-99609700D02*
X109636700Y-96112700D01*
X109636700Y-105588700D02*
X109636700Y-102091700D01*
X109596700Y-99609700D02*
X109596700Y-96096700D01*
X109596700Y-105604700D02*
X109596700Y-102091700D01*
X109556700Y-99609700D02*
X109556700Y-96082700D01*
X109556700Y-105618700D02*
X109556700Y-102091700D01*
X109516700Y-99609700D02*
X109516700Y-96067700D01*
X109516700Y-105633700D02*
X109516700Y-102091700D01*
X109476700Y-99609700D02*
X109476700Y-96053700D01*
X109476700Y-105647700D02*
X109476700Y-102091700D01*
X109436700Y-99609700D02*
X109436700Y-96039700D01*
X109436700Y-105661700D02*
X109436700Y-102091700D01*
X109396700Y-99609700D02*
X109396700Y-96026700D01*
X109396700Y-105674700D02*
X109396700Y-102091700D01*
X109356700Y-99609700D02*
X109356700Y-96013700D01*
X109356700Y-105687700D02*
X109356700Y-102091700D01*
X109316700Y-99609700D02*
X109316700Y-96000700D01*
X109316700Y-105700700D02*
X109316700Y-102091700D01*
X109276700Y-99609700D02*
X109276700Y-95988700D01*
X109276700Y-105712700D02*
X109276700Y-102091700D01*
X109236700Y-99609700D02*
X109236700Y-95976700D01*
X109236700Y-105724700D02*
X109236700Y-102091700D01*
X109196700Y-99609700D02*
X109196700Y-95965700D01*
X109196700Y-105735700D02*
X109196700Y-102091700D01*
X109156700Y-99609700D02*
X109156700Y-95953700D01*
X109156700Y-105747700D02*
X109156700Y-102091700D01*
X109116700Y-99609700D02*
X109116700Y-95943700D01*
X109116700Y-105757700D02*
X109116700Y-102091700D01*
X109076700Y-99609700D02*
X109076700Y-95932700D01*
X109076700Y-105768700D02*
X109076700Y-102091700D01*
X109036700Y-105778700D02*
X109036700Y-95922700D01*
X108996700Y-105788700D02*
X108996700Y-95912700D01*
X108956700Y-105797700D02*
X108956700Y-95903700D01*
X108916700Y-105806700D02*
X108916700Y-95894700D01*
X108876700Y-105815700D02*
X108876700Y-95885700D01*
X108836700Y-105824700D02*
X108836700Y-95876700D01*
X108796700Y-105832700D02*
X108796700Y-95868700D01*
X108756700Y-105840700D02*
X108756700Y-95860700D01*
X108716700Y-105847700D02*
X108716700Y-95853700D01*
X108676700Y-105854700D02*
X108676700Y-95846700D01*
X108636700Y-105861700D02*
X108636700Y-95839700D01*
X108596700Y-105868700D02*
X108596700Y-95832700D01*
X108556700Y-105874700D02*
X108556700Y-95826700D01*
X108516700Y-105880700D02*
X108516700Y-95820700D01*
X108475700Y-105885700D02*
X108475700Y-95815700D01*
X108435700Y-105890700D02*
X108435700Y-95810700D01*
X108395700Y-105895700D02*
X108395700Y-95805700D01*
X108355700Y-105900700D02*
X108355700Y-95800700D01*
X108315700Y-105904700D02*
X108315700Y-95796700D01*
X108275700Y-105908700D02*
X108275700Y-95792700D01*
X108235700Y-105912700D02*
X108235700Y-95788700D01*
X108195700Y-105915700D02*
X108195700Y-95785700D01*
X108155700Y-105918700D02*
X108155700Y-95782700D01*
X108115700Y-105920700D02*
X108115700Y-95780700D01*
X108075700Y-105923700D02*
X108075700Y-95777700D01*
X108035700Y-105925700D02*
X108035700Y-95775700D01*
X107995700Y-105927700D02*
X107995700Y-95773700D01*
X107955700Y-105928700D02*
X107955700Y-95772700D01*
X107915700Y-105929700D02*
X107915700Y-95771700D01*
X107875700Y-105930700D02*
X107875700Y-95770700D01*
X107835700Y-105930700D02*
X107835700Y-95770700D01*
X107795700Y-105930700D02*
X107795700Y-95770700D01*
X112915700Y-100850700D02*
G75*
G03X112915700Y-100850700I-5120000J0D01*
G01*
D11*
X107962366Y-107457842D02*
X108009985Y-107505461D01*
X108152842Y-107553080D01*
X108248080Y-107553080D01*
X108390938Y-107505461D01*
X108486176Y-107410223D01*
X108533795Y-107314985D01*
X108581414Y-107124509D01*
X108581414Y-106981652D01*
X108533795Y-106791176D01*
X108486176Y-106695938D01*
X108390938Y-106600700D01*
X108248080Y-106553080D01*
X108152842Y-106553080D01*
X108009985Y-106600700D01*
X107962366Y-106648319D01*
X107629033Y-106553080D02*
X106962366Y-106553080D01*
X107390938Y-107553080D01*
M02*
