G04 #@! TF.GenerationSoftware,KiCad,Pcbnew,5.1.5+dfsg1-2build2*
G04 #@! TF.CreationDate,2022-12-06T01:13:10+01:00*
G04 #@! TF.ProjectId,MBus_to_radio,4d427573-5f74-46f5-9f72-6164696f2e6b,rev?*
G04 #@! TF.SameCoordinates,Original*
G04 #@! TF.FileFunction,Copper,L2,Bot*
G04 #@! TF.FilePolarity,Positive*
%FSLAX46Y46*%
G04 Gerber Fmt 4.6, Leading zero omitted, Abs format (unit mm)*
G04 Created by KiCad (PCBNEW 5.1.5+dfsg1-2build2) date 2022-12-06 01:13:10*
%MOMM*%
%LPD*%
G04 APERTURE LIST*
%ADD10O,1.700000X1.700000*%
%ADD11R,1.700000X1.700000*%
%ADD12C,2.000000*%
%ADD13R,2.000000X2.000000*%
%ADD14C,2.100000*%
%ADD15R,2.100000X2.100000*%
%ADD16C,1.930000*%
%ADD17R,1.930000X1.930000*%
%ADD18C,0.800000*%
%ADD19C,1.000000*%
%ADD20C,0.254000*%
G04 APERTURE END LIST*
D10*
X117050000Y-91735000D03*
X117050000Y-94275000D03*
D11*
X117050000Y-96815000D03*
D12*
X110295700Y-100850700D03*
D13*
X105295700Y-100850700D03*
D14*
X118030000Y-111760000D03*
D15*
X113030000Y-111760000D03*
D12*
X105330000Y-110490000D03*
D13*
X100330000Y-110490000D03*
D16*
X120650000Y-97790000D03*
X120650000Y-95250000D03*
X120650000Y-92710000D03*
X120650000Y-90170000D03*
X120650000Y-87630000D03*
X120650000Y-85090000D03*
X120650000Y-82550000D03*
X120650000Y-80010000D03*
X120650000Y-77470000D03*
X120650000Y-74930000D03*
X120650000Y-72390000D03*
X120650000Y-69850000D03*
X120650000Y-67310000D03*
X120650000Y-64770000D03*
D17*
X120650000Y-62230000D03*
D16*
X97790000Y-97790000D03*
X97790000Y-95250000D03*
X97790000Y-92710000D03*
X97790000Y-90170000D03*
X97790000Y-87630000D03*
X97790000Y-85090000D03*
X97790000Y-82550000D03*
X97790000Y-80010000D03*
X97790000Y-77470000D03*
X97790000Y-74930000D03*
X97790000Y-72390000D03*
X97790000Y-69850000D03*
X97790000Y-67310000D03*
X97790000Y-64770000D03*
D17*
X97790000Y-62230000D03*
D18*
X106975000Y-71950000D03*
X101968300Y-101625400D03*
X119150000Y-105475000D03*
X106600000Y-73575000D03*
X111226600Y-97891600D03*
X111506000Y-92735400D03*
X111188500Y-96494600D03*
X102489000Y-99898200D03*
X102857300Y-92748100D03*
X101257100Y-92837000D03*
X110566200Y-88074500D03*
X111569500Y-89789000D03*
X112179100Y-79070200D03*
X116400000Y-82275000D03*
X116325000Y-80025000D03*
X116675000Y-78000000D03*
X118550000Y-77975000D03*
X100291900Y-62000000D03*
X103492300Y-62000000D03*
X106641900Y-62000000D03*
X109461300Y-62000000D03*
X112382300Y-62000000D03*
X115379500Y-62000000D03*
X118059200Y-62000000D03*
X108600000Y-82000000D03*
X106875000Y-80475000D03*
X116425000Y-86525000D03*
X117650000Y-88250000D03*
X105400000Y-78750000D03*
X109950000Y-83800000D03*
X109875000Y-85825000D03*
X116275000Y-84250000D03*
X107975000Y-77200000D03*
X106600000Y-75625000D03*
X117600000Y-99025000D03*
X109900000Y-78600000D03*
X110045500Y-73837800D03*
X111275000Y-72150000D03*
X114500000Y-71275000D03*
X118922800Y-73863200D03*
X116700000Y-71400000D03*
X101650800Y-89293700D03*
X101549200Y-87477600D03*
X105918000Y-85509100D03*
X107975000Y-85350000D03*
X103276400Y-85217000D03*
X101688900Y-91325700D03*
X105600500Y-94945200D03*
X107700000Y-105950000D03*
X105740200Y-103606600D03*
X109800000Y-76125000D03*
X108250000Y-71050000D03*
X109600000Y-70325000D03*
X117750000Y-68550000D03*
X114050000Y-67675000D03*
X114275000Y-63950000D03*
X117850000Y-63125000D03*
X115950000Y-68125000D03*
X115975000Y-63550000D03*
X104375000Y-77575000D03*
X103875000Y-75250000D03*
X103850000Y-73075000D03*
X110825000Y-106175000D03*
X118975000Y-91425000D03*
X107137500Y-65837500D03*
X114850000Y-103250000D03*
X105125000Y-71725000D03*
X113100000Y-101625000D03*
D19*
X117050000Y-94275000D02*
X114850000Y-94275000D01*
X114850000Y-103250000D02*
X114850000Y-94275000D01*
X114850000Y-73550000D02*
X107137500Y-65837500D01*
X114850000Y-94275000D02*
X114850000Y-73550000D01*
X113098399Y-96776497D02*
X113098399Y-88951601D01*
X113100000Y-96778098D02*
X113098399Y-96776497D01*
X113098399Y-88951601D02*
X113100000Y-88950000D01*
X113100000Y-88950000D02*
X113100000Y-84375000D01*
X113100000Y-84375000D02*
X105125000Y-76400000D01*
X105125000Y-76400000D02*
X105125000Y-71725000D01*
X105125000Y-71725000D02*
X105125000Y-71725000D01*
X113100000Y-96778098D02*
X113100000Y-101625000D01*
D20*
G36*
X119046928Y-63195000D02*
G01*
X119059188Y-63319482D01*
X119095498Y-63439180D01*
X119154463Y-63549494D01*
X119233815Y-63646185D01*
X119330506Y-63725537D01*
X119399089Y-63762196D01*
X119232098Y-64012116D01*
X119111487Y-64303297D01*
X119050000Y-64612414D01*
X119050000Y-64927586D01*
X119111487Y-65236703D01*
X119232098Y-65527884D01*
X119407199Y-65789941D01*
X119630059Y-66012801D01*
X119670765Y-66040000D01*
X119630059Y-66067199D01*
X119407199Y-66290059D01*
X119232098Y-66552116D01*
X119111487Y-66843297D01*
X119050000Y-67152414D01*
X119050000Y-67467586D01*
X119111487Y-67776703D01*
X119232098Y-68067884D01*
X119407199Y-68329941D01*
X119630059Y-68552801D01*
X119670765Y-68580000D01*
X119630059Y-68607199D01*
X119407199Y-68830059D01*
X119232098Y-69092116D01*
X119111487Y-69383297D01*
X119050000Y-69692414D01*
X119050000Y-70007586D01*
X119111487Y-70316703D01*
X119232098Y-70607884D01*
X119407199Y-70869941D01*
X119630059Y-71092801D01*
X119670765Y-71120000D01*
X119630059Y-71147199D01*
X119407199Y-71370059D01*
X119232098Y-71632116D01*
X119111487Y-71923297D01*
X119050000Y-72232414D01*
X119050000Y-72547586D01*
X119111487Y-72856703D01*
X119232098Y-73147884D01*
X119407199Y-73409941D01*
X119630059Y-73632801D01*
X119670765Y-73660000D01*
X119630059Y-73687199D01*
X119407199Y-73910059D01*
X119232098Y-74172116D01*
X119111487Y-74463297D01*
X119050000Y-74772414D01*
X119050000Y-75087586D01*
X119111487Y-75396703D01*
X119232098Y-75687884D01*
X119407199Y-75949941D01*
X119630059Y-76172801D01*
X119755319Y-76256497D01*
X119719153Y-76359548D01*
X120650000Y-77290395D01*
X121580847Y-76359548D01*
X121544681Y-76256497D01*
X121669941Y-76172801D01*
X121840001Y-76002741D01*
X121840001Y-76567071D01*
X121760452Y-76539153D01*
X120829605Y-77470000D01*
X121760452Y-78400847D01*
X121840001Y-78372929D01*
X121840001Y-78937259D01*
X121669941Y-78767199D01*
X121544681Y-78683503D01*
X121580847Y-78580452D01*
X120650000Y-77649605D01*
X119719153Y-78580452D01*
X119755319Y-78683503D01*
X119630059Y-78767199D01*
X119407199Y-78990059D01*
X119232098Y-79252116D01*
X119111487Y-79543297D01*
X119050000Y-79852414D01*
X119050000Y-80167586D01*
X119111487Y-80476703D01*
X119232098Y-80767884D01*
X119407199Y-81029941D01*
X119630059Y-81252801D01*
X119670765Y-81280000D01*
X119630059Y-81307199D01*
X119407199Y-81530059D01*
X119232098Y-81792116D01*
X119111487Y-82083297D01*
X119050000Y-82392414D01*
X119050000Y-82707586D01*
X119111487Y-83016703D01*
X119232098Y-83307884D01*
X119407199Y-83569941D01*
X119630059Y-83792801D01*
X119670765Y-83820000D01*
X119630059Y-83847199D01*
X119407199Y-84070059D01*
X119232098Y-84332116D01*
X119111487Y-84623297D01*
X119050000Y-84932414D01*
X119050000Y-85247586D01*
X119111487Y-85556703D01*
X119232098Y-85847884D01*
X119407199Y-86109941D01*
X119630059Y-86332801D01*
X119670765Y-86360000D01*
X119630059Y-86387199D01*
X119407199Y-86610059D01*
X119232098Y-86872116D01*
X119111487Y-87163297D01*
X119050000Y-87472414D01*
X119050000Y-87787586D01*
X119111487Y-88096703D01*
X119232098Y-88387884D01*
X119407199Y-88649941D01*
X119630059Y-88872801D01*
X119670765Y-88900000D01*
X119630059Y-88927199D01*
X119407199Y-89150059D01*
X119232098Y-89412116D01*
X119111487Y-89703297D01*
X119050000Y-90012414D01*
X119050000Y-90327586D01*
X119111487Y-90636703D01*
X119232098Y-90927884D01*
X119407199Y-91189941D01*
X119630059Y-91412801D01*
X119670765Y-91440000D01*
X119630059Y-91467199D01*
X119407199Y-91690059D01*
X119232098Y-91952116D01*
X119111487Y-92243297D01*
X119050000Y-92552414D01*
X119050000Y-92867586D01*
X119111487Y-93176703D01*
X119232098Y-93467884D01*
X119407199Y-93729941D01*
X119630059Y-93952801D01*
X119755319Y-94036497D01*
X119719153Y-94139548D01*
X120650000Y-95070395D01*
X121580847Y-94139548D01*
X121544681Y-94036497D01*
X121669941Y-93952801D01*
X121840000Y-93782742D01*
X121840000Y-94347071D01*
X121760452Y-94319153D01*
X120829605Y-95250000D01*
X121760452Y-96180847D01*
X121840000Y-96152929D01*
X121840000Y-96717258D01*
X121669941Y-96547199D01*
X121544681Y-96463503D01*
X121580847Y-96360452D01*
X120650000Y-95429605D01*
X119719153Y-96360452D01*
X119755319Y-96463503D01*
X119630059Y-96547199D01*
X119407199Y-96770059D01*
X119232098Y-97032116D01*
X119111487Y-97323297D01*
X119050000Y-97632414D01*
X119050000Y-97947586D01*
X119111487Y-98256703D01*
X119232098Y-98547884D01*
X119407199Y-98809941D01*
X119630059Y-99032801D01*
X119892116Y-99207902D01*
X120183297Y-99328513D01*
X120492414Y-99390000D01*
X120807586Y-99390000D01*
X121116703Y-99328513D01*
X121407884Y-99207902D01*
X121669941Y-99032801D01*
X121840000Y-98862742D01*
X121840000Y-115340000D01*
X96660000Y-115340000D01*
X96660000Y-109490000D01*
X98691928Y-109490000D01*
X98691928Y-111490000D01*
X98704188Y-111614482D01*
X98740498Y-111734180D01*
X98799463Y-111844494D01*
X98878815Y-111941185D01*
X98975506Y-112020537D01*
X99085820Y-112079502D01*
X99205518Y-112115812D01*
X99330000Y-112128072D01*
X101330000Y-112128072D01*
X101454482Y-112115812D01*
X101574180Y-112079502D01*
X101684494Y-112020537D01*
X101781185Y-111941185D01*
X101860537Y-111844494D01*
X101919502Y-111734180D01*
X101952496Y-111625413D01*
X104374192Y-111625413D01*
X104469956Y-111889814D01*
X104759571Y-112030704D01*
X105071108Y-112112384D01*
X105392595Y-112131718D01*
X105711675Y-112087961D01*
X106016088Y-111982795D01*
X106190044Y-111889814D01*
X106285808Y-111625413D01*
X105330000Y-110669605D01*
X104374192Y-111625413D01*
X101952496Y-111625413D01*
X101955812Y-111614482D01*
X101968072Y-111490000D01*
X101968072Y-110552595D01*
X103688282Y-110552595D01*
X103732039Y-110871675D01*
X103837205Y-111176088D01*
X103930186Y-111350044D01*
X104194587Y-111445808D01*
X105150395Y-110490000D01*
X105509605Y-110490000D01*
X106465413Y-111445808D01*
X106729814Y-111350044D01*
X106870704Y-111060429D01*
X106952384Y-110748892D01*
X106954722Y-110710000D01*
X111341928Y-110710000D01*
X111341928Y-112810000D01*
X111354188Y-112934482D01*
X111390498Y-113054180D01*
X111449463Y-113164494D01*
X111528815Y-113261185D01*
X111625506Y-113340537D01*
X111735820Y-113399502D01*
X111855518Y-113435812D01*
X111980000Y-113448072D01*
X114080000Y-113448072D01*
X114204482Y-113435812D01*
X114324180Y-113399502D01*
X114434494Y-113340537D01*
X114531185Y-113261185D01*
X114610537Y-113164494D01*
X114669502Y-113054180D01*
X114705812Y-112934482D01*
X114718072Y-112810000D01*
X114718072Y-111594042D01*
X116345000Y-111594042D01*
X116345000Y-111925958D01*
X116409754Y-112251496D01*
X116536772Y-112558147D01*
X116721175Y-112834125D01*
X116955875Y-113068825D01*
X117231853Y-113253228D01*
X117538504Y-113380246D01*
X117864042Y-113445000D01*
X118195958Y-113445000D01*
X118521496Y-113380246D01*
X118828147Y-113253228D01*
X119104125Y-113068825D01*
X119338825Y-112834125D01*
X119523228Y-112558147D01*
X119650246Y-112251496D01*
X119715000Y-111925958D01*
X119715000Y-111594042D01*
X119650246Y-111268504D01*
X119523228Y-110961853D01*
X119338825Y-110685875D01*
X119104125Y-110451175D01*
X118828147Y-110266772D01*
X118521496Y-110139754D01*
X118195958Y-110075000D01*
X117864042Y-110075000D01*
X117538504Y-110139754D01*
X117231853Y-110266772D01*
X116955875Y-110451175D01*
X116721175Y-110685875D01*
X116536772Y-110961853D01*
X116409754Y-111268504D01*
X116345000Y-111594042D01*
X114718072Y-111594042D01*
X114718072Y-110710000D01*
X114705812Y-110585518D01*
X114669502Y-110465820D01*
X114610537Y-110355506D01*
X114531185Y-110258815D01*
X114434494Y-110179463D01*
X114324180Y-110120498D01*
X114204482Y-110084188D01*
X114080000Y-110071928D01*
X111980000Y-110071928D01*
X111855518Y-110084188D01*
X111735820Y-110120498D01*
X111625506Y-110179463D01*
X111528815Y-110258815D01*
X111449463Y-110355506D01*
X111390498Y-110465820D01*
X111354188Y-110585518D01*
X111341928Y-110710000D01*
X106954722Y-110710000D01*
X106971718Y-110427405D01*
X106927961Y-110108325D01*
X106822795Y-109803912D01*
X106729814Y-109629956D01*
X106465413Y-109534192D01*
X105509605Y-110490000D01*
X105150395Y-110490000D01*
X104194587Y-109534192D01*
X103930186Y-109629956D01*
X103789296Y-109919571D01*
X103707616Y-110231108D01*
X103688282Y-110552595D01*
X101968072Y-110552595D01*
X101968072Y-109490000D01*
X101955812Y-109365518D01*
X101952497Y-109354587D01*
X104374192Y-109354587D01*
X105330000Y-110310395D01*
X106285808Y-109354587D01*
X106190044Y-109090186D01*
X105900429Y-108949296D01*
X105588892Y-108867616D01*
X105267405Y-108848282D01*
X104948325Y-108892039D01*
X104643912Y-108997205D01*
X104469956Y-109090186D01*
X104374192Y-109354587D01*
X101952497Y-109354587D01*
X101919502Y-109245820D01*
X101860537Y-109135506D01*
X101781185Y-109038815D01*
X101684494Y-108959463D01*
X101574180Y-108900498D01*
X101454482Y-108864188D01*
X101330000Y-108851928D01*
X99330000Y-108851928D01*
X99205518Y-108864188D01*
X99085820Y-108900498D01*
X98975506Y-108959463D01*
X98878815Y-109038815D01*
X98799463Y-109135506D01*
X98740498Y-109245820D01*
X98704188Y-109365518D01*
X98691928Y-109490000D01*
X96660000Y-109490000D01*
X96660000Y-101379872D01*
X96825000Y-101379872D01*
X96825000Y-101820128D01*
X96910890Y-102251925D01*
X97079369Y-102658669D01*
X97323962Y-103024729D01*
X97635271Y-103336038D01*
X98001331Y-103580631D01*
X98408075Y-103749110D01*
X98839872Y-103835000D01*
X99280128Y-103835000D01*
X99711925Y-103749110D01*
X100118669Y-103580631D01*
X100484729Y-103336038D01*
X100796038Y-103024729D01*
X101040631Y-102658669D01*
X101209110Y-102251925D01*
X101295000Y-101820128D01*
X101295000Y-101379872D01*
X101209110Y-100948075D01*
X101040631Y-100541331D01*
X100796038Y-100175271D01*
X100484729Y-99863962D01*
X100464881Y-99850700D01*
X103657628Y-99850700D01*
X103657628Y-101850700D01*
X103669888Y-101975182D01*
X103706198Y-102094880D01*
X103765163Y-102205194D01*
X103844515Y-102301885D01*
X103941206Y-102381237D01*
X104051520Y-102440202D01*
X104171218Y-102476512D01*
X104295700Y-102488772D01*
X106295700Y-102488772D01*
X106420182Y-102476512D01*
X106539880Y-102440202D01*
X106650194Y-102381237D01*
X106746885Y-102301885D01*
X106826237Y-102205194D01*
X106885202Y-102094880D01*
X106918196Y-101986113D01*
X109339892Y-101986113D01*
X109435656Y-102250514D01*
X109725271Y-102391404D01*
X110036808Y-102473084D01*
X110358295Y-102492418D01*
X110677375Y-102448661D01*
X110981788Y-102343495D01*
X111155744Y-102250514D01*
X111251508Y-101986113D01*
X110295700Y-101030305D01*
X109339892Y-101986113D01*
X106918196Y-101986113D01*
X106921512Y-101975182D01*
X106933772Y-101850700D01*
X106933772Y-100913295D01*
X108653982Y-100913295D01*
X108697739Y-101232375D01*
X108802905Y-101536788D01*
X108895886Y-101710744D01*
X109160287Y-101806508D01*
X110116095Y-100850700D01*
X110475305Y-100850700D01*
X111431113Y-101806508D01*
X111695514Y-101710744D01*
X111836404Y-101421129D01*
X111918084Y-101109592D01*
X111937418Y-100788105D01*
X111893661Y-100469025D01*
X111788495Y-100164612D01*
X111695514Y-99990656D01*
X111431113Y-99894892D01*
X110475305Y-100850700D01*
X110116095Y-100850700D01*
X109160287Y-99894892D01*
X108895886Y-99990656D01*
X108754996Y-100280271D01*
X108673316Y-100591808D01*
X108653982Y-100913295D01*
X106933772Y-100913295D01*
X106933772Y-99850700D01*
X106921512Y-99726218D01*
X106918197Y-99715287D01*
X109339892Y-99715287D01*
X110295700Y-100671095D01*
X111251508Y-99715287D01*
X111155744Y-99450886D01*
X110866129Y-99309996D01*
X110554592Y-99228316D01*
X110233105Y-99208982D01*
X109914025Y-99252739D01*
X109609612Y-99357905D01*
X109435656Y-99450886D01*
X109339892Y-99715287D01*
X106918197Y-99715287D01*
X106885202Y-99606520D01*
X106826237Y-99496206D01*
X106746885Y-99399515D01*
X106650194Y-99320163D01*
X106539880Y-99261198D01*
X106420182Y-99224888D01*
X106295700Y-99212628D01*
X104295700Y-99212628D01*
X104171218Y-99224888D01*
X104051520Y-99261198D01*
X103941206Y-99320163D01*
X103844515Y-99399515D01*
X103765163Y-99496206D01*
X103706198Y-99606520D01*
X103669888Y-99726218D01*
X103657628Y-99850700D01*
X100464881Y-99850700D01*
X100118669Y-99619369D01*
X99711925Y-99450890D01*
X99280128Y-99365000D01*
X98839872Y-99365000D01*
X98408075Y-99450890D01*
X98001331Y-99619369D01*
X97635271Y-99863962D01*
X97323962Y-100175271D01*
X97079369Y-100541331D01*
X96910890Y-100948075D01*
X96825000Y-101379872D01*
X96660000Y-101379872D01*
X96660000Y-98922742D01*
X96770059Y-99032801D01*
X97032116Y-99207902D01*
X97323297Y-99328513D01*
X97632414Y-99390000D01*
X97947586Y-99390000D01*
X98256703Y-99328513D01*
X98547884Y-99207902D01*
X98809941Y-99032801D01*
X99032801Y-98809941D01*
X99207902Y-98547884D01*
X99328513Y-98256703D01*
X99390000Y-97947586D01*
X99390000Y-97632414D01*
X99328513Y-97323297D01*
X99207902Y-97032116D01*
X99032801Y-96770059D01*
X98809941Y-96547199D01*
X98684681Y-96463503D01*
X98720847Y-96360452D01*
X97790000Y-95429605D01*
X97775858Y-95443748D01*
X97596253Y-95264143D01*
X97610395Y-95250000D01*
X97969605Y-95250000D01*
X98900452Y-96180847D01*
X99161275Y-96089309D01*
X99298668Y-95805659D01*
X99378083Y-95500656D01*
X99396470Y-95186020D01*
X99353120Y-94873843D01*
X99249700Y-94576121D01*
X99161275Y-94410691D01*
X98900452Y-94319153D01*
X97969605Y-95250000D01*
X97610395Y-95250000D01*
X97596253Y-95235858D01*
X97775858Y-95056253D01*
X97790000Y-95070395D01*
X98720847Y-94139548D01*
X98684681Y-94036497D01*
X98809941Y-93952801D01*
X99032801Y-93729941D01*
X99207902Y-93467884D01*
X99328513Y-93176703D01*
X99390000Y-92867586D01*
X99390000Y-92552414D01*
X99328513Y-92243297D01*
X99207902Y-91952116D01*
X99032801Y-91690059D01*
X98809941Y-91467199D01*
X98769235Y-91440000D01*
X98809941Y-91412801D01*
X99032801Y-91189941D01*
X99207902Y-90927884D01*
X99328513Y-90636703D01*
X99390000Y-90327586D01*
X99390000Y-90012414D01*
X99328513Y-89703297D01*
X99207902Y-89412116D01*
X99032801Y-89150059D01*
X98809941Y-88927199D01*
X98769235Y-88900000D01*
X98809941Y-88872801D01*
X99032801Y-88649941D01*
X99207902Y-88387884D01*
X99328513Y-88096703D01*
X99390000Y-87787586D01*
X99390000Y-87472414D01*
X99328513Y-87163297D01*
X99207902Y-86872116D01*
X99032801Y-86610059D01*
X98809941Y-86387199D01*
X98684681Y-86303503D01*
X98720847Y-86200452D01*
X97790000Y-85269605D01*
X97775858Y-85283748D01*
X97596253Y-85104143D01*
X97610395Y-85090000D01*
X97969605Y-85090000D01*
X98900452Y-86020847D01*
X99161275Y-85929309D01*
X99298668Y-85645659D01*
X99378083Y-85340656D01*
X99396470Y-85026020D01*
X99353120Y-84713843D01*
X99249700Y-84416121D01*
X99161275Y-84250691D01*
X98900452Y-84159153D01*
X97969605Y-85090000D01*
X97610395Y-85090000D01*
X97596253Y-85075858D01*
X97775858Y-84896253D01*
X97790000Y-84910395D01*
X98720847Y-83979548D01*
X98684681Y-83876497D01*
X98809941Y-83792801D01*
X99032801Y-83569941D01*
X99207902Y-83307884D01*
X99328513Y-83016703D01*
X99390000Y-82707586D01*
X99390000Y-82392414D01*
X99328513Y-82083297D01*
X99207902Y-81792116D01*
X99032801Y-81530059D01*
X98809941Y-81307199D01*
X98769235Y-81280000D01*
X98809941Y-81252801D01*
X99032801Y-81029941D01*
X99207902Y-80767884D01*
X99328513Y-80476703D01*
X99390000Y-80167586D01*
X99390000Y-79852414D01*
X99328513Y-79543297D01*
X99207902Y-79252116D01*
X99032801Y-78990059D01*
X98809941Y-78767199D01*
X98769235Y-78740000D01*
X98809941Y-78712801D01*
X99032801Y-78489941D01*
X99207902Y-78227884D01*
X99328513Y-77936703D01*
X99390000Y-77627586D01*
X99390000Y-77312414D01*
X99328513Y-77003297D01*
X99207902Y-76712116D01*
X99032801Y-76450059D01*
X98809941Y-76227199D01*
X98769235Y-76200000D01*
X98809941Y-76172801D01*
X99032801Y-75949941D01*
X99207902Y-75687884D01*
X99328513Y-75396703D01*
X99390000Y-75087586D01*
X99390000Y-74772414D01*
X99328513Y-74463297D01*
X99207902Y-74172116D01*
X99032801Y-73910059D01*
X98809941Y-73687199D01*
X98769235Y-73660000D01*
X98809941Y-73632801D01*
X99032801Y-73409941D01*
X99207902Y-73147884D01*
X99328513Y-72856703D01*
X99390000Y-72547586D01*
X99390000Y-72232414D01*
X99328513Y-71923297D01*
X99246376Y-71725000D01*
X103984509Y-71725000D01*
X103990001Y-71780762D01*
X103990000Y-76344248D01*
X103984509Y-76400000D01*
X103990000Y-76455751D01*
X104006423Y-76622498D01*
X104071324Y-76836446D01*
X104176716Y-77033623D01*
X104318551Y-77206449D01*
X104361865Y-77241996D01*
X111965001Y-84845133D01*
X111965000Y-88879594D01*
X111957908Y-88951601D01*
X111963400Y-89007362D01*
X111963399Y-96720745D01*
X111957908Y-96776497D01*
X111963399Y-96832248D01*
X111965000Y-96848504D01*
X111965001Y-101680752D01*
X111981424Y-101847499D01*
X112046325Y-102061447D01*
X112151717Y-102258623D01*
X112293552Y-102431449D01*
X112466378Y-102573284D01*
X112663554Y-102678676D01*
X112877502Y-102743577D01*
X113100000Y-102765491D01*
X113322499Y-102743577D01*
X113536447Y-102678676D01*
X113715000Y-102583238D01*
X113715000Y-103305751D01*
X113731423Y-103472498D01*
X113796324Y-103686446D01*
X113901716Y-103883623D01*
X114043551Y-104056449D01*
X114216377Y-104198284D01*
X114413553Y-104303676D01*
X114627501Y-104368577D01*
X114850000Y-104390491D01*
X115072498Y-104368577D01*
X115286446Y-104303676D01*
X115483623Y-104198284D01*
X115656449Y-104056449D01*
X115798284Y-103883623D01*
X115903676Y-103686447D01*
X115968577Y-103472499D01*
X115985000Y-103305752D01*
X115985000Y-101379872D01*
X117145000Y-101379872D01*
X117145000Y-101820128D01*
X117230890Y-102251925D01*
X117399369Y-102658669D01*
X117643962Y-103024729D01*
X117955271Y-103336038D01*
X118321331Y-103580631D01*
X118728075Y-103749110D01*
X119159872Y-103835000D01*
X119600128Y-103835000D01*
X120031925Y-103749110D01*
X120438669Y-103580631D01*
X120804729Y-103336038D01*
X121116038Y-103024729D01*
X121360631Y-102658669D01*
X121529110Y-102251925D01*
X121615000Y-101820128D01*
X121615000Y-101379872D01*
X121529110Y-100948075D01*
X121360631Y-100541331D01*
X121116038Y-100175271D01*
X120804729Y-99863962D01*
X120438669Y-99619369D01*
X120031925Y-99450890D01*
X119600128Y-99365000D01*
X119159872Y-99365000D01*
X118728075Y-99450890D01*
X118321331Y-99619369D01*
X117955271Y-99863962D01*
X117643962Y-100175271D01*
X117399369Y-100541331D01*
X117230890Y-100948075D01*
X117145000Y-101379872D01*
X115985000Y-101379872D01*
X115985000Y-98263354D01*
X116075518Y-98290812D01*
X116200000Y-98303072D01*
X117900000Y-98303072D01*
X118024482Y-98290812D01*
X118144180Y-98254502D01*
X118254494Y-98195537D01*
X118351185Y-98116185D01*
X118430537Y-98019494D01*
X118489502Y-97909180D01*
X118525812Y-97789482D01*
X118538072Y-97665000D01*
X118538072Y-95965000D01*
X118525812Y-95840518D01*
X118489502Y-95720820D01*
X118430537Y-95610506D01*
X118351185Y-95513815D01*
X118254494Y-95434463D01*
X118144180Y-95375498D01*
X118071620Y-95353487D01*
X118111127Y-95313980D01*
X119043530Y-95313980D01*
X119086880Y-95626157D01*
X119190300Y-95923879D01*
X119278725Y-96089309D01*
X119539548Y-96180847D01*
X120470395Y-95250000D01*
X119539548Y-94319153D01*
X119278725Y-94410691D01*
X119141332Y-94694341D01*
X119061917Y-94999344D01*
X119043530Y-95313980D01*
X118111127Y-95313980D01*
X118203475Y-95221632D01*
X118365990Y-94978411D01*
X118477932Y-94708158D01*
X118535000Y-94421260D01*
X118535000Y-94128740D01*
X118477932Y-93841842D01*
X118365990Y-93571589D01*
X118203475Y-93328368D01*
X117996632Y-93121525D01*
X117822240Y-93005000D01*
X117996632Y-92888475D01*
X118203475Y-92681632D01*
X118365990Y-92438411D01*
X118477932Y-92168158D01*
X118535000Y-91881260D01*
X118535000Y-91588740D01*
X118477932Y-91301842D01*
X118365990Y-91031589D01*
X118203475Y-90788368D01*
X117996632Y-90581525D01*
X117753411Y-90419010D01*
X117483158Y-90307068D01*
X117196260Y-90250000D01*
X116903740Y-90250000D01*
X116616842Y-90307068D01*
X116346589Y-90419010D01*
X116103368Y-90581525D01*
X115985000Y-90699893D01*
X115985000Y-77533980D01*
X119043530Y-77533980D01*
X119086880Y-77846157D01*
X119190300Y-78143879D01*
X119278725Y-78309309D01*
X119539548Y-78400847D01*
X120470395Y-77470000D01*
X119539548Y-76539153D01*
X119278725Y-76630691D01*
X119141332Y-76914341D01*
X119061917Y-77219344D01*
X119043530Y-77533980D01*
X115985000Y-77533980D01*
X115985000Y-73605751D01*
X115990491Y-73549999D01*
X115968577Y-73327501D01*
X115903676Y-73113553D01*
X115798284Y-72916377D01*
X115656449Y-72743551D01*
X115613141Y-72708009D01*
X107900643Y-64995512D01*
X107771122Y-64889217D01*
X107573946Y-64783824D01*
X107359998Y-64718923D01*
X107137500Y-64697009D01*
X106915002Y-64718923D01*
X106701054Y-64783824D01*
X106503878Y-64889217D01*
X106331052Y-65031052D01*
X106189217Y-65203878D01*
X106083824Y-65401054D01*
X106018923Y-65615002D01*
X105997009Y-65837500D01*
X106018923Y-66059998D01*
X106083824Y-66273946D01*
X106189217Y-66471122D01*
X106295512Y-66600643D01*
X113715001Y-74020133D01*
X113715001Y-83384869D01*
X106260000Y-75929869D01*
X106260000Y-71780752D01*
X106265491Y-71725000D01*
X106243577Y-71502501D01*
X106178676Y-71288553D01*
X106073284Y-71091377D01*
X105931449Y-70918551D01*
X105758623Y-70776716D01*
X105561447Y-70671324D01*
X105347499Y-70606423D01*
X105180752Y-70590000D01*
X105125000Y-70584509D01*
X105069249Y-70590000D01*
X105069248Y-70590000D01*
X104902501Y-70606423D01*
X104688553Y-70671324D01*
X104491377Y-70776716D01*
X104318551Y-70918551D01*
X104176716Y-71091377D01*
X104071324Y-71288553D01*
X104006423Y-71502501D01*
X103984509Y-71725000D01*
X99246376Y-71725000D01*
X99207902Y-71632116D01*
X99032801Y-71370059D01*
X98809941Y-71147199D01*
X98769235Y-71120000D01*
X98809941Y-71092801D01*
X99032801Y-70869941D01*
X99207902Y-70607884D01*
X99328513Y-70316703D01*
X99390000Y-70007586D01*
X99390000Y-69692414D01*
X99328513Y-69383297D01*
X99207902Y-69092116D01*
X99032801Y-68830059D01*
X98809941Y-68607199D01*
X98769235Y-68580000D01*
X98809941Y-68552801D01*
X99032801Y-68329941D01*
X99207902Y-68067884D01*
X99328513Y-67776703D01*
X99390000Y-67467586D01*
X99390000Y-67152414D01*
X99328513Y-66843297D01*
X99207902Y-66552116D01*
X99032801Y-66290059D01*
X98809941Y-66067199D01*
X98769235Y-66040000D01*
X98809941Y-66012801D01*
X99032801Y-65789941D01*
X99207902Y-65527884D01*
X99328513Y-65236703D01*
X99390000Y-64927586D01*
X99390000Y-64612414D01*
X99328513Y-64303297D01*
X99207902Y-64012116D01*
X99040911Y-63762196D01*
X99109494Y-63725537D01*
X99206185Y-63646185D01*
X99285537Y-63549494D01*
X99344502Y-63439180D01*
X99380812Y-63319482D01*
X99393072Y-63195000D01*
X99393072Y-61328300D01*
X119046928Y-61328300D01*
X119046928Y-63195000D01*
G37*
X119046928Y-63195000D02*
X119059188Y-63319482D01*
X119095498Y-63439180D01*
X119154463Y-63549494D01*
X119233815Y-63646185D01*
X119330506Y-63725537D01*
X119399089Y-63762196D01*
X119232098Y-64012116D01*
X119111487Y-64303297D01*
X119050000Y-64612414D01*
X119050000Y-64927586D01*
X119111487Y-65236703D01*
X119232098Y-65527884D01*
X119407199Y-65789941D01*
X119630059Y-66012801D01*
X119670765Y-66040000D01*
X119630059Y-66067199D01*
X119407199Y-66290059D01*
X119232098Y-66552116D01*
X119111487Y-66843297D01*
X119050000Y-67152414D01*
X119050000Y-67467586D01*
X119111487Y-67776703D01*
X119232098Y-68067884D01*
X119407199Y-68329941D01*
X119630059Y-68552801D01*
X119670765Y-68580000D01*
X119630059Y-68607199D01*
X119407199Y-68830059D01*
X119232098Y-69092116D01*
X119111487Y-69383297D01*
X119050000Y-69692414D01*
X119050000Y-70007586D01*
X119111487Y-70316703D01*
X119232098Y-70607884D01*
X119407199Y-70869941D01*
X119630059Y-71092801D01*
X119670765Y-71120000D01*
X119630059Y-71147199D01*
X119407199Y-71370059D01*
X119232098Y-71632116D01*
X119111487Y-71923297D01*
X119050000Y-72232414D01*
X119050000Y-72547586D01*
X119111487Y-72856703D01*
X119232098Y-73147884D01*
X119407199Y-73409941D01*
X119630059Y-73632801D01*
X119670765Y-73660000D01*
X119630059Y-73687199D01*
X119407199Y-73910059D01*
X119232098Y-74172116D01*
X119111487Y-74463297D01*
X119050000Y-74772414D01*
X119050000Y-75087586D01*
X119111487Y-75396703D01*
X119232098Y-75687884D01*
X119407199Y-75949941D01*
X119630059Y-76172801D01*
X119755319Y-76256497D01*
X119719153Y-76359548D01*
X120650000Y-77290395D01*
X121580847Y-76359548D01*
X121544681Y-76256497D01*
X121669941Y-76172801D01*
X121840001Y-76002741D01*
X121840001Y-76567071D01*
X121760452Y-76539153D01*
X120829605Y-77470000D01*
X121760452Y-78400847D01*
X121840001Y-78372929D01*
X121840001Y-78937259D01*
X121669941Y-78767199D01*
X121544681Y-78683503D01*
X121580847Y-78580452D01*
X120650000Y-77649605D01*
X119719153Y-78580452D01*
X119755319Y-78683503D01*
X119630059Y-78767199D01*
X119407199Y-78990059D01*
X119232098Y-79252116D01*
X119111487Y-79543297D01*
X119050000Y-79852414D01*
X119050000Y-80167586D01*
X119111487Y-80476703D01*
X119232098Y-80767884D01*
X119407199Y-81029941D01*
X119630059Y-81252801D01*
X119670765Y-81280000D01*
X119630059Y-81307199D01*
X119407199Y-81530059D01*
X119232098Y-81792116D01*
X119111487Y-82083297D01*
X119050000Y-82392414D01*
X119050000Y-82707586D01*
X119111487Y-83016703D01*
X119232098Y-83307884D01*
X119407199Y-83569941D01*
X119630059Y-83792801D01*
X119670765Y-83820000D01*
X119630059Y-83847199D01*
X119407199Y-84070059D01*
X119232098Y-84332116D01*
X119111487Y-84623297D01*
X119050000Y-84932414D01*
X119050000Y-85247586D01*
X119111487Y-85556703D01*
X119232098Y-85847884D01*
X119407199Y-86109941D01*
X119630059Y-86332801D01*
X119670765Y-86360000D01*
X119630059Y-86387199D01*
X119407199Y-86610059D01*
X119232098Y-86872116D01*
X119111487Y-87163297D01*
X119050000Y-87472414D01*
X119050000Y-87787586D01*
X119111487Y-88096703D01*
X119232098Y-88387884D01*
X119407199Y-88649941D01*
X119630059Y-88872801D01*
X119670765Y-88900000D01*
X119630059Y-88927199D01*
X119407199Y-89150059D01*
X119232098Y-89412116D01*
X119111487Y-89703297D01*
X119050000Y-90012414D01*
X119050000Y-90327586D01*
X119111487Y-90636703D01*
X119232098Y-90927884D01*
X119407199Y-91189941D01*
X119630059Y-91412801D01*
X119670765Y-91440000D01*
X119630059Y-91467199D01*
X119407199Y-91690059D01*
X119232098Y-91952116D01*
X119111487Y-92243297D01*
X119050000Y-92552414D01*
X119050000Y-92867586D01*
X119111487Y-93176703D01*
X119232098Y-93467884D01*
X119407199Y-93729941D01*
X119630059Y-93952801D01*
X119755319Y-94036497D01*
X119719153Y-94139548D01*
X120650000Y-95070395D01*
X121580847Y-94139548D01*
X121544681Y-94036497D01*
X121669941Y-93952801D01*
X121840000Y-93782742D01*
X121840000Y-94347071D01*
X121760452Y-94319153D01*
X120829605Y-95250000D01*
X121760452Y-96180847D01*
X121840000Y-96152929D01*
X121840000Y-96717258D01*
X121669941Y-96547199D01*
X121544681Y-96463503D01*
X121580847Y-96360452D01*
X120650000Y-95429605D01*
X119719153Y-96360452D01*
X119755319Y-96463503D01*
X119630059Y-96547199D01*
X119407199Y-96770059D01*
X119232098Y-97032116D01*
X119111487Y-97323297D01*
X119050000Y-97632414D01*
X119050000Y-97947586D01*
X119111487Y-98256703D01*
X119232098Y-98547884D01*
X119407199Y-98809941D01*
X119630059Y-99032801D01*
X119892116Y-99207902D01*
X120183297Y-99328513D01*
X120492414Y-99390000D01*
X120807586Y-99390000D01*
X121116703Y-99328513D01*
X121407884Y-99207902D01*
X121669941Y-99032801D01*
X121840000Y-98862742D01*
X121840000Y-115340000D01*
X96660000Y-115340000D01*
X96660000Y-109490000D01*
X98691928Y-109490000D01*
X98691928Y-111490000D01*
X98704188Y-111614482D01*
X98740498Y-111734180D01*
X98799463Y-111844494D01*
X98878815Y-111941185D01*
X98975506Y-112020537D01*
X99085820Y-112079502D01*
X99205518Y-112115812D01*
X99330000Y-112128072D01*
X101330000Y-112128072D01*
X101454482Y-112115812D01*
X101574180Y-112079502D01*
X101684494Y-112020537D01*
X101781185Y-111941185D01*
X101860537Y-111844494D01*
X101919502Y-111734180D01*
X101952496Y-111625413D01*
X104374192Y-111625413D01*
X104469956Y-111889814D01*
X104759571Y-112030704D01*
X105071108Y-112112384D01*
X105392595Y-112131718D01*
X105711675Y-112087961D01*
X106016088Y-111982795D01*
X106190044Y-111889814D01*
X106285808Y-111625413D01*
X105330000Y-110669605D01*
X104374192Y-111625413D01*
X101952496Y-111625413D01*
X101955812Y-111614482D01*
X101968072Y-111490000D01*
X101968072Y-110552595D01*
X103688282Y-110552595D01*
X103732039Y-110871675D01*
X103837205Y-111176088D01*
X103930186Y-111350044D01*
X104194587Y-111445808D01*
X105150395Y-110490000D01*
X105509605Y-110490000D01*
X106465413Y-111445808D01*
X106729814Y-111350044D01*
X106870704Y-111060429D01*
X106952384Y-110748892D01*
X106954722Y-110710000D01*
X111341928Y-110710000D01*
X111341928Y-112810000D01*
X111354188Y-112934482D01*
X111390498Y-113054180D01*
X111449463Y-113164494D01*
X111528815Y-113261185D01*
X111625506Y-113340537D01*
X111735820Y-113399502D01*
X111855518Y-113435812D01*
X111980000Y-113448072D01*
X114080000Y-113448072D01*
X114204482Y-113435812D01*
X114324180Y-113399502D01*
X114434494Y-113340537D01*
X114531185Y-113261185D01*
X114610537Y-113164494D01*
X114669502Y-113054180D01*
X114705812Y-112934482D01*
X114718072Y-112810000D01*
X114718072Y-111594042D01*
X116345000Y-111594042D01*
X116345000Y-111925958D01*
X116409754Y-112251496D01*
X116536772Y-112558147D01*
X116721175Y-112834125D01*
X116955875Y-113068825D01*
X117231853Y-113253228D01*
X117538504Y-113380246D01*
X117864042Y-113445000D01*
X118195958Y-113445000D01*
X118521496Y-113380246D01*
X118828147Y-113253228D01*
X119104125Y-113068825D01*
X119338825Y-112834125D01*
X119523228Y-112558147D01*
X119650246Y-112251496D01*
X119715000Y-111925958D01*
X119715000Y-111594042D01*
X119650246Y-111268504D01*
X119523228Y-110961853D01*
X119338825Y-110685875D01*
X119104125Y-110451175D01*
X118828147Y-110266772D01*
X118521496Y-110139754D01*
X118195958Y-110075000D01*
X117864042Y-110075000D01*
X117538504Y-110139754D01*
X117231853Y-110266772D01*
X116955875Y-110451175D01*
X116721175Y-110685875D01*
X116536772Y-110961853D01*
X116409754Y-111268504D01*
X116345000Y-111594042D01*
X114718072Y-111594042D01*
X114718072Y-110710000D01*
X114705812Y-110585518D01*
X114669502Y-110465820D01*
X114610537Y-110355506D01*
X114531185Y-110258815D01*
X114434494Y-110179463D01*
X114324180Y-110120498D01*
X114204482Y-110084188D01*
X114080000Y-110071928D01*
X111980000Y-110071928D01*
X111855518Y-110084188D01*
X111735820Y-110120498D01*
X111625506Y-110179463D01*
X111528815Y-110258815D01*
X111449463Y-110355506D01*
X111390498Y-110465820D01*
X111354188Y-110585518D01*
X111341928Y-110710000D01*
X106954722Y-110710000D01*
X106971718Y-110427405D01*
X106927961Y-110108325D01*
X106822795Y-109803912D01*
X106729814Y-109629956D01*
X106465413Y-109534192D01*
X105509605Y-110490000D01*
X105150395Y-110490000D01*
X104194587Y-109534192D01*
X103930186Y-109629956D01*
X103789296Y-109919571D01*
X103707616Y-110231108D01*
X103688282Y-110552595D01*
X101968072Y-110552595D01*
X101968072Y-109490000D01*
X101955812Y-109365518D01*
X101952497Y-109354587D01*
X104374192Y-109354587D01*
X105330000Y-110310395D01*
X106285808Y-109354587D01*
X106190044Y-109090186D01*
X105900429Y-108949296D01*
X105588892Y-108867616D01*
X105267405Y-108848282D01*
X104948325Y-108892039D01*
X104643912Y-108997205D01*
X104469956Y-109090186D01*
X104374192Y-109354587D01*
X101952497Y-109354587D01*
X101919502Y-109245820D01*
X101860537Y-109135506D01*
X101781185Y-109038815D01*
X101684494Y-108959463D01*
X101574180Y-108900498D01*
X101454482Y-108864188D01*
X101330000Y-108851928D01*
X99330000Y-108851928D01*
X99205518Y-108864188D01*
X99085820Y-108900498D01*
X98975506Y-108959463D01*
X98878815Y-109038815D01*
X98799463Y-109135506D01*
X98740498Y-109245820D01*
X98704188Y-109365518D01*
X98691928Y-109490000D01*
X96660000Y-109490000D01*
X96660000Y-101379872D01*
X96825000Y-101379872D01*
X96825000Y-101820128D01*
X96910890Y-102251925D01*
X97079369Y-102658669D01*
X97323962Y-103024729D01*
X97635271Y-103336038D01*
X98001331Y-103580631D01*
X98408075Y-103749110D01*
X98839872Y-103835000D01*
X99280128Y-103835000D01*
X99711925Y-103749110D01*
X100118669Y-103580631D01*
X100484729Y-103336038D01*
X100796038Y-103024729D01*
X101040631Y-102658669D01*
X101209110Y-102251925D01*
X101295000Y-101820128D01*
X101295000Y-101379872D01*
X101209110Y-100948075D01*
X101040631Y-100541331D01*
X100796038Y-100175271D01*
X100484729Y-99863962D01*
X100464881Y-99850700D01*
X103657628Y-99850700D01*
X103657628Y-101850700D01*
X103669888Y-101975182D01*
X103706198Y-102094880D01*
X103765163Y-102205194D01*
X103844515Y-102301885D01*
X103941206Y-102381237D01*
X104051520Y-102440202D01*
X104171218Y-102476512D01*
X104295700Y-102488772D01*
X106295700Y-102488772D01*
X106420182Y-102476512D01*
X106539880Y-102440202D01*
X106650194Y-102381237D01*
X106746885Y-102301885D01*
X106826237Y-102205194D01*
X106885202Y-102094880D01*
X106918196Y-101986113D01*
X109339892Y-101986113D01*
X109435656Y-102250514D01*
X109725271Y-102391404D01*
X110036808Y-102473084D01*
X110358295Y-102492418D01*
X110677375Y-102448661D01*
X110981788Y-102343495D01*
X111155744Y-102250514D01*
X111251508Y-101986113D01*
X110295700Y-101030305D01*
X109339892Y-101986113D01*
X106918196Y-101986113D01*
X106921512Y-101975182D01*
X106933772Y-101850700D01*
X106933772Y-100913295D01*
X108653982Y-100913295D01*
X108697739Y-101232375D01*
X108802905Y-101536788D01*
X108895886Y-101710744D01*
X109160287Y-101806508D01*
X110116095Y-100850700D01*
X110475305Y-100850700D01*
X111431113Y-101806508D01*
X111695514Y-101710744D01*
X111836404Y-101421129D01*
X111918084Y-101109592D01*
X111937418Y-100788105D01*
X111893661Y-100469025D01*
X111788495Y-100164612D01*
X111695514Y-99990656D01*
X111431113Y-99894892D01*
X110475305Y-100850700D01*
X110116095Y-100850700D01*
X109160287Y-99894892D01*
X108895886Y-99990656D01*
X108754996Y-100280271D01*
X108673316Y-100591808D01*
X108653982Y-100913295D01*
X106933772Y-100913295D01*
X106933772Y-99850700D01*
X106921512Y-99726218D01*
X106918197Y-99715287D01*
X109339892Y-99715287D01*
X110295700Y-100671095D01*
X111251508Y-99715287D01*
X111155744Y-99450886D01*
X110866129Y-99309996D01*
X110554592Y-99228316D01*
X110233105Y-99208982D01*
X109914025Y-99252739D01*
X109609612Y-99357905D01*
X109435656Y-99450886D01*
X109339892Y-99715287D01*
X106918197Y-99715287D01*
X106885202Y-99606520D01*
X106826237Y-99496206D01*
X106746885Y-99399515D01*
X106650194Y-99320163D01*
X106539880Y-99261198D01*
X106420182Y-99224888D01*
X106295700Y-99212628D01*
X104295700Y-99212628D01*
X104171218Y-99224888D01*
X104051520Y-99261198D01*
X103941206Y-99320163D01*
X103844515Y-99399515D01*
X103765163Y-99496206D01*
X103706198Y-99606520D01*
X103669888Y-99726218D01*
X103657628Y-99850700D01*
X100464881Y-99850700D01*
X100118669Y-99619369D01*
X99711925Y-99450890D01*
X99280128Y-99365000D01*
X98839872Y-99365000D01*
X98408075Y-99450890D01*
X98001331Y-99619369D01*
X97635271Y-99863962D01*
X97323962Y-100175271D01*
X97079369Y-100541331D01*
X96910890Y-100948075D01*
X96825000Y-101379872D01*
X96660000Y-101379872D01*
X96660000Y-98922742D01*
X96770059Y-99032801D01*
X97032116Y-99207902D01*
X97323297Y-99328513D01*
X97632414Y-99390000D01*
X97947586Y-99390000D01*
X98256703Y-99328513D01*
X98547884Y-99207902D01*
X98809941Y-99032801D01*
X99032801Y-98809941D01*
X99207902Y-98547884D01*
X99328513Y-98256703D01*
X99390000Y-97947586D01*
X99390000Y-97632414D01*
X99328513Y-97323297D01*
X99207902Y-97032116D01*
X99032801Y-96770059D01*
X98809941Y-96547199D01*
X98684681Y-96463503D01*
X98720847Y-96360452D01*
X97790000Y-95429605D01*
X97775858Y-95443748D01*
X97596253Y-95264143D01*
X97610395Y-95250000D01*
X97969605Y-95250000D01*
X98900452Y-96180847D01*
X99161275Y-96089309D01*
X99298668Y-95805659D01*
X99378083Y-95500656D01*
X99396470Y-95186020D01*
X99353120Y-94873843D01*
X99249700Y-94576121D01*
X99161275Y-94410691D01*
X98900452Y-94319153D01*
X97969605Y-95250000D01*
X97610395Y-95250000D01*
X97596253Y-95235858D01*
X97775858Y-95056253D01*
X97790000Y-95070395D01*
X98720847Y-94139548D01*
X98684681Y-94036497D01*
X98809941Y-93952801D01*
X99032801Y-93729941D01*
X99207902Y-93467884D01*
X99328513Y-93176703D01*
X99390000Y-92867586D01*
X99390000Y-92552414D01*
X99328513Y-92243297D01*
X99207902Y-91952116D01*
X99032801Y-91690059D01*
X98809941Y-91467199D01*
X98769235Y-91440000D01*
X98809941Y-91412801D01*
X99032801Y-91189941D01*
X99207902Y-90927884D01*
X99328513Y-90636703D01*
X99390000Y-90327586D01*
X99390000Y-90012414D01*
X99328513Y-89703297D01*
X99207902Y-89412116D01*
X99032801Y-89150059D01*
X98809941Y-88927199D01*
X98769235Y-88900000D01*
X98809941Y-88872801D01*
X99032801Y-88649941D01*
X99207902Y-88387884D01*
X99328513Y-88096703D01*
X99390000Y-87787586D01*
X99390000Y-87472414D01*
X99328513Y-87163297D01*
X99207902Y-86872116D01*
X99032801Y-86610059D01*
X98809941Y-86387199D01*
X98684681Y-86303503D01*
X98720847Y-86200452D01*
X97790000Y-85269605D01*
X97775858Y-85283748D01*
X97596253Y-85104143D01*
X97610395Y-85090000D01*
X97969605Y-85090000D01*
X98900452Y-86020847D01*
X99161275Y-85929309D01*
X99298668Y-85645659D01*
X99378083Y-85340656D01*
X99396470Y-85026020D01*
X99353120Y-84713843D01*
X99249700Y-84416121D01*
X99161275Y-84250691D01*
X98900452Y-84159153D01*
X97969605Y-85090000D01*
X97610395Y-85090000D01*
X97596253Y-85075858D01*
X97775858Y-84896253D01*
X97790000Y-84910395D01*
X98720847Y-83979548D01*
X98684681Y-83876497D01*
X98809941Y-83792801D01*
X99032801Y-83569941D01*
X99207902Y-83307884D01*
X99328513Y-83016703D01*
X99390000Y-82707586D01*
X99390000Y-82392414D01*
X99328513Y-82083297D01*
X99207902Y-81792116D01*
X99032801Y-81530059D01*
X98809941Y-81307199D01*
X98769235Y-81280000D01*
X98809941Y-81252801D01*
X99032801Y-81029941D01*
X99207902Y-80767884D01*
X99328513Y-80476703D01*
X99390000Y-80167586D01*
X99390000Y-79852414D01*
X99328513Y-79543297D01*
X99207902Y-79252116D01*
X99032801Y-78990059D01*
X98809941Y-78767199D01*
X98769235Y-78740000D01*
X98809941Y-78712801D01*
X99032801Y-78489941D01*
X99207902Y-78227884D01*
X99328513Y-77936703D01*
X99390000Y-77627586D01*
X99390000Y-77312414D01*
X99328513Y-77003297D01*
X99207902Y-76712116D01*
X99032801Y-76450059D01*
X98809941Y-76227199D01*
X98769235Y-76200000D01*
X98809941Y-76172801D01*
X99032801Y-75949941D01*
X99207902Y-75687884D01*
X99328513Y-75396703D01*
X99390000Y-75087586D01*
X99390000Y-74772414D01*
X99328513Y-74463297D01*
X99207902Y-74172116D01*
X99032801Y-73910059D01*
X98809941Y-73687199D01*
X98769235Y-73660000D01*
X98809941Y-73632801D01*
X99032801Y-73409941D01*
X99207902Y-73147884D01*
X99328513Y-72856703D01*
X99390000Y-72547586D01*
X99390000Y-72232414D01*
X99328513Y-71923297D01*
X99246376Y-71725000D01*
X103984509Y-71725000D01*
X103990001Y-71780762D01*
X103990000Y-76344248D01*
X103984509Y-76400000D01*
X103990000Y-76455751D01*
X104006423Y-76622498D01*
X104071324Y-76836446D01*
X104176716Y-77033623D01*
X104318551Y-77206449D01*
X104361865Y-77241996D01*
X111965001Y-84845133D01*
X111965000Y-88879594D01*
X111957908Y-88951601D01*
X111963400Y-89007362D01*
X111963399Y-96720745D01*
X111957908Y-96776497D01*
X111963399Y-96832248D01*
X111965000Y-96848504D01*
X111965001Y-101680752D01*
X111981424Y-101847499D01*
X112046325Y-102061447D01*
X112151717Y-102258623D01*
X112293552Y-102431449D01*
X112466378Y-102573284D01*
X112663554Y-102678676D01*
X112877502Y-102743577D01*
X113100000Y-102765491D01*
X113322499Y-102743577D01*
X113536447Y-102678676D01*
X113715000Y-102583238D01*
X113715000Y-103305751D01*
X113731423Y-103472498D01*
X113796324Y-103686446D01*
X113901716Y-103883623D01*
X114043551Y-104056449D01*
X114216377Y-104198284D01*
X114413553Y-104303676D01*
X114627501Y-104368577D01*
X114850000Y-104390491D01*
X115072498Y-104368577D01*
X115286446Y-104303676D01*
X115483623Y-104198284D01*
X115656449Y-104056449D01*
X115798284Y-103883623D01*
X115903676Y-103686447D01*
X115968577Y-103472499D01*
X115985000Y-103305752D01*
X115985000Y-101379872D01*
X117145000Y-101379872D01*
X117145000Y-101820128D01*
X117230890Y-102251925D01*
X117399369Y-102658669D01*
X117643962Y-103024729D01*
X117955271Y-103336038D01*
X118321331Y-103580631D01*
X118728075Y-103749110D01*
X119159872Y-103835000D01*
X119600128Y-103835000D01*
X120031925Y-103749110D01*
X120438669Y-103580631D01*
X120804729Y-103336038D01*
X121116038Y-103024729D01*
X121360631Y-102658669D01*
X121529110Y-102251925D01*
X121615000Y-101820128D01*
X121615000Y-101379872D01*
X121529110Y-100948075D01*
X121360631Y-100541331D01*
X121116038Y-100175271D01*
X120804729Y-99863962D01*
X120438669Y-99619369D01*
X120031925Y-99450890D01*
X119600128Y-99365000D01*
X119159872Y-99365000D01*
X118728075Y-99450890D01*
X118321331Y-99619369D01*
X117955271Y-99863962D01*
X117643962Y-100175271D01*
X117399369Y-100541331D01*
X117230890Y-100948075D01*
X117145000Y-101379872D01*
X115985000Y-101379872D01*
X115985000Y-98263354D01*
X116075518Y-98290812D01*
X116200000Y-98303072D01*
X117900000Y-98303072D01*
X118024482Y-98290812D01*
X118144180Y-98254502D01*
X118254494Y-98195537D01*
X118351185Y-98116185D01*
X118430537Y-98019494D01*
X118489502Y-97909180D01*
X118525812Y-97789482D01*
X118538072Y-97665000D01*
X118538072Y-95965000D01*
X118525812Y-95840518D01*
X118489502Y-95720820D01*
X118430537Y-95610506D01*
X118351185Y-95513815D01*
X118254494Y-95434463D01*
X118144180Y-95375498D01*
X118071620Y-95353487D01*
X118111127Y-95313980D01*
X119043530Y-95313980D01*
X119086880Y-95626157D01*
X119190300Y-95923879D01*
X119278725Y-96089309D01*
X119539548Y-96180847D01*
X120470395Y-95250000D01*
X119539548Y-94319153D01*
X119278725Y-94410691D01*
X119141332Y-94694341D01*
X119061917Y-94999344D01*
X119043530Y-95313980D01*
X118111127Y-95313980D01*
X118203475Y-95221632D01*
X118365990Y-94978411D01*
X118477932Y-94708158D01*
X118535000Y-94421260D01*
X118535000Y-94128740D01*
X118477932Y-93841842D01*
X118365990Y-93571589D01*
X118203475Y-93328368D01*
X117996632Y-93121525D01*
X117822240Y-93005000D01*
X117996632Y-92888475D01*
X118203475Y-92681632D01*
X118365990Y-92438411D01*
X118477932Y-92168158D01*
X118535000Y-91881260D01*
X118535000Y-91588740D01*
X118477932Y-91301842D01*
X118365990Y-91031589D01*
X118203475Y-90788368D01*
X117996632Y-90581525D01*
X117753411Y-90419010D01*
X117483158Y-90307068D01*
X117196260Y-90250000D01*
X116903740Y-90250000D01*
X116616842Y-90307068D01*
X116346589Y-90419010D01*
X116103368Y-90581525D01*
X115985000Y-90699893D01*
X115985000Y-77533980D01*
X119043530Y-77533980D01*
X119086880Y-77846157D01*
X119190300Y-78143879D01*
X119278725Y-78309309D01*
X119539548Y-78400847D01*
X120470395Y-77470000D01*
X119539548Y-76539153D01*
X119278725Y-76630691D01*
X119141332Y-76914341D01*
X119061917Y-77219344D01*
X119043530Y-77533980D01*
X115985000Y-77533980D01*
X115985000Y-73605751D01*
X115990491Y-73549999D01*
X115968577Y-73327501D01*
X115903676Y-73113553D01*
X115798284Y-72916377D01*
X115656449Y-72743551D01*
X115613141Y-72708009D01*
X107900643Y-64995512D01*
X107771122Y-64889217D01*
X107573946Y-64783824D01*
X107359998Y-64718923D01*
X107137500Y-64697009D01*
X106915002Y-64718923D01*
X106701054Y-64783824D01*
X106503878Y-64889217D01*
X106331052Y-65031052D01*
X106189217Y-65203878D01*
X106083824Y-65401054D01*
X106018923Y-65615002D01*
X105997009Y-65837500D01*
X106018923Y-66059998D01*
X106083824Y-66273946D01*
X106189217Y-66471122D01*
X106295512Y-66600643D01*
X113715001Y-74020133D01*
X113715001Y-83384869D01*
X106260000Y-75929869D01*
X106260000Y-71780752D01*
X106265491Y-71725000D01*
X106243577Y-71502501D01*
X106178676Y-71288553D01*
X106073284Y-71091377D01*
X105931449Y-70918551D01*
X105758623Y-70776716D01*
X105561447Y-70671324D01*
X105347499Y-70606423D01*
X105180752Y-70590000D01*
X105125000Y-70584509D01*
X105069249Y-70590000D01*
X105069248Y-70590000D01*
X104902501Y-70606423D01*
X104688553Y-70671324D01*
X104491377Y-70776716D01*
X104318551Y-70918551D01*
X104176716Y-71091377D01*
X104071324Y-71288553D01*
X104006423Y-71502501D01*
X103984509Y-71725000D01*
X99246376Y-71725000D01*
X99207902Y-71632116D01*
X99032801Y-71370059D01*
X98809941Y-71147199D01*
X98769235Y-71120000D01*
X98809941Y-71092801D01*
X99032801Y-70869941D01*
X99207902Y-70607884D01*
X99328513Y-70316703D01*
X99390000Y-70007586D01*
X99390000Y-69692414D01*
X99328513Y-69383297D01*
X99207902Y-69092116D01*
X99032801Y-68830059D01*
X98809941Y-68607199D01*
X98769235Y-68580000D01*
X98809941Y-68552801D01*
X99032801Y-68329941D01*
X99207902Y-68067884D01*
X99328513Y-67776703D01*
X99390000Y-67467586D01*
X99390000Y-67152414D01*
X99328513Y-66843297D01*
X99207902Y-66552116D01*
X99032801Y-66290059D01*
X98809941Y-66067199D01*
X98769235Y-66040000D01*
X98809941Y-66012801D01*
X99032801Y-65789941D01*
X99207902Y-65527884D01*
X99328513Y-65236703D01*
X99390000Y-64927586D01*
X99390000Y-64612414D01*
X99328513Y-64303297D01*
X99207902Y-64012116D01*
X99040911Y-63762196D01*
X99109494Y-63725537D01*
X99206185Y-63646185D01*
X99285537Y-63549494D01*
X99344502Y-63439180D01*
X99380812Y-63319482D01*
X99393072Y-63195000D01*
X99393072Y-61328300D01*
X119046928Y-61328300D01*
X119046928Y-63195000D01*
M02*
