M48
; DRILL file {KiCad 5.1.5+dfsg1-2build2} date Do 04 Mai 2023 15:53:17
; FORMAT={-:-/ absolute / inch / decimal}
; #@! TF.CreationDate,2023-05-04T15:53:17+02:00
; #@! TF.GenerationSoftware,Kicad,Pcbnew,5.1.5+dfsg1-2build2
; #@! TF.FileFunction,Plated,1,2,PTH
FMAT,2
INCH
T1C0.0079
T2C0.0157
T3C0.0197
T4C0.0244
T5C0.0276
T6C0.0315
T7C0.0433
T8C0.0984
%
G90
G05
T1
X5.0413Y-2.1762
X5.0413Y-2.2156
X5.0413Y-2.2549
X5.0925Y-2.1762
X5.0925Y-2.2156
X5.0925Y-2.2549
T2
X3.6492Y-2.3657
X3.6547Y-2.4256
X3.6622Y-2.3134
X3.6622Y-2.4862
X3.6929Y-2.5283
X3.7228Y-2.2866
X3.7244Y-2.9028
X3.7256Y-2.5732
X3.7425Y-2.8504
X3.7484Y-2.4634
X3.7618Y-2.9618
X3.7713Y-2.6343
X3.7732Y-2.574
X3.7732Y-2.7004
X3.778Y-2.2874
X3.7902Y-2.7445
X3.7909Y-2.7937
X3.7921Y-2.4642
X3.7929Y-2.8469
X3.8035Y-2.3531
X3.8169Y-2.9598
X3.8339Y-2.2902
X3.8421Y-2.8409
X3.8453Y-2.4622
X3.8591Y-2.6516
X3.863Y-2.5783
X3.8823Y-2.9665
X3.8882Y-2.2906
X3.9374Y-2.9937
X3.9835Y-3.035
X4.0142Y-3.0713
X4.0256Y-2.6193
X4.0323Y-2.5484
X4.0362Y-2.3949
X4.0559Y-3.1169
X4.0783Y-2.5496
X4.0807Y-2.6213
X4.0937Y-3.1591
X4.0969Y-2.3949
X4.0996Y-3.0331
X4.1319Y-2.628
X4.1323Y-3.0661
X4.1354Y-2.5524
X4.1634Y-2.3953
X4.1634Y-3.1756
X4.1717Y-2.6646
X4.1744Y-3.0937
X4.1894Y-2.5827
X4.2134Y-2.7047
X4.2268Y-2.6185
X4.2327Y-3.1756
X4.2354Y-3.0941
X4.2378Y-2.3961
X4.2579Y-2.748
X4.2614Y-2.6555
X4.2996Y-2.6902
X4.2996Y-3.1756
X4.3008Y-2.7913
X4.3083Y-3.0913
X4.3201Y-2.3961
X4.3378Y-2.7287
X4.3421Y-2.8291
X4.3677Y-3.0291
X4.3732Y-3.1764
X4.3752Y-2.7661
X4.3768Y-3.0957
X4.3799Y-2.8661
X4.3921Y-2.3961
X4.411Y-2.8024
X4.4398Y-3.0957
X4.4417Y-3.0303
X4.4476Y-3.1811
X4.4539Y-2.8433
X4.461Y-2.3929
X4.4878Y-3.0909
X4.5146Y-3.1705
X4.5189Y-2.9555
X4.5197Y-3.0102
X4.5524Y-3.0547
X4.5587Y-2.9551
X4.565Y-3.1736
X4.5996Y-3.0854
X4.6114Y-2.9508
X4.6256Y-2.478
X4.6307Y-2.2358
X4.6335Y-2.8941
X4.6346Y-2.6244
X4.6413Y-2.352
X4.6413Y-2.4303
X4.648Y-3.0476
X4.6638Y-2.478
X4.6677Y-2.9319
X4.6728Y-2.7067
X4.6764Y-2.239
X4.7024Y-3.0252
X4.7087Y-2.9724
X4.7106Y-2.8283
X4.7157Y-3.0748
X4.7236Y-2.2366
X4.7335Y-2.872
X4.7378Y-2.7598
X4.7606Y-2.2035
X4.7642Y-2.1508
X4.7665Y-2.9094
X4.7677Y-2.2402
X4.7722Y-3.1313
X4.7811Y-2.7996
X4.7886Y-2.5098
X4.7913Y-2.4594
X4.8091Y-2.1339
X4.8146Y-2.2496
X4.8248Y-2.8476
X4.826Y-2.7437
X4.8449Y-2.0713
X4.8528Y-2.1339
X4.8695Y-2.9691
X4.8697Y-2.7807
X4.8827Y-2.5039
X4.889Y-2.7209
X4.902Y-2.1236
X4.9079Y-2.4228
X4.9287Y-2.7484
X4.9319Y-2.6626
X4.9343Y-2.5787
X4.935Y-2.9559
X4.935Y-2.9949
X4.9461Y-2.4563
X4.9492Y-3.0949
X4.9551Y-3.1756
X4.9618Y-2.8681
X4.978Y-2.6209
X4.9807Y-2.7059
X4.989Y-2.498
X4.9961Y-2.8323
X4.998Y-2.4563
X5.0012Y-3.1803
X5.0189Y-2.5402
X5.0189Y-2.6626
X5.0374Y-2.7906
X5.048Y-2.4571
X5.0508Y-2.0748
X5.0539Y-2.5004
X5.0665Y-2.8945
X5.0685Y-2.6386
X5.0744Y-2.5854
X5.0894Y-2.7173
X5.0909Y-2.763
X5.1016Y-2.4547
X5.1102Y-2.8681
X5.1331Y-2.5106
X5.1453Y-3.148
X5.1535Y-2.8594
X5.1602Y-2.7638
X5.1697Y-2.4787
X5.1705Y-2.5181
X5.2008Y-2.3791
X5.2012Y-2.3429
X5.2106Y-2.5122
X5.2126Y-2.4736
X5.2224Y-2.7591
X5.2283Y-3.0618
X5.2382Y-2.298
X5.2437Y-2.0752
X5.2728Y-2.7567
X5.2823Y-2.6819
X5.2831Y-2.1217
X5.2949Y-2.9087
X5.3264Y-2.0705
X5.3264Y-2.5681
X5.3307Y-2.3563
X5.3358Y-2.4008
X5.3409Y-2.1437
X5.3476Y-2.4937
X5.348Y-2.5327
X5.3657Y-2.4429
X5.3685Y-3.0256
X5.3689Y-2.3354
X5.3878Y-2.9705
X5.4012Y-2.1579
X5.402Y-2.9016
X5.4091Y-3.1232
X5.4472Y-2.9972
X5.4563Y-2.1618
X5.4669Y-2.4091
X5.4929Y-3.1744
X5.5091Y-2.1665
X5.5331Y-2.3972
X5.5413Y-2.2075
X5.5421Y-2.2567
X5.5516Y-2.9654
X5.5764Y-2.9012
X5.5799Y-3.1764
X5.5843Y-3.0224
X5.5921Y-2.3953
X5.5925Y-2.2559
X5.6Y-2.4465
X5.6039Y-2.9661
X5.6374Y-2.2142
X5.6382Y-2.2571
X5.6488Y-3.1819
X5.6492Y-2.1677
X5.6602Y-2.3949
X5.6957Y-2.165
X5.7012Y-2.5402
X5.702Y-2.5862
X5.7039Y-2.485
X5.7051Y-2.4362
X5.7189Y-2.9831
X5.7244Y-3.1791
X5.7295Y-2.3953
X5.7374Y-3.039
X5.7461Y-3.1157
X5.7496Y-2.1646
X5.75Y-2.9016
X5.7591Y-2.5988
X5.7866Y-2.3961
X5.7909Y-2.7677
X5.7957Y-2.828
X5.8028Y-2.1626
X5.8028Y-2.6323
X5.8083Y-2.5854
X5.8169Y-3.0437
X5.8189Y-2.9732
X5.8406Y-2.5689
X5.8409Y-2.7972
X5.8488Y-2.1709
X5.8969Y-2.1819
X5.911Y-2.2984
X5.9413Y-2.1504
X5.9437Y-2.7173
X5.9728Y-2.7559
X5.9734Y-2.8589
X5.9752Y-2.3598
X5.9795Y-2.7957
X5.9811Y-2.1079
X5.9984Y-2.5295
X6.0197Y-2.1051
X6.0244Y-2.7571
X6.0535Y-2.5295
X6.0581Y-3.0197
X6.072Y-2.1094
X6.0795Y-2.365
X6.1083Y-2.1394
X6.1094Y-2.7543
X6.1173Y-2.5291
X6.1224Y-2.3209
X6.1244Y-2.3646
X6.128Y-2.998
X6.1441Y-2.1756
X6.163Y-2.213
X6.1677Y-2.7457
X6.1681Y-2.2606
X6.1713Y-2.3146
X6.1728Y-2.3563
X6.1807Y-2.5283
X6.1898Y-2.8587
X6.2067Y-2.7669
X6.2335Y-2.3705
X6.2339Y-2.8157
X6.2406Y-2.6606
X6.2437Y-2.6205
X6.2559Y-2.4953
X6.2669Y-2.7831
X6.2724Y-2.4098
X6.2768Y-2.8421
X6.2913Y-2.8992
X6.2988Y-2.4622
X6.3402Y-2.9299
X6.3465Y-2.4098
X6.398Y-2.9138
X6.3988Y-2.4606
X6.4031Y-2.8626
X6.4173Y-2.8165
X6.435Y-2.7685
X6.4366Y-2.4961
X6.4606Y-2.5693
X6.463Y-2.6244
X6.4713Y-2.6969
X6.474Y-2.7524
T3
X6.3435Y-3.0709
X6.3651Y-3.0187
X6.3651Y-3.1231
X6.4173Y-2.997
X6.4173Y-3.1447
X6.4695Y-3.0187
X6.4695Y-3.1231
X6.4911Y-3.0709
X6.3435Y-2.1654
X6.3651Y-2.1132
X6.3651Y-2.2176
X6.4173Y-2.0915
X6.4173Y-2.2392
X6.4695Y-2.1132
X6.4695Y-2.2176
X6.4911Y-2.1654
X3.5482Y-2.1654
X3.5698Y-2.1132
X3.5698Y-2.2176
X3.622Y-2.0915
X3.622Y-2.2392
X3.6742Y-2.1132
X3.6742Y-2.2176
X3.6959Y-2.1654
X3.5482Y-3.0709
X3.5698Y-3.0187
X3.5698Y-3.1231
X3.622Y-2.997
X3.622Y-3.1447
X3.6742Y-3.0187
X3.6742Y-3.1231
X3.6959Y-3.0709
T5
X5.9541Y-2.9774
X6.1817Y-2.9774
T6
X6.3445Y-2.5638
X6.3445Y-2.7559
T7
X5.4988Y-3.0886
X5.6547Y-3.0886
T8
X6.4173Y-2.1654
X3.622Y-3.0709
X6.4173Y-3.0709
X3.622Y-2.1654
T4
G00X5.8976Y-2.9374
M15
G01X5.8976Y-2.978
M16
G05
G00X5.8976Y-3.1091
M15
G01X5.8976Y-3.137
M16
G05
G00X6.2382Y-2.9374
M15
G01X6.2382Y-2.978
M16
G05
G00X6.2382Y-3.1091
M15
G01X6.2382Y-3.137
M16
G05
T0
M30
